<?xml version="1.0" encoding="UTF-8" standalone="no"?>
<!DOCTYPE svg PUBLIC "-//W3C//DTD SVG 1.1//EN" "http://www.w3.org/Graphics/SVG/1.1/DTD/svg11.dtd">
<svg width="100%" height="100%" viewBox="0 0 1000 1000" version="1.1" xmlns="http://www.w3.org/2000/svg" xmlns:xlink="http://www.w3.org/1999/xlink" xml:space="preserve" xmlns:serif="http://www.serif.com/" style="fill-rule:evenodd;clip-rule:evenodd;stroke-linejoin:round;stroke-miterlimit:2;">
    <path d="M439.858,1000C444.168,990.461 451.06,981.771 458.342,974.433C466.175,966.539 475.131,959.789 484.925,954.511C492.881,950.224 503.741,945.523 512.415,950.639C515.355,952.372 517.494,954.909 519.03,957.859C529.765,954.19 540.62,955.066 545.61,967.862C549.669,978.275 548.575,989.588 544.749,1000L537.286,1000C540.474,994.274 542.655,988.076 542.69,981.878C542.721,976.77 540.587,971.866 535.824,969.541C531.594,967.475 526.825,967.864 522.251,969.225C522.55,971.759 522.638,974.268 522.597,976.59C522.457,984.689 520.704,992.644 517.399,1000L494.66,1000C493.458,999.869 492.236,999.824 491.012,999.863C491.011,999.908 491.011,999.954 491.011,1000L460.641,1000C461.493,998.33 462.465,996.772 463.509,995.383C468.846,988.287 477.375,983.342 486.325,983.001C488.368,980.239 490.582,977.609 492.978,975.117C481.817,972.954 469.795,979.951 462.671,988.542C460.081,991.666 457.386,995.762 455.662,1000L449.074,1000C449.123,999.717 449.175,999.434 449.23,999.152C449.035,999.431 448.841,999.714 448.649,1000L439.858,1000ZM502.423,979.575C501.102,980.542 499.814,981.552 498.562,982.601C501.195,983.27 503.72,984.965 505.549,987.63C506.581,989.131 507.369,990.788 507.946,992.547C508.455,987.915 506.96,983.293 502.423,979.575ZM516.887,971.236C515.313,971.933 513.803,972.681 512.395,973.406C511.438,973.899 510.493,974.413 509.559,974.946C512.275,979.83 513.552,985.684 513.544,991.561C515.906,986.423 517.301,980.901 517.294,975.318C517.293,973.918 517.159,972.545 516.887,971.236ZM510.092,961.894C508.837,961.31 507.411,960.924 505.807,960.78C501.449,960.389 497.207,961.452 493.173,963.12C494.574,963.399 495.98,963.794 497.388,964.314C499.2,964.984 500.849,965.848 502.34,966.874C504.711,965.132 507.333,963.423 510.092,961.894ZM1000,774.176L1000,787.257C998.619,787.44 997.257,787.685 995.934,787.963C972.219,792.949 950.826,810.378 940.563,832.236L940.493,832.386C945.708,828.903 951.956,827.054 958.011,825.66C959.789,825.251 961.571,824.857 963.357,824.475C972.728,819.206 982.749,814.828 992.362,811.056C994.875,810.07 997.423,809.083 1000,808.139L1000,830.252C998.677,830.894 997.372,831.583 996.085,832.306C997.37,832.739 998.677,833.101 1000,833.39L1000,845.654C994.367,844.554 988.968,842.281 984.286,838.83C982.989,837.874 982.18,835.671 981.982,833.366C976.913,834.37 971.844,835.378 966.78,836.405C960.086,840.164 952.973,844.078 947.118,849.086C944.928,850.959 942.113,853.618 942.876,855.734C943.887,858.54 947.356,860.869 949.786,862.309C957.103,866.643 966.199,867.438 974.835,866.38C975.13,863.763 976.157,861.616 977.749,862.384C979.687,863.319 981.681,864.071 983.706,864.642C984.118,864.532 984.526,864.419 984.931,864.302C988.371,863.308 991.721,861.994 994.925,860.385C995.22,859.598 995.612,858.967 996.083,858.611C997.334,857.664 998.645,856.859 1000,856.194L1000,877.026C995.118,877.755 990.101,877.58 985.236,876.469C972.098,880.212 955.758,880.506 944.838,871.419C937.139,865.012 935.344,855.062 938.486,846.557C936.636,848.303 935.238,850.385 934.554,852.884C932.223,870.802 936.733,889.397 947.24,904.535C951.04,910.01 955.56,915.762 961.454,919.08C968.153,922.85 975.426,921.318 982.419,919.286C988.43,917.54 994.308,915.32 1000,912.692L1000,924.659C995.897,926.492 991.702,928.121 987.432,929.533C979.625,932.114 971.085,934.864 963.044,931.706C956.063,928.963 950.592,922.475 946.256,916.601C936.965,904.016 931.196,888.871 929.271,873.374C925.444,842.563 936.606,811.617 960.868,791.849C971.724,783.004 985.832,775.722 1000,774.176ZM0,774.176C0.656,774.104 1.313,774.044 1.97,773.998C9.65,773.453 17.086,775.549 22.164,781.583C27.004,787.334 29.143,795.122 30.249,802.41C30.3,802.745 30.348,803.08 30.394,803.419C33.279,804.396 35.897,806.099 37.983,808.74C38.382,809.245 38.749,809.773 39.085,810.323C53.315,809.782 66.514,815.277 70.385,830.088C74.379,845.378 67.752,860.988 59.592,873.645C45.216,895.942 24.2,913.85 0,924.659L0,912.692C5.682,910.068 11.18,907.037 16.438,903.663C27.359,896.655 37.354,888.105 45.776,878.223C53.654,868.978 61.699,858.068 65.047,846.232C66.866,839.801 66.59,833.691 61.493,828.818C57.43,824.931 51.778,823.327 46.312,822.854C44.804,822.723 43.293,822.662 41.781,822.659C41.689,823.713 41.522,824.757 41.28,825.774C42.441,827.636 43.36,829.68 43.984,831.89C47.147,843.097 43.67,855.265 34.943,862.981C29.695,867.619 23.229,869.815 16.464,870.572C11.499,873.984 5.847,876.154 0,877.026L0,856.194C1.341,855.536 2.725,855.016 4.137,854.633C7.408,852.136 10.407,849.29 13.048,846.137C8.704,846.652 4.285,846.492 0,845.655L0,833.39C7.165,834.961 14.767,834.413 21.745,831.606C22.457,829.841 23.078,828.037 23.599,826.206C22.209,825.932 20.799,825.759 19.394,825.683C15.784,826.469 12.202,827.298 8.667,828.024C6.368,828.496 4.069,828.963 1.771,829.426C1.177,829.691 0.586,829.967 0,830.252L0,808.139C5.746,806.034 11.627,804.145 17.545,802.964C19.753,802.523 22.011,802.297 24.224,802.362C22.851,797.049 20.207,792.063 15.213,789.301C10.607,786.754 5.177,786.571 0,787.257L0,774.176ZM37.239,833.876C33.868,838.033 28.987,841.201 24.249,843.196L24.22,843.208C22.236,847.336 19.839,851.246 17.055,854.859C18.194,855.201 19.322,855.628 20.432,856.141C21.248,856.518 21.802,857.303 22.138,858.296C24.151,857.695 26.107,856.899 27.981,855.873C35.126,851.961 43.739,842.437 37.636,834.381C37.506,834.21 37.374,834.041 37.239,833.876ZM232.4,752.256C237.064,749.109 242.041,746.399 247.133,743.967C260.64,737.513 274.734,732.312 289.188,728.421C301.564,725.089 316.537,720.318 328.951,725.705C338.963,730.049 345.49,740.292 348.104,750.559C354.575,775.982 339.515,801.147 319.982,816.374C301.216,831.003 276.507,838.339 252.805,835.874C236.117,834.139 217.911,827.1 209.053,812.957C202.308,810.181 196.084,806.157 191.804,800.376C185.117,791.345 184.47,778.306 190.721,768.866C197.336,758.88 210.199,754.429 221.688,754.126C223.95,754.066 226.179,754.157 228.37,754.39C229.689,753.639 231.034,752.929 232.4,752.256ZM227.602,817.76C228.681,818.326 229.759,818.849 230.824,819.331C240.804,823.853 251.962,825.515 262.861,825.332C284.896,824.961 306.595,816.516 322.918,801.678C338.931,787.122 355.534,758.189 333.667,741.019C323.309,732.886 310.214,735.725 298.407,738.452C294.444,739.368 290.503,740.381 286.587,741.489C287.386,741.7 288.185,741.939 288.982,742.208C299.585,745.789 307.755,754.551 309.499,765.725C310.999,775.333 308.748,783.334 304.223,789.955C304.569,798.433 301.596,807.005 294.532,813.351C288.544,818.731 278.738,821.187 271.713,817.265C270.079,818.142 268.087,818.559 266.169,818.642C263.087,819.436 259.899,819.823 256.672,819.728C253.162,819.625 249.924,818.948 247.085,817.726C240.606,818.478 234.055,818.561 227.602,817.76ZM229.283,767.019C228.947,767.271 228.613,767.525 228.281,767.782C220.109,774.105 211.863,782.918 211.867,793.916C211.867,795.061 211.729,798.869 209.828,798.916C209.673,798.92 209.529,798.899 209.395,798.856C209.815,800.259 210.377,801.6 211.057,802.881C216.843,805.207 223.029,806.563 228.463,807.135C231.277,807.431 234.101,807.566 236.923,807.558C236.066,805.488 235.513,803.17 235.31,800.614C234.507,790.522 238.641,780.204 245.515,772.324L245.544,772.181L245.59,771.968C240.534,769.414 235,767.713 229.283,767.019ZM244.43,788.264C241.683,792.208 239.425,796.947 240.831,800.659C242.012,803.777 244.896,805.685 248.19,806.792L248.392,806.765C246.528,802.92 245.444,798.564 244.938,794.346C244.703,792.391 244.527,790.352 244.43,788.264ZM250.743,780.895C250.411,781.206 250.085,781.523 249.765,781.846C249.661,782.891 249.594,783.932 249.554,784.956C249.285,791.785 250.081,799.614 255.791,804.214C256.235,804.572 256.697,804.903 257.174,805.204C259.34,804.724 261.491,804.177 263.621,803.572C263.533,802.885 263.47,802.194 263.43,801.502C261.872,801.051 260.329,800.275 258.842,799.121C253.477,794.959 250.895,787.849 250.743,780.895ZM289.559,803.437C289.391,803.542 289.222,803.647 289.054,803.751L288.771,803.923L288.838,803.885C289.169,803.691 289.505,803.481 289.843,803.257L289.559,803.437ZM285.321,774.128C285.658,779.243 285.071,784.327 283.641,788.514C282.091,793.05 278.721,797.245 274.599,799.711L274.602,799.727L274.65,799.96C277.542,798.86 280.407,797.628 283.173,796.233C285.081,794.16 286.746,791.875 288.102,789.426C289.99,786.015 291.493,781.932 291.368,777.968C289.496,776.433 287.421,775.142 285.321,774.128ZM212.269,768.09C202.811,770.69 187.441,778.186 193.089,788.547C195.547,793.057 199.462,796.64 204.058,799.421C203.996,799.015 203.94,798.606 203.89,798.192C202.603,787.513 205.846,776.63 212.269,768.09ZM256.406,779.429C255.605,783.475 258.481,787.441 262.363,789.338C263.093,789.695 263.84,789.953 264.594,790.12C264.632,789.98 264.671,789.84 264.71,789.699C262.481,785.869 259.663,782.42 256.406,779.429ZM279.306,772.02C273.779,770.805 268.08,771.421 262.808,773.378C264.566,775.544 266.164,777.853 267.583,780.287C267.938,778.9 268.221,777.498 268.377,776.066C268.561,774.379 269.18,771.067 271.534,771.745C273.742,772.382 273.731,777.487 273.569,779.17C273.249,782.487 272.536,785.652 271.63,788.82L271.634,788.832L271.785,789.243C274.787,787.882 277.368,785.398 278.786,782.475C280.224,779.51 280.306,775.613 279.306,772.02ZM296.407,783.613C296.234,785.062 295.985,786.5 295.661,787.922C295.946,787.667 296.229,787.407 296.508,787.144C296.888,786.785 297.269,786.409 297.649,786.018C297.299,785.186 296.882,784.384 296.407,783.613ZM302.285,780.037C304.079,777.021 305.267,773.682 305.129,770.351C304.902,764.879 300.57,760.185 296.299,757.264C289.76,752.791 282.272,751.439 274.701,751.765C275.522,752.27 276.312,752.878 277.061,753.594C277.211,753.738 277.359,753.884 277.505,754.033C277.648,754.03 277.79,754.028 277.933,754.027C287.376,753.962 292.859,760.43 295.25,768.407C298.374,771.759 300.758,775.753 302.285,780.037ZM253.29,755.997C250.341,756.873 247.392,757.84 244.484,758.919C246.145,759.704 247.759,760.577 249.318,761.531C249.99,760.294 250.742,759.109 251.581,757.988C252.101,757.293 252.673,756.628 253.29,755.997ZM849.395,556.581C853.571,559.211 857.363,563.026 860.614,568.275C878.106,596.512 871.471,637.492 850.594,662.074C829.209,687.255 790.928,698.628 759.678,686.625C726.155,673.75 722.36,632.506 738.018,604.158C746.688,588.461 760.66,576.392 774.932,565.914C783.059,559.946 791.426,554.297 799.968,548.94C807.501,544.216 815.285,538.972 824.084,536.968C838.926,533.586 846.134,544.444 849.395,556.581ZM851.756,572.113C852.68,586.453 850.901,600.835 846.57,614.564C838.245,640.961 819.418,666.361 794.03,678.681C795.575,678.542 797.097,678.357 798.584,678.13C826.952,673.795 852.16,654.792 861.324,627.195C867.113,609.76 865.216,584.394 851.756,572.113ZM774.921,620.342C774.109,621.038 773.305,621.743 772.512,622.458C767.117,627.314 762.224,632.701 757.871,638.508C754.026,643.638 746.496,652.719 748.566,659.572C750.444,665.796 757.754,670.238 763.737,671.649C771.081,673.38 778.974,671.886 785.889,669.191C798.357,664.332 809.798,655.944 818.862,646.169C824.865,639.697 830.093,632.414 834.323,624.592C832.331,626.735 830.085,628.594 827.691,630.053C825.5,631.387 823.185,632.529 820.781,633.483C820.218,635.01 819.45,636.444 818.452,637.73C814.568,642.732 807.802,644.508 801.358,644.447C799.985,645.937 798.389,647.24 796.562,648.29C788.148,653.126 777.859,652.126 769.347,648.149C766.303,646.726 766.796,639.276 768.446,637.129C770.455,634.518 772.764,632.49 775.418,630.989C774.502,629.242 774.536,626.505 774.956,624.223C774.839,622.937 774.825,621.634 774.921,620.342ZM845.515,567.832C840.901,565.548 835.364,564.482 828.824,565.074C813.748,566.439 799.368,574.764 786.735,582.581C773.785,590.595 761.889,600.126 751.005,610.768C749.648,612.095 748.285,608.808 747.862,605.394C739.75,615.657 734.299,627.41 734.651,640.845C734.888,649.913 737.994,657.148 742.918,662.775C739.958,647.15 750.099,631.833 760.072,620.357C771.105,607.663 784.671,597.307 799.989,590.324C811.066,585.275 828.696,579.854 838.029,591.115C841.178,594.913 842.649,599.214 842.835,603.581C845.227,594.962 846.412,586.029 846.164,577.06C846.082,574.1 845.937,570.941 845.515,567.832ZM783.425,639.176C783.342,639.272 783.255,639.362 783.164,639.442L783.479,639.442L783.813,639.438C783.683,639.352 783.553,639.264 783.425,639.176ZM793.873,617.154C791.015,618.646 788.296,620.713 785.901,623.036C790.709,624.437 795.601,625.18 800.852,625.083C801.378,625.073 801.904,625.056 802.43,625.032C802.333,623.797 801.906,622.562 801.053,621.372C799.333,618.971 796.706,617.614 793.873,617.154ZM806.249,615.151C807.381,618.123 807.929,621.384 808.034,624.503C810.644,624.125 813.23,623.561 815.753,622.801C815.3,621.974 814.68,621.177 814.049,620.414C811.667,617.533 809.013,615.872 806.249,615.151ZM821.485,620.678C822.144,620.385 822.797,620.076 823.442,619.751C828.3,617.305 836.435,611.809 837.006,605.758C837.514,600.386 829.108,597.921 825.103,597.554C819.189,597.011 813.073,598.242 807.578,600.392C805.914,601.043 804.266,601.74 802.636,602.48C810.527,602.803 816.978,608.337 819.995,615.706C820.628,617.253 821.136,618.934 821.485,620.678ZM551.385,488.658C554.621,492.98 556.86,498.192 558.262,503.264C564.103,524.404 558.526,547.846 545.104,564.963C531.115,582.803 508.968,593.46 486.149,590.945C462.946,588.386 446.418,571.99 442.3,549.227C437.946,525.157 447.103,501.558 464.116,484.529C472.679,475.957 482.818,468.795 493.722,463.509C504.853,458.113 517.961,454.468 529.983,459.14C542.419,463.971 548.887,475.787 551.385,488.658ZM541.278,480.369C520.69,449.639 470.877,486.264 456.489,507.505C446.927,521.62 442.895,539.717 450.386,555.68C457.709,571.287 474.236,579.314 490.932,579.684C522.697,580.387 554.799,553.743 555.322,520.825C555.404,515.639 554.56,510.274 552.564,505.427C552.416,508.813 552.046,512.091 551.493,515.149C549.252,527.546 543.844,539.452 536.016,549.401C535.341,551.031 534.512,552.599 533.524,554.082C530.212,559.052 525.645,562.344 520.531,564.155C518.879,565.318 517.177,566.409 515.426,567.423C498.284,577.354 464.609,582.862 459.704,556.267C458.227,548.259 460.358,541.147 464.624,535.024C465.687,529.721 468.302,524.968 471.945,520.931C471.918,519.298 472.177,517.778 472.792,517.064C481.212,507.275 490.776,498.526 501.468,491.267C511.801,484.251 525.453,475.746 538.507,479.388C539.467,479.656 540.391,479.985 541.278,480.369ZM465.41,549.03C464.365,551.583 464.669,554.078 467.099,557.069C468.775,559.131 470.945,560.754 473.336,561.943C470.092,558.884 467.537,555.093 466.008,550.845C465.789,550.236 465.59,549.631 465.41,549.03ZM477.127,536.321C474.414,538.36 471.877,540.597 469.652,543.035C469.697,543.226 469.749,543.417 469.809,543.609C470.971,547.33 473.79,550.68 476.793,553.076C480.151,555.755 483.99,557.373 488.013,558.072C483.589,554.507 480.14,549.821 478.429,544.228C477.647,541.673 477.214,539.003 477.127,536.321ZM837.64,552.227C834.129,550.085 829.702,549.655 825.18,550.57C821.121,551.39 817.297,553.057 813.623,555.043C821.843,552.31 830.061,551.029 837.64,552.227ZM511.043,522.393C511.958,526.69 511.977,531.208 511.391,534.149C509.675,542.758 502.938,551.287 493.576,549.75C497.166,551.75 501.101,553.09 504.559,553.682C506.097,553.945 507.652,554.096 509.206,554.131C515.117,550.973 520.389,546.335 524.264,541.079C526.592,531.756 519.538,525.154 511.043,522.393ZM501.363,523.722C499.43,524.382 497.539,525.117 495.727,525.884C493.284,528.416 492.084,532.29 491.633,536.15C495.009,537.36 498.707,536.935 501.656,534.846C503.526,533.522 506.593,530.393 506.141,527.824C505.713,525.382 503.61,523.994 501.363,523.722ZM547.512,497.234C541.431,490.526 532.503,489.314 523.89,491.691C514.334,494.326 505.366,500.296 497.437,506.08C496.675,506.636 495.919,507.199 495.17,507.771C497.858,507.143 500.59,506.746 503.306,506.597C508.811,506.295 514.265,507.127 519.18,509.116C521.678,509.46 524.067,510.331 526.209,512.053C527.846,513.368 529.191,514.971 530.275,516.745C531.625,518.221 532.843,519.859 533.905,521.66C535.941,525.114 537.286,528.989 537.89,532.976C545.016,522.081 549.069,509.479 547.512,497.234ZM486.745,530.197C486.075,530.561 485.406,530.935 484.74,531.319C485.192,531.878 485.766,532.432 486.39,532.955C486.484,532.08 486.6,531.154 486.745,530.197ZM0,405.132C4.938,400.248 10.392,395.895 16.278,392.194C19.718,390.031 24.473,386.988 29.446,384.86C34.119,381.699 39.048,378.966 44.439,377.15C53.928,373.953 65.001,373.733 73.807,379.052C83.005,384.608 87.634,395.343 89.619,405.48C94.075,428.238 85.514,451.082 73.763,470.274C63.761,486.608 47.595,504.96 26.78,505.018C16.108,505.047 7.237,500.331 0,493.445L0,482.272C8.588,491.24 20.103,496.82 32.924,494.174C47.498,491.164 58.873,479.19 67.038,467.457C76.324,454.111 84.451,437.954 85.751,421.526C87.079,404.745 78.496,387.468 60.189,386.245C56.472,385.997 52.89,386.338 49.431,387.124C53.539,392.589 54.261,401.531 54.674,407.511C54.894,410.709 54.9,413.919 54.699,417.117C60.244,419.164 61.859,424.776 61.569,430.65C65.536,433.474 66.331,439.332 66.162,443.843C65.478,461.935 48.485,484.792 28.684,483.252C26.738,483.1 25.001,482.652 23.467,481.962C22.506,482.309 21.519,482.599 20.508,482.829C15.964,483.861 11.314,483.44 7.475,481.504C4.452,480.988 1.754,479.377 0,476.373L0,455.272C0.515,454.002 1.13,452.761 1.833,451.55C3.09,448.884 4.54,446.387 6.02,444.184C9.59,438.869 14.225,434.274 19.598,430.821C21.395,427.894 23.444,425.121 25.739,422.547C21.032,418.849 14.327,419.466 8.255,421.965C5.416,423.132 2.657,424.513 0,426.081L0,405.132ZM1000,405.132L1000,426.081C995.086,428.98 990.517,432.52 986.432,436.538C984.518,439.75 982.526,443.381 982.005,446.94C981.383,451.187 983.823,455.683 985.525,459.49C985.917,460.368 986.319,461.241 986.732,462.109C986.998,462.138 987.262,462.167 987.526,462.195C991.096,462.574 994.683,462.671 998.258,462.497C998.452,460 999.06,457.588 1000,455.273L1000,476.373C999.593,475.676 999.236,474.903 998.939,474.052C997.136,474.158 995.332,474.196 993.536,474.162C994.515,475.61 995.545,477.024 996.632,478.399C997.696,479.745 998.82,481.04 1000,482.272L1000,493.445C994.057,487.79 989.216,480.669 985.389,473.512C982.909,473.156 980.457,472.652 978.052,471.994C967.658,469.15 965.091,459.191 967.889,449.516C970.509,440.45 977.255,432.066 984.061,425.465C986.756,420.887 989.932,416.572 993.111,412.697C995.275,410.057 997.576,407.53 1000,405.132ZM59.213,441.356C58.765,442.503 58.282,443.548 57.793,444.446C53.882,451.615 48.393,457.731 41.914,462.492C41.297,464.109 40.576,465.688 39.751,467.212C39.159,468.304 38.512,469.369 37.81,470.397C38.096,470.294 38.373,470.188 38.639,470.08C45.163,467.424 50.85,462.298 54.87,456.6C57.057,453.502 58.845,450.099 60.01,446.482C60.972,443.492 61.246,441.937 59.213,441.356ZM11.015,453.832C9.31,455.535 7.754,457.376 6.41,459.385C5.95,460.071 5.518,460.741 5.147,461.401C5.086,461.543 5.026,461.686 4.967,461.83L4.957,461.853C6.383,461.649 7.804,461.401 9.218,461.112C9.517,461.051 9.816,460.987 10.113,460.922C10.241,458.496 10.594,456.055 11.015,453.832ZM976.964,447.99C976.222,449.106 975.512,450.242 974.839,451.395C974.042,452.757 971.852,455.733 972.311,457.216C972.702,458.478 975.291,459.467 976.405,459.916C977.438,460.332 978.516,460.669 979.62,460.945C978.099,456.74 977.069,452.416 976.964,447.99ZM20.222,446.51C19.893,446.727 19.564,446.946 19.237,447.168L19.208,447.236C18.311,449.296 17.54,451.41 16.925,453.568C17.832,451.158 18.954,448.796 20.222,446.51ZM53.046,428.807C53.001,429.013 52.954,429.22 52.907,429.425C53.492,429.292 54.08,429.188 54.667,429.12C54.219,428.892 53.662,428.799 53.046,428.807ZM49.298,417.136C49.533,414.692 49.597,412.232 49.475,409.77C49.154,403.284 48.114,394.53 39.781,394.8C34.253,394.979 28.318,397.87 23.143,400.861C21.297,402.231 19.486,403.618 17.706,404.987C17.246,405.34 16.82,405.281 16.448,404.937C14.635,406.113 12.863,407.351 11.137,408.647C11.572,408.527 12.009,408.414 12.448,408.309C21.064,406.241 27.695,409.847 31.771,416.453C33.777,414.798 36.053,413.599 38.332,414.327C40.952,415.164 42.44,417.936 43.273,420.678C45.101,419.304 47.144,417.871 49.298,417.136ZM297.971,212.978C319.05,203.85 344.084,200.551 361.917,217.734C378.137,233.361 382.036,259.576 377.08,280.759C371.168,306.03 350.836,324.669 328.485,336.145C303.696,348.873 272.266,358.179 244.419,352.154C219.099,346.676 199.234,325.992 197.95,299.553C196.503,269.786 224.534,249.807 246.726,235.093C259.922,226.343 279.695,213.979 297.971,212.978ZM255.503,243.109C247.393,248.129 239.59,253.644 232.153,259.617C222.575,267.306 211.419,275.977 206.068,287.346C201.703,296.62 203.703,306.35 208.683,314.969C234.683,359.956 304.158,340.327 338.703,317.423C356.271,305.774 372.068,288.02 373.444,266.086C374.561,248.264 365.786,229.708 349.179,221.978C339.749,217.589 329.631,217.061 319.614,218.847C319.707,218.914 319.798,218.98 319.889,219.047C324.67,222.557 328.012,227.295 330.153,232.592C336.941,235.516 342.596,240.642 345.635,247.963C351.044,260.997 349.029,276.527 341.549,288.302C332.328,302.815 316.87,312.215 300.053,316.654C292.394,323.243 282.181,322.62 272.899,319.558C269.269,319.393 265.698,319.002 262.232,318.388C260.624,318.102 259.74,315.877 259.502,313.434L259.155,313.242C251.061,314.43 242.862,314.812 234.792,314.437C230.94,314.258 231.848,305.978 232.599,303.801C233.744,300.479 235.335,297.448 237.389,294.73C237.122,291.689 237.078,288.625 237.254,285.548C238.199,268.952 245.225,254.829 255.503,243.109ZM303.867,296.533C297.706,300.668 291.072,304.056 284.143,306.735C289.504,306.11 294.822,305.01 299.984,303.433C300.134,303.257 300.28,303.077 300.424,302.895C301.653,301.331 303.423,298.838 303.867,296.533ZM244.059,301.945L243.883,302.103L243.898,302.214L243.915,302.35L244.31,302.349L244.418,302.348C244.297,302.215 244.178,302.08 244.059,301.945ZM260.21,293.4C257.4,294.29 254.658,295.354 252.078,296.641C253.901,297.87 255.795,298.988 257.595,300.079C258.185,300.436 258.783,300.795 259.386,301.151C263.097,300.585 266.787,299.821 270.428,298.867C266.587,297.741 263.056,295.907 260.21,293.4ZM333.181,247.466C333.236,248.99 333.222,250.512 333.143,252.019C332.425,265.741 325.575,277.686 315.765,287.017C313.673,289.006 311.494,290.881 309.238,292.643C309.509,295.111 309.422,297.635 309.012,300.115C316.668,296.795 323.793,292.333 329.973,286.731C337.645,279.775 345.827,268.348 341.751,257.489C340.093,253.073 336.991,249.784 333.181,247.466ZM659.916,183.704C660.833,182.362 661.785,181.045 662.774,179.753C673.467,165.79 687.752,154.529 704.684,149.298C721.136,144.215 743.646,144.765 755.225,159.452C767.555,175.092 764.453,198.998 758.897,216.602C752.949,235.44 742.997,255.083 730.374,270.362C718.159,285.147 701.268,294.727 681.684,293.536C663.294,292.418 647.019,282.656 637.708,266.73C621.656,239.272 629.066,196.091 659.916,183.704ZM254.994,269.209C251.496,271.276 248.387,273.887 246.035,277.299C243.427,281.079 242.233,284.593 243.887,288.288C246.906,286.009 250.264,284.194 253.803,282.728C253.187,279.983 253.101,276.932 253.672,273.587C253.94,272.01 254.389,270.554 254.994,269.209ZM683.787,195.151C676.495,191.892 667.936,193.314 660.393,196.855C657.63,201.062 655.208,205.447 653.17,209.915C652.243,211.947 650.994,211.702 649.941,209.994C649.011,208.485 648.902,206.092 649.299,204.144C648.537,204.817 647.814,205.504 647.137,206.197C637.891,215.658 632.909,228.767 635.19,241.946C639.736,268.225 665.345,284.421 690.615,281.74C685.223,281.6 679.876,280.518 674.937,278.455C659.569,272.036 650.379,255.978 648.622,239.911C646.891,224.07 651.563,203.302 668.149,196.891C672.617,195.165 676.459,195.181 679.737,196.403C681.009,195.95 682.302,195.547 683.609,195.197L683.787,195.151ZM259.643,277L259.623,277.019C259.404,277.631 259.227,278.042 259.092,278.251L259.173,278.412C259.47,279.131 259.892,279.8 260.394,280.421L260.776,280.31L260.932,280.265L260.848,280.084C260.378,279.064 259.977,278.034 259.643,277ZM300.4,266.344C293.166,262.095 282.577,264.299 275.416,267.33C272.086,268.739 268.396,270.264 265.169,272.264C266.351,274.508 268.011,276.489 269.983,278.164C271.694,277.843 273.394,277.56 275.069,277.304C283.003,276.087 293.124,274.449 300.338,278.109C302.339,274.874 302.948,271.061 300.857,267.142C300.709,266.866 300.557,266.6 300.4,266.344ZM327.399,244.816C323.224,243.422 318.711,242.867 314.531,243.009C307.155,243.258 300.137,245.461 293.381,248.344C295.722,249.058 297.922,250.242 299.877,252.042C300.906,252.989 301.83,254.04 302.652,255.174C308.016,258.945 311.572,265.079 311.808,272.602C311.86,274.276 311.745,275.895 311.478,277.448C311.942,277.041 312.403,276.627 312.86,276.21C321.283,268.496 329.664,256.782 327.399,244.816ZM700.02,207.221C700.294,208.929 700.496,210.637 700.643,212.319L700.667,212.602C700.823,212.986 700.966,213.38 701.095,213.784C701.597,215.359 701.898,218.571 700.977,220.326C700.912,236.205 696.413,254.813 680.115,259.962C673.172,262.157 667.251,260.519 662.648,256.803C670.597,266.009 682.495,270.416 694.666,269.614C706.422,268.841 722.156,262.059 726.611,250.086C728.832,244.117 724.54,234.893 722.185,229.216C719.799,223.465 716.725,217.745 712.115,213.452C708.551,210.134 704.406,208.146 700.02,207.221ZM316.111,229.684C310.7,226.775 304.11,225.716 297.834,226.171L297.4,226.204C290.396,229.482 283.783,233.392 277.886,237.298C270.676,242.072 263.344,248.142 257.214,255.169C258.18,254.703 259.169,254.27 260.179,253.871C261.456,253.366 262.752,252.887 264.064,252.433C265.972,249.973 268.321,247.785 271.056,245.982C277.454,241.764 284.75,238.473 291.787,235.482C298.878,232.469 306.445,229.973 314.204,229.705C314.84,229.683 315.477,229.676 316.111,229.684ZM731.907,254.471L732.281,253.938C740.995,241.454 748.233,227.294 753.349,212.963C758.216,199.327 762.491,180.172 751.265,168.418C741.553,158.251 724.869,157.32 711.874,159.805C697.417,162.57 684.373,170.282 673.764,180.608C681.081,180.403 688.055,182.887 692.82,188.961C694.039,190.515 695.081,192.191 695.969,193.951C701.73,194.374 707.292,196.302 711.973,200.121C718.212,205.214 722.449,212.308 725.544,219.651C729.229,228.393 732.839,238.534 732.734,248.103C732.71,250.309 732.423,252.433 731.907,254.471ZM679.99,209.239C676.76,210.452 673.677,212.03 670.882,213.862C660.632,220.58 652.082,233.014 662.091,243.793C668.549,250.75 676.838,250.152 683.46,245.88C676.999,242.892 675.403,230.196 675.362,224.47C675.324,219.237 676.563,213.26 679.99,209.239ZM687.648,217.605C686.271,217.968 685.029,218.528 684.136,219.211C681.337,221.351 680.545,224.521 681.291,227.836C681.981,230.902 683.389,235.161 687.306,234.105C692.078,232.819 690.65,228.097 689.772,224.494C689.203,222.161 688.582,219.819 687.648,217.605ZM694.306,217.648C694.832,219.661 695.25,221.663 695.567,223.58C695.728,221.882 695.804,220.135 695.779,218.377C695.334,218.075 694.838,217.834 694.306,217.648ZM1000,18.444L1000,31.094C998.514,31.853 997.056,32.659 995.636,33.496C988.861,37.488 979.633,43.377 974.542,50.894C981.951,44.753 990.503,40.131 1000,39.37L1000,58.107C982.715,67.665 954.457,101.998 979.901,114.731C986.623,118.095 993.542,118.402 1000,116.602L1000,127.44C993.732,128.916 987.119,128.704 980.755,126.233C964.882,120.069 962.533,100.867 966.857,86.397C970.196,75.222 977.297,63.729 986.474,55.361C984.442,56.392 982.495,57.572 980.663,58.865C969.888,66.471 961.392,77.648 954.242,88.6C946.953,99.764 940.617,113.096 941.227,126.75C941.731,138.038 946.946,149.462 956.129,156.292C967.014,164.389 981.744,165.045 994.224,160.502C996.207,159.78 998.132,158.945 1000,158.009L1000,169.399C995.529,171.543 990.764,173.107 985.703,173.931C969.023,176.649 952.956,170.059 944.066,155.533C924.635,123.779 942.252,86.082 964.252,61.017C964.97,60.199 965.705,59.385 966.455,58.581C966.804,51.82 969.109,45.383 973.155,39.822C979.522,31.072 989.364,23.36 1000,18.444ZM0,18.603C5.761,15.903 11.767,14.021 17.586,13.24C34.392,10.983 49.566,19.765 54.611,36.111C60.043,53.713 56.88,74.881 52.514,92.371C47.886,110.912 39.947,128.904 28.695,144.396C21.136,154.802 11.556,164.115 0,169.561L0,158.178C22.371,147.151 36.617,121.503 44.437,98.981C49.116,85.507 51.84,71.099 51.997,56.818C52.146,43.23 47.632,31.073 33.851,26.5C22.369,22.69 10.411,25.886 0,31.269L0,18.603ZM0,39.398C2.621,39.162 5.316,39.219 8.079,39.619C12.419,40.247 16.182,41.694 19.406,43.766C26.959,44.997 33.836,49.035 37.736,56.402C42.029,64.51 41.912,74.251 40.713,83.102C39.768,90.071 39.128,99.694 31.925,103.201C30.842,103.728 29.693,104.185 28.498,104.58C26.5,108.364 24.043,111.891 21.134,115.031C15.454,121.161 7.999,125.718 0,127.519L0,116.695C6.159,115.053 11.914,111.489 16.697,106.82C14.192,107.056 11.73,107.185 9.447,107.283C6.343,107.415 3.145,107.387 0,107.016L0,96.142L0.002,96.154C4.201,96.73 8.536,96.601 12.685,96.207C16.531,95.842 21.466,95.552 25.762,94.443C27.571,90.839 28.852,87.058 29.476,83.286C31.247,72.578 27.81,60.746 18.499,54.886C13.295,54.197 7.832,54.843 3.394,56.634C2.325,57.065 1.186,57.625 0,58.298L0,39.398ZM1000,107.054C999.735,107.026 999.471,106.994 999.207,106.96C997.741,112.184 994.524,118.558 989.861,115.72C984.503,112.458 982.488,104.755 982.23,98.798C979.179,95.389 977.253,91.07 977.304,86.331C977.395,77.949 983.713,73.635 990.422,79.693C991.068,79.629 991.644,80.289 992.089,81.331C995.882,85.383 998.619,90.662 999.662,96.154C999.774,96.169 999.887,96.184 1000,96.199L1000,107.054ZM989.986,92.73C989.925,92.791 989.865,92.853 989.805,92.914L989.692,93.033C990.132,93.271 990.58,93.495 991.033,93.705C990.739,93.327 990.433,92.958 990.115,92.604L989.986,92.73ZM32.321,61.433C33.672,65.458 34.48,69.764 34.789,74.109C35.153,79.224 34.82,84.444 33.803,89.533C35.063,87.345 35.337,84.636 35.739,81.967C36.337,78 37.016,73.751 36.337,69.752C35.766,66.39 34.333,63.631 32.321,61.433ZM544.749,0C542.184,6.983 538.391,13.559 534.102,19.189C522.481,34.439 505.53,45.358 486.835,49.615C468.239,53.849 443.499,52.787 437.04,31.263C433.756,20.315 435.467,9.717 439.858,0L448.649,0C440.862,11.569 435.391,28.187 450.967,36.159C459.072,40.308 469.368,40.706 479.013,39.332C477.69,38.57 476.408,37.637 475.184,36.521C473.954,35.401 472.852,34.175 471.875,32.865C471.496,32.874 471.117,32.877 470.737,32.874C451.871,32.746 446.364,15.56 449.074,0L455.662,0C453.147,6.183 452.695,12.673 457.638,16.906C456.542,11.348 458.017,5.145 460.641,0L491.012,0C491.012,0.263 491.022,0.533 491.04,0.81C491.284,4.405 492.093,8.197 493.445,11.781C494.176,11.38 494.894,10.956 495.597,10.51C498.566,8.624 501.316,6.067 503.472,3.156C503.484,3.066 503.494,2.976 503.504,2.886L503.454,2.856C500.918,1.301 497.864,0.348 494.66,0L517.399,0C516.857,1.207 516.273,2.397 515.647,3.569L515.616,3.627C517.6,7.438 518.894,11.649 519.3,15.958C519.456,17.605 519.492,19.468 519.36,21.396C521.762,19.382 524.037,17.23 526.159,14.956C530.119,10.711 534.181,5.579 537.286,0L544.749,0ZM493.132,26.8C490.774,28.13 488.319,29.272 485.79,30.195C488.807,30.75 491.945,30.507 494.912,29.637C494.274,28.71 493.68,27.754 493.132,26.8ZM509.686,12.595C508.586,13.97 507.422,15.3 506.199,16.578C505.167,19.134 503.61,21.883 501.365,23.598C502.085,24.1 502.86,24.513 503.661,24.828C507.044,21.938 509.838,17.976 509.754,13.631C509.748,13.285 509.725,12.939 509.686,12.595ZM485.327,0.672C484.294,0.94 483.283,1.272 482.308,1.67L482.186,1.873C481.694,2.704 481.149,2.732 480.661,2.42C476.211,4.678 472.732,8.424 471.638,13.664C471.41,14.758 471.409,15.857 471.59,16.94C472.741,17.023 473.901,17.014 475.044,16.957C479.146,16.75 483.261,15.944 487.169,14.575C487.121,13.792 487.143,13.005 487.249,12.253C486.229,8.505 485.508,4.55 485.327,0.672ZM468.157,3.857C466.929,5.182 465.835,6.637 464.907,8.206C464.307,9.222 462.8,11.478 462.978,12.726C463.174,14.099 464.821,15.01 466.083,15.604L466.162,15.641C466.074,11.612 466.741,7.574 468.157,3.857Z" style="fill-rule:nonzero;"/>
</svg>
