<?xml version="1.0" encoding="UTF-8" standalone="no"?>
<!DOCTYPE svg PUBLIC "-//W3C//DTD SVG 1.1//EN" "http://www.w3.org/Graphics/SVG/1.1/DTD/svg11.dtd">
<svg width="100%" height="100%" viewBox="0 0 1000 1000" version="1.1" xmlns="http://www.w3.org/2000/svg" xmlns:xlink="http://www.w3.org/1999/xlink" xml:space="preserve" xmlns:serif="http://www.serif.com/" style="fill-rule:evenodd;clip-rule:evenodd;stroke-linejoin:round;stroke-miterlimit:2;">
    <path d="M774.412,1000C776.618,995.338 780.212,991.283 783.998,989.45C794.463,984.38 805.325,990.37 809.774,1000L799.326,1000C796.394,998.705 793.094,998.194 790.223,998.579C789.182,998.718 787.656,999.229 786.005,1000L774.412,1000ZM503.731,1000C504.568,992.546 508.006,985.226 514.175,981.533C516.864,977.39 522.847,976.796 527.803,978.129C535.155,980.106 540.118,985.908 542.761,992.83C543.608,995.047 544.289,997.48 544.753,1000L538.499,1000C538.163,999.236 537.792,998.515 537.404,997.859C534.87,993.576 529.942,990.289 524.906,989.66C524.613,992.847 523.492,995.561 521.401,995.704C518.663,995.891 514.958,997.617 512.486,1000L503.731,1000ZM150.543,944.884C150.842,944.54 151.169,944.233 151.523,943.972C155.111,941.328 160.11,940.731 164.277,942.164C174.699,945.746 176.205,961.045 171.621,969.578C168.95,974.55 163.95,976.789 158.489,977.259C153.752,977.667 146.466,977.936 142.662,974.542C138.514,970.841 138.104,964.065 139.115,958.944C140.347,952.699 144.406,948.107 149.894,945.108C150.132,944.978 150.346,944.907 150.543,944.884ZM153.303,955.621C152.173,958.204 150.591,959.028 148.119,960.965C147.265,961.635 145.335,962.709 145.202,963.779C145.091,964.677 145.383,964.745 146.653,965.254C151.3,967.115 158.779,966.7 163.317,964.71C168.142,962.594 170.923,957.921 165.329,954.758C161.468,952.573 156.833,953.245 153.303,955.621ZM950.959,892.247C952.988,892.059 955.019,892.336 956.984,893.425C960.228,895.223 962.377,898.693 963.418,902.164C965.678,909.69 963.987,919.779 955.545,922.38C947.853,924.751 940.418,919.898 938.378,912.415C937.069,907.607 937.384,902.153 939.234,897.531C940.641,894.018 943.82,888.705 948.133,888.618C949.741,888.586 950.548,890.465 950.959,892.247ZM943.267,908.519C943.283,908.568 943.3,908.622 943.319,908.679C944.243,909.47 944.581,910.709 945.7,911.462C946.365,911.909 947.249,912.285 948.01,912.524C950.124,913.185 952.596,913.186 954.713,912.547C958.451,911.42 961.286,908.717 958.678,905.209C956.421,902.172 953.16,901.663 949.826,902.098C949.667,902.276 949.493,902.44 949.303,902.588C947.475,904.017 945.279,904.693 943.995,906.794C943.709,907.261 943.559,907.786 943.307,908.259C943.293,908.354 943.28,908.44 943.267,908.519ZM742.829,858.856C745.993,859.609 749.007,861.783 751.008,865.401C755.958,874.35 755.528,890.077 744.502,894.343C735.056,897.999 725.673,890.323 724.084,881.165C722.244,870.573 728.253,856.673 740.637,857.314C741.551,857.362 742.279,857.947 742.829,858.856ZM743.391,869.602C742.862,870.995 742.056,871.897 740.993,871.809C738.118,871.574 735.621,872.119 733.204,873.743C733.08,873.826 732.907,873.955 732.702,874.116C732.53,874.351 732.336,874.501 732.128,874.579C730.887,875.604 729.187,877.145 729.156,877.461C728.957,879.512 732.787,882.112 734.291,882.902C736.214,883.914 738.331,884.353 740.501,884.205C743.242,884.017 745.821,882.738 747.548,880.589C749.974,877.572 749.129,874.61 746.712,871.903C745.829,870.915 744.668,870.131 743.391,869.602ZM460.031,845.577C462.72,843.009 466.526,841.529 470.178,842.195C481.204,844.207 483.919,859.902 480.047,868.594C475.515,878.768 462.167,880.476 454.918,872.215C450.912,867.649 449.892,860.653 451.282,854.865C452.18,851.126 455.71,844.449 460.031,845.577ZM457.31,862.046C457.502,862.275 457.714,862.491 457.944,862.692C458.818,863.601 459.841,864.313 460.996,864.828C465.55,866.858 471.676,865.57 474.97,861.764C478.564,857.61 471.874,853.656 467.855,853.986C462.581,854.418 461.34,858.502 458.52,861.924C458.257,862.243 458.053,862.338 457.665,862.203C457.54,862.159 457.421,862.107 457.31,862.046ZM242.005,825.123C243.113,823.101 244.805,821.39 247.21,820.221C253.418,817.206 261.272,815.923 267.939,817.879C281.094,821.739 283.462,838.745 278.833,849.935C273.697,862.351 259.769,865.49 248.248,859.734C242.384,856.803 237.427,851.56 235.427,845.269C233.322,838.65 233.192,829.639 238.259,824.308C239.74,822.75 241.058,823.407 242.005,825.123ZM241.243,839.229C241.393,839.57 241.562,839.904 241.747,840.23C242.768,842.065 244.266,843.544 245.895,844.845C248.969,847.298 252.728,849.096 256.608,849.767C263.417,850.945 270.9,848.23 273.992,841.722C276.994,835.401 269.545,831.582 264.134,830.88C260.252,830.378 256.204,830.918 252.456,831.972C250.438,832.541 248.299,833.284 246.498,834.386C245.852,834.684 245.273,835.074 244.762,835.554L244.752,835.69C244.748,836.517 244.645,839.629 243.156,839.606C243.012,839.603 242.868,839.601 242.724,839.599C242.252,839.592 241.863,839.303 241.558,838.908C241.493,838.971 241.425,839.03 241.356,839.087C241.317,839.137 241.28,839.184 241.243,839.229ZM617.779,725.602C619.377,717.843 625.696,710.838 634.18,711.751C646.939,713.125 650.506,730.911 648.637,741.074C646.551,752.411 634.353,760.907 623.553,753.898C619.007,750.948 616.469,745.832 615.496,740.625C614.841,737.117 613.788,727.935 617.779,725.602ZM1000,749.214C995.715,749.706 991.161,748.912 987.151,746.841C982.008,744.185 977.986,739.025 976.169,733.588C974.475,728.519 972.549,718.774 976.577,714.38C977.511,713.36 978.303,713.376 978.941,713.895C983.53,707.003 991.872,703.014 1000,704.969L1000,717.601C998.937,717.285 997.902,717.089 996.952,717.03C990.6,716.639 984.672,719.796 981.081,724.89C981.186,726.461 981.476,728.015 982.293,729.586C984.061,732.988 987.367,735.504 990.889,736.862C993.252,737.773 996.663,738.118 1000,737.706L1000,749.214ZM0,704.969C1.269,705.275 2.533,705.725 3.778,706.332C14.477,711.555 18.193,726.062 15.192,736.807C13.099,744.299 6.9,748.424 0,749.214L0,737.706C5.157,737.07 10.139,734.63 10.813,729.686C11.593,723.984 5.436,719.217 0,717.601L0,704.969ZM621.176,735.151C621.045,736.553 621.074,737.926 621.711,739.248C623.167,742.269 625.931,744.415 629.211,745.03C635.226,746.156 643.243,742.513 643.897,735.866C644.533,729.387 638.447,723.383 632.019,723.878C626.627,724.293 621.792,729.143 621.51,733.613C621.473,734.195 621.353,734.718 621.176,735.151ZM399.65,709.831C400.588,708.187 402.161,707.438 404.123,706.876C408.044,705.753 412.372,706.649 415.406,709.414C422.173,715.581 422.304,730.176 415.567,736.421C408.67,742.814 398.263,738.023 395.714,729.897C393.71,723.504 394.616,714.56 399.65,709.831ZM414.107,723.009C413.807,722.59 413.529,722.145 413.109,721.795C411.77,720.678 410.02,720.104 408.3,719.991C407.603,719.946 406.464,720.192 405.237,720.44C405.125,720.495 405.009,720.541 404.889,720.578C403.91,720.879 402.956,721.481 402.208,722.173C401.805,722.546 401.475,723.282 401.085,723.675C401.599,724.101 402.551,725.144 402.878,725.344C403.618,725.795 404.514,726.22 405.358,726.429C407.13,726.866 409.303,726.637 410.947,725.902C411.842,725.502 412.705,724.939 413.371,724.212C413.397,724.184 413.785,723.549 414.107,723.009ZM414.476,722.377C414.499,722.336 414.517,722.304 414.527,722.282C414.538,722.26 414.542,722.25 414.537,722.252C414.509,722.267 414.489,722.312 414.476,722.377ZM761.858,681.756C764.101,675.913 771.045,671.722 777.428,671.207C787.322,670.409 791.492,681.009 788.912,689.282C786.357,697.479 774.146,704.358 765.804,701.573C761.661,700.19 759.752,696.259 759.166,692.153C758.743,689.182 758.776,683.394 761.858,681.756ZM122.347,656.607C127.096,655.652 132.092,656.417 135.806,659.793C143.583,666.863 144.514,682.703 137.1,690.341C129.519,698.154 116.415,694.73 112.142,685.254C110.201,680.948 109.645,674.885 110.8,669.432C110.336,663.768 113.373,659.698 119.07,657.55C120.07,657.099 121.162,656.777 122.347,656.607ZM783.747,683.949C783.557,683.799 783.367,683.649 783.177,683.499C782.301,683.252 781.524,682.64 780.604,682.416C778.965,682.014 777.14,682.154 775.515,682.536C773.094,683.104 770.823,684.41 768.714,685.685C768.524,685.799 766.711,686.995 765.634,687.552C765.547,688.56 765.391,689.528 765.213,690.315C766.129,690.532 767.41,691.287 768.417,691.349C770.588,691.484 772.838,690.817 774.859,690.1C776.697,689.449 778.436,688.602 780.067,687.529C781.345,686.689 782.549,684.87 783.747,683.949ZM116.147,676.434C116.277,676.09 116.593,677.47 116.957,677.979C120,682.24 127,683.041 131.509,681.054C136.296,678.944 137.962,674.993 134.177,671.132C131.779,668.687 128.324,667.756 124.974,667.872C124.617,667.884 124.257,667.908 123.896,667.942C123.746,668.122 123.583,668.264 123.409,668.362C121.075,669.666 118.803,671.567 117.362,673.856C116.885,674.615 116.326,675.508 116.147,676.434ZM546.341,586.721C548.802,582.767 553.504,581.498 558.051,583.452C562.516,585.371 564.989,590.175 565.886,594.716C567.911,604.96 562.901,615.277 552.119,617.298C541.236,619.337 532.833,611.388 532.322,600.81C532.093,596.097 533.388,590.543 537.476,587.689C540.229,585.768 543.69,585.256 546.341,586.721ZM550.126,595.86C550.147,598.202 549.614,600.177 547.856,599.903C545.723,599.57 536.271,597.188 537.934,602.384C539.366,606.856 547.563,607.317 551.158,606.597C554.574,605.914 563.498,601.62 559.812,597.457C558.23,595.67 556.006,594.969 553.663,595.017C552.422,595.043 551.272,595.518 550.126,595.86ZM290.186,584.954C288.588,576.642 296.493,571.175 304.277,569.25C314.499,566.723 320.394,574.73 320.298,584.253C320.201,594.032 313.332,600.923 303.681,601.818C292.852,602.822 288.839,594.331 290.186,584.954ZM296.344,589.616C296.482,589.703 296.63,589.817 296.787,589.959C297.276,590.374 297.834,590.65 298.462,590.788C299.436,591.157 300.367,591.32 301.405,591.355C303.332,591.417 305.267,591.003 307.086,590.39C309.449,589.592 315.922,586.395 315.046,583.448C313.985,579.885 307.087,580.855 304.576,581.399C302.691,581.808 300.787,582.43 299.032,583.237C298.655,583.411 297.288,584.026 296.245,584.629C296.552,586.206 296.598,587.993 296.344,589.616ZM910.455,540.185C916.019,534.043 924.681,530.878 931.01,538.576C936.606,545.383 935.834,557.362 929.69,563.543C923.536,569.735 913.131,568.074 908.093,561.317C905.481,557.815 904.384,553.316 904.337,548.993C904.294,545.132 904.547,539.653 908.741,538.308C909.606,538.03 910.138,538.973 910.455,540.185ZM910.483,551.931C910.965,553.39 912.055,554.689 914.215,555.856C918.087,557.948 923.269,557.496 926.672,554.675C928.585,553.089 930.217,551.089 928.651,548.868C927.273,546.915 924.493,545.675 922.19,545.563C917.362,545.327 914.041,549.297 910.483,551.931ZM739.763,496.959C741.268,492.786 744.743,489.803 749.931,492.057C756.209,494.785 758.348,503.268 758.342,509.45C758.332,520.021 750.225,531.172 738.644,525.881C728.255,521.134 728.615,502.572 738.542,497.444C738.961,497.228 739.368,497.068 739.763,496.959ZM737.118,513.839C737.158,513.865 737.202,513.891 737.25,513.917C740.042,515.468 741.714,517.236 745.274,516.882C748.301,516.581 750.991,514.931 752.51,512.268C755.088,507.752 750.191,502.351 746.197,502.568C746.391,503.977 746.262,505.45 745.75,506.74C744.536,509.795 742.57,510.007 740.02,511.239C738.684,511.883 738.146,512.838 737.147,513.799L737.118,513.839ZM153.125,485.131C154.316,484.541 155.59,484.129 156.906,483.862C160.602,483.115 164.591,483.644 167.774,485.752C173.829,489.765 175.518,497.911 173.841,504.625C170.304,518.78 152.052,517.515 143.415,508.888C138.797,504.276 137.269,496.805 138.922,490.569C140.003,486.491 144.502,479.572 149.708,481.475C151.175,482.011 152.357,483.412 153.125,485.131ZM430.264,485.114C435.8,479.84 444.526,477.465 451.248,482.055C459.339,487.579 456.145,500.83 450.135,506.51C443.087,513.172 429.613,515.253 424.155,505.561C421.678,501.162 421.426,495.119 423.36,490.461C424.846,486.879 427.293,484.683 430.264,485.114ZM169.09,499.924C169.171,498.485 165.389,496.589 164.18,496.134C162.233,495.4 160.054,495.389 158.025,495.669C156.377,495.896 154.788,496.415 153.177,496.807C152.321,497.015 151.399,497.296 150.553,497.241C149.773,497.189 148.641,496.291 147.884,496.416C147.802,496.43 147.725,496.43 147.654,496.418C146.995,496.583 146.363,496.73 145.812,496.877C145.641,496.923 145.496,496.981 145.374,497.046C146.631,498.174 147.64,499.395 149.141,500.343C152.392,502.396 156.308,503.492 160.157,503.333C162.181,503.25 164.199,502.8 165.937,501.714C166.315,501.478 169.143,498.864 169.09,499.924ZM450.679,492.84C450.577,493.206 448.384,492.099 448.015,491.952C445.862,491.088 443.449,490.9 441.151,491.149C438.915,491.39 436.903,492.089 435.093,493.132C434.898,494.045 434.486,494.764 433.792,495.038C432.45,495.567 431.208,496.422 430.068,497.384C429.718,497.789 429.379,498.208 429.051,498.64C429.004,498.701 428.957,498.759 428.912,498.812C429.213,499.174 429.567,499.477 429.973,499.721C431.059,500.532 432.268,501.065 433.598,501.332C438.668,502.352 444.751,499.536 448.243,495.967C448.571,495.631 450.65,493.576 450.679,492.84ZM580.067,434.789C583.78,432.907 588.468,433.613 591.398,438.168C595.93,445.212 594.725,457.212 587.183,461.75C579.333,466.474 568.71,463.895 566.305,454.618C564.031,445.849 567.74,433.956 577.661,432.132C578.9,431.904 579.679,433.09 580.067,434.789ZM574.546,446.294C573.975,446.693 573.429,447.121 572.931,447.594C571.66,448.799 570.765,449.785 571.212,450.79C573,454.803 580.432,454.122 583.603,452.751C586.722,451.403 591.57,447.84 586.847,445.394C584.109,443.977 579.548,445.002 578.456,448.102C577.792,449.991 576.484,449.922 575.458,448.586C574.987,447.973 574.7,447.166 574.546,446.294ZM269.277,411.813C269.784,409.598 270.719,407.487 272.186,405.621C275.769,401.066 281.921,399.782 287.351,399.095C292.747,398.41 295.245,400.408 296.604,405.665C297.909,410.708 297.612,416.436 295.677,421.285C292.22,429.948 281.833,438.095 272.255,433.622C267.201,431.263 265.564,425.785 265.846,420.532C265.995,417.742 266.956,413.709 269.277,411.813ZM0,389.947C0.402,389.956 0.807,390.01 1.212,390.114C10.154,384.277 21.562,395.022 24.796,403.121C28.964,413.56 23.399,421.333 13.564,424.557C9.054,426.035 4.46,427.301 0,426.315L0,417.105C4.185,418.495 9.173,417.231 13.462,415.72C15.663,414.944 18.726,413.93 20.288,412.092C22.831,409.098 19.426,405.996 17.08,403.911C13.56,400.781 8.639,397.857 4.15,399.342C3.821,400.447 3.339,401.379 2.748,401.932C1.995,402.636 1.025,403.269 0,403.884L0,389.947ZM1000,426.315C998.745,426.038 997.5,425.582 996.271,424.902C991.918,422.497 989.4,418.848 988.256,414.021C986.941,408.475 987.524,402.079 990.462,397.138C992.35,393.961 996.09,389.858 1000,389.947L1000,403.884C995.998,406.289 991.154,408.435 995.108,413.575C996.503,415.389 998.175,416.499 1000,417.105L1000,426.315ZM275.635,422.018C277.2,422.411 278.876,422.437 280.445,422.218C284.535,421.651 288.27,419.179 290.502,415.715C290.989,414.96 292.842,412.071 292.031,411.054C291.262,410.09 287.084,411.176 286.068,411.347C283.449,411.787 280.827,412.354 278.475,413.626C277.897,413.939 277.001,414.462 276.125,415.102C276.608,417.447 276.469,420.229 275.635,422.018ZM870.389,352.856C873.137,348.828 878.08,347.413 882.684,349.107C887.525,350.889 890.304,355.995 891.648,360.69C894.4,370.309 894.214,385.942 883.141,390.144C861.858,398.219 855.74,363.477 870.389,352.856ZM882.193,359.537C881.742,361.442 880.89,362.977 879.666,363.365C875.605,364.652 867.733,367.471 867.703,372.984C867.67,379.418 875.984,382.427 881.152,381.132C888.524,379.285 890.361,370.517 887.288,364.253C886.287,362.21 884.373,360.504 882.193,359.537ZM486.887,296.416C486.91,296.363 486.933,296.313 486.956,296.269C489.034,292.188 494.257,290.607 498.574,291.121C509.809,292.457 514.588,304.152 512.001,314.262C509.573,323.748 498.109,331.409 489.54,323.977C482.981,318.287 479.291,302.692 486.887,296.416ZM118.023,291.389C122.415,284.84 130.236,280.606 136.981,287.518C144.516,295.24 143.075,310.234 134.974,316.996C127.653,323.107 115.548,321.015 112.583,311.453C111.022,306.42 111.423,300.456 113.771,295.74C114.958,293.357 116.344,291.865 118.023,291.389ZM507.558,308.646C507.552,309.247 507.1,307.812 506.881,307.535C505.612,305.926 503.949,304.749 502.048,303.986C499.968,303.15 497.611,302.878 495.395,303.239C494.31,303.416 493.344,303.705 492.363,304.215C491.916,304.436 491.495,304.696 491.097,304.996L491.087,305.007C491.071,306.606 490.588,308.099 489.331,308.484C489.101,308.555 488.885,308.6 488.681,308.622C488.419,310.769 489.304,312.501 492.116,314.411C496.427,317.339 502.217,315.958 505.502,312.137C506.198,311.326 507.548,309.791 507.558,308.646ZM709.017,294.126C707.198,284.237 717.799,277.593 727.101,278.673C737.77,279.911 741.004,292.673 736.439,301.195C732.386,308.76 719.689,315.293 712.693,307.656C709.531,304.204 708.593,298.921 708.992,294.398C709,294.308 709.008,294.217 709.017,294.126ZM507.558,308.636C507.558,308.631 507.558,308.627 507.558,308.622C507.558,308.617 507.558,308.612 507.558,308.607L507.558,308.636ZM118.384,305.532C119.044,306.127 119.755,306.711 119.786,306.73C123.757,309.222 129.215,308.352 132.722,305.445C133.688,304.646 135.284,303.052 135.699,301.791C136.315,299.916 136.367,301.267 135.259,299.653C133.964,297.766 130.818,296.53 128.668,296.554C127.07,296.571 125.841,296.996 124.819,297.66C124.752,299.161 124.307,300.524 123.393,301.012C121.471,302.039 120.14,303.976 118.507,305.398C118.465,305.442 118.424,305.487 118.384,305.532ZM732.59,293.058C732.053,292.644 731.456,291.948 730.887,291.651C728.779,290.55 726.536,290.421 724.218,290.696C722.705,290.875 721.107,291.252 719.588,291.789C719.512,293.643 718.944,295.425 717.964,296.184C717.752,296.348 716.861,297.24 716.016,298.01C717.453,299.035 718.581,299.72 720.826,299.743C725.171,299.789 729.67,297.498 732.232,293.992C732.362,293.619 732.481,293.308 732.59,293.058ZM291.741,217.43C293.657,212.316 297.828,207.981 303.108,206.735C313.275,204.338 318.637,215.001 318.867,223.481C319.095,231.894 315.253,242.148 305.225,241.851C294.924,241.547 288.926,231.375 289.964,221.938C290.089,220.804 290.496,218.252 291.741,217.43ZM313.799,224.693C311.779,216.048 299.418,218.062 295.835,224.8C297.091,228.535 302.462,230.854 305.97,230.853C308.328,230.852 310.467,230.048 312.06,228.267C312.823,227.414 313.172,226.517 313.668,225.517C313.784,225.283 313.802,224.932 313.799,224.693ZM617.842,154.603C621.012,150.801 626.32,148.698 631.134,150.3C640.956,153.568 643.114,168.191 639.66,176.606C635.04,187.862 619.576,188.746 613.429,178.414C610.433,173.378 610.168,166.516 612.397,161.125C613.554,158.327 615.457,155.846 617.842,154.603ZM618.739,172.961C619.282,173.39 619.905,173.789 620.531,174.158C625.205,176.909 632.214,175.168 635.219,170.635C637.624,167.008 634.249,163.406 630.639,162.312C629.169,161.867 627.675,161.858 626.237,162.189C625.983,163.333 625.499,164.232 624.756,164.536C622.915,165.29 620.839,166.126 619.169,167.341C619.348,168.558 619.502,171.329 618.739,172.961ZM807.361,138.419C809.496,136.076 812.367,134.539 815.661,133.58C820.782,132.09 825.817,131.255 828.925,136.411C831.668,140.959 832.026,147.194 831.094,152.304C829.284,162.242 819.166,170.517 809.199,164.627C801.261,159.938 799.402,144.796 806.405,138.666C806.746,138.367 807.066,138.313 807.361,138.419ZM808.085,152.193C808.309,152.523 808.606,152.886 808.983,153.31C810.541,155.063 812.882,155.937 815.174,156.115C819.804,156.476 824.699,153.851 826.247,149.306C828.235,143.473 821.766,143.745 817.879,144.532C813.708,145.376 808.31,147.409 808.085,152.193ZM133.966,123.534C133.92,114.329 139.73,103.832 149.717,103.117C159.957,102.385 167.45,111.986 168.39,121.349C168.882,126.253 168.035,131.893 164.755,135.765C161.293,139.853 154.775,141.462 149.649,141.903C138.309,142.876 131.893,133.931 133.966,123.534ZM139.171,122.023C140.036,124.761 139.794,128.668 138.315,130.761C139.846,128.595 140.104,131.045 141.797,131.894C143.348,132.673 145.204,132.789 146.907,132.778C150.187,132.755 153.645,131.945 156.703,130.783C162.555,128.561 166.348,123.695 161.243,118.415C154.509,111.448 142.575,113.645 139.171,122.023ZM0,77.615C0.141,77.617 0.282,77.621 0.423,77.627C11.878,78.15 16.861,91.378 16.891,101.111C16.905,106.095 16.092,112.329 11.803,115.542C8.444,118.059 4.065,118.438 0,117.646L0,107.412C7.325,108.645 14.956,105.6 11.349,96.623C9.216,91.314 4.634,88.74 0,88.623L0,77.615ZM1000,117.646C998.603,117.375 997.244,116.965 995.975,116.456C983.542,111.474 981.634,96.063 985.386,84.795C986.01,82.92 987.221,82.595 988.27,83.286C991.117,79.864 995.485,77.558 1000,77.615L1000,88.623C996.362,88.531 992.692,89.953 990.15,92.754C990.029,93.215 989.88,93.654 989.704,94.061C986.556,101.356 993.144,106.258 1000,107.412L1000,117.646ZM359.477,91.236C359.173,91.685 358.739,91.92 358.135,91.823C353.895,91.143 352.954,84.541 352.771,81.054C352.538,76.631 353.372,72.012 355.641,68.166C360.44,60.029 370.386,59.582 377.114,65.772C384.003,72.11 387.004,85.626 380.761,93.402C374.775,100.86 364.401,98.034 359.477,91.236ZM358.224,80.036C358.239,80.093 358.255,80.19 358.27,80.346C358.285,80.498 358.334,80.684 358.405,80.887C359.065,79.645 360.275,78.367 361.427,80.032C364.429,84.371 368.36,88.315 374.124,86.469C376.264,85.784 379.392,83.977 378.933,81.251C378.577,79.144 375.971,77.082 374.321,75.989C370.585,73.515 365.553,72.93 361.733,75.558C360.348,76.511 358.599,78.185 358.246,79.929C358.049,80.901 358.129,79.689 358.224,80.036ZM358.224,80.036L358.224,80.036L358.224,80.036ZM809.774,0C810.486,1.541 811.033,3.173 811.389,4.869C812.741,11.315 811.992,18.762 807.283,23.713C802.862,28.361 795.593,30.617 789.292,30.245C779.18,29.647 773.446,22.115 772.87,13.439C771.486,9.321 772.333,4.391 774.412,0L786.005,0C783.695,1.079 781.139,2.667 779.321,4.46C779.575,6.079 779.391,7.935 779.221,8.928C779.116,9.535 778.494,10.829 778.087,11.799C778.498,12.38 778.701,13.82 778.677,15.27C779.024,15.801 779.401,16.281 779.69,16.62C782.314,19.703 786.73,20.84 790.612,20.697C797.2,20.455 809.931,15.972 806.73,7.267C805.509,3.947 802.654,1.469 799.326,0L809.774,0ZM544.753,0C545.765,5.488 545.748,11.388 544.17,16.368C542.223,22.514 537.055,25.506 530.969,26.764C518.5,29.344 506.524,21.867 504.071,9.36C503.489,6.398 503.373,3.187 503.731,0L512.486,0C510.612,1.806 509.447,3.991 509.95,6.17C511.534,13.032 521.503,16.571 527.565,16.328C531.35,16.176 535.883,14.91 538.358,11.808C540.921,8.595 540.155,3.773 538.499,0L544.753,0Z" style="fill-rule:nonzero;"/>
</svg>
