<?xml version="1.0" encoding="UTF-8" standalone="no"?>
<!DOCTYPE svg PUBLIC "-//W3C//DTD SVG 1.1//EN" "http://www.w3.org/Graphics/SVG/1.1/DTD/svg11.dtd">
<svg width="100%" height="100%" viewBox="0 0 1000 1000" version="1.1" xmlns="http://www.w3.org/2000/svg" xmlns:xlink="http://www.w3.org/1999/xlink" xml:space="preserve" xmlns:serif="http://www.serif.com/" style="fill-rule:evenodd;clip-rule:evenodd;stroke-linejoin:round;stroke-miterlimit:2;">
    <path d="M270.889,1000C271.349,990.195 271.999,979.238 267.879,970.305C267.182,968.791 266.707,965.591 267.727,964.119C268.61,962.846 269.558,962.293 270.428,964.053C275.545,974.405 275.331,986.313 275.08,997.591C275.063,998.394 275.042,999.197 275.019,1000L270.889,1000ZM744.67,1000C740.669,993.059 737.352,985.755 734.647,978.154C733.82,975.832 735.715,969.864 737.334,974.365C740.568,983.349 744.846,991.975 750.034,1000L744.67,1000ZM535.412,1000C541.221,988.313 545.294,975.762 547.424,962.787C548.09,958.73 550.555,963.256 550.232,965.368C548.392,977.379 545.057,989.015 540.299,1000L535.412,1000ZM1000,883.96L1000,898.512C998.006,902.671 995.733,906.691 993.184,910.523C989.281,916.39 984.776,921.822 979.783,926.791C977.405,929.157 963.929,943.251 961.094,937.483C958.383,931.968 966.022,927.914 969.365,925.241C975.511,920.33 981.03,914.691 985.844,908.47C991.679,900.932 996.462,892.706 1000,883.96ZM644.772,850.268C639.333,874.894 632.531,901.412 609.947,915.915C608.087,917.11 609.031,924.098 610.959,922.884C635.004,907.743 642.986,878.883 647.17,852.473C647.451,850.706 645.541,846.788 644.772,850.268ZM92.23,882.84C100.714,899.668 119.299,905.568 136.933,906.633C155.77,907.771 177.087,908.232 194.368,899.579C196.832,898.346 195.83,889.31 193.077,890.689C176.856,898.811 158.341,899.564 140.517,899.647C123.179,899.729 102.887,896.74 93.213,880.428C92.265,878.829 91.825,882.036 92.23,882.84ZM854.399,855.041C842.845,859.214 830.728,863.174 820.932,870.812C816.431,874.322 812.428,878.612 809.529,883.548C807.791,886.506 806.482,889.74 805.726,893.087C805.23,895.279 805.208,897.535 804.359,899.626C803.994,900.528 803.382,899.98 803.194,899.313C800.23,888.766 808.906,875.74 815.885,868.701C826.289,858.209 840.282,852.511 854.053,847.968C855.694,847.427 856.729,854.774 854.399,855.041ZM0,883.96C2.413,877.995 4.246,871.789 5.439,865.392C5.76,863.669 6.674,862.605 8.16,863.666C9.719,864.778 9.31,868.401 9.039,869.973C7.347,879.806 4.33,889.485 0,898.512L0,883.96ZM380.38,859.28C390.745,868.038 408.491,871.239 421.717,869.707C428.299,868.943 434.553,865.834 440.054,862.28C445.766,858.59 452.222,854.507 455.019,848.089C455.346,847.339 455.489,844.982 454.34,844.797C451.59,844.353 449.555,846.268 447.486,847.891C444.916,849.908 442.291,851.861 439.546,853.634C433.727,857.391 427.466,860.112 420.629,861.359C407.803,863.697 391.888,861.708 380.83,854.566C379.502,853.709 379.36,858.418 380.38,859.28ZM854.399,855.041L854.639,854.954C854.01,853.224 853.382,851.495 852.755,849.765C852.524,850.508 852.294,851.253 852.063,851.996C851.847,852.671 851.652,854.421 852.611,854.65C853.011,854.758 853.412,854.866 853.812,854.974C854.028,855.041 854.223,855.062 854.399,855.041ZM283.012,766.095C283.759,772.935 285.251,779.932 286.629,786.683C287.845,792.644 289.51,798.556 292.473,803.908C295.024,808.516 298.296,812.598 302.278,816.05C305.272,818.646 312.058,824.995 315.745,821.349C316.808,820.297 316.778,818.122 316.153,816.845C313.942,812.33 309.353,811.132 305.501,808.185C301.047,804.777 297.278,800.331 294.747,795.322C289.443,784.824 290.431,772.621 285.922,762.008C284.235,758.036 282.869,764.784 283.012,766.095ZM607.572,671.339C602.631,688.393 597.745,705.988 599.481,723.926C600.768,737.224 606.006,753.61 617.647,761.51C619.71,762.91 619.896,755.68 618.758,754.513C609.318,744.831 603.707,734.219 602.812,720.474C601.805,705.012 606.321,689.721 610.443,674.992C611.101,672.639 608.904,666.742 607.572,671.339ZM397.538,735.136C405.894,724.137 416.138,713.147 428.421,706.534C440.624,699.966 455.676,697.743 469.359,699.369C470.412,699.494 470.468,695.834 469.267,695.62C454.93,693.072 440.747,693.695 427.519,700.325C414.1,707.052 405.705,718.904 396.059,729.882C394.837,731.274 396.108,737.019 397.538,735.136ZM160.879,667.178C160.485,672.751 162.769,678.012 162.354,683.705C161.918,689.684 160.165,695.475 157.806,700.959C155.512,706.294 152.595,711.317 149.449,716.19C146.582,720.631 142.9,724.688 141.365,729.779C141.025,730.904 141.103,735.292 143.117,734.604C145.787,733.69 147.643,729.614 149.174,727.368C151.286,724.273 153.342,721.134 155.234,717.898C158.587,712.164 161.51,706.187 163.45,699.821C165.436,693.301 166.476,686.418 166.171,679.594C166.022,676.228 166.038,666.23 161.962,665.178C161.223,664.988 160.904,666.818 160.879,667.178ZM758.027,644.088C768.319,649.468 775.809,658.161 780.333,668.803C783.081,675.267 784.582,682.169 785.582,689.096C786.475,695.277 786.597,701.774 788.122,707.826C788.841,710.684 790.823,709.114 790.942,706.905C791.706,692.761 788.472,676.493 783.079,663.439C778.398,652.109 770.353,641.342 758.743,636.595C756.298,635.596 756.034,643.046 758.027,644.088ZM0,693.865C4.514,696.099 10.189,697.803 12.57,702.023C13.24,703.211 13.353,706.031 12.125,706.945C11.721,707.244 11.319,707.543 10.917,707.842C10.574,708.065 10.226,708.074 9.873,707.868C6.487,706.33 3.193,704.63 0,702.776L0,693.865ZM1000,702.776C981.702,692.154 966.751,676.51 956.781,657.685C955.819,655.87 957.021,648.927 958.928,652.416C965.124,663.748 973.367,673.956 983.244,682.294C987.95,686.268 992.99,689.845 998.304,692.959C998.843,693.274 999.412,693.574 1000,693.865L1000,702.776ZM541.287,609.549C554.073,588.241 555.117,560.694 546.157,537.777C545.343,535.694 543.814,536.293 542.955,537.855C541.807,539.944 542.369,543.092 543.136,545.189C550.159,564.406 547.671,584.327 538.688,602.419C537.888,604.032 537.937,606.82 538.68,608.434C539.105,609.359 540.282,611.224 541.287,609.549ZM254.342,601.036C261.874,604.481 271.717,602.637 279.314,600.185C287.441,597.562 294.477,592.996 301.154,587.759C313.078,578.405 323.851,566.724 326.223,551.284C326.467,549.694 324.67,546.202 324.08,549.313C321.192,564.541 309.669,574.906 297.821,583.765C291.585,588.428 285.084,592.416 277.571,594.662C269.9,596.956 262.102,596.252 254.448,597.963C253.533,598.167 253.562,600.679 254.342,601.036ZM869.553,550.246C872.659,550.919 876.149,548.88 879.134,548.042C882.421,547.12 885.764,546.532 889.15,546.118C896.319,545.242 903.166,545.289 910.232,546.954C916.725,548.483 922.937,551.107 928.593,554.64C931.235,556.289 933.786,558.117 936.175,560.115C938.547,562.1 940.627,564.902 943.406,566.339C944.744,567.03 944.443,563.375 944.198,562.871C938.558,551.31 923.461,543.581 911.589,540.461C904.394,538.57 896.377,537.715 888.963,538.518C882.598,539.208 873.116,540.707 868.938,545.951C868.232,546.838 868.143,549.941 869.553,550.246ZM160.178,519.449C155.789,508.89 140.586,503.036 129.97,502.627C119.217,502.213 104.29,505.108 99.029,515.693C98.548,516.661 99.343,520.27 100.291,518.403C105.447,508.263 121.485,506.178 131.582,507.126C137.009,507.636 142.28,509.371 147.056,511.975C149.472,513.292 151.781,514.834 153.869,516.628C155.78,518.269 157.338,520.82 159.627,521.866C160.604,522.312 160.328,519.81 160.178,519.449ZM434.761,439.728C433.744,441.073 432.493,441.772 431.54,443.15C430.588,444.526 429.861,446.193 429.163,447.705C427.689,450.9 426.53,454.287 425.737,457.717C424.128,464.679 423.89,471.986 424.715,479.071C425.529,486.063 427.512,492.974 430.628,499.29C432.207,502.491 434.087,505.576 436.254,508.415C438.218,510.987 440.984,515.073 444.135,516.125C446.475,516.906 445.693,511.325 445.046,510.39C443.359,507.951 440.851,506.15 438.921,503.866C436.897,501.47 435.085,498.886 433.571,496.139C430.675,490.886 428.706,485.145 427.791,479.215C426.854,473.145 427.038,466.992 428.303,460.982C428.914,458.083 429.735,455.244 430.839,452.494C432.117,449.308 433.651,445.129 435.485,442.301C435.902,441.659 435.514,438.732 434.761,439.728ZM696.273,453.823C702.537,465.493 710.546,476.212 721.195,484.237C726.86,488.507 733.205,491.915 739.968,494.083C746.114,496.053 752.389,496.039 758.571,497.492C760.889,498.037 759.885,491.347 759.227,490.469C757.668,488.393 755.994,488.569 753.54,488.405C750.152,488.177 746.804,487.706 743.509,486.874C736.813,485.181 730.447,482.16 724.721,478.323C713.516,470.814 704.998,460.002 698.53,448.286C696.51,444.627 695.25,451.915 696.273,453.823ZM1000,450.722C996.625,451.071 993.228,451.15 989.806,450.836C979.585,449.895 968.544,444.838 962.366,436.426C961.963,435.877 961.926,432.197 962.912,432.984C971.758,440.045 980.281,445.481 992.051,445.835C994.714,445.915 997.364,445.732 1000,445.4L1000,450.722ZM0,445.4C3.575,444.951 7.123,444.23 10.645,443.523C16.818,442.285 22.821,441.925 29.013,441.083C29.824,440.973 29.913,443.612 29.08,443.832C19.581,446.352 9.894,449.697 0,450.722L0,445.4ZM318.098,385.196C303.709,387.622 286.1,390.183 277.053,403.034C269.169,414.23 263.486,430.698 265.453,444.5C265.622,445.689 266.811,446.721 267.115,444.953C269.535,430.911 270.613,416.436 280.3,404.941C289.196,394.385 305.434,391.677 318.192,389.012C319.405,388.759 319.167,385.016 318.098,385.196ZM528.449,393.708C530.954,395.188 533.15,394.632 535.984,394.922C539.655,395.299 543.273,396.257 546.752,397.461C551.831,399.22 556.678,401.619 561.229,404.471C570.634,410.363 578.376,418.047 584.59,427.225C585.845,429.079 586.641,423.767 585.999,422.673C580.231,412.852 572.207,404.318 562.508,398.269C557.548,395.177 552.186,392.737 546.628,390.94C541.499,389.281 532.813,386.144 528.357,389.971C527.558,390.658 527.453,393.118 528.449,393.708ZM854.512,391.874C860.286,391.982 867.157,384.794 871.274,381.235C876.28,376.908 880.955,372.182 885.221,367.123C889.528,362.015 893.651,356.634 895.913,350.277C898.187,343.891 898.883,337.104 899.515,330.398C899.817,327.195 896.879,323.635 896.416,328.546C895.784,335.254 895.183,342.143 892.279,348.324C889.652,353.917 885.387,358.831 881.245,363.354C877.056,367.93 872.486,372.15 867.626,376.005C863.137,379.565 857.245,382.371 853.814,386.999C853.182,387.851 852.829,391.843 854.512,391.874ZM159.869,276.46C159.454,276.313 159.04,276.166 158.626,276.02C158.323,275.843 158.026,275.85 157.733,276.041C147.817,284.575 138.431,296.542 136.48,309.855C134.323,324.589 141.483,338.078 150.126,349.443C151.677,351.482 152.502,345.228 151.428,343.756C143.497,332.869 135.69,319.465 141.771,305.942C143.989,301.011 147.011,296.342 150.391,292.131C153.69,288.023 158.53,285.094 160.384,280.135C160.669,279.375 160.965,276.85 159.869,276.46ZM720.83,266.255C700.394,286.977 698.498,322.237 715.676,345.547C717.469,347.981 718.568,340.515 717.243,338.707C702.458,318.531 705.129,290.2 722.068,272.167C723.289,270.867 721.991,265.077 720.83,266.255ZM463.147,317.66C469.116,317.763 476.075,309.768 480.392,306.143C485.578,301.791 490.421,296.927 494.092,291.208C501.075,280.331 504.068,266.774 502.232,253.97C501.693,250.21 499.133,251.847 499.36,254.937C500.303,267.761 497.116,279.433 488.976,289.517C485.127,294.285 480.994,299.062 476.218,302.923C471.856,306.449 465.954,308.804 462.515,313.248C461.924,314.012 461.638,317.634 463.147,317.66ZM281.841,243.99C281.069,238.661 278.406,234.127 276.067,229.35C273.692,224.499 271.205,219.559 267.896,215.264C260.824,206.082 250.038,201.796 239.447,198.027C237.715,197.41 237.458,202.715 238.95,203.223C248.132,206.354 257.914,209.571 264.801,216.77C272.018,224.313 277.097,235.789 278.846,245.986C279.676,250.829 282.303,247.177 281.841,243.99ZM805.173,242.475C810.421,242.14 811.89,232.463 812.525,228.462C813.594,221.718 813.61,214.914 812.706,208.148C810.913,194.719 805.4,182.033 796.593,171.728C795.171,170.065 794.627,175.245 795.523,176.397C802.338,185.169 807.085,195.395 808.892,206.392C809.716,211.412 809.876,216.509 809.47,221.578C809.229,224.578 808.869,227.698 807.869,230.553C806.949,233.182 805.329,235.452 804.253,238.015C803.921,238.807 803.613,242.575 805.173,242.475ZM144.749,102.458C141.091,113.645 138.065,124.215 130.502,133.526C123.624,141.993 114.739,148.763 105.845,154.98C104.362,156.016 104.943,162.038 106.718,160.987C116.529,155.181 125.61,148.276 132.826,139.367C140.665,129.687 144.646,118.106 146.85,105.967C147.056,104.835 145.733,99.449 144.749,102.458ZM578.801,117.834C583.721,121.556 591.549,122.325 597.367,124.433C603.732,126.737 609.932,129.327 615.905,132.527C621.666,135.614 627.329,139.098 632.414,143.219C638.117,147.841 642.986,153.556 648.171,158.741C649.929,160.499 650.355,154.831 649.341,153.638C639.662,142.246 629.817,132.951 616.547,125.804C610.373,122.48 603.876,119.523 597.175,117.434C591.864,115.778 584.097,112.569 578.721,114.581C577.782,114.932 578.189,117.371 578.801,117.834ZM0,119.965C4.474,123.088 9.145,125.943 14.009,128.528C15.501,129.321 15.137,134.766 13.489,133.966C8.844,131.71 4.333,129.161 0,126.335L0,119.965ZM1000,126.335C992.223,121.264 985.019,115.304 978.647,108.558C969.23,98.591 958.863,85.764 955.547,72.233C955.462,71.885 955.502,69.303 956.358,70.246C960.774,75.117 963.338,81.66 967.115,87.128C970.964,92.698 975.265,97.951 979.959,102.83C986.109,109.222 992.798,114.939 1000,119.966L1000,126.335ZM389.3,27.44C386.235,33.562 384.87,40.8 383.569,47.47C382.312,53.911 381.323,60.44 381.352,67.017C381.381,73.44 382.385,79.929 384.312,86.056C385.527,89.919 387.951,99.474 392.111,100.771C393.836,101.309 393.535,97.624 393.338,96.792C392.124,91.659 388.736,87.186 387.126,82.088C385.331,76.403 384.473,70.43 384.759,64.468C385.314,52.92 389.186,42.116 391.356,30.875C391.568,29.777 390.739,24.565 389.3,27.44ZM540.299,0C533.781,15.051 524.594,28.884 512.921,40.796C510.584,43.181 509.634,35.442 511.42,33.634C521.193,23.737 529.272,12.352 535.412,0L540.299,0ZM275.019,0C274.675,12.158 273.771,24.332 272.4,36.409C271.701,42.561 268.294,38.017 268.553,34.111C269.257,23.528 270.348,12.978 270.783,2.376C270.816,1.592 270.852,0.799 270.889,0L275.019,0ZM750.034,0C751.53,2.315 753.103,4.58 754.748,6.789C758.261,11.505 762.095,15.983 766.227,20.17C770.402,24.4 775.166,27.946 779.383,32.108C780.243,32.957 780.324,38.474 778.527,37.5C768.029,31.808 758.833,20.584 751.897,11.105C749.273,7.521 746.868,3.815 744.67,0L750.034,0Z" style="fill-rule:nonzero;"/>
</svg>
