<?xml version="1.0" encoding="UTF-8" standalone="no"?>
<!DOCTYPE svg PUBLIC "-//W3C//DTD SVG 1.1//EN" "http://www.w3.org/Graphics/SVG/1.1/DTD/svg11.dtd">
<svg width="100%" height="100%" viewBox="0 0 1000 1000" version="1.1" xmlns="http://www.w3.org/2000/svg" xmlns:xlink="http://www.w3.org/1999/xlink" xml:space="preserve" xmlns:serif="http://www.serif.com/" style="fill-rule:evenodd;clip-rule:evenodd;stroke-linejoin:round;stroke-miterlimit:2;">
    <path d="M580.861,1000C581.238,993.717 581.592,987.434 581.883,981.151C575.673,979.211 571.069,971.483 573.63,965.09C575.24,961.07 578.94,964.55 580.48,966.75C581.111,967.652 581.758,968.707 582.333,969.84C582.621,960.959 582.739,952.084 582.58,943.22C582.424,934.75 581.813,926.38 580.806,918.056C580.673,918.1 580.525,918.093 580.38,918.02C575,915.39 566.86,909.78 570.63,902.65C572.18,899.73 575.38,900.03 577.35,902.36C577.951,903.072 578.445,903.866 578.858,904.712C578.306,901.473 577.699,898.237 577.04,895C575.46,887.26 573.83,879.53 572.22,871.79C571.41,867.91 570.61,864.04 569.81,860.16C569.486,858.582 569.23,856.938 568.903,855.312C565.762,852.345 562.756,849.046 561.82,844.7C561.04,841.07 561.65,836.85 566.34,838.11C570.18,839.13 572.46,842.63 572.84,846.44C572.981,847.825 572.666,851.881 571.306,853.843C572.033,857.223 572.489,860.687 573.15,863.83C574.166,868.669 575.183,873.506 576.199,878.339C576.495,876.29 576.984,874.271 577.69,872.3C578.38,870.4 580.54,866.03 583.23,868.03C585.54,869.74 584.64,874.57 583.95,876.81C582.945,880.101 580.843,883.119 577.702,884.633C577.668,884.756 577.634,884.879 577.6,885.002L578.43,888.95C581.8,905.01 584.43,920.99 585.09,937.41C585.167,939.308 585.229,941.207 585.277,943.106C585.767,939.492 586.28,935.295 588.35,932.69C590.33,930.2 593.15,931.01 594.45,933.68C597.743,940.451 592.066,949.776 585.409,952.082C585.478,968.03 584.708,984.028 583.715,1000L580.861,1000ZM302.596,1000C302.879,996.965 303.201,993.932 303.55,990.903C303.396,990.939 303.219,990.878 303.02,990.69C300.25,988 297.96,984.74 296.56,981.12C295.65,978.75 295.09,974.57 297.3,972.69C300.26,970.17 303.07,974.7 303.93,977.01C304.334,978.089 304.639,979.177 304.858,980.274C305.945,971.378 306.896,962.387 308.502,953.548C307.326,954.413 307.171,950.473 307.27,949.99C307.351,949.595 307.442,949.205 307.543,948.819C306.466,946.26 307.244,942.003 307.95,939.95C309.07,936.73 312.06,932.81 315.94,934.21C319.49,935.5 319.85,940.53 318.7,943.58C317.463,946.876 313.964,949.418 310.92,951.681C308.862,962.601 307.648,973.728 306.44,984.73C305.886,989.813 305.393,994.904 305.011,1000L302.596,1000ZM299.585,977.293C300.514,978.229 301.057,979.576 301.68,980.72C302.196,981.673 302.699,982.63 303.205,983.587C303.069,982.704 302.86,981.835 302.58,981C302.279,980.105 301.02,977.494 299.585,977.293ZM298.474,977.671C298.459,977.683 298.445,977.696 298.43,977.71C297.96,978.14 298.295,979.192 298.988,980.443C298.788,979.884 298.616,979.32 298.48,978.75C298.457,978.646 298.431,978.143 298.474,977.671ZM576.757,972.016C576.677,972.337 576.544,972.71 576.376,972.831C576.505,973.023 576.64,973.209 576.78,973.39C577.813,974.738 579.128,975.778 580.635,976.465C580.39,975.672 580.139,974.881 579.882,974.093C579.855,974.231 579.827,974.363 579.8,974.49C579.42,976.27 578.58,974.19 578.62,973.41L578.639,973.048C578.499,972.95 578.358,972.853 578.217,972.755L577.913,972.545C577.761,972.44 577.61,972.335 577.46,972.23C577.2,972.57 576.93,972.34 576.77,972.04L576.757,972.016ZM578.939,969.34C578.461,968.791 577.927,968.312 577.33,967.95C576.69,967.565 576.177,967.499 575.799,967.651C575.902,967.839 575.993,968.081 576.062,968.321C576.205,968.206 576.384,968.244 576.59,968.59C576.788,968.929 576.991,969.269 577.192,969.608C577.701,969.189 578.335,969.152 578.891,969.461C578.906,969.42 578.922,969.38 578.939,969.34ZM0,925.319C9.215,926.811 18.311,929.006 27.27,931.81C34.516,934.084 41.683,936.584 48.828,939.153C48.276,935.643 47.972,931.931 47.95,928.57C47.93,925.78 49.62,922.26 52.93,924.05C55.83,925.62 56.11,930.2 55.88,933.06C55.649,936.011 54.68,938.438 53.28,940.77C59.381,943.049 65.059,945.629 69.82,950.28C71.28,951.7 70.43,958.39 68.43,956.36C62.78,950.65 55.18,947.98 47.77,945.36C40.19,942.68 32.59,940.02 24.89,937.67C22.755,937.019 20.621,936.407 18.484,935.833C18.786,936.817 18.93,938.809 17.83,939.07C17.807,939.075 17.784,939.079 17.762,939.082C17.116,939.376 15.829,944.627 15.53,945.37C14.84,947.09 13.89,948.83 12.41,950C10.19,951.74 6.49,952.28 4.46,949.97C2.23,947.44 2.69,943.28 4.43,940.64C6.603,937.343 10.544,935.737 14.259,934.748C9.521,933.585 4.773,932.602 0,931.779L0,925.319ZM7.683,942.02C5.687,943.419 4.264,945.068 5.78,946.34C6.342,946.812 6.963,947.037 7.603,947.075C7.508,946.856 7.446,946.591 7.44,946.35C7.44,946.197 7.438,946.047 7.435,945.897C7.104,944.694 7.275,943.148 7.683,942.02ZM11.044,945.813C10.879,945.64 10.771,945.355 10.71,945.16C10.537,944.603 10.473,944.031 10.416,943.457C10.081,943.571 9.751,943.755 9.48,943.95C9.234,944.128 8.974,944.493 8.711,944.685C8.726,944.726 8.736,944.759 8.74,944.78C8.9,945.58 8.72,946.22 8.49,946.97C8.485,946.987 8.479,947.004 8.474,947.02C9.363,946.861 10.254,946.405 11.044,945.813ZM1000,931.779C991.483,930.311 982.881,929.351 974.09,928.78C966.443,928.285 958.791,928.038 951.138,928.014C951.147,928.286 951.092,928.562 950.98,928.74C950.887,928.872 950.801,928.989 950.719,929.092C950.718,929.228 950.709,929.334 950.69,929.4C949.2,934.64 946.49,940.4 942.57,944.28C939.64,947.19 936.6,945.78 935.8,942C934.93,937.91 936.52,934.12 939.37,931.2C940.194,930.348 941.748,929.09 943.491,928.064C936.379,928.177 929.271,928.476 922.17,928.94C913.67,929.49 905.18,930.25 896.71,931.22C888.628,932.141 879.749,934.558 871.52,934.282C869.753,935.603 867.951,936.847 866.02,937.99C864.04,939.17 861.58,941.2 859.07,940.74C856.04,940.19 854.67,936.6 854.5,933.89C854.28,930.39 855.96,927.36 859.17,925.87C863.93,923.67 869.25,925.61 874.13,926.24C874.978,926.347 875.254,927.997 875.057,929.182C881.418,927.657 888.393,927.354 894.64,926.65C899.67,926.082 904.705,925.587 909.748,925.165C906.303,923.643 902.957,921.529 901.66,917.89C900.54,914.75 901.05,910.49 903.41,908.01C907.24,903.99 911.66,907.92 913.87,911.54C916.139,915.245 917.487,920.215 916.766,924.625C918.53,924.501 920.295,924.386 922.06,924.28C940.26,923.18 958.61,922.61 976.84,923.11C979.437,923.183 982.027,923.315 984.609,923.504C984.387,921.048 982.479,919.022 981.79,916.71C981.3,915.06 981.19,913.27 981.47,911.58C982.08,907.88 985.05,905.83 988.41,908.33C993.043,911.764 993.188,919.711 989.504,923.934C993.019,924.292 996.519,924.755 1000,925.319L1000,931.779ZM588.667,943.323C588.444,944.09 588.164,944.831 587.831,945.553C588.175,945.281 588.517,945.003 588.85,944.71C588.924,944.645 588.998,944.58 589.073,944.514C589.033,944.401 588.998,944.27 588.97,944.12L588.959,944.091L588.94,944.11L588.931,944.017L588.865,943.843C588.83,943.751 588.795,943.659 588.76,943.567L588.667,943.323ZM12.007,944.981C12.637,944.355 13.145,943.673 13.45,943.06C14.092,941.776 14.392,940.181 14.791,938.646C14.247,938.859 13.604,938.984 12.94,939.23C12.577,939.364 11.933,939.639 11.166,940.012C11.609,940.324 11.666,941.12 11.7,941.6C11.78,942.5 12.06,943.36 12.05,944.28C12.046,944.458 12.042,944.718 12.007,944.981ZM8.374,943.854L8.36,943.79C8.357,943.797 8.362,943.82 8.374,943.854ZM310.493,941.89C310.425,941.992 310.361,942.096 310.3,942.2C309.988,942.732 309.776,943.25 309.634,943.762C309.932,943.254 310.254,942.761 310.598,942.284C310.557,942.161 310.522,942.029 310.493,941.89ZM590.257,940.853C590.196,941.709 590.183,942.569 590.226,943.434C590.569,943.088 590.899,942.729 591.203,942.353C590.986,942.467 590.732,942.28 590.47,941.56C590.382,941.311 590.311,941.081 590.257,940.853ZM591.509,941.956C591.523,941.937 591.536,941.919 591.55,941.9C592.11,941.16 592.56,940.36 592.9,939.49C592.59,938.15 592.27,936.81 591.96,935.47C591.395,935.053 590.877,935.027 590.404,935.286C590.471,935.402 590.533,935.53 590.586,935.662C590.591,935.664 590.595,935.667 590.6,935.67C591.43,936.23 591.75,936.8 591.93,937.81C592,938.23 592.01,938.63 592,939.06C591.99,939.64 592.08,940.63 591.79,939.68L591.788,939.682L591.79,939.69C591.925,940.255 591.788,941.351 591.509,941.956ZM316.445,939.899C316.465,940.136 316.469,940.378 316.456,940.617C316.444,940.855 316.415,941.091 316.372,941.314C316.668,940.78 316.76,940.276 316.445,939.899ZM941.349,939.765C941.069,939.986 940.787,940.204 940.503,940.418C940.218,940.632 939.931,940.842 939.642,941.049C940.178,940.784 940.769,940.315 941.349,939.765ZM588.989,937.066C588.721,937.611 588.475,938.241 588.249,938.918C588.436,938.842 588.647,938.908 588.799,939.116C588.836,938.435 588.898,937.754 588.989,937.066ZM52.076,928.213C52.129,931.552 51.958,934.918 51.821,938.27C52.917,936.878 53.637,935.104 53.97,933.44C54.28,931.86 54.44,930.24 53.26,929.01C52.868,928.6 52.463,928.333 52.076,928.213ZM861.06,935.559C860.137,935.606 859.177,935.602 858.162,935.67C858.645,935.877 859.195,935.974 859.74,935.94C860.158,935.913 860.606,935.769 861.06,935.559ZM15.792,935.13C15.869,935.245 15.947,935.36 16.024,935.476C16.077,935.393 16.132,935.311 16.189,935.231L16.073,935.202C16.008,935.185 15.942,935.168 15.877,935.152L15.792,935.13ZM856.967,932.266C856.317,933.55 856.668,934.593 857.445,935.236C857.34,935.047 857.27,934.839 857.24,934.7C857.064,933.89 856.942,933.07 856.967,932.266ZM946.007,930.941C945.142,931.297 944.309,931.731 943.52,932.227C943.589,932.669 943.62,933.149 943.612,933.597C944.456,932.756 945.253,931.872 946.007,930.941ZM867.489,929.266C865.786,929.044 864.036,928.925 862.437,929.088C862.758,930.009 862.852,931.403 862.11,931.66C862.061,931.676 862.001,931.692 861.933,931.709C862.248,931.687 862.555,931.652 862.85,931.6C864.57,931.29 865.51,930.26 866.98,929.51C867.149,929.424 867.318,929.343 867.489,929.266ZM914.928,924.757C914.888,920.881 914.484,917.532 912.05,914.3C910.69,912.508 908.164,909.905 905.645,910.574C905.83,910.759 905.998,910.948 906.15,911.14C906.344,910.929 906.599,910.892 906.87,911.17C910.29,914.65 912.65,918.7 913.85,923.44C913.908,923.665 913.975,924.239 913.961,924.829L914.336,924.801C914.479,924.79 914.622,924.78 914.765,924.769L914.928,924.757ZM986.995,923.696C986.326,919.629 985.615,915.576 984.911,911.518C984.76,911.564 984.609,911.625 984.46,911.7C981.76,913.06 984.15,916.33 984.96,918.19C985.728,919.956 986.21,921.704 986.195,923.628C986.461,923.65 986.728,923.673 986.995,923.696ZM904.634,911.021C901.14,913.133 903.541,917.596 906.14,919.38C907.645,920.416 909.342,921.139 911.068,921.76C910.137,919.578 908.936,917.551 907.437,915.675C907.433,915.798 907.428,915.923 907.42,916.05C907.37,916.81 906.77,917.91 906.18,916.84C905.892,916.318 905.69,915.784 905.569,915.243C905.255,914.53 904.962,913.809 904.66,913.09C904.582,912.907 904.523,911.822 904.634,911.021ZM988.207,912.397C988.744,913.812 989.188,915.274 989.64,916.81C990.11,918.4 988.7,920.73 988.28,918.19C988.08,916.979 987.672,915.795 987.148,914.655C987.503,916.848 987.861,919.041 988.228,921.231C989.887,919.718 990.869,917.501 990.18,915.23C989.884,914.245 989.148,913.16 988.207,912.397ZM576.113,909.222C575.944,909.57 575.849,909.939 575.827,910.33C576.487,910.82 577.165,911.276 577.82,911.71C577.883,911.752 577.95,911.794 578.02,911.835C577.385,910.964 576.75,910.093 576.113,909.222ZM575.254,906.048C574.767,905.908 574.198,905.828 573.7,905.847C574.143,906.137 574.479,906.644 574.746,907.235C574.881,906.833 575.049,906.437 575.254,906.048ZM579.951,876.513C579.827,876.999 579.699,877.485 579.569,877.97C579.845,877.669 580.108,877.354 580.354,877.025C580.216,876.942 580.076,876.752 579.951,876.513ZM580.958,876.129C581.734,874.887 583.11,872.356 581.28,872.31C581.125,872.306 580.976,872.322 580.834,872.356C581.147,873.648 581.177,874.757 580.958,876.129ZM567.582,842.948C568.694,843.992 569.588,845.734 570.03,846.71C570.322,847.361 570.559,848.03 570.743,848.711C570.968,847.843 570.956,846.929 570.47,845.91C569.871,844.658 568.816,843.628 567.582,842.948ZM565.54,846.788C565.369,846.644 565.241,846.402 565.17,846.28C565.133,846.215 565.099,846.149 565.067,846.083C565.007,846.067 564.948,846.052 564.888,846.037C565.113,846.353 565.35,846.659 565.592,846.958C565.573,846.904 565.556,846.847 565.54,846.788ZM121.636,697.928C114.996,697.359 109.56,693.12 109.89,686.04C109.92,685.41 110.16,684.4 110.87,684.23C114.92,683.28 119.2,685.5 120.71,689.4C121.053,690.271 121.213,691.401 120.882,692.321C121.299,692.402 121.716,692.492 122.13,692.6C122.845,692.786 123.279,693.919 123.387,695.097C127.607,698.701 131.664,702.639 135.597,706.59C135.446,705.815 135.35,705.026 135.31,704.23C135.2,702 135.15,696.52 137.97,695.86C140.83,695.19 142.73,699.7 143.19,701.79C144.034,705.622 143.115,709.231 141.643,712.723C142.148,713.235 142.65,713.744 143.15,714.25C151.94,723.12 160.24,732.55 167.54,742.7C167.988,743.322 168.432,743.946 168.874,744.571C168.654,743.778 168.525,742.961 168.487,742.141C167.104,740.519 165.355,739.049 164.38,737.43C163.38,735.77 162.66,733.88 162.61,731.91C162.54,728.95 164.19,724.11 167.87,726.16C170.375,727.559 171.744,730.838 172.446,733.946C172.947,734.233 173.023,735.433 172.889,736.461C172.944,736.89 172.987,737.302 173.02,737.69C173.338,741.464 172.951,745.425 172.069,749.197C177.883,757.789 183.261,766.684 188.57,775.58C191.074,779.774 193.551,784.004 195.927,788.292C194.565,781.468 194.198,772.516 201.2,774.5C204.88,775.55 206.09,779.28 206.03,782.76C205.94,787.96 202.92,791.85 200.21,796.02C200.179,796.068 200.147,796.112 200.117,796.151C202.562,800.948 204.83,805.828 206.82,810.82C207.4,812.29 206.37,818.13 205.05,815.15C198.953,801.356 191.808,787.835 183.989,774.739C178.886,775.422 173.097,775.684 168.07,774.32C165.53,773.63 163.68,772.14 163.42,769.42C162.72,762.085 173.11,764.222 178.522,765.821C175.97,761.763 173.36,757.751 170.704,753.791C170.014,755.204 169.268,752.875 169.047,751.337C168.003,749.798 166.949,748.265 165.89,746.74C162.437,741.766 158.745,736.983 154.876,732.345C154.855,732.357 154.833,732.369 154.81,732.38C150.75,734.3 144.96,734.84 140.5,735.22C137.4,735.49 135.52,733.93 135.15,730.84C134.86,728.41 135.54,725.36 137.62,723.84C140.003,722.087 144.328,722.118 146.471,724.146C146.943,724.18 147.42,724.235 147.891,724.312C146.037,722.261 144.155,720.236 142.25,718.23C135.657,711.273 128.352,704.826 121.636,697.928ZM867.925,739.638C867.495,739.072 867.24,738.26 867.141,737.141C866.961,735.121 867.571,732.661 869.351,731.451C869.99,731.016 870.708,730.783 871.464,730.699C874.005,727.206 877.934,724.713 882.011,726.821C886.931,729.371 886.711,737.361 881.551,739.391C878.954,740.41 875.993,740.474 873.178,740.607C861.574,748.613 847.901,753.895 835.081,759.351C828.906,761.98 822.691,764.382 816.395,766.495C817.339,766.922 818.199,767.526 818.871,768.321C820.651,770.421 821.041,773.711 819.951,776.221C818.411,779.791 814.931,779.251 812.141,777.471C809.232,775.615 807.075,772.901 805.838,769.736C799.41,771.52 792.877,772.979 786.201,774.051C770.256,776.609 754.094,778.289 737.866,779.475C738.932,780.408 739.873,781.401 740.631,782.361C743.481,785.971 744.261,791.131 742.331,795.331C742.221,795.561 741.921,796.171 741.551,796.111C733.461,794.921 727.391,789.211 724.811,781.581C724.699,781.249 724.671,780.801 724.706,780.336C708.185,781.298 691.649,781.856 675.261,782.411C673.291,782.481 673.141,776.101 675.101,776.041C705.6,775.134 736.382,773.81 766.823,770.664C767.143,767.013 768.329,763.443 770.101,760.241C770.488,759.543 771.021,758.62 771.662,757.696C771.767,757.13 772.003,756.715 772.405,756.692C774.176,754.465 776.517,752.73 778.821,754.891C781.291,757.211 781.111,761.491 779.631,764.261C778.291,766.76 776.085,768.646 773.572,769.935C777.101,769.538 780.629,769.114 784.151,768.661C801.664,766.41 818.19,761.634 834.453,754.877C834.428,754.572 834.43,754.305 834.441,754.171C834.591,752.165 835.019,750.432 835.708,748.867C835.816,746.269 836.37,743.694 837.741,741.521C839.771,738.301 843.491,736.641 847.131,737.901C848.051,738.211 847.861,740.341 847.751,740.971C847.037,745.208 845.153,748.766 842.393,751.587C851.027,748.028 859.838,744.334 867.925,739.638ZM737.69,784.342C738.054,784.971 738.146,786.013 738.171,786.461C738.221,787.411 738.231,788.361 738.251,789.321C738.254,789.468 738.223,789.78 738.154,790.126C739.07,790.441 740.007,790.689 740.957,790.867C741.45,788.636 739.951,786.305 737.69,784.342ZM202.159,780.338C202.551,781.636 202.523,783.646 201.44,783.69C201.011,783.708 200.626,783.676 200.256,783.611C200.45,785.265 200.503,786.918 200.41,788.572C202.175,785.693 204.163,782.078 202.159,780.338ZM737.365,787.562C737.361,787.641 737.353,787.715 737.341,787.781C737.391,787.601 737.451,787.411 737.501,787.231L737.365,787.562ZM197.437,781.301C197.078,782.986 197.546,785.506 198.124,787.626C198.232,785.722 198.042,783.831 197.53,781.87C197.498,781.743 197.464,781.543 197.437,781.301ZM730.204,785.018C730.6,785.442 731.015,785.847 731.449,786.232C731.324,785.98 731.209,785.724 731.103,785.462C730.791,785.329 730.491,785.18 730.204,785.018ZM732.705,781.129C732.99,781.763 733.167,782.447 733.331,783.251C733.389,783.529 733.416,784.082 733.345,784.611C733.396,784.679 733.448,784.745 733.501,784.811C733.991,785.671 734.761,786.021 735.831,785.861L735.842,785.824C735.895,784.939 736.123,783.99 736.781,783.851C736.895,783.828 736.999,783.827 737.095,783.847C735.765,782.787 734.23,781.854 732.705,781.129ZM729.572,780.04L729.321,780.056C729.619,780.307 729.937,780.535 730.271,780.741C730.292,780.555 730.32,780.363 730.357,780.178C730.19,780.123 730.025,780.07 729.862,780.022L729.572,780.04ZM333.926,638.379C334.009,639.425 333.901,640.96 333.03,640.93C327.68,640.75 326,634.93 325.46,630.52C325.07,627.32 324.74,622.22 327.53,619.89C331.53,616.55 334.97,622.33 335.94,625.55C337.192,629.687 337.199,633.939 336.256,638.082C336.32,638.236 336.384,638.389 336.45,638.54C338.28,642.78 340.24,646.97 342.33,651.1C345.999,658.349 350.064,665.399 354.52,672.203C354.255,669.934 354.264,667.631 354.59,665.33C355.12,661.6 357.13,656.61 361.74,656.97C366.47,657.34 365.8,664.96 365.67,668.29C365.481,673.033 364.301,678.366 361.564,682.365C370.471,694.527 380.656,705.878 392.63,715.02C398.058,719.164 403.764,722.906 409.618,726.417C408.274,724.33 407.318,722.031 407.04,719.53C406.59,715.54 408.16,710.43 413.1,711.19C418.26,711.98 420.8,718.91 421.49,723.34C421.874,725.82 422.232,730.098 420.865,732.84C427.325,736.384 433.868,739.786 440.33,743.26C458.32,752.93 476.43,762.47 494.18,772.59C495.84,773.53 495.38,779.63 493.6,778.69C480.387,771.727 467.339,764.44 454.311,757.121C454.167,757.485 453.975,757.762 453.74,757.89C447.78,761.11 431.86,772.91 429.06,759.48C428.26,755.64 429.88,751.71 433.47,749.96C435.52,748.962 437.791,748.837 440.106,749.141C439.42,748.757 438.735,748.373 438.05,747.99C421.16,738.54 403.57,729.63 388.61,717.2C386.737,715.644 384.91,714.034 383.128,712.379C382.99,712.859 382.79,713.248 382.55,713.43C377.48,717.24 361.5,724.84 360.18,713.5C359.146,704.631 369.435,704.391 376.302,705.595C369.449,698.327 363.287,690.379 357.675,682.121C357.507,682.054 357.341,681.884 357.2,681.58C357.126,681.418 357.053,681.255 356.981,681.093C355.762,679.279 354.569,677.45 353.4,675.61C348.64,668.12 344.29,660.35 340.42,652.36C338.663,648.727 336.683,644.885 334.983,640.945C334.549,640.692 334.12,639.494 333.991,638.546C333.969,638.49 333.947,638.434 333.926,638.379ZM813.602,769.821C813.659,770.026 813.698,770.249 813.72,770.479C814.33,770.284 815.118,770.567 816.021,771.621C816.496,772.183 816.457,773.859 816.123,774.774C816.574,774.776 817.017,774.694 817.441,774.501C820.811,772.961 816.441,770.271 814.621,769.961C814.282,769.903 813.942,769.856 813.602,769.821ZM177.083,770.283C175.531,769.985 173.968,769.782 172.37,769.68C171.351,769.611 170.326,769.565 169.3,769.575C169.934,769.768 170.509,769.939 170.83,769.98C172.27,770.16 173.75,770.27 175.2,770.3C175.829,770.313 176.457,770.306 177.083,770.283ZM181.024,769.846C181.018,769.878 181.011,769.91 181.004,769.941L181.077,769.931L181.024,769.846ZM811.621,769.745C811.286,769.753 810.951,769.771 810.618,769.798C810.944,769.896 811.272,769.94 811.59,769.908C811.599,769.853 811.609,769.799 811.621,769.745ZM770.611,766.67C770.975,766.592 771.471,766.432 771.811,766.301C773.841,765.531 776.111,764.181 777.391,762.381C778.111,761.371 779.091,759.951 777.601,759.271C776.613,758.821 775.73,759.36 775,760.077C775.144,761.059 775.077,762.087 774.861,762.931C774.631,763.821 774.211,764.771 773.401,765.251C772.841,765.581 771.901,765.461 771.251,765.841C771.116,765.919 770.995,765.991 770.887,766.057C770.791,766.26 770.699,766.465 770.611,766.67ZM443.403,758.572C443.369,758.455 443.338,758.328 443.31,758.19C443.228,757.809 442.725,757.501 442.269,757.287C442.239,757.355 442.209,757.423 442.18,757.49C442.14,757.99 441.83,759.53 440.98,759.13C439.97,758.65 438.42,758.82 437.89,759.97C437.76,760.25 437.4,760.87 436.99,760.55C436.55,760.21 436.13,760.04 435.58,760.14C435.155,760.212 434.767,760.657 434.545,760.52C434.505,760.56 434.465,760.583 434.425,760.593C434.654,760.662 434.887,760.721 435.12,760.77C438.178,761.411 440.849,760.239 443.403,758.572ZM433.122,755.266C432.898,755.422 432.695,755.602 432.52,755.81C431.031,757.586 431.486,758.9 432.653,759.754C432.65,759.215 432.65,758.672 432.65,758.13L432.65,758.11L432.65,758.11C432.651,757.9 432.665,757.495 432.745,757.107C432.743,756.944 432.741,756.782 432.74,756.62C432.74,756.324 432.891,755.662 433.122,755.266ZM445.161,755.59C445.202,756.157 445.218,756.725 445.233,757.297C445.765,756.91 446.294,756.515 446.824,756.124C446.274,755.945 445.719,755.765 445.161,755.59ZM438.174,754.211C437.932,754.207 437.69,754.21 437.45,754.22C436.278,754.271 434.768,754.398 433.612,754.976C433.721,755.031 433.835,755.169 433.95,755.42C434.102,755.753 434.231,756.083 434.341,756.414C434.402,756.363 434.465,756.315 434.529,756.271C434.575,756.033 434.612,755.788 434.64,755.53C434.829,753.762 435.945,754.559 435.96,755.874C436.259,755.897 436.577,755.982 436.912,756.137L436.916,756.131C437.104,755.339 437.438,754.706 438.174,754.211ZM438.805,754.235C438.882,754.312 438.955,754.395 439.022,754.481C439.366,754.384 439.731,754.343 440.108,754.366C439.672,754.305 439.238,754.261 438.805,754.235ZM838.419,751.253C838.202,751.312 837.984,751.338 837.765,751.324C837.765,751.433 837.765,751.543 837.766,751.652C837.987,751.525 838.205,751.392 838.419,751.253ZM845.51,741.79C844.166,741.725 842.85,742.069 841.701,742.754C841.723,742.809 841.74,742.857 841.751,742.891C842.321,744.721 842.261,746.701 841.371,748.431C841.209,748.748 840.998,749.089 840.749,749.422C842.955,747.343 844.637,744.651 845.51,741.79ZM167.93,737.412C168.267,737.752 168.614,738.088 168.956,738.427C169.005,738.268 169.059,738.109 169.116,737.952C168.699,737.82 168.303,737.638 167.93,737.412ZM874.749,735.283C874.189,735.092 873.618,734.94 873.021,734.866C872.54,735.434 872.117,736.052 871.753,736.71C872.079,736.706 872.415,736.682 872.754,736.646C873.426,736.201 874.091,735.747 874.749,735.283ZM879.776,735.532C879.962,735.477 880.147,735.417 880.331,735.351C881.731,734.841 884.501,733.571 882.261,732.101C880.684,731.066 878.639,731.267 876.969,731.96C877.431,732.181 877.87,732.415 878.274,732.646C878.634,732.361 878.989,732.073 879.341,731.781C880.191,731.081 880.751,734.681 879.881,735.441L879.776,735.532ZM169.057,733.906C169.038,733.874 169.019,733.842 169,733.81C168.48,732.77 167.75,731.91 166.81,731.2C166.775,731.214 166.74,731.227 166.706,731.241C166.721,731.288 166.736,731.338 166.75,731.39C167.137,732.804 167.998,733.576 169.057,733.906ZM165.081,732.325C164.97,732.494 164.91,732.669 164.903,732.85C164.896,733.031 164.94,733.219 165.037,733.412C165.009,733.065 165.027,732.689 165.081,732.325ZM417.928,721.085C418.069,722.109 418.21,723.132 418.36,724.15C418.386,724.313 418.369,724.784 418.298,725.305C418.401,726.582 418.229,728.402 417.24,727.9C416.039,727.288 415.244,726.291 414.768,725.129C414.753,725.138 414.737,725.147 414.721,725.155C414.79,725.786 414.718,726.479 414.48,726.99L414.471,727.008C415.138,727.628 415.811,728.242 416.46,728.88C416.746,729.159 416.874,729.863 416.876,730.625C417.103,730.753 417.33,730.88 417.557,731.007C419.95,729.589 419.396,725.095 418.74,723.07C418.524,722.403 418.253,721.734 417.928,721.085ZM143.563,727.972C143.511,728.158 143.431,728.325 143.32,728.46C142.8,729.1 142.47,728.99 141.69,729C141.15,729.01 140.58,728.99 140.06,729.15C139.5,729.32 139.14,729.64 138.81,730.1C138.738,730.195 138.67,730.301 138.595,730.399C138.814,730.437 139.074,730.465 139.38,730.48C139.743,730.498 140.105,730.497 140.467,730.48C140.411,729.963 140.544,729.388 140.91,729.27C142.708,728.676 144.079,729.192 145.71,729.403C146.548,729.146 147.386,728.873 148.226,728.618C148.187,728.608 148.148,728.599 148.11,728.59C146.599,728.242 145.087,728.146 143.563,727.972ZM138.499,730.381C138.553,730.205 138.583,730.026 138.58,729.92C138.58,729.83 138.58,729.74 138.57,729.65C138.476,729.875 138.383,730.104 138.291,730.332C138.355,730.349 138.425,730.366 138.499,730.381ZM409.458,716.807C409.021,717.592 408.936,718.837 409.4,720.61C409.582,721.305 409.98,721.97 410.435,722.593C410.413,722.19 410.442,721.799 410.49,721.51C410.526,721.306 410.628,720.961 410.78,720.676C410.58,720.498 410.365,720.335 410.144,720.185C410.099,720.159 410.055,720.135 410.01,720.11L410.011,720.097L410,720.09C409.355,719.673 409.182,717.895 409.458,716.807ZM416.035,718.296C415.403,717.605 414.684,717.004 413.88,716.54C412.553,715.774 411.241,715.544 410.326,715.981C410.347,715.989 410.368,715.999 410.39,716.01C410.724,716.18 411.042,716.367 411.342,716.569C411.622,716.508 411.903,716.681 412.067,717.113C412.755,717.687 413.342,718.353 413.835,719.095C414.106,718.485 414.526,718.177 415.07,719.1C415.261,719.426 415.452,719.752 415.643,720.077C415.646,719.453 415.738,718.726 416.035,718.296ZM364.601,714.18C364.515,714.276 364.43,714.375 364.346,714.476C364.439,714.512 364.534,714.544 364.633,714.573C364.615,714.44 364.605,714.308 364.601,714.18ZM375.68,711.958C374.735,712.112 373.793,712.494 372.809,713.161C373.156,713.028 373.452,712.91 373.68,712.82C374.356,712.552 375.022,712.263 375.68,711.958ZM371.937,709.371C370.922,709.342 369.908,709.378 368.907,709.498C369.185,710.22 369.153,711.407 368.824,711.956C369.934,711.334 370.931,710.275 371.937,709.371ZM140.049,707.718C140.46,706.681 140.812,705.59 140.8,704.6C140.79,703.39 139.71,701.22 138.22,701.4C137.713,701.462 137.457,701.871 137.355,702.432C137.463,702.133 137.624,701.9 137.86,701.81C138.682,701.498 139.049,702.624 139.146,703.297C139.466,704.768 139.763,706.242 140.049,707.718ZM629.919,522.722C627.203,518.422 624.953,513.905 625.552,508.646C626.012,504.616 628.392,500.186 632.922,500.006C637.722,499.816 639.782,504.446 639.492,508.616C639.132,513.864 635.714,517.973 632.391,521.788C631.142,531.872 630.566,541.979 630.484,552.096C631.069,549.489 631.928,547.016 633.402,545.126C635.732,542.126 640.212,541.136 642.502,544.666C648.254,553.52 636.73,561.224 630.658,565.79C631.077,578.791 632.179,591.797 633.582,604.776C634.325,611.643 635.533,618.149 637.285,624.466C636.961,620.423 636.655,616.114 637.762,612.536C638.732,609.376 641.862,606.536 645.042,609.026C651.862,614.346 643.742,628.686 640.642,633.816C640.57,633.935 640.497,634.019 640.426,634.072C642.139,638.602 644.167,643.077 646.542,647.566C647.253,648.912 647.969,650.255 648.687,651.597L648.702,651.606C649.045,651.8 649.286,652.325 649.417,652.956C655.379,664.042 661.562,675.007 667.552,686.076C668.482,687.796 667.342,694.376 665.512,691.076C659.773,680.728 653.837,670.432 648.271,659.964C648.122,660.144 647.929,660.276 647.682,660.336C642.452,661.596 637.052,660.966 631.982,659.296C628.052,658.006 625.302,657.366 625.872,652.796C626.922,644.391 635.617,645.927 642.454,648.628C642.296,648.306 642.139,647.986 641.982,647.666C635.262,633.906 632.182,619.856 630.672,604.686C630.451,602.456 630.233,600.221 630.023,597.985C629.876,598.116 629.689,598.172 629.452,598.126C625.212,597.306 620.532,596.656 617.592,593.096C617.151,592.56 616.78,591.978 616.482,591.362C615.302,591.335 614.186,590.369 614.272,588.486C614.319,587.442 614.814,586.35 615.735,585.866C615.825,585.375 615.957,584.89 616.132,584.416C617.412,580.956 620.702,579.816 623.652,582.086C625.442,583.456 626.682,585.576 627.932,587.396C628.368,588.031 628.81,588.664 629.249,589.299C627.404,567.148 626.627,544.668 629.919,522.722ZM115.287,689.388C114.464,689.079 113.583,688.914 112.649,688.919C113.336,689.707 114.416,690.367 115.275,690.802C115.193,690.409 115.185,689.778 115.287,689.388ZM359.815,679.943C359.835,679.838 359.86,679.752 359.89,679.69C361.399,676.212 362.501,672.993 362.974,669.648C362.904,669.693 362.826,669.725 362.74,669.74C362.168,669.843 361.826,670.658 361.461,671.441C361.484,671.55 361.507,671.66 361.53,671.77C361.75,672.79 360.94,675.79 360.26,673.56L360.129,673.131L360.12,673.14L360.101,673.038L360.076,672.955C359.854,672.956 359.602,672.869 359.308,672.666C359.345,674.701 359.244,676.745 359.008,678.803C359.276,679.184 359.545,679.564 359.815,679.943ZM356.667,666.041C356.598,666.26 356.539,666.48 356.49,666.7C355.845,669.632 356.398,672.795 357.402,675.682C357.61,672.433 357.355,669.234 356.667,666.041ZM362.141,661.915C362.662,663.061 362.997,664.174 363.221,665.335C363.194,664.346 363.11,663.333 362.963,662.29C362.685,662.126 362.411,662.002 362.141,661.915ZM360.971,661.755C360.61,661.774 360.262,661.855 359.929,661.988C360.169,662.428 360.407,662.868 360.645,663.309L360.64,663.16C360.627,662.845 360.757,662.218 360.971,661.755ZM633.165,656.09L633.152,656.076C633.164,656.089 633.168,656.093 633.165,656.09ZM644.532,655.593C643.9,655.286 643.184,655.151 642.458,655.173C641.732,655.195 640.995,655.374 640.324,655.696C641.711,655.72 643.112,655.679 644.532,655.593ZM631.642,654.488C631.279,654.154 630.919,653.867 630.646,653.75C630.374,653.632 630.19,653.684 630.179,654.028C630.666,654.195 631.154,654.349 631.642,654.488ZM628.162,653.176C628.15,653.194 628.139,653.212 628.128,653.231L628.161,653.245L628.161,653.208L628.162,653.176ZM638.161,652.409C638.172,652.442 638.182,652.474 638.192,652.506C638.245,652.686 638.298,652.865 638.352,653.044C638.512,652.902 638.675,652.769 638.839,652.645C638.614,652.566 638.388,652.487 638.161,652.409ZM633.265,651.299L633.325,651.37C633.376,651.347 633.427,651.325 633.477,651.306C633.406,651.303 633.335,651.3 633.265,651.299ZM327.477,625.137C326.741,626.515 327.058,628.583 327.26,630.02C327.632,632.679 328.63,635.068 330.863,636.024L330.583,635.184L330.368,634.54C330.214,634.64 330.027,634.577 329.8,634.26C328.105,631.893 327.571,629.416 327.789,626.684C327.713,626.372 327.637,626.061 327.56,625.75C327.531,625.63 327.498,625.408 327.477,625.137ZM334.752,634.103C334.968,632.278 334.881,630.437 334.34,628.6C333.77,626.671 332.384,623.906 330.206,623.724C331.625,624.934 332.169,626.738 332.209,628.709C333.279,630.335 334.045,632.211 334.752,634.103ZM331.606,630.937C331.59,630.938 331.574,630.938 331.558,630.937L331.701,631.361C331.668,631.219 331.637,631.078 331.606,630.937ZM639.544,630C640.719,627.708 641.801,625.37 642.772,622.986C643.332,621.606 643.842,620.216 644.292,618.806C645.042,616.466 645.242,616.596 643.832,614.176C643.144,612.192 642.375,611.518 641.53,612.149C641.883,612.4 642.215,613 642.296,613.708C642.41,613.619 642.535,613.538 642.672,613.466C643.952,612.786 643.712,616.336 643.382,616.876C643.292,616.866 643.192,616.846 643.102,616.826C643.172,617.419 642.701,619.984 641.989,619.346C641.887,619.703 641.743,620.076 641.572,620.322L641.575,620.608L641.582,620.646L641.575,620.648L641.582,621.226C641.592,622.178 641.279,622.905 640.897,623.132C640.712,625.431 640.26,627.708 639.544,630ZM640.542,613.42C640.37,613.728 640.195,614.083 640.018,614.486C640.082,614.521 640.144,614.575 640.205,614.649C640.299,614.526 640.401,614.433 640.505,614.374L640.513,614.157C640.509,614.091 640.506,614.024 640.502,613.956L640.521,613.955L640.531,613.691L640.542,613.42ZM621.853,589.342C621.547,589.904 621.037,590.275 620.112,590.446C619.952,590.426 619.832,590.356 619.742,590.226L619.107,589.4C619.09,589.601 619.072,589.803 619.052,590.006L619.05,590.028C619.717,590.566 620.618,591.011 621.302,591.306C622.481,591.817 623.805,592.096 625.151,592.298C624.826,591.851 624.529,591.458 624.287,591.162C624.152,591.331 623.979,591.458 623.762,591.526C623.662,591.566 623.562,591.596 623.462,591.626C623.262,591.616 623.102,591.526 622.992,591.356C622.742,591.04 622.511,590.539 622.354,589.973L622.264,589.859C622.193,589.771 622.123,589.682 622.053,589.594L621.853,589.342ZM623.546,586.411C622.699,585.697 621.727,585.206 620.562,585.206C619.952,585.206 619.382,585.34 618.913,585.584C619.299,586.383 619.945,586.754 620.852,586.716C620.882,586.486 621.162,585.066 621.742,585.506C622.392,586.001 622.648,586.243 623.006,586.593C623.193,586.482 623.373,586.426 623.546,586.411ZM636.065,552.638C635.695,553.113 635.323,553.588 634.943,554.055C634.397,555.297 633.85,556.54 633.303,557.783C634.575,556.722 635.853,555.667 637.132,554.616L637.15,554.601C636.881,553.888 636.52,553.254 636.065,552.638ZM638.956,552.957C640.997,550.89 643.028,547.939 639.222,547.016C637.675,546.64 636.437,547.021 635.437,547.891C635.593,547.855 635.764,547.913 635.942,548.116C636.052,548.24 636.159,548.366 636.263,548.493C636.513,548.196 636.76,547.897 637.002,547.596C637.462,547.016 637.872,547.716 638.002,548.166C638.44,549.739 638.757,551.34 638.956,552.957ZM634.922,548.405C633.953,549.502 633.236,551.094 632.689,552.861C632.841,552.648 632.997,552.438 633.155,552.23C633.738,550.968 634.32,549.706 634.902,548.446C634.909,548.432 634.916,548.419 634.922,548.405ZM151.644,362.944C151.538,362.807 151.438,362.571 151.35,362.21C150.45,358.34 151.02,354.3 153.22,350.95C154.79,348.56 159.26,344.49 162.5,346.11C165.52,347.62 164.22,353.93 163.21,356.26C161.558,360.064 158.224,362.335 154.751,364.303C149.117,375.846 142.024,386.772 136.4,398.28C134.209,402.763 132.509,407.411 131.118,412.154C131.787,410.771 132.63,409.475 133.62,408.33C135.58,406.07 138.32,405.7 139.13,409.09C139.94,412.47 138.16,415.76 135.84,418.1C134.181,419.775 131.313,421.588 128.655,421.93C127.306,428.128 126.26,434.412 125.14,440.64C123.631,449.02 122.213,457.445 121.147,465.909C121.227,465.77 121.312,465.634 121.4,465.5C122.9,463.21 125.7,462.48 127.27,465.1C128.77,467.6 128.32,471.2 126.78,473.55C125.85,474.97 124.52,476.12 123.32,477.3C122.115,478.483 120.937,479.756 119.681,480.906C119.576,482.494 119.488,484.081 119.42,485.67C119.09,493.4 119.24,501.19 120.14,508.88C120.96,515.86 123.6,522.78 123.83,529.75C123.85,530.33 123.4,533.07 122.34,531.81C120.28,529.36 119.92,525.56 119.27,522.51C118.535,519.091 117.945,515.636 117.502,512.161C111.457,512.389 107.031,506.138 107.78,500.29C108.2,496.98 110.54,494.58 113.73,496.89C114.836,497.688 115.742,498.68 116.463,499.796C116.303,496.056 116.278,492.311 116.37,488.57C116.681,475.766 118.276,463.077 120.389,450.467C120.292,450.497 120.182,450.476 120.06,450.39C117.5,448.61 115.27,446.05 114.14,443.11C113.31,440.95 112.82,437.12 114.84,435.37C117.36,433.19 120.07,436.56 120.98,438.7C121.403,439.687 121.712,440.72 121.92,441.776C123.17,434.915 124.314,427.911 125.798,420.994C125.758,420.888 125.723,420.779 125.69,420.67C125.62,420.43 125.54,420.2 125.47,419.96C125.093,418.739 125.699,417.429 126.732,416.856C128.444,409.669 130.627,402.626 133.79,395.99C134.614,394.26 135.48,392.548 136.372,390.849C134.28,387.874 132.717,384.421 132.24,380.81C131.9,378.28 132.29,373.16 135.93,373.22C138.9,373.27 140.49,378.48 141.3,380.67C141.395,380.931 141.473,381.192 141.536,381.454C142.567,379.622 143.598,377.794 144.61,375.96C146.957,371.707 149.198,367.246 151.644,362.944ZM1000,511.459C998.655,511 997.313,510.534 995.974,510.06C994.615,509.581 993.26,509.094 991.907,508.6L991.934,508.62C992.304,508.89 992.334,509.64 992.244,510.05C990.994,514.49 985.404,516.51 981.334,517.96C978.164,519.08 974.144,520.03 972.664,516.12C969.884,508.789 975.748,505.921 982.004,504.839C979.137,503.71 976.281,502.553 973.434,501.37C958.294,495.07 943.394,488.06 929.044,480.11C926.244,478.559 923.456,476.984 920.686,475.386C920.293,480.592 914.87,484.088 910.254,485.11C907.874,485.63 903.754,486.36 901.654,484.75C899.964,483.45 899.654,480.71 899.904,478.74C900.668,472.783 907.882,471.613 913.147,470.958C892.25,458.461 872.178,444.572 853.162,429.371C852.898,429.485 852.632,429.416 852.401,429.025C850.223,430.811 846.145,429.104 843.524,428.07C839.484,426.48 834.774,423.41 834.454,418.62C834.104,413.57 838.544,411.17 843.104,412.53C847.977,413.98 850.731,418.273 852.692,422.699C853.592,422.945 853.825,424.302 853.812,425.442C853.857,425.58 853.901,425.73 853.942,425.888C865.475,435.307 877.451,444.152 889.85,452.367C888.863,450.317 888.223,448.111 887.944,445.8C887.634,443.23 887.124,438.19 890.014,436.88C897.642,433.429 895.773,452.143 894.848,455.63C905.814,462.681 917.106,469.242 928.704,475.27C936.993,479.577 945.364,483.713 953.837,487.617C950.951,482.368 946.546,473.418 952.454,471.42C959.414,469.064 960.148,484.45 959.901,490.364C964.016,492.195 968.156,493.969 972.324,495.68C980.034,498.84 987.824,501.78 995.664,504.58C997.107,505.094 998.552,505.6 1000,506.1L1000,511.459ZM631.716,512.737C631.685,512.712 631.654,512.681 631.622,512.646C631.334,512.312 631.043,511.98 630.751,511.649C630.761,512.319 630.716,513.002 630.612,513.706C630.536,514.234 630.417,514.554 630.28,514.717C630.409,515.614 630.582,516.505 630.802,517.393C631.085,515.836 631.389,514.285 631.716,512.737ZM0,506.1C2.356,506.914 4.718,507.71 7.084,508.49C11.124,509.82 15.874,510.61 19.354,513.08C20.094,513.61 20.494,516.7 19.224,516.83C15.344,517.22 11.054,515.1 7.404,513.92C4.928,513.118 2.459,512.3 0,511.459L0,506.1ZM636.44,509.612C634.708,510.9 633.623,512.422 633.432,514.686C633.412,514.929 633.38,515.134 633.339,515.302C634.104,514.212 634.827,513.093 635.502,511.976C635.957,511.227 636.279,510.41 636.44,509.612ZM628.353,507.877C628.026,508.53 627.864,509.274 627.83,510.073C627.796,510.872 627.889,511.725 628.07,512.596C628.028,511.032 628.119,509.458 628.353,507.877ZM632.999,505.309C632.877,505.317 632.751,505.329 632.622,505.346C631.211,505.521 630.169,505.945 629.423,506.548C629.594,506.656 629.763,506.899 629.912,507.316C629.932,507.371 629.952,507.426 629.971,507.481C630.076,507.484 630.193,507.539 630.322,507.666C630.755,508.092 631.183,508.518 631.613,508.944C631.957,507.676 632.421,506.501 632.999,505.309ZM111.543,503.185C111.359,503.488 111.1,503.732 110.752,503.881C111.733,505.434 113.298,506.541 115.036,507.165C114.49,506.798 113.998,506.368 113.557,505.876C113.429,505.879 113.281,505.811 113.11,505.65C112.547,505.12 112.234,504.546 112.052,503.887C111.888,503.648 111.719,503.415 111.543,503.185ZM458.001,359.842C457.825,359.231 457.755,358.542 457.75,358.34C457.731,357.105 457.788,355.861 457.934,354.629C456.734,343.841 464.388,332.931 476.26,334.15C476.7,334.2 477,334.59 477.17,334.97C479.4,340.09 478.96,346.03 475.85,350.72C472.8,355.311 467.818,357.716 462.752,359.557C454.784,373.343 445.777,386.712 437.47,400.18C432.417,408.373 427.386,416.592 422.159,424.679C422.345,424.655 422.533,424.632 422.72,424.61C428.55,423.93 435.66,424.38 436.85,431.44C439.007,444.201 419.773,446.068 411.107,441.015C409.904,442.698 408.686,444.37 407.45,446.03C395.292,462.363 380.696,478.234 363.479,489.721C369.399,491.413 373.43,497.726 369.97,503.67C365.03,512.15 354.5,502.82 349.6,499.37C349.255,499.126 349.017,498.633 348.874,498.029C343.055,500.779 336.98,502.999 330.64,504.57C329.62,504.82 329.38,501.15 330.55,500.75C337.361,498.503 343.835,495.712 349.993,492.453C351.121,490.601 353.292,489.638 355.69,489.256C364.102,484.257 371.908,478.374 379.176,471.819C376.292,465.242 370.738,443.92 381.84,445.22C386.78,445.8 387.9,452 387.83,455.96C387.764,459.372 386.981,462.666 385.608,465.712C393.673,457.659 401.045,448.787 407.83,439.43C408.048,439.13 408.264,438.829 408.482,438.527C408.382,438.166 408.33,437.744 408.338,437.33C407.94,436.412 408.038,434.843 408.17,434.31C409.406,429.231 413.005,426.841 417.355,425.612C419.336,422.609 421.282,419.583 423.206,416.542C422.989,416.198 422.829,415.727 422.76,415.33C422.733,415.175 422.707,415.021 422.682,414.866C422.655,414.856 422.628,414.844 422.6,414.83C422.22,414.77 421.83,414.7 421.45,414.64C420.81,414.863 420.819,413.403 420.984,413.004C418.015,408.946 417.14,402.86 417.21,398.13C417.26,394.75 417.82,385.66 422.47,385.04C430.144,384.019 428.853,399.218 426.736,408.997C426.729,409.213 426.721,409.431 426.71,409.65C426.689,410.015 426.539,410.638 426.27,411.01C426.176,411.391 426.082,411.759 425.988,412.112C429.768,406.05 433.48,399.942 437.21,393.85C442.06,385.93 446.95,378.03 451.83,370.13C453.916,366.748 455.942,363.288 458.001,359.842ZM365.851,494.545C365.932,494.782 366.001,495.03 366.06,495.29C366.14,495.64 366.39,498.46 365.41,498.19C364.986,498.076 364.562,497.96 364.139,497.844C364.127,498.553 364.019,499.599 363.26,499.83C362.74,499.989 362.223,500.145 361.706,500.302C361.95,500.367 362.195,500.423 362.44,500.47C363.81,500.73 365.72,500.76 366.94,499.97C369.547,498.284 367.86,495.903 365.851,494.545ZM957.654,489.358C957.846,485.184 957.577,477.346 953.954,475.58C953.105,475.168 952.562,475.176 952.23,475.425C952.746,475.848 953.182,476.302 953.551,476.797C953.876,476.514 954.284,476.593 954.474,477.41C954.598,477.944 954.722,478.478 954.846,479.011C955.211,479.112 955.541,479.638 955.514,480.59C955.508,480.894 955.497,481.203 955.488,481.511C956.378,483.755 956.93,486.125 957.154,488.62C957.165,488.731 957.16,488.91 957.14,489.125L957.465,489.272L957.654,489.358ZM904.453,478.992C904.159,479.136 903.873,479.296 903.594,479.47C903.535,479.551 903.477,479.627 903.423,479.699C903.873,479.764 904.312,479.816 904.762,479.842C904.615,479.629 904.512,479.327 904.453,478.992ZM914.014,477.763C913.681,477.904 913.373,478.027 913.104,478.11C912.116,478.414 911.207,478.639 910.311,478.625C909.907,478.938 909.486,479.204 909.043,479.422C910.695,479.083 912.444,478.543 914.014,477.763ZM121.649,471.14C121.507,471.644 121.413,472.184 121.353,472.736C121.514,472.399 121.647,472.05 121.75,471.689C121.705,471.506 121.672,471.323 121.649,471.14ZM123.829,470.895C124.208,470.498 124.586,470.103 124.96,469.71C125.64,468.99 126.38,468.55 124.69,468.25C124.239,468.171 123.856,468.265 123.519,468.455C123.694,468.947 123.802,469.479 123.81,469.63C123.834,470.055 123.841,470.477 123.829,470.895ZM382.08,465.821C383.524,463.801 384.653,461.611 385.26,459.16C386.234,455.225 384.207,448.041 379.874,450.778C379.919,450.945 379.959,451.137 379.993,451.354C380.109,451.279 380.241,451.276 380.388,451.368C380.656,450.47 381.096,449.977 381.68,451.14L381.782,451.345C381.864,451.402 381.95,451.482 382.04,451.59C382.15,451.72 382.256,451.85 382.358,451.98C382.64,451.693 382.975,451.731 383.32,452.49C383.807,453.566 384.158,454.589 384.398,455.669C384.508,455.967 384.611,456.273 384.71,456.59C384.833,456.979 384.725,458.956 384.311,459.845C384.034,460.562 383.617,460.919 383.087,459.912C382.888,460.438 382.578,460.741 382.11,460.42C381.991,460.338 381.885,460.266 381.791,460.201C381.767,461.237 381.79,462.273 381.86,463.33C381.882,463.665 381.875,463.966 381.846,464.233C381.923,464.762 382.001,465.292 382.08,465.821ZM379.042,463.407C379.267,464.144 379.505,464.855 379.745,465.522L379.698,465.224L379.643,464.87C379.436,464.382 379.236,463.895 379.042,463.407ZM891.542,441.472C891.802,443.02 891.899,444.505 891.853,446.112C892.23,447.498 892.594,448.888 892.955,450.279C893.017,449.578 893.075,448.876 893.114,448.17C893.214,446.28 893.924,442.8 891.884,441.64C891.764,441.571 891.65,441.515 891.542,441.472ZM117.568,439.642C117.599,439.715 117.63,439.797 117.66,439.89C118.335,441.959 118.688,444.448 120.407,445.839C120.391,444.514 120.194,443.182 119.65,441.98C119.413,441.457 118.509,440.188 117.568,439.642ZM116.868,439.391C116.541,439.357 116.228,439.462 115.96,439.77C115.439,440.371 115.977,441.531 116.859,442.755C116.742,442.332 116.631,441.911 116.52,441.5C116.37,440.947 116.559,439.85 116.868,439.391ZM421.733,434.639C420.791,435.217 419.82,435.722 418.821,436.151C419.654,436.285 420.472,436.392 421.262,436.441C421.36,436.097 421.507,435.824 421.707,435.675C421.686,435.33 421.694,434.975 421.733,434.639ZM429.906,429.704C430.029,430.994 429.673,432.59 429.14,433.02C428.847,433.256 428.556,433.475 428.265,433.678C428.66,434.201 428.853,435.069 428.848,435.933C430.536,435.624 432.084,435.112 432.99,434.24C435.62,431.701 433.011,430.332 429.906,429.704ZM412.474,432.849L412.48,432.848L412.487,432.837L412.474,432.849ZM847.197,420.424C847.061,420.291 846.923,420.16 846.781,420.031C846.758,420.51 846.672,420.95 846.513,421.26C846.572,421.28 846.632,421.3 846.691,421.32C846.809,420.844 846.989,420.489 847.197,420.424ZM713.179,302.968C713.133,302.862 713.318,303.14 713.132,302.912C713.052,302.812 712.972,302.702 712.892,302.602C712.762,302.432 712.582,302.252 712.482,302.162C712.252,301.962 712.012,301.772 711.782,301.572L711.753,301.495C711.742,301.466 711.731,301.438 711.72,301.41C711.607,301.31 711.495,301.203 711.384,301.091C711.443,301.193 711.511,301.291 711.589,301.381C711.642,301.44 711.7,301.498 711.765,301.556L711.782,301.572C711.712,301.513 711.647,301.449 711.589,301.381C711.509,301.292 711.441,301.197 711.381,301.087C710.221,299.905 709.217,298.098 708.552,297.152C707.202,295.232 706.202,293.222 706.012,290.852C705.862,288.982 706.072,286.542 707.472,285.132C708.712,283.892 711.162,283.372 712.512,284.622C713.141,285.206 713.677,285.975 714.122,286.861C713.494,268.708 710.516,250.696 704.647,233.422C702.282,232.561 700.258,231.27 698.262,229.742C696.492,228.392 694.442,227.002 693.202,225.102C691.732,222.842 691.002,218.212 693.602,216.402C696.512,214.372 702.542,217.532 704.572,219.772C707.297,222.784 706.895,227.865 706.106,231.705C706.102,231.774 706.096,231.844 706.09,231.913C709.119,240.631 711.4,249.565 713.014,258.62C713.004,256.059 713.351,253.509 714.382,251.442C715.672,248.862 718.692,246.982 720.532,250.042C722.402,253.132 722.462,259.322 721.402,262.702C720.959,264.114 716.894,270.291 714.69,269.996L714.71,270.162C715.104,273.559 715.413,276.964 715.638,280.376C716.189,288.725 716.243,297.104 715.862,305.462C715.695,309.133 715.444,312.8 715.113,316.459C714.866,319.197 714.572,321.931 714.246,324.66L714.233,324.765C715.428,323.211 716.94,321.916 718.762,320.912C721.302,319.512 724.932,317.902 726.062,321.592C727.242,325.452 725.372,329.582 723.082,332.622C721.942,334.142 720.722,335.632 718.842,336.212C716.897,336.81 714.658,336.619 712.615,336.366C709.32,357.179 703.947,377.918 697.053,397.894C698.333,396.604 699.954,395.719 701.892,395.242C702.982,394.972 704.602,394.382 705.512,395.332C706.402,396.262 706.422,398.072 706.302,399.232C706.012,402.092 704.422,404.862 701.712,406.022C700.262,406.642 698.732,406.692 697.192,406.402C695.979,406.179 695.072,405.975 694.377,405.402C692.608,410.214 690.754,414.973 688.822,419.672C687.952,421.802 687.132,417.722 687.462,416.742C692.088,402.821 696.793,388.994 700.937,375.033C697.945,374.88 695.323,370.004 694.362,367.692C693.182,364.882 692.292,361.122 693.682,358.222C695.412,354.612 699.112,356.262 700.722,358.972C702.289,361.62 702.893,364.778 703.003,367.882C706.059,356.999 708.711,346.008 710.658,334.804C710.338,333.525 710.522,331.784 711.26,331.189C711.739,328.185 712.165,325.167 712.532,322.132C713.271,316.033 713.781,309.906 714.044,303.77C714.034,303.771 714.023,303.772 714.012,303.772C713.622,303.782 713.392,303.352 713.232,303.072C713.204,303.02 713.188,302.988 713.179,302.968L713.179,302.968ZM132.763,414.546C132.959,414.424 133.155,414.292 133.35,414.15C134.31,413.45 135.22,412.64 135.97,411.71C136.41,411.17 137.39,410.36 136.18,410.83C135.33,411.15 134.72,411.85 134.14,412.53C133.592,413.173 133.14,413.846 132.763,414.546ZM424.176,409.934C424.184,410 424.191,410.067 424.198,410.133C424.214,410.09 424.23,410.047 424.245,410.004L424.176,409.934ZM419.53,397.757C419.417,399.307 419.49,400.879 419.74,402.39C420.113,404.63 420.962,406.678 421.892,408.705C421.867,408.419 421.842,408.134 421.82,407.848C421.704,407.486 421.591,407.123 421.48,406.76C421.419,406.569 421.389,406.064 421.415,405.492C420.908,403.169 420.394,400.85 419.838,398.54C419.735,398.279 419.633,398.018 419.53,397.757ZM423.764,403.833C423.771,404.077 423.778,404.321 423.787,404.565L424.068,404.861L424.1,404.894L424.1,403.834C423.991,403.889 423.875,403.895 423.764,403.833ZM703.424,399.174C703.304,399.182 703.178,399.198 703.048,399.22C703.02,399.382 702.986,399.54 702.943,399.694C703.115,399.529 703.277,399.355 703.424,399.174ZM423.672,390.658C424.332,392.847 424.993,395.033 425.667,397.218C425.753,397.455 425.829,397.691 425.896,397.927C425.898,395.986 425.675,394.045 424.77,392.55C424.539,391.467 424.173,390.837 423.672,390.658ZM139.653,384.81C139.786,384.073 139.809,383.362 139.63,382.73C139.559,382.483 139.421,382.105 139.242,381.674C139.374,382.404 139.393,383.169 139.34,383.99C139.27,385.07 138.48,385.63 138.05,384.41C137.773,383.631 137.482,382.858 137.184,382.089C136.883,381.82 136.63,381.55 136.41,381.265C136.347,381.412 136.273,381.538 136.186,381.638C137.015,383.333 137.82,385.049 138.559,386.787C138.922,386.127 139.287,385.468 139.653,384.81ZM135.613,384.682C135.61,384.686 135.606,384.69 135.603,384.694L135.598,384.699C135.865,385.338 136.15,385.968 136.452,386.591C136.183,385.949 135.907,385.31 135.621,384.673L135.613,384.682ZM134.425,379.281C134.291,379.651 134.223,380.091 134.24,380.59C134.249,380.862 134.315,381.195 134.413,381.55C134.43,381.46 134.45,381.37 134.473,381.279L134.41,380.77C134.371,380.638 134.344,379.911 134.425,379.281ZM135.354,378.144C135.246,378.2 135.144,378.268 135.048,378.349C135.077,378.365 135.108,378.385 135.14,378.41L135.329,378.374C135.335,378.298 135.343,378.221 135.354,378.144ZM696.801,367.104C697.62,368.299 698.663,369.403 699.73,370.238C699.512,369.893 699.324,369.522 699.161,369.137C698.811,368.698 698.518,368.26 698.261,367.801C697.829,367.683 697.506,367.52 697.249,367.304C697.19,367.309 697.125,367.294 697.052,367.252C696.968,367.202 696.884,367.153 696.801,367.104ZM699.629,363.089C699.894,363.785 699.922,364.766 699.828,365.491C700.021,366.028 700.236,366.557 700.472,367.072C700.505,367.143 700.532,367.269 700.552,367.431C700.747,367.728 700.987,367.989 701.294,368.196C701.102,366.583 700.641,365.055 699.892,363.522C699.827,363.388 699.738,363.242 699.629,363.089ZM698.814,363.73C698.79,363.733 698.766,363.736 698.742,363.742L698.741,363.758C698.764,363.746 698.788,363.737 698.814,363.73ZM697.824,361.381C698.04,361.666 698.23,361.953 698.404,362.257C698.601,362.214 698.775,362.224 698.928,362.277C698.595,361.949 698.214,361.633 697.824,361.381ZM696.628,360.856C696.143,360.766 695.719,360.883 695.453,361.327C695.513,361.303 695.58,361.294 695.652,361.302C695.962,361.172 696.272,361.052 696.582,360.922C696.597,360.898 696.612,360.876 696.628,360.856ZM153.924,356.166C153.487,356.945 153.159,357.781 152.982,358.645C153.292,357.967 153.624,357.297 153.971,356.634C153.949,356.48 153.933,356.324 153.924,356.166ZM157.886,356.361C157.927,356.88 157.909,357.353 157.83,357.54C157.677,357.905 157.521,358.27 157.364,358.634C157.889,358.25 158.397,357.844 158.88,357.41C158.977,357.322 159.091,357.213 159.216,357.085C159.161,356.925 159.11,356.765 159.063,356.605C158.738,356.752 158.372,356.723 157.96,356.42C157.935,356.401 157.91,356.382 157.886,356.361ZM160.6,355.485C162.029,353.635 163.367,351.189 161.54,350.64C161.384,350.593 161.212,350.578 161.028,350.589C161.204,351.393 161.25,352.388 161.12,352.7C161.054,352.863 160.975,353.109 160.879,353.4C160.78,353.899 160.677,354.395 160.574,354.893C160.589,355.088 160.598,355.286 160.6,355.485ZM462.309,352.809C461.898,352.899 461.555,352.343 461.433,351.889C460.903,352.979 460.494,354.106 460.241,355.307C460.455,355.235 460.669,355.162 460.883,355.088C461.354,354.326 461.829,353.566 462.309,352.809ZM155.235,354.336C155.219,354.354 155.203,354.372 155.188,354.389L155.197,354.402L155.21,354.379L155.235,354.336ZM467.279,351.445C467.028,351.913 466.776,352.38 466.521,352.847C466.837,352.695 467.149,352.539 467.459,352.376C467.38,352.086 467.32,351.758 467.279,351.445ZM159.309,351.169L159.297,351.175L159.303,351.184L159.309,351.169ZM466.458,346.596C466.43,346.375 466.411,346.156 466.402,345.941L465.04,347.043L465.003,347.073C464.928,347.929 464.694,348.79 464.31,349.63C464.241,349.778 464.168,349.888 464.094,349.963C464.074,350.024 464.054,350.084 464.034,350.144C464.825,348.947 465.631,347.763 466.458,346.596ZM471.621,349.437C474.568,346.707 478.487,341.939 475.11,339.86C474.834,339.69 474.355,339.654 473.796,339.693C473.993,340.01 474.113,340.46 474.15,340.76C474.41,342.83 474.33,344.47 473.05,346.18C472.551,346.852 472.21,346.109 472.057,345.217L472.052,345.223C472.209,346.63 472.062,348.061 471.621,349.437ZM468.807,340.896C468.07,341.177 467.354,341.516 466.67,341.908C466.98,342.013 467.254,342.162 467.493,342.347C467.736,342.036 468.024,341.737 468.36,341.45C468.462,341.363 468.556,341.328 468.642,341.333C468.694,341.188 468.749,341.043 468.807,340.896ZM472.527,339.871C471.595,340.05 470.675,340.309 470.196,340.444C470.497,340.863 470.762,341.295 470.991,341.738C471.46,341.095 471.97,340.473 472.527,339.871ZM721.625,327.705C721.076,327.904 720.459,328.003 719.883,328.115C719.627,328.332 719.425,328.554 719.332,328.782C719.062,329.462 718.412,329.532 718.132,328.812L718.132,328.81C718.057,328.888 717.994,328.974 717.942,329.072C717.883,329.183 717.826,329.27 717.77,329.335C717.666,329.742 717.526,330.136 717.342,330.516C718.167,330.356 718.947,330.095 719.632,329.652C720.396,329.157 721.043,328.44 721.625,327.705ZM723.586,324.304C723.587,324.45 723.582,324.596 723.57,324.742C723.558,324.888 723.54,325.033 723.516,325.176C723.668,324.859 723.723,324.556 723.586,324.304ZM168.337,177.877C163.773,173.982 158.118,170.724 156.93,164.34C156.22,160.53 157.7,155.17 162.01,154.18C167.56,152.91 171.78,160.09 172.9,164.49C174.124,169.286 173.616,174.297 171.371,178.647C180.479,200.128 194.108,219.474 210.032,236.54C206.946,229.766 198.624,209.793 208.13,211.45C212.75,212.26 215.33,218.88 216,222.78C217.052,228.848 215.626,234.75 213.804,240.496C230.286,257.416 248.962,271.228 267.835,284.973C263.653,278.474 259.281,271.344 260.13,263.91C260.17,263.5 260.32,262.55 260.89,262.5C274.947,261.322 279.499,281.392 277.701,292.162C281.785,295.15 285.861,298.159 289.91,301.22C290.98,302.03 290.8,306.6 289.47,305.81C273.492,296.35 257.859,285.433 243.198,273.434C243.117,273.573 243.021,273.687 242.91,273.77C237.17,278.21 228.56,283.85 220.87,283.12C215.61,282.62 212.16,278.1 212.67,272.93C213.28,266.79 218.65,264.73 224.14,264.58C226.599,264.515 229.607,264.226 232.525,264.355C225.162,257.843 218.1,251.06 211.43,244.06C201.949,234.112 193.266,223.373 185.783,211.883C185.982,212.724 185.863,213.88 185.38,214.08C178.61,216.8 168.49,219.83 162.66,213.43C159.02,209.43 161.64,204.84 166.45,204.25C170.82,203.72 176.99,203.35 181.24,204.68C181.269,204.689 181.299,204.698 181.328,204.708C176.269,196.149 171.887,187.2 168.337,177.877ZM712.825,290.993C712.987,291.798 712.963,293.225 712.666,293.855C712.66,293.906 712.654,293.956 712.647,294.005C712.985,294.816 713.475,296.02 713.562,296.042C713.492,296.022 713.362,292.772 713.212,292.192C713.109,291.783 712.986,291.372 712.825,290.993ZM275.756,290.741C275.757,290.734 275.759,290.727 275.76,290.72C275.958,289.672 276.066,288.534 276.084,287.34C275.845,287.436 275.58,287.238 275.34,286.52C275.069,285.879 274.818,285.41 274.586,285.113C274.764,286.689 274.608,288.171 273.991,289.454L274.545,289.858C274.751,290.008 274.956,290.158 275.162,290.308L275.756,290.741ZM272.363,285.508C272.347,285.482 272.333,285.456 272.32,285.43C271.87,285.05 271.41,285.05 270.94,285.42C270.927,285.427 270.915,285.434 270.903,285.44C271.38,286.974 271.789,287.113 272.13,285.85C272.226,285.736 272.303,285.622 272.363,285.508ZM267.344,279.187C267.353,279.23 267.36,279.278 267.365,279.33C268.192,280.916 269.013,282.606 270.02,284.038C270.002,283.66 270.019,283.266 270.061,282.934C270.038,282.913 270.014,282.888 269.99,282.86C268.982,281.702 268.106,280.474 267.344,279.187ZM271.115,281.433C270.861,280.924 270.596,280.428 270.37,279.96C270.24,279.69 270.108,279.423 269.974,279.159C270.2,279.707 270.418,280.257 270.63,280.81C270.673,280.923 270.704,281.288 270.697,281.692C270.833,281.578 270.973,281.492 271.115,281.433ZM273.421,280.784L273.426,280.797L273.428,280.793L273.421,280.784ZM225.377,277.335C225.252,277.415 225.127,277.492 225.002,277.567C225.166,277.532 225.329,277.495 225.493,277.456C225.453,277.417 225.415,277.377 225.377,277.335ZM217.797,275.509C217.378,275.752 216.959,275.994 216.54,276.237C217.086,276.768 217.886,277.14 218.747,277.395C218.753,277.283 218.763,277.171 218.774,277.06L218.77,277.06C218.149,276.995 217.881,276.275 217.797,275.509ZM271.343,271.672C271.771,272.496 272.226,273.349 272.665,274.137C273.104,274.924 273.529,275.645 273.897,276.204C273.208,274.57 272.356,273.029 271.343,271.672ZM270.896,275.924C270.549,275.211 270.204,274.496 269.861,273.78C269.815,273.92 269.762,274.042 269.703,274.14C270.11,274.715 270.511,275.312 270.896,275.924ZM229.793,273.369C228.629,273.255 227.485,273.22 226.362,273.266C226.52,273.56 226.649,273.948 226.725,274.364C227.532,274.587 228.981,274.179 230.673,273.481C230.372,273.444 230.079,273.407 229.793,273.369ZM224.578,273.41C223.941,273.488 223.311,273.593 222.688,273.725C222.785,273.92 222.852,274.15 222.894,274.399C223.446,274.178 223.984,273.918 224.518,273.614C224.535,273.543 224.555,273.475 224.578,273.41ZM237.343,270.189C235.55,269.877 233.51,269.985 231.688,270.103C231.913,271.205 231.77,272.612 231.314,273.208C233.264,272.353 235.458,271.189 237.343,270.189ZM263.964,272.978C263.363,271.268 262.779,269.552 262.23,267.82C262.173,267.639 262.219,266.822 262.376,266.305C262.148,266.287 261.917,266.276 261.682,266.272C261.724,268.694 262.648,270.992 263.81,273.164C263.85,273.085 263.9,273.021 263.964,272.978ZM266.707,267.562C265.617,266.985 264.433,266.582 263.155,266.393C263.62,267.092 264.072,267.798 264.513,268.511C264.607,268.474 264.718,268.5 264.85,268.61C265.308,268.997 265.817,269.48 266.353,270.041C266.277,269.571 266.303,268.009 266.707,267.562ZM267.968,268.337L267.969,268.334L267.961,268.329L267.968,268.337ZM715.398,264.227L715.393,264.228L715.393,264.231L715.398,264.227ZM718.274,252.361C718.569,253.144 718.764,253.941 718.882,254.832C718.938,255.246 718.9,255.668 718.803,256.046C718.875,256.617 718.565,258.047 718.131,258.691C717.971,259.06 717.737,259.277 717.401,259.136C717.314,259.42 717.184,259.734 717.022,259.955C717.035,260.04 717.049,260.126 717.062,260.212C717.139,260.686 716.741,262.611 716.216,262.257C716.222,262.626 716.224,262.995 716.223,263.364C717.189,262.292 718.198,260.993 718.472,260.632C719.532,259.222 719.732,257.652 719.632,255.902C719.578,255.013 719.062,253.166 718.274,252.361ZM715.916,253.55C715.744,253.929 715.6,254.346 715.483,254.769C715.528,254.765 715.575,254.771 715.626,254.787C715.685,254.491 715.765,254.208 715.868,253.982C715.878,253.839 715.894,253.694 715.916,253.55ZM213.344,223.668C213.213,225.922 212.165,228.098 211.143,230.083C211.484,231.914 211.83,233.744 212.183,235.574C212.919,233.058 213.599,230.455 213.7,227.92C213.74,226.875 213.65,225.298 213.344,223.668ZM1000,190.265L1000,197.786C999.068,199.508 998.12,201.221 997.154,202.923C998.091,202.521 999.052,202.182 1000,201.984L1000,208.119C999.754,208.161 999.514,208.209 999.282,208.26C998.844,208.354 998.413,208.471 997.99,208.605C998.755,208.697 999.397,208.678 1000,208.578L1000,214.629C999.689,214.615 999.372,214.583 999.052,214.53C997.312,214.24 995.712,213.5 994.122,212.77C993.143,212.316 992.455,212.053 991.926,211.724C991.016,213.183 990.088,214.632 989.142,216.07C985.042,222.31 980.422,228.16 976.852,234.74C975.882,236.52 974.932,231.68 975.362,230.65C978.042,224.3 982.392,219.02 986.242,213.36C989.962,207.89 993.392,202.23 996.622,196.47C997.774,194.415 998.899,192.346 1000,190.265ZM207.387,224.419C207.883,225.751 208.375,226.848 208.53,227.26C208.753,227.852 208.983,228.442 209.218,229.029C209.084,228.273 208.95,227.517 208.814,226.761L207.387,224.419ZM210.981,227.057C212.113,223.99 212.404,219.627 208.832,219.744C209.389,220.29 209.871,220.88 210.36,221.62C210.667,222.08 210.712,224.187 210.15,224.251C210.39,224.924 210.633,225.597 210.87,226.27C210.953,226.423 210.986,226.716 210.981,227.057ZM827.309,80.363C827.09,79.971 826.915,79.445 826.792,78.76C826.466,76.953 826.52,75.02 826.75,73.087C825.616,69.495 824.98,65.899 827.842,62.68C831.582,58.47 842.152,57.24 843.952,63.8C846.262,72.26 838.622,75.89 832.682,79.64C831.912,80.127 831.147,80.603 830.433,80.929C819.542,98.431 815.83,120.851 814.607,141.129C816.326,136.682 819.882,133.129 824.762,131.36C825.952,130.93 825.992,133.29 825.962,133.94C825.632,142.05 821.642,149.08 814.962,153.71C814.717,153.876 814.421,153.792 814.209,153.615C814.221,177.057 818.592,200.244 826.982,222.19C827.502,223.56 826.472,228.81 825.382,226.12C821.3,216.009 818.108,205.55 815.819,194.896C815.772,195.808 815.483,196.642 814.902,196.76C807.242,198.1 800.182,190.98 797.172,184.51C796.172,182.37 795.722,179 797.532,177.14C799.642,174.98 803.892,176.09 806.282,177.16C810.742,179.16 815.742,185.69 814.192,190.94C813.979,191.664 813.679,192.164 813.312,192.477C813.792,192.467 814.282,192.426 814.782,192.35C815.003,192.316 815.193,192.427 815.348,192.634C812.111,176.632 810.907,160.215 811.782,143.9C812.293,134.427 813.533,124.985 815.462,115.689C815.253,115.715 815.034,115.692 814.81,115.624C814.798,116.586 814.497,117.482 813.932,117.18C808.632,114.51 805.592,108.88 805.612,103C805.622,99.51 809.112,92.59 812.862,97.27C814.829,99.725 816.634,103.934 817.237,107.938C817.723,106.004 818.238,104.078 818.782,102.16C820.888,94.751 823.449,87.139 827.309,80.363ZM703.91,226.011C703.981,226.094 704.05,226.179 704.116,226.264C703.882,224.811 703.211,223.526 701.562,222.492C700.757,221.989 699.218,221.17 697.746,220.76C697.758,220.785 697.769,220.81 697.781,220.835C697.959,220.919 698.149,220.981 698.352,221.022C698.721,221.158 698.933,221.675 699.009,222.286C699.114,222.437 699.206,222.598 699.282,222.772C699.305,222.822 699.329,222.903 699.352,223.006C699.517,223.223 699.67,223.45 699.814,223.691C700.659,223.877 701.45,224.105 702.195,224.533C702.394,223.701 702.757,223.149 703.132,224.062C703.396,224.711 703.656,225.361 703.91,226.011ZM694.626,220.931C694.417,220.967 694.297,221.035 694.268,221.136C694.238,221.236 694.298,221.369 694.447,221.534C694.487,221.34 694.545,221.127 694.626,220.931ZM209.945,217.431C209.768,217.342 209.583,217.267 209.39,217.21C207.209,216.565 206.351,217.357 206.19,218.74C206.203,218.753 206.217,218.766 206.23,218.78L206.25,218.801L206.26,218.76L206.35,218.905C206.521,219.083 206.692,219.261 206.863,219.439L206.83,219.35C206.65,218.85 206.6,217.49 207.29,217.32C208.263,217.073 209.158,217.136 209.945,217.431ZM0,201.952C1.222,201.717 2.419,201.724 3.51,202.14C6.54,203.3 6.88,207.57 6.07,210.28C5.202,213.168 2.819,214.698 0,214.634L0,208.549C0.619,208.431 1.204,208.229 1.848,207.977C1.252,207.935 0.614,207.993 0,208.092L0,201.952ZM170.336,211.429C169.617,211.535 169.281,211.806 169.8,212.37C169.903,212.483 170.001,212.827 170.059,213.24C171.579,213.623 173.23,213.568 174.769,213.2C174.586,213.059 174.402,212.922 174.216,212.787C174.097,213.241 173.835,213.518 173.35,213.37C172.304,213.049 171.333,212.104 170.336,211.429ZM176.624,212.419C176.699,212.473 176.775,212.526 176.85,212.58C176.998,212.685 177.113,212.899 177.185,213.155C177.818,213.046 178.448,212.918 179.075,212.774C178.275,212.712 177.446,212.586 176.624,212.419ZM184.781,210.328C184.69,210.66 184.556,210.952 184.384,211.209C184.563,211.147 184.742,211.084 184.92,211.02C185.027,210.981 185.125,210.979 185.215,211.006L185.03,210.717C184.966,210.618 184.903,210.519 184.839,210.419L184.781,210.328ZM164.523,208.795C164.149,208.942 163.845,209.122 163.656,209.34C164.433,209.507 165.021,209.796 165.728,210.371L165.73,210.37C166.905,209.756 167.374,210.217 167.823,210.83C167.899,210.661 167.991,210.499 168.099,210.343C167.148,209.985 166.163,209.71 165.17,209.5C164.884,209.441 164.668,209.167 164.523,208.795ZM172.148,208.141C173.413,207.938 174.765,208.019 175.96,208.46C176.429,208.634 176.616,209.521 176.563,210.339C177.513,210.457 178.472,210.488 179.43,210.41C181.34,210.26 184.8,209.44 181.21,208.47C178.499,207.737 175.131,207.812 171.944,208C172.013,208.046 172.081,208.093 172.148,208.141ZM0,165.223C0.336,164.764 0.778,164.389 1.35,164.14C3.91,163.03 6.24,165.44 6.98,167.64C7.55,169.32 7.59,171.18 7.39,172.92C7.223,174.359 6.748,175.748 6.451,177.158C9.515,170.825 12.455,164.433 15.39,158.04C20.643,146.593 25.925,135.124 29.851,123.15C26.949,119.887 23.589,116.2 22.01,112.08C21.1,109.71 20.71,106.03 22.94,104.23C25.3,102.32 28.47,104.13 29.75,106.41C31.386,109.333 31.616,113.082 31.856,116.54C34.648,106.491 36.195,96.42 37.201,86.194C37.096,86.383 36.996,86.575 36.9,86.77C36.45,87.68 35.87,87.64 35.4,86.81C33.76,83.919 32.516,80.903 31.641,77.7C31.537,77.366 31.451,77.004 31.37,76.6C31.227,75.892 31.491,74.769 31.885,74.133C31.911,73.816 31.949,73.499 32,73.18C32.65,69.12 36.06,64.75 40.63,65.53C45.1,66.3 45.75,71.49 44.76,75.14C43.972,78.035 41.994,80.139 40.098,82.312C39.226,104.003 32.98,124.898 24.759,144.912C25.115,144.67 25.472,144.43 25.83,144.19C27.43,143.12 29.18,141.5 31.08,141.01C33.99,140.26 34.87,143.82 34.91,146.05C34.97,149.22 33.56,152.34 30.87,154.09C27.748,156.119 23.998,155.503 20.622,154.57C20.008,155.95 19.387,157.327 18.76,158.7C12.8,171.75 6.83,184.82 0.02,197.45L0,197.487L0,189.958C1.297,187.503 2.562,185.032 3.803,182.547C3.772,182.513 3.741,182.474 3.71,182.43C2.077,180.089 0.851,176.986 0,174.067L0,165.223ZM542.837,122.017C538.085,119.477 535.102,112.531 534.51,107.89C534.43,107.24 534.34,105.54 535.12,105.15C539.29,103.06 543.81,105.17 546.2,108.94C548.942,113.268 548.547,118.1 547.9,122.874C554.46,124.068 561.187,125.702 566.93,128.63C567.57,128.95 567.73,131.68 566.83,131.58C557.84,130.57 548.98,127.7 539.96,126.45C531.45,125.27 522.86,124.74 514.27,124.87C512.423,124.898 510.576,124.955 508.732,125.043C509.23,129.113 509.276,133.543 507.88,137.38C506.93,140.01 504.58,143.5 501.3,142.36C498.71,141.46 497.72,138.28 497.69,135.78C497.672,134.139 498.088,132.57 498.787,131.11C498.653,130.753 498.514,130.397 498.37,130.04C498.18,129.56 498.36,126.2 499.19,127.4C499.483,127.822 499.764,128.248 500.032,128.679C500.206,128.273 500.422,127.881 500.684,127.507C500.678,127.372 500.673,127.237 500.67,127.1C500.663,126.944 500.754,125.911 501.074,125.581C488.164,126.781 475.403,129.463 463.11,133.62C459.438,134.86 455.846,136.217 452.33,137.686C452.884,141.644 452.53,145.82 451.26,149.61C450.43,152.07 448.03,157.29 444.53,154.93C442.11,153.29 442.9,148.88 443.45,146.57C444.005,144.277 444.985,142.189 446.326,140.339C425.923,149.847 408.171,163.255 392.467,179.715C391.751,183.558 389.796,186.984 386.875,189.317C386.8,189.465 386.696,189.563 386.556,189.565C384.957,190.771 383.084,191.657 380.98,192.12C379.72,192.39 379.84,189.01 379.97,188.47C380.632,185.731 380.854,182.993 381.873,180.439C382.035,179.542 382.443,178.705 383.099,178.107L383.11,178.09C385.01,175.3 388.13,173.48 391.54,173.95C391.905,174 392.169,174.312 392.342,174.75C398.014,168.333 404.315,162.363 411.078,156.914C410.254,156.745 409.435,156.549 408.62,156.32C406.72,155.78 402.73,155.03 401.34,153.43C399.73,151.57 400.11,146.75 400.9,144.64C402.29,140.9 406.18,142.16 409.08,143.3C412.917,144.8 416.606,147.5 418.859,151.014C432.339,141.404 447.271,133.767 462.53,128.59C467.407,126.935 472.365,125.516 477.379,124.334C474.889,122.401 472.932,119.801 471.16,117.11C469.42,114.47 466.79,109.1 470.93,107.18C474.54,105.5 479.73,107.84 482.31,110.36C485.49,113.47 486.75,117.24 486.78,121.56C486.78,121.717 486.767,122.11 486.67,122.423C495.741,120.826 504.947,119.98 514.15,119.88C523.34,119.78 532.58,120.4 541.66,121.83C542.05,121.892 542.442,121.954 542.837,122.017ZM801.199,180.429C799.955,180.388 798.784,180.537 798.512,181.16C798.202,181.87 801.922,185.95 802.372,186.49C804.417,188.913 806.823,190.958 809.645,191.909C808.735,191.299 807.778,190.455 806.847,189.518C806.771,189.544 806.683,189.535 806.582,189.48C806.244,189.296 805.926,189.102 805.626,188.899C805.472,189.281 805.234,189.418 804.902,188.85L804.312,187.838C803.481,187.04 802.807,186.103 802.212,184.98C802.156,184.871 802.109,184.486 802.104,184.055C801.773,183.487 801.442,182.919 801.112,182.35C800.923,182.031 800.993,181.02 801.199,180.429ZM809.787,187.166L809.762,187.21C809.391,187.866 808.932,188.16 808.433,188.206C809.308,189.067 810.246,189.887 811.02,190.312C810.387,189.615 810.047,188.693 810.095,187.767C809.988,187.569 809.885,187.369 809.787,187.166ZM382.626,185.295C382.49,185.728 382.375,186.168 382.281,186.61C382.531,186.485 382.776,186.355 383.018,186.22C382.868,185.92 382.738,185.611 382.626,185.295ZM387.829,178.884C386.079,179.625 384.69,181.054 383.707,182.79C383.715,183.059 383.7,183.342 383.662,183.598C383.785,184.216 384.068,184.795 384.467,185.306C384.958,184.96 385.427,184.589 385.872,184.194C386.147,182.305 386.811,180.486 387.829,178.884ZM811.537,185.227L811.533,185.258C811.542,185.256 811.551,185.255 811.56,185.255C811.553,185.245 811.545,185.236 811.537,185.227ZM801.983,180.477C802.558,181.342 803.17,182.18 803.811,182.996C803.849,182.308 804.014,181.742 804.392,182.06C805.19,182.732 805.789,183.447 806.233,184.227C806.363,184.342 806.567,184.496 806.785,184.654C806.56,183.911 806.474,182.254 806.909,181.794C806.098,181.385 805.249,181.055 804.362,180.84C803.929,180.736 802.989,180.564 801.983,180.477ZM4.706,169.979C5.18,171.59 5.079,174.331 3.971,174.248C4.121,174.656 4.274,175.055 4.44,175.45C4.518,175.049 4.605,174.646 4.7,174.24C5.01,172.91 5.453,171.04 4.706,169.979ZM169.761,174.706L169.777,174.727C171.497,171.188 171.486,167.306 169.7,163.68C168.389,161.009 165.614,157.554 162.273,157.911C162.319,157.924 162.368,157.947 162.42,157.98C163.772,158.832 164.841,159.727 165.881,160.91C167.527,160.398 169.627,164.399 170.23,165.47C170.38,165.741 170.42,166.77 170.253,167.419C170.264,167.686 170.26,167.96 170.24,168.24C170.217,168.542 169.219,170.852 168.654,171.81C169.014,172.778 169.382,173.742 169.761,174.706ZM1000,165.463L1000,173.498C999.847,172.948 999.708,172.406 999.582,171.88C999.15,170.069 998.896,167.246 1000,165.463ZM167.589,168.846L168.098,166.378L168.09,166.37C167.893,166.173 167.797,165.715 167.791,165.232C167.301,164.719 166.745,164.264 166.124,163.868C166.051,163.932 165.966,163.98 165.87,164.01C165.853,164.019 165.836,164.025 165.818,164.031L165.818,164.035C165.974,164.173 166.131,164.454 166.28,164.92C166.699,166.236 167.135,167.544 167.589,168.846ZM159.501,165.511C159.552,165.655 159.605,165.795 159.66,165.93C160.048,166.881 160.88,167.708 161.782,168.444C161.436,167.935 161.094,167.422 160.757,166.907C160.343,166.437 159.925,165.971 159.501,165.511ZM163.877,164.202C164.037,164.929 164.135,166.102 163.88,166.681C163.958,166.811 164.034,166.943 164.11,167.078C164.103,167.022 164.096,166.966 164.09,166.91C163.982,165.925 164.204,165.174 164.521,164.81C164.316,164.592 164.102,164.389 163.877,164.202ZM162.02,157.945C159.956,158.282 159.111,159.844 158.957,161.638C159.059,161.601 159.18,161.604 159.32,161.66C159.594,161.768 159.866,161.877 160.137,161.987C159.875,160.956 159.736,158.965 160.83,159.3C161.149,159.399 161.45,159.505 161.737,159.62C161.688,158.919 161.738,158.146 162.02,157.945ZM450.228,140.955C449.076,142.199 448.898,144.956 449.137,146.241L449.18,146.38L449.169,146.395L449.17,146.4C449.417,147.445 448.64,150.21 447.97,148.828C447.78,149.5 447.534,150.157 447.222,150.805C448.972,149.999 449.668,146.17 449.95,144.66C450.185,143.42 450.256,142.191 450.228,140.955ZM446.935,144.501C445.364,147.024 444.058,149.983 445.468,150.765C445.428,150.227 445.469,149.709 445.62,149.46C446.51,147.99 447,146.62 446.92,144.87C446.915,144.751 446.92,144.627 446.935,144.501ZM30.882,148.13C31.633,147.663 32.218,147.078 32.33,146.38C32.91,145.57 32.47,145.29 31,145.55C30.844,145.628 30.689,145.709 30.535,145.792C30.839,146.52 30.923,147.324 30.882,148.13ZM404.447,147.265C404.519,147.435 404.583,147.629 404.635,147.836C406.008,147.795 407.329,147.853 408.599,148.055C407.59,147.672 406.528,147.409 405.4,147.31C405.157,147.289 404.816,147.263 404.447,147.265ZM823.261,135.955C822.601,136.177 821.965,136.461 821.36,136.8C821.392,137.535 821.333,138.209 821.162,138.53C820.757,139.28 820.354,140.03 819.95,140.78L819.144,142.28C819.005,142.538 818.866,142.797 818.727,143.055C818.658,143.297 818.558,143.517 818.422,143.7C818.382,143.76 818.342,143.81 818.302,143.86C818.293,143.872 818.284,143.884 818.275,143.895L817.932,144.53C817.849,144.686 817.738,144.775 817.616,144.813C817.336,145.356 817.063,145.903 816.797,146.454C816.809,146.442 816.821,146.431 816.832,146.42C819.81,143.573 821.945,139.878 823.261,135.955ZM499.968,134.557C499.501,135.831 499.492,137.136 500.76,138.03C501.323,138.423 501.925,138.582 502.516,138.559C502.036,137.233 501.5,135.927 500.902,134.65C500.648,135.198 500.302,135.386 499.968,134.557ZM506.754,125.149C506.198,125.182 505.641,125.217 505.085,125.256C505.235,125.376 505.382,125.554 505.52,125.78C506.16,126.82 505.99,128.49 505.61,129.58C505.376,130.095 505.233,130.634 505.178,131.193C505.199,131.633 505.188,132.081 505.15,132.53C505.042,133.762 503.922,134.761 503.507,133.141C503.339,133.344 503.113,133.402 502.82,133.1C502.359,132.621 501.99,132.114 501.697,131.581L501.651,131.645C502.572,133.602 503.252,135.649 503.682,137.806C504.022,136.655 504.314,135.483 504.63,134.33C504.9,133.35 505.36,134.61 505.23,135.07C505.005,135.966 504.767,136.862 504.544,137.76C504.751,137.596 504.944,137.412 505.12,137.21C507.78,134.15 507.386,128.954 506.754,125.149ZM502.579,125.448C502.211,125.479 501.843,125.511 501.476,125.544C501.484,125.549 501.492,125.554 501.5,125.56C501.785,125.768 502.012,125.993 502.19,126.236C502.357,125.951 502.491,125.684 502.579,125.448ZM484.751,122.772C480.237,122.286 476.393,119.819 474.303,115.793C473.973,115.478 473.653,115.147 473.342,114.802C473.941,115.708 474.569,116.592 475.25,117.44C477.14,119.8 479.35,121.62 482.18,122.74C482.358,122.81 482.504,122.97 482.617,123.188C483.328,123.045 484.04,122.906 484.751,122.772ZM541.402,109.352C541.813,109.914 542.206,110.487 542.582,111.07C542.644,111.13 542.706,111.19 542.77,111.25C542.889,111.362 542.989,111.572 543.06,111.831C544.732,114.568 546.029,117.509 546.96,120.596C547.146,117.016 546.499,113.07 543.77,110.78C543.058,110.18 542.254,109.694 541.402,109.352ZM478.775,112.687C479.744,114.121 480.746,115.498 481.92,116.89C482.27,117.3 482.51,119.8 481.52,119.44C481.268,119.349 481.018,119.254 480.771,119.156C482.231,119.85 483.843,120.247 485.533,120.277C484.863,116.93 482.031,114.148 478.775,112.687ZM542.207,114.217L542.16,114.225C542.325,114.643 542.462,115.086 542.58,115.57C542.618,115.716 542.656,116.578 542.547,117.239C543.24,117.745 543.956,118.215 544.673,118.7C543.964,117.146 543.141,115.656 542.207,114.217ZM25.27,111.925C25.153,112.006 25.03,112.076 24.906,112.133C25.384,112.84 25.871,113.473 26.16,113.88C26.981,115.037 27.811,116.189 28.656,117.33C28.086,116.071 27.589,114.781 27.174,113.453C26.495,113.733 25.761,112.889 25.27,111.925ZM29.991,114.935C29.587,111.277 28.565,107.509 25.15,107.72C24.503,107.76 24.081,107.928 23.83,108.187C24.147,108.465 24.46,108.739 24.78,109.02C25.16,107.54 25.99,108.36 26.2,109.41C26.4,109.47 26.6,109.54 26.8,109.6C27.16,108.49 27.92,109.28 28.12,109.95C28.642,111.681 29.246,113.334 29.991,114.935ZM475.597,111.719C474.892,111.604 474.193,111.559 473.515,111.589C473.644,111.708 473.773,111.825 473.903,111.94C474.049,111.778 474.242,111.824 474.48,112.25L474.485,112.258L474.5,112.22C474.524,112.284 474.548,112.348 474.573,112.411C474.615,112.482 474.657,112.553 474.7,112.621C475.089,112.942 475.485,113.249 475.888,113.544C475.666,112.972 475.592,112.354 475.597,111.719ZM472.558,111.614C471.972,111.623 471.333,111.624 471.35,111.59C471.26,111.777 472.06,112.887 472.467,113.465C472.359,112.894 472.383,112.092 472.558,111.614ZM305.011,0C304.646,4.865 304.382,9.735 304.261,14.608C304.768,13.644 305.385,12.731 306.12,11.89C307.82,9.94 311.96,6.59 314.6,8.91C317.34,11.31 315.4,16.06 314.01,18.57C311.836,22.465 308.425,26.205 304.327,28.116C304.847,42.298 306.844,56.152 310.081,69.734C310.093,69.709 310.105,69.684 310.118,69.66C310.249,67.882 310.613,66.138 311.36,64.49C312.24,62.54 315.63,57.89 318.07,60.36C320.11,62.43 318.69,67.15 317.71,69.4C316.529,72.128 314.791,74.356 312.354,75.674C312.376,75.887 312.399,76.099 312.42,76.31C312.479,76.875 312.38,77.472 312.2,77.959C314.892,87.682 318.204,97.268 322.05,106.74C322.61,108.13 323.12,110.87 322.18,112.22C321.43,113.31 320.52,113.88 319.79,112.28C317.808,107.909 315.992,103.45 314.339,98.922C314.301,98.941 314.261,98.957 314.22,98.97C311.29,99.93 307.56,100.17 305.13,97.93C303.2,96.14 302.42,93.3 302.76,90.73C302.88,89.87 303.21,88.09 304.08,87.57C305.08,86.98 307.22,87.6 308.3,87.88C309.169,88.101 310.074,88.405 310.948,88.8C307.557,77.718 305.089,66.304 303.507,54.808L303.5,54.81C300.32,55.51 296,56.37 293,54.6C290.68,53.22 289.83,50.51 289.97,47.93C290.376,40.374 297.699,43.606 302.502,46.333C301.913,40.433 301.554,34.527 301.42,28.65C301.204,19.082 301.709,9.525 302.596,0L305.011,0ZM539.177,108.812C538.388,108.743 537.591,108.804 536.814,109.016C537.019,109.763 537.279,110.487 537.593,111.187C538.243,111.711 538.895,112.233 539.546,112.754C539.554,112.199 539.699,111.678 540.059,111.508C539.833,111.168 539.617,110.814 539.411,110.441L539.41,110.44L539.41,110.44C539.366,110.361 539.323,110.281 539.28,110.2C539.171,109.997 539.132,109.401 539.177,108.812ZM811.132,101.003C811.69,102.693 812.358,104.357 813.036,106.007C813.255,105.974 813.518,106.048 813.832,106.27C814.982,107.09 814.582,109.79 813.462,110.37C813.319,110.446 813.186,110.432 813.072,110.367C813.064,110.518 813.05,110.668 813.031,110.811C813.337,111.431 813.682,112.029 814.062,112.61C815.692,112.5 816.282,111.86 815.842,110.69C816.362,108.25 813.772,103.23 811.992,101.62C811.696,101.351 811.411,101.144 811.132,101.003ZM809.378,101.042C809.133,101.182 808.882,101.381 808.622,101.64C807.042,103.21 807.842,105.88 808.622,107.61C809.335,109.185 810.342,110.538 811.556,111.693C811.261,111.017 811.007,110.308 810.786,109.596C809.242,107.037 808.652,104.023 809.378,101.042ZM305.829,92.235L305.8,92.24C305.53,92.28 305.25,92.27 304.98,92.21C305.205,92.604 305.474,92.963 305.804,93.27C305.779,92.909 305.785,92.55 305.829,92.235ZM38.088,75.403C38.067,75.391 38.047,75.378 38.027,75.364C37.665,76.27 37.42,77.175 37.3,78.22C37.26,78.568 37.064,79.667 36.568,79.884C36.745,80.055 36.929,80.221 37.122,80.38C37.336,80.084 37.559,79.792 37.788,79.502C37.894,78.139 37.994,76.773 38.088,75.403ZM40.193,75.651C40.198,76.035 40.2,76.42 40.201,76.806C40.381,76.614 40.561,76.417 40.737,76.218C40.552,76.032 40.371,75.843 40.193,75.651ZM835.307,69.805C833.573,70.276 831.916,70.973 830.272,71.93C829.812,72.21 829.482,71.74 829.292,71.37L829.253,71.293C829.176,71.84 829.11,72.387 829.051,72.936C829.112,73.144 829.174,73.352 829.232,73.56C829.488,74.473 829.737,75.371 829.89,76.257C831.491,73.953 833.283,71.786 835.307,69.805ZM36.618,71.594C35.464,72.369 34.798,73.297 34.522,74.28C34.528,74.283 34.534,74.287 34.54,74.29C34.905,74.506 35.273,74.718 35.642,74.929C35.862,73.791 36.182,72.692 36.618,71.594ZM40.341,74.214L40.33,74.23C40.341,74.246 40.348,74.264 40.355,74.284C40.35,74.264 40.346,74.241 40.341,74.214ZM41.179,70.76L41.19,70.77C42.122,71.555 42.294,72.254 42.508,73.423C42.516,73.395 42.523,73.368 42.53,73.34C42.907,71.837 42.229,71.056 41.179,70.76ZM836.623,72.438C838.413,71.331 840.669,69.983 841.502,68.15C842.223,66.56 841.545,65.698 840.413,65.265C840.788,66.637 840.515,68.838 839.522,69.1C839.001,69.337 838.47,69.385 837.922,69.27C837.416,69.342 836.918,69.429 836.426,69.534C836.776,70.239 836.925,71.814 836.623,72.438ZM312.73,71.074C313.308,70.613 313.849,70.124 314.32,69.62C315.02,68.87 315.61,68.06 316.08,67.14C316.42,66.57 316.66,65.96 316.79,65.31C317.28,64.18 317.26,63.84 316.73,64.3C316.385,64.191 315.977,64.366 315.555,64.703C315.682,65.61 315.63,66.792 315.47,67.08C314.73,68.4 313.9,69.65 312.95,70.83C312.91,70.88 312.833,70.964 312.73,71.074ZM834.659,65.194C833.12,65.449 831.554,65.87 830.292,66.61C830.168,66.683 830.051,66.757 829.941,66.833L830.156,67.233C831.618,66.381 833.109,65.704 834.659,65.194ZM297.592,50.522C297.012,50.22 296.462,50.098 296.137,50.443C296.73,50.519 297.231,50.548 297.49,50.53C297.524,50.528 297.558,50.525 297.592,50.522ZM292.738,49.46C293.216,49.786 294.001,50.037 294.807,50.214L294.546,49.468C293.911,49.658 293.365,49.659 292.738,49.46ZM583.715,0C583.538,2.851 583.353,5.702 583.166,8.551C584.062,6.289 585.252,4.093 587.14,2.84C589.66,1.17 591.76,2.79 592.31,5.42C593.595,11.528 588.745,17.805 582.537,17.949C582.039,25.352 581.543,32.741 581.11,40.11C580.87,44.16 578.44,41.18 578.57,38.59C579.214,25.75 580.087,12.878 580.861,0L583.715,0ZM313.149,13.135C313.009,13.075 312.839,12.966 312.64,12.81C312.41,12.82 312.19,12.82 311.97,12.83C311.488,12.872 310.991,13.051 310.54,13.256C310.556,14.001 310.427,14.826 309.94,15C309.789,15.052 309.682,15.083 309.586,15.087C308.883,16.672 307.481,18.083 306.81,19.67C306.673,19.993 306.556,20.41 306.44,20.872C307.616,19.958 308.734,18.978 309.76,17.81C310.55,16.91 311.3,15.97 311.98,14.99C312.31,14.51 312.63,14.01 312.93,13.5C313.008,13.381 313.08,13.259 313.149,13.135ZM587.333,8.856C586.929,9.867 586.515,11.005 585.88,11.79C585.734,11.968 585.578,12.141 585.415,12.311C586.126,12.028 586.809,11.665 587.46,11.23C587.853,10.969 588.36,10.577 588.858,10.11C588.768,9.987 588.684,9.862 588.606,9.736C588.54,9.729 588.468,9.698 588.39,9.64C588.042,9.379 587.688,9.117 587.333,8.856ZM590.266,8.437C590.565,7.941 590.752,7.435 590.74,6.96C590.709,5.744 590.113,5.411 589.348,5.522C589.554,5.975 589.752,6.427 589.95,6.88C590.161,7.166 590.263,7.781 590.266,8.437Z" style="fill-rule:nonzero;"/>
</svg>
