<?xml version="1.0" encoding="UTF-8" standalone="no"?>
<!DOCTYPE svg PUBLIC "-//W3C//DTD SVG 1.1//EN" "http://www.w3.org/Graphics/SVG/1.1/DTD/svg11.dtd">
<svg width="100%" height="100%" viewBox="0 0 1000 1000" version="1.1" xmlns="http://www.w3.org/2000/svg" xmlns:xlink="http://www.w3.org/1999/xlink" xml:space="preserve" xmlns:serif="http://www.serif.com/" style="fill-rule:evenodd;clip-rule:evenodd;stroke-linejoin:round;stroke-miterlimit:2;">
    <path d="M515.816,1000C517.946,997.656 520.789,995.802 524.43,994.687C529.342,993.183 537.668,994.12 539.188,1000L535.818,1000C532.805,995.854 525.196,997.286 521.316,999.283C520.883,999.506 520.46,999.745 520.048,1000L515.816,1000ZM479.8,1000C477.55,996.73 475.697,993.202 474.673,989.618C469.123,988.884 463.672,986.635 459.296,983.194C451.856,977.345 444.763,967.475 442.428,957.246C438.522,956.58 434.707,955.299 431.196,953.565C420.691,948.377 409.917,937.5 408.342,925.32C405.155,925.122 402.093,924.455 399.443,923.348C384.531,917.117 378.069,899.584 377.692,884.527C377.65,882.879 378.825,882.876 378.892,884.498C379.453,898.084 385.717,912.561 398.713,918.527C401.648,919.874 404.887,920.683 408.186,920.934C408.283,919.288 408.562,917.63 409.044,915.967C411.053,909.038 417.19,903.386 424.421,902.409C430.025,901.651 435.267,904.839 433.581,911C430.884,920.851 420.345,925.371 410.402,925.382C410.695,927.138 411.247,928.905 412.058,930.635C417.265,941.745 429.522,950.213 441.716,952.664C441.404,948.771 441.874,944.902 443.368,941.261C445.971,934.917 452.631,929.227 459.871,930.958C465.576,932.321 469.823,937.705 469.555,943.579C469.234,950.625 463.04,954.885 456.797,956.644C452.832,957.761 448.686,958.004 444.598,957.552C445.95,961.84 448.217,965.893 450.758,969.519C456.238,977.339 464.369,984.045 473.888,985.507C473.436,980.557 474.869,975.65 479.316,971.316C482.864,967.857 494.342,960.048 499.396,964.422C503.191,967.705 501.157,974.661 499.177,978.282C494.388,987.039 485.487,990.431 476.551,989.807C477.746,992.615 479.559,995.298 481.391,997.739C481.965,998.504 482.562,999.259 483.18,1000L479.8,1000ZM475.322,985.687C476.587,985.809 477.876,985.837 479.184,985.762C484.335,985.468 489.476,983.635 493.481,980.346C495.507,978.682 497.568,976.402 498.579,973.917C500.952,968.082 497.451,966.611 492.992,967.443C487.047,968.552 480.709,971.746 477.264,976.882C475.304,979.806 474.857,982.78 475.322,985.687ZM0,934.708C1.367,934.118 2.868,933.809 4.454,933.865C9.957,934.058 12.435,939.158 12.142,944.135C11.737,951.009 7.086,957.493 2.02,961.834C1.916,961.923 1.812,962.011 1.706,962.1C7.028,967.537 14.261,971.398 21.302,973.152C28.908,975.048 37.824,974.864 45.162,971.539C43.674,969.444 42.483,967.056 41.665,964.428C39.956,958.938 39.978,952.867 42.122,947.504C44.601,941.306 50.674,938.934 55.594,944.517C59.592,949.057 59.799,956.231 58.084,961.732C56.595,966.509 53.478,970.346 49.513,973.104C52.633,975.677 56.492,977.348 60.757,977.64C70.468,978.306 80.143,972.59 83.858,963.558C84.712,961.481 85.705,965.435 85.242,966.531C82.655,972.663 77.841,977.29 71.585,979.625C62.587,982.982 53.529,980.537 47.514,974.364C45.969,975.244 44.328,975.976 42.628,976.554C27.682,981.637 10.146,975.598 0,963.898L0,958.739C1.56,957.528 3.016,956.177 4.344,954.696C8.335,950.243 14.755,937.957 4.528,936.847C3.017,936.683 1.441,936.936 0,937.489L0,934.708ZM46.978,970.633C48.57,969.762 50.07,968.725 51.444,967.512C57.717,961.971 60.963,949.402 51.86,944.723C44.072,940.72 41.276,951.785 41.575,957.349C41.843,962.321 43.827,967.012 46.978,970.633ZM1000,963.898C999.918,963.803 999.836,963.708 999.755,963.613C986.923,972.834 969.403,971.63 957.52,960.893C956.97,960.397 956.421,959.845 955.878,959.245C945.107,966.364 930.961,968.405 919.06,962.863C915.63,961.266 912.273,958.945 909.33,956.119C904.893,960.13 899.258,962.859 893.307,963.574C880.672,965.093 865.605,958.29 856.989,947.828C856.32,948.213 855.642,948.571 854.959,948.902C841.73,955.316 825.11,953.183 813.429,944.452C811.954,943.349 810.523,942.023 809.2,940.533C800.058,945.891 788.344,946.896 777.593,945.121C776.707,944.975 776.755,942.282 777.526,942.372C787.444,943.53 798.345,942.873 807.257,938.119C801.409,930.097 798.864,918.892 806.852,911.435C810.339,908.181 819.921,905.334 823.559,910.095C824.863,911.801 824.37,915.797 824.171,917.824C823.832,921.256 822.801,924.608 821.257,927.684C818.846,932.487 815.504,936.212 811.565,939.006C815.319,942.262 819.695,944.802 823.459,946.127C833.346,949.606 845.179,949.326 854.645,944.645C853.38,942.706 852.337,940.67 851.563,938.561C849.739,933.592 849.374,927.247 852.905,922.916C855.907,919.233 862.27,916.535 866.649,919.381C871.308,922.408 871.073,929.353 869.409,933.939C867.617,938.877 863.961,943.064 859.639,946.132C861.842,948.328 864.307,950.275 866.822,951.965C876.103,958.198 888.261,961.297 899.085,957.39C901.556,956.498 904.173,955.061 906.618,953.228C901.271,946.891 898.075,938.771 899.86,930.694C900.945,925.789 904.722,920.053 910.527,921.605C915.946,923.055 918.28,929.693 918.596,934.685C919.054,941.896 916.227,948.697 911.54,953.904C916.849,958.279 923.523,961.012 930.392,961.529C938.381,962.131 946.482,960.127 953.415,956.126C947.096,947.02 943.492,932.404 956.006,927.719C961.805,925.548 967.276,928.903 968.865,934.671C970.619,941.035 968.139,947.368 963.958,952.184C962.134,954.286 960.08,956.184 957.855,957.852C962.889,962.157 969.383,964.979 975.507,965.687C983.173,966.574 990.97,964.662 997.416,960.558C994.097,955.714 991.819,949.797 992.886,943.931C993.616,939.918 996.319,936.296 1000,934.708L1000,937.489C999.374,937.728 998.773,938.024 998.215,938.366C993.497,941.257 993.43,948.001 995.36,952.683C996.335,955.051 997.662,957.265 999.254,959.303C999.505,959.118 999.754,958.931 1000,958.739L1000,963.898ZM955.053,955.129C956.964,953.905 958.771,952.526 960.447,951.003C962.975,948.705 965.599,945.852 966.818,942.572C968.606,937.758 966.551,931.385 961.114,930.223C952.739,928.432 947.825,937.939 949.494,944.918C950.405,948.728 952.395,952.179 955.053,955.129ZM443.545,952.986C444.41,953.117 445.273,953.217 446.131,953.284C451.763,953.726 458.062,952.891 462.856,949.696C466.856,947.031 469.765,942.064 465.457,937.29C463.438,935.054 460.226,933.637 457.232,933.599C449.596,933.502 443.606,941.406 443.31,948.536C443.248,950.033 443.333,951.519 443.545,952.986ZM908.836,951.409C914.732,946.129 918.842,938.561 915.826,931.186C913.339,925.103 905.587,922.695 902.141,929.321C899.522,934.355 901.51,940.505 904.097,945.087C905.402,947.399 907.004,949.518 908.836,951.409ZM857.08,943.31C860.305,941.36 863.198,938.832 865.403,935.768C867.921,932.268 871.044,925.57 865.45,922.467C863.751,921.523 861.56,921.445 859.703,921.88C851.814,923.724 850.406,932.087 853.967,938.689C854.846,940.319 855.899,941.86 857.08,943.31ZM809.337,936.911C810.863,935.947 812.317,934.849 813.685,933.603C818.571,929.152 823.597,921.393 822.717,914.466C821.813,907.341 810.525,910.764 807.322,913.881C799.483,921.515 802.871,930.292 809.337,936.911ZM410.206,921.018C416.842,921.064 423.512,918.852 428.233,914.221C430.071,912.418 431.241,911.371 430.739,908.779C430.259,906.3 429.872,906.07 427.103,905.85C424.034,905.606 420.83,906.78 418.233,908.341C413.3,911.306 410.615,915.943 410.206,921.018ZM440.545,681.453C442.855,681.655 445.145,681.523 447.282,681.027C459.024,678.302 466.872,665.287 463.259,653.705C462.846,652.382 463.977,648.964 464.785,651.553C466.576,657.294 466.523,663.462 464.459,669.136C460.495,680.031 450.254,685.954 439.673,684.637C435.513,697.159 423.814,705.399 410.363,706.064C404.869,706.335 398.118,705.322 391.981,702.934C390.193,707.203 387.953,711.15 385.627,714.387C377.288,725.991 363.762,732.966 349.395,729.942C347.821,729.611 346.263,729.161 344.739,728.6C342.748,732.897 340.106,736.858 337.083,740.166C326.675,751.555 309.518,758.531 294.286,753.656C293.921,753.54 293.56,753.415 293.202,753.281C289.021,764.236 279.976,773.141 269.453,778.555C258.187,784.352 243.187,786.697 231.857,780.578C227.804,786.416 222.59,791.435 216.634,795.067C201.572,804.252 182.326,804.336 166.74,796.439C165.924,796.026 166.153,793.112 167.017,793.539C188.894,804.362 215.107,797.788 229.343,779.036C227.652,777.866 226.067,776.476 224.615,774.848C217.052,766.362 213.966,751.247 222.535,742.287C226.611,738.026 233.14,736.709 237.207,741.709C240.687,745.987 241.215,752.543 240.622,757.804C239.826,764.866 237.336,771.77 233.586,777.922C254.006,787.259 282.943,772.501 291.573,752.606C280.696,747.648 273.264,734.934 277.338,723.043C279.683,716.196 285.859,716.502 290.142,721.737C294.385,726.92 295.859,734.58 295.661,741.112C295.567,744.197 295.087,747.185 294.275,750.05C297.373,751.055 300.639,751.577 303.82,751.594C319.01,751.68 335.467,741.756 342.901,727.86C333.799,723.882 326.422,715.857 325.895,705.498C325.634,700.365 327.215,693.981 332.823,692.421C339.151,690.663 344.545,695.672 346.69,701.168C349.76,709.038 348.979,717.872 345.913,725.831C349.047,726.845 352.325,727.396 355.55,727.466C370.645,727.796 383.661,716.042 389.938,702.077C382.132,698.551 375.735,692.663 374.913,684.208C374.406,678.99 377.011,673.354 381.658,670.754C387.038,667.744 392.364,671.345 394.331,676.574C397.027,683.739 395.871,692.415 393.006,700.309C399.768,702.893 407.364,703.643 414.185,702.547C424.719,700.856 433.757,694.106 437.622,684.29C435.598,683.859 433.576,683.159 431.598,682.173C425.804,679.29 420.915,674.175 419.451,667.739C418.388,663.069 419.066,656.81 423.995,654.635C429.588,652.169 435.602,657.209 438.157,661.814C441.161,667.228 441.85,673.86 440.844,679.901C440.757,680.424 440.657,680.941 440.545,681.453ZM231.076,776.604C232.443,774.557 233.676,772.379 234.754,770.079C237.535,764.141 240.147,756.349 238.466,749.766C236.788,743.195 230.627,739.437 224.636,743.955C212.833,752.854 220.648,770.223 231.076,776.604ZM292.737,749.506C295.022,742.331 294.86,734.219 291.327,727.471C289.823,724.598 287.523,721.479 284.091,720.973C278.563,720.16 277.389,727.135 277.73,731.287C278.47,740.308 284.909,746.501 292.737,749.506ZM344.182,725.218C346.667,719.526 347.633,713.268 346.442,706.82C345.249,700.367 338.536,692.514 331.348,696.713C324.568,700.675 327.541,710.466 331.241,715.574C334.448,720.003 339.065,723.246 344.182,725.218ZM711.827,630.443C703.768,632.227 694.965,631.031 687.564,627.446C675.898,621.797 667.756,611.196 663.907,599.008C663.581,597.976 664.483,595.34 665.107,597.348C671.307,617.328 689.398,632.713 711.141,627.744C711.022,627.171 710.919,626.595 710.833,626.019C709.596,617.748 712.635,601.143 724.159,602.375C728.506,602.839 730.704,606.939 731.082,610.925C731.555,615.91 728.991,620.373 725.379,623.614C721.825,626.802 717.621,628.937 713.145,630.122C713.66,631.679 714.283,633.129 714.985,634.409C721.391,646.094 734.806,650.17 746.527,646.264C746.442,646.082 746.359,645.901 746.28,645.719C742.63,637.403 745.083,625.47 755.018,622.837C758.951,621.795 764.268,623.372 765.044,627.899C765.793,632.279 762.456,637.41 759.804,640.565C757.139,643.735 753.741,646.338 749.972,648.167C751.675,650.668 753.73,652.923 755.79,654.677C765.589,663.018 779.914,669.378 792.154,666.256C787.235,658.283 785.217,644.445 795.27,639.551C805.523,634.559 812.758,643.905 809.86,653.558C807.764,660.54 802.485,665.517 796.116,668.193C798.244,670.381 800.717,672.236 803.401,673.683C810.363,677.434 818.578,678.232 826.095,676.018C826.013,675.714 825.938,675.408 825.868,675.098C824.921,670.877 825.216,666.138 827.518,662.379C830.173,658.043 836.436,655.069 840.712,659.101C848.68,666.618 835.051,675.767 828.173,678.582C831.706,684.874 839.208,689.656 845.059,692.887C853.35,697.465 861.251,699.676 869.276,693.359C869.637,693.075 869.991,692.781 870.338,692.478C867.975,685.457 867.706,677.303 871.909,671.444C874.273,668.149 879.327,665.011 882.438,669.242C884.842,672.51 883.387,677.365 881.814,680.616C879.665,685.059 876.44,690.128 872.413,694.093C873.399,696.119 874.553,697.914 875.763,699.303C886.863,712.039 907.797,709.966 916.028,695.093C916.716,693.849 917.454,697.485 916.934,698.424C914.079,703.584 909.643,707.438 904.117,709.551C892.908,713.833 880.541,710.147 873.959,700.039C872.989,698.549 872.101,696.883 871.34,695.105C866.437,699.529 860.457,702.212 853.842,700.329C847.401,698.497 840.479,694.045 835.353,689.799C831.793,686.848 828.866,683.209 827.108,678.987C826.976,679.033 826.848,679.076 826.724,679.115C814.776,682.9 801.773,678.634 794.071,668.961C789.087,670.621 783.601,670.939 778.529,669.789C767.519,667.293 754.281,659.276 748.019,649.033C742.157,651.387 735.59,651.896 729.559,649.845C720.811,646.87 714.448,639.153 711.827,630.443ZM391.016,699.484C392.866,694.652 393.901,689.636 393.941,684.822C393.99,678.972 390.769,671.753 383.662,673.574C374.327,675.962 375.517,687.093 381.149,692.779C383.934,695.592 387.318,697.828 391.016,699.484ZM871.324,691.578C873.927,689.099 876.119,686.164 878.106,683.199C879.189,681.585 880.586,679.832 881.221,677.993C881.686,676.644 881.392,670.748 880.052,669.842C878.929,669.084 876.917,669.547 875.78,670.101C868.084,673.854 868.329,683.746 871.324,691.578ZM438.636,681.21C438.687,681.018 438.737,680.823 438.785,680.627C440.334,674.292 439.552,666.687 434.74,661.877C429.632,656.769 418.134,656.278 421.097,667.189C423.176,674.844 430.796,679.906 438.636,681.21ZM826.908,675.766C827.716,675.503 828.513,675.205 829.299,674.872C833.181,673.226 844.534,667.192 840.336,661.339C836.108,655.445 828.5,662.036 826.974,666.536C825.842,669.874 825.957,672.951 826.908,675.766ZM793.968,665.718C798.252,664.261 802.226,661.553 805.595,657.255C809.819,651.866 810.895,642.301 802.455,640.77C798.667,640.083 794.369,641.701 791.872,644.611C786.764,650.563 789.484,659.703 793.673,665.33C793.77,665.461 793.868,665.59 793.968,665.718ZM748.388,645.57C750.689,644.62 752.902,643.351 754.959,641.761C758.054,639.369 762.018,635.448 763.054,631.502C764.886,624.525 756.59,624.329 752.414,626.63C744.201,631.158 744.772,638.876 748.388,645.57ZM712.389,627.433C716.76,626.254 720.98,624.151 724.393,621.178C728.102,617.946 731.938,612.457 728.023,607.326C725.97,604.636 722.675,603.806 719.639,605.242C711.647,609.022 710.449,619.117 712.389,627.433ZM558.48,394.21C559.162,394.193 559.84,394.159 560.512,394.11C581.93,392.549 600.921,375.5 607.951,355.815C608.778,353.5 609.908,357.89 609.479,359.092C606.819,366.539 602.828,373.413 597.528,379.298C587.866,390.028 573.47,398.163 558.719,397.887C558.731,398.722 558.714,399.557 558.669,400.389C557.881,414.796 547.756,426.131 533.708,428.338C534.215,433.698 533.475,439.297 530.857,444.018C526.796,451.339 518.922,454.229 511.204,456.142C508.887,456.716 506.491,457.185 504.083,457.452C501.761,467.082 494.928,475.303 485.172,479.273C481.542,480.75 476.685,481.737 471.722,481.85C470.457,490.164 466.301,498.13 460.412,503.945C455.067,509.223 445.539,513.847 436.852,514.037C435.041,522.257 430.618,530.145 425.329,535.987C418.955,543.027 409.639,547.776 400.789,547.17C399.543,551.094 397.657,554.741 395.336,557.69C384.704,571.194 365.876,573.165 350.546,567.986C349.771,567.724 349.917,564.845 350.648,565.036C362.452,568.112 376.841,568.02 387.32,561.092C392.35,557.768 396.478,552.662 398.763,546.935C394.154,546.175 389.745,543.867 386.034,539.564C382.299,535.235 380.399,529.003 381.986,523.381C384.037,516.123 391.074,515.086 396.238,520.235C402.225,526.204 403.467,535.187 401.741,543.528C413.913,544.016 424.391,534.286 430.2,524.416C432.087,521.209 433.681,517.665 434.676,513.989C429.121,513.608 424.105,511.203 421.021,505.725C418.616,501.453 417.997,495.382 420.842,491.145C425.462,484.265 432.218,488.152 435.073,494.104C437.52,499.207 438.147,504.794 437.481,510.349C440.269,510.298 443.064,509.814 445.677,509.003C455.525,505.947 463.576,497.962 467.516,488.536C468.406,486.406 469.107,484.149 469.55,481.843C459.859,481.553 450.382,477.726 449.428,467.508C448.937,462.243 451.269,455.474 457.348,454.934C463.915,454.351 468.9,461.531 470.653,466.987C471.83,470.649 472.271,474.462 472.084,478.257C472.96,478.223 473.83,478.158 474.69,478.065C486.104,476.835 496.81,470.203 500.956,459.18C501.145,458.676 501.321,458.168 501.483,457.656C495.669,457.916 489.929,456.787 485.217,452.892C480.754,449.202 478.289,443.579 479.443,437.796C480.616,431.921 485.896,426.219 492.331,427.784C499.152,429.443 502.93,437.211 504.257,443.485C504.995,446.976 505.134,450.457 504.735,453.814C505.107,453.761 505.478,453.702 505.848,453.64C518.215,451.56 532.012,445.991 532.049,431.401C532.051,430.521 531.981,429.571 531.841,428.574C531.671,428.591 531.501,428.606 531.33,428.62C524.391,429.183 516.402,427.7 511.349,422.554C507.861,419.003 505.435,413.25 508.038,408.498C511.399,402.361 519.103,404.392 523.679,407.866C529.063,411.954 532.137,418.921 533.309,425.431C544.338,423.492 553.653,415.596 556.287,404.545C556.751,402.596 556.947,400.273 556.858,397.808C555.969,397.748 555.079,397.657 554.19,397.533C547.512,396.604 540.322,393.563 536.605,387.651C533.944,383.417 532.893,375.69 538.364,373.052C544.537,370.075 551.192,376.433 554.11,381.213C556.514,385.151 557.944,389.63 558.48,394.21ZM399.919,543.378C401.328,537.799 400.936,531.882 397.961,526.593C396.132,523.342 392.362,519.415 388.168,520.129C381.293,521.298 382.451,530.927 385.484,535.132C388.796,539.722 394.35,542.683 399.919,543.378ZM1000,482.59C999.021,482.42 998.052,482.219 997.095,481.989C995.352,484.63 993.237,487.003 990.933,488.944C982.828,495.773 971.523,498.698 961.088,497.156C958.339,496.75 955.491,495.967 952.754,494.827C942.984,511.321 920.258,518.97 902.687,510.756C901.992,510.431 902.147,507.938 902.923,508.278C918.759,515.232 938.149,509.198 948.635,495.763C949.159,495.091 949.678,494.378 950.181,493.631C944.014,490.445 938.823,485.345 937.303,478.567C935.578,470.878 942.338,458.529 951.244,464.74C958.686,469.93 958.151,482.048 955.333,489.477C955.024,490.291 954.685,491.089 954.318,491.872C965.743,495.978 979.407,493.555 988.956,486.148C990.69,484.802 992.453,483.085 994.044,481.134C993.203,480.866 992.375,480.571 991.563,480.252C982.817,476.813 976.7,467.98 980.267,458.535C983.91,448.892 995.844,450.99 1000,458.841L1000,476.482C999.644,477.366 999.243,478.235 998.803,479.084C999.201,479.139 999.6,479.188 1000,479.231L1000,482.59ZM435.456,510.308C435.702,508.689 435.816,507.057 435.776,505.43C435.649,500.355 431.387,486.59 423.757,491.451C413.871,497.751 424.736,508.154 431.557,509.749C432.831,510.047 434.137,510.23 435.456,510.308ZM951.871,490.876C955.518,484.307 957.368,476.11 952.134,470.033C948.529,465.848 940.929,466.294 939.092,472.197C938.218,475.008 939.063,479.195 940.64,481.631C941.287,482.631 941.982,483.534 942.79,484.408C944.393,486.144 946.243,487.644 948.237,488.908C949.408,489.65 950.622,490.306 951.871,490.876ZM0,479.231C3.609,479.625 7.264,479.568 10.625,479.292C20.528,478.478 30.745,474.759 37.561,467.286C38.084,466.712 38.597,466.102 39.094,465.461C37.143,464.238 35.304,462.771 33.612,461.049C27.543,454.873 22.894,442.741 29.135,435.06C37.313,424.992 46.677,439.35 47.205,447.313C47.602,453.312 46.184,459.216 43.397,464.402C56.785,469.875 73.059,463.935 84.448,454.887C85.954,453.691 87.566,452.301 89.145,450.758C79.957,447.553 73.218,440.26 73.708,430.088C74.127,421.422 80.683,413.262 90.193,416.197C100.902,419.502 102.537,433.9 98.929,442.775C98.02,445.013 96.846,447.143 95.459,449.157C101.449,449.986 107.741,449.572 113.473,448.623C131.146,445.697 146.269,428.056 139.063,409.722C138.525,408.353 139.604,403.275 140.629,405.881C142.504,410.652 143.376,415.586 143.125,420.717C142.612,431.214 137.481,442.102 128.505,447.953C119.069,454.104 104.529,454.611 93.335,451.957C86.912,459.688 77.388,465.377 68.337,468.311C59.5,471.175 49.933,470.949 41.852,466.994C39.157,471.088 35.569,474.614 31.345,477.214C22.436,482.698 10.639,484.438 0,482.59L0,479.231ZM995.933,478.577C1000.14,472.26 1002.09,464.378 996.518,458.563C992.896,454.78 986.504,453.705 982.776,457.947C978.534,462.773 980.751,469.867 985.198,473.615C988.228,476.169 991.969,477.714 995.933,478.577ZM470.021,478.281C470.201,475.708 470.028,473.122 469.411,470.624C468.131,465.441 463.529,458.725 457.453,459.209C452.353,459.615 449.408,464.92 451.65,469.687C452.981,472.517 455.866,474.623 458.633,475.888C462.155,477.499 466.103,478.214 470.021,478.281ZM0,458.841C0.242,459.297 0.457,459.772 0.643,460.266C2.644,465.586 2.093,471.292 0,476.482L0,458.841ZM40.735,463.139C45.699,455.422 48.042,444.706 40.387,438.195C35.397,433.951 29.01,435.971 27.84,442.621C26.899,447.964 29.778,453.423 33.293,457.261C35.587,459.765 38.089,461.7 40.735,463.139ZM502.367,454.091C503.246,449.2 502.771,444.163 500.449,439.592C497.889,434.554 492.29,429.524 486.336,432.483C477.29,436.978 481.362,447.721 488.426,451.667C492.693,454.051 497.58,454.512 502.367,454.091ZM91.423,448.387C96.842,442.359 100.924,434.649 97.151,427.205C93.174,419.355 82.043,414.756 76.719,423.855C71.328,433.07 77.559,442.906 86.345,446.696C87.977,447.4 89.678,447.957 91.423,448.387ZM531.282,425.714C529.095,416.915 522.376,406.499 513.055,408.459C507.24,409.681 508.541,416.668 511.921,420.057C513.814,421.955 516.146,423.256 518.643,424.178C522.654,425.661 527.028,426.156 531.282,425.714ZM556.532,394.21C555.265,385.401 550.47,376.227 541.406,376.333C534.903,376.408 536.119,383.649 539.259,387.149C541.004,389.092 543.285,390.741 545.648,391.861C549.003,393.451 552.786,394.115 556.532,394.21ZM187.552,166.464C185.996,157.979 187.775,148.63 195.667,143.918C204.478,138.658 215.937,146.489 212.852,156.606C210.128,165.535 200.595,169.825 191.374,170.344C193.976,176.041 198.136,181.314 201.839,185.112C207.93,191.36 215.858,196.117 224.656,196.596C223.403,189.936 223.802,183.233 228.131,178.382C234.48,171.267 248.244,172.353 246.851,184.003C245.668,193.9 236.734,199.451 227.558,200.476C227.654,200.757 227.75,201.032 227.846,201.302C231.33,211.134 236.002,220.175 246.295,224.075C252.521,226.433 260.098,227.569 267.232,227.238C267.022,223.404 267.415,219.535 268.44,215.824C269.723,211.185 272.23,205.535 277.047,203.626C282.108,201.62 287.24,205.241 288.958,210.023C290.563,214.497 288.949,219.685 286.216,223.375C282.374,228.564 276.443,230.804 270.242,231.312C271.159,234.758 272.583,238.026 274.325,240.798C278.904,248.082 286.151,252.908 294.527,254.691C295.887,254.981 297.351,255.193 298.873,255.317C298.817,254.412 298.811,253.506 298.859,252.605C299.404,242.248 309.383,229.044 320.854,236.226C324.736,238.656 326.413,243.257 324.748,247.546C322.787,252.599 317.195,255.571 312.379,257.355C309.07,258.581 305.594,259.266 302.105,259.422C304.486,266.263 309.676,272.52 314.456,277.325C318.91,281.802 324.586,285.769 330.755,287.155C330.257,278.241 333.424,268.511 341.408,264.054C345.889,261.552 351.959,262.107 355.312,266.299C358.269,269.998 357.327,274.795 354.928,278.498C349.784,286.44 342.22,291.098 334.076,291.289C334.361,292.258 334.696,293.199 335.077,294.099C339.024,303.429 347.664,309.637 357.104,312.652C366.968,315.801 377.073,314.777 387.243,314.499C388.394,314.468 387.575,317.455 386.668,317.603C378.787,318.897 370.968,319.482 363.033,318.233C349.049,316.029 335.496,307.593 331.706,293.261C331.526,292.58 331.369,291.882 331.237,291.175C327.573,290.795 323.837,289.508 320.19,287.211C311.178,281.533 301.914,270.675 299.456,259.441C290.932,259.176 282.559,255.784 276.58,249.473C271.865,244.498 268.855,238.128 267.705,231.428C252.697,231.705 237.435,227.903 230.525,213.368C228.832,209.805 226.912,205.325 225.603,200.626C224.296,200.681 222.996,200.643 221.723,200.513C207.238,199.031 196.001,186.93 190.081,174.384C189.485,173.121 188.96,171.778 188.523,170.384C185.953,170.312 183.466,169.945 181.226,169.302C168.466,165.64 159.883,153.773 159.092,140.739C159.034,139.78 160.748,136.869 160.862,138.699C161.524,149.339 167.653,159.217 177.442,163.77C180.5,165.192 183.978,166.117 187.552,166.464ZM333.252,287.567C335.885,287.843 338.589,287.618 341.308,286.739C344.499,285.708 347.017,283.776 349.381,281.454C350.113,280.734 351.093,279.838 351.726,278.987C352.851,277.473 355.185,273.582 354.806,271.591C353.868,266.673 347.29,265.357 343.402,266.673C334.495,269.689 331.966,279.081 333.252,287.567ZM873.689,223.561C876.331,224.278 879.034,224.68 881.65,224.771C899.482,225.39 914.692,210.917 915.462,193.138C915.543,191.256 916.82,192.162 916.838,193.528C916.913,199.413 915.847,205.273 913.154,210.545C907.296,222.016 895.422,229.234 882.502,228.777C879.214,228.661 875.604,227.998 872.095,226.805C871.066,228.565 869.824,230.188 868.39,231.604C858.55,241.322 842.555,242.42 830.155,237.584C830.022,237.533 829.888,237.48 829.753,237.425C827.998,240.734 825.555,243.659 822.532,245.849C813.249,252.575 800.596,251.853 790.146,247.689C785.713,254.513 776.014,256.873 767.451,258.704C759.556,260.393 750.649,260.826 743.65,257.508C736.931,265.219 726.576,269.684 716.373,269.62C712.056,269.593 707.391,268.593 703.302,266.626C702.301,267.797 701.288,268.825 700.317,269.663C689.787,278.746 674.415,278.834 663.213,270.98C662.51,270.487 662.803,267.869 663.467,268.321C671.92,274.081 683.058,275.592 692.484,271.197C695.576,269.755 698.396,267.699 700.792,265.249C695.961,262.235 692.371,257.669 691.909,251.567C691.589,247.338 692.865,242.562 696.41,239.929C699.938,237.311 705.734,237.388 708.627,240.938C713.83,247.32 710.215,257.187 705.277,264.097C712.35,266.875 720.573,266.718 727.641,264.048C732.421,262.242 736.924,259.366 740.566,255.703C738.019,253.885 735.85,251.399 734.251,248.085C732.385,244.22 731.682,239.619 732.867,235.444C734.149,230.933 738.242,226.15 743.416,227.31C755.507,230.018 750.476,247.905 745.912,254.585L745.883,254.627C748.186,255.526 750.579,256.079 752.818,256.262C761.529,256.974 771.247,254.42 779.322,251.259C782.123,250.162 785.064,248.629 787.201,246.398C786.17,245.903 785.168,245.375 784.202,244.819C776.263,240.253 767.505,228.55 776.52,220.322C786.947,210.805 792.419,231.533 792.585,238.252C792.643,240.618 792.322,242.69 791.694,244.512C804.277,248.842 819.504,247.802 827.194,236.277C818.805,232.141 809.515,223.867 813.821,213.908C815.48,210.073 819.805,206.479 824.186,208.027C828.722,209.632 831.48,215.407 832.396,219.761C833.418,224.625 832.896,229.817 831.087,234.501C843.471,238.503 861.177,236.326 869.257,225.711C862.14,222.634 855.961,217.287 854.535,209.835C853.759,205.775 854.741,200.835 858.118,198.144C862.985,194.264 869.087,197.796 872.094,202.264C876.295,208.51 876.477,216.681 873.689,223.561ZM702.801,262.978C703.07,262.642 703.332,262.301 703.586,261.954C706.564,257.891 711.589,248.565 707.028,244.141C703.859,241.065 698.059,241.547 695.262,244.906C692,248.822 693.515,254.545 696.436,258.114C698.127,260.18 700.441,261.763 702.801,262.978ZM301.068,255.433C307.715,255.597 315.057,254.08 319.746,250.004C321.975,248.066 324.119,244.189 322.097,241.481C321.379,240.517 320.291,239.631 319.297,239.068C317.452,238.019 315.182,237.595 313.079,237.708C306.239,238.079 301.409,243.684 300.841,250.397C300.698,252.092 300.787,253.775 301.068,255.433ZM742.823,253.192C743.381,252.504 743.909,251.794 744.406,251.063C745.69,249.176 746.741,247.147 747.535,245.007C748.971,241.145 748.978,234.903 745.015,232.546C739.603,229.326 733.991,234.49 734.012,240.154C734.033,246.022 737.914,250.462 742.823,253.192ZM789.218,243.577C789.29,243.435 789.359,243.29 789.425,243.142C791.625,238.204 789.987,228.794 786.35,224.61C782.779,220.504 775.072,222.226 774.579,228.245C774.099,234.107 779.401,238.289 783.889,240.934C785.563,241.921 787.352,242.809 789.218,243.577ZM828.727,233.635C832.233,226.619 832.015,214.284 822.666,211.876C820.022,211.194 817.032,212.042 815.662,214.673C814.747,216.429 814.945,221.719 815.734,223.418C816.213,224.448 816.946,225.315 817.691,226.157C820.495,229.331 824.312,231.708 828.165,233.396C828.35,233.478 828.537,233.557 828.727,233.635ZM269.393,227.091C271.543,226.898 273.634,226.566 275.615,226.086C282.266,224.475 291.176,217.547 285.301,210.191C281.512,205.449 275.259,206.076 272.096,211.292C269.304,215.893 268.641,221.558 269.393,227.091ZM871.131,222.76C872.028,221.038 872.704,219.14 873.116,217.059C874.324,210.942 871.599,203.532 865.395,201.29C857.229,198.337 853.761,207.98 858.641,214.193C861.766,218.173 866.257,221.025 871.131,222.76ZM226.392,196.634C226.616,196.632 226.842,196.626 227.068,196.618C231.661,196.454 236.433,195.129 240.134,192.329C244.983,188.66 247.561,179.939 240.679,177.025C236.594,175.297 231.225,177.179 228.343,180.324C224.419,184.607 224.93,191.035 226.392,196.634ZM189.928,166.609C196.445,166.769 203.042,164.98 207.798,160.765C213.892,155.362 210.885,147.853 203.845,146.001C197.966,144.456 192.283,148.126 190.018,153.589C188.296,157.743 188.55,162.232 189.928,166.609ZM539.188,0C539.24,0.202 539.284,0.41 539.32,0.623C540.297,6.465 534.745,12.081 530.35,15.075C524.779,18.87 518.621,20.392 512.504,20.152C515.163,30.761 525.071,39.932 534.182,44.644C539.047,47.161 544.648,48.911 550.273,49.309C550.581,42.321 551.898,34.332 556.861,29.139C561.239,24.56 569.955,22.672 574.234,28.409C577.422,32.685 576.335,38.881 573.834,43.178C569.95,49.851 562.468,53.091 554.998,53.571C553.815,53.647 552.632,53.661 551.449,53.615C552.062,62.038 555.229,70.452 560.162,76.016C565.218,81.72 572.46,85.354 579.804,85.577C579.749,84.065 579.808,82.54 579.989,81.014C580.828,73.934 584.258,65.089 590.333,60.872C595.765,57.102 603.402,58.935 604.176,66.047C605.572,78.898 593.683,88.29 581.82,89.355C583.289,96.629 587.774,103.114 595.32,106.261C608.202,111.635 622.155,103.546 632.903,96.953C633.9,96.342 634.369,99.903 633.418,100.498C625.261,105.6 616.197,111.141 606.328,111.731C592.401,112.563 582.32,102.038 580.199,89.448C577.834,89.508 575.493,89.225 573.285,88.562C557.952,83.961 550.715,68.53 550.234,53.547C535.123,52.445 520.647,41.796 514.039,28.478C512.732,25.844 511.778,22.985 511.236,20.077C502.16,19.362 493.274,14.835 486.638,8.167C484.249,5.766 481.858,2.991 479.8,0L483.18,0C490.055,8.246 499.657,14.914 510.55,15.794L510.742,15.809C510.484,9.928 512.014,4.184 515.816,0L520.048,0C515.643,2.716 512.524,7.156 511.942,12.395C511.812,13.564 511.784,14.724 511.847,15.874C516.78,16.078 521.798,15.175 526.268,13.06C528.278,12.109 530.198,10.923 531.907,9.495C533.195,8.42 534.376,7.215 535.391,5.878C536.93,3.849 537.477,3.444 536.448,1.102C536.27,0.697 536.059,0.33 535.818,0L539.188,0ZM581.329,85.573C585.078,85.443 588.814,84.402 592.264,82.273C596.701,79.533 606.516,69.759 601.53,63.808C596.46,57.755 588.687,64.112 585.699,68.74C582.45,73.774 580.986,79.78 581.329,85.573ZM551.36,49.369C556.484,49.571 561.591,48.619 566.14,46.071C571.719,42.946 578.96,32.761 569.866,28.797C564.374,26.402 558.636,29.595 555.641,34.258C552.889,38.544 551.537,43.855 551.36,49.369Z" style="fill-rule:nonzero;"/>
</svg>
