<?xml version="1.0" encoding="UTF-8" standalone="no"?>
<!DOCTYPE svg PUBLIC "-//W3C//DTD SVG 1.1//EN" "http://www.w3.org/Graphics/SVG/1.1/DTD/svg11.dtd">
<svg width="100%" height="100%" viewBox="0 0 1000 1000" version="1.1" xmlns="http://www.w3.org/2000/svg" xmlns:xlink="http://www.w3.org/1999/xlink" xml:space="preserve" xmlns:serif="http://www.serif.com/" style="fill-rule:evenodd;clip-rule:evenodd;stroke-linejoin:round;stroke-miterlimit:2;">
    <path d="M887.53,1000C892.034,996.516 896.885,993.51 902.049,991.099C904.503,989.769 907.031,988.578 909.623,987.541C910.3,987.27 910.98,987.01 911.665,986.761C924.444,979.068 939.524,974.37 953.207,971.862C968.735,969.016 984.953,969.29 1000,973.549L1000,977.608C996.353,976.557 992.634,975.746 988.869,975.162C992.523,975.916 996.259,976.855 1000,977.967L1000,988.333L999.239,988.017C992.3,985.138 985.178,982.319 977.701,981.224C977.1,981.136 976.501,981.062 975.903,981.002C971.159,981.233 966.428,981.691 961.745,982.273C956.425,984.599 951.365,986.749 945.486,987.178C944.269,987.267 943.053,987.312 941.838,987.333C933.621,989.956 925.493,992.924 917.615,996.306C914.938,997.456 912.273,998.685 909.639,1000L887.53,1000ZM418.156,1000C417.9,994.275 417.994,988.59 418.42,983.04C419.319,971.341 422.129,959.903 426.972,949.465C430.565,940.92 435.506,932.787 441.929,925.315C449.522,916.482 458.483,909.924 468.363,905.338C482.067,897.601 497.81,893.675 513.817,894.269C519.057,894.463 524.122,895.162 529.029,896.292C534.594,896.361 540.142,896.779 545.561,897.648C552.436,898.75 558.589,901.168 564.276,904.497C571.608,907.586 578.563,911.598 584.93,916.676C594.053,923.95 600.618,933.005 605.535,942.998C612.82,952.323 618.65,962.581 621.392,974.145C623.415,982.674 623.834,991.377 623.011,1000L618.089,1000C617.761,996.002 617.21,991.982 616.46,987.957C615.589,983.273 614.632,978.538 613.514,973.824C613.956,976.535 614.283,979.276 614.55,982.012C616.155,987.934 617.333,993.954 617.944,1000L613.107,1000C613.064,999.05 613.011,998.099 612.949,997.146C612.386,992.432 611.494,987.751 610.367,983.153C607.378,970.952 602.935,958.584 596.78,947.254C596.024,945.943 595.244,944.644 594.442,943.364C589.73,938.425 584.523,933.882 579.559,929.46C566.731,918.028 552.63,908.176 536.74,902.823C530.086,901.737 523.237,901.225 516.302,901.051C514.29,901.198 512.286,901.381 510.292,901.597C494.722,903.275 479.03,907.399 465.132,914.824C449.831,925.441 439.149,942.061 432.863,959.475C429.7,968.238 427.499,977.295 425.841,986.453C425.697,990.959 425.816,995.488 426.186,1000L423.741,1000L423.736,999.947L423.729,1000L418.156,1000ZM25.385,1000C17.223,995.589 8.552,991.886 0,988.333L0,977.967L0.534,978.126C1.593,978.319 2.648,978.532 3.7,978.767C2.476,978.352 1.242,977.966 0,977.608L0,973.549C9.858,976.338 19.212,980.837 27.541,987.289C29.068,988.471 30.547,989.703 31.981,990.98C36.011,993.671 39.825,996.694 43.379,1000L35.869,1000C31.96,996.897 27.729,994.186 23.214,991.923C22.782,991.706 22.346,991.489 21.908,991.274C25.877,993.959 29.702,996.874 33.353,1000L25.385,1000ZM611.024,956.304C614.245,965.638 616.501,975.42 618.404,985.085C619.329,989.779 620.02,994.493 620.431,999.195C621.162,991.217 620.754,983.17 618.879,975.274C617.279,968.533 614.536,962.232 611.024,956.304ZM430.683,948.976C430.049,950.192 429.446,951.425 428.873,952.673C424.864,962.357 422.514,972.744 421.967,983.25C421.8,986.459 421.786,989.667 421.917,992.87C422.402,989.665 422.938,986.467 423.543,983.282C424.172,971.412 426.434,959.789 430.683,948.976ZM927.329,987.869L927.208,987.898L926.952,988.014L927.329,987.869ZM975.132,974.013C974.442,974.003 973.751,973.999 973.06,974.002L973.845,974.04L974.614,974.053L975.132,974.013ZM589.792,930.441C592.125,933.58 594.289,936.855 596.293,940.235C600.765,944.949 604.815,950.02 607.84,955.695C608.264,956.49 608.661,957.297 609.033,958.114C607.674,954.161 606.132,950.289 604.36,946.545C599.955,940.839 594.961,935.494 589.792,930.441ZM185.259,733.724C193.809,730.156 202.775,727.334 211.581,727.658C218.67,727.917 225.514,730.077 232.181,732.334C234.093,732.98 236.004,733.63 237.912,734.291C240.357,734.834 242.779,735.42 245.17,736.039C270.103,742.489 291.037,756.084 302.952,778.894C303.211,779.178 303.468,779.464 303.722,779.751C322.347,800.767 324.408,832.988 317.582,859.278C317.385,860.039 317.175,860.796 316.955,861.543C316.527,864.301 315.98,867.046 315.305,869.772C309.336,893.899 294.192,913.183 272.181,923.848C268.808,926.052 265.242,928.029 261.503,929.765C251.198,934.55 240.224,937.168 229.065,938.038C227.934,938.259 226.802,938.472 225.674,938.676C211.734,941.197 197.647,941.141 183.947,937.343C162.55,931.412 144.032,917.7 131.234,899.772C129.321,897.807 127.529,895.662 125.875,893.295C118.07,882.124 112.892,869.01 110.228,855.681C107.091,839.977 107.48,823.671 111.377,808.243C111.524,807.035 111.699,805.828 111.903,804.624C116.073,780.091 132.323,758.411 153.84,746.229C158.357,743.672 163.045,741.538 167.857,739.806C172.027,737.809 176.331,736.087 180.744,734.66C181.177,734.52 181.541,734.609 181.828,734.84C182.963,734.442 184.107,734.07 185.259,733.724ZM160.862,918.135C165.003,920.869 169.372,923.282 173.93,925.342C174.904,925.708 175.883,926.062 176.867,926.405C186.116,929.621 195.825,931.999 205.663,933.229C208.146,933.276 210.629,933.22 213.109,933.067C195.101,931.296 177.346,925.371 160.862,918.135ZM582.257,918.657C586.262,922.34 590.287,926.148 594.165,930.12C591.454,926.781 588.416,923.668 584.996,920.831C584.096,920.084 583.184,919.36 582.257,918.657ZM216.974,739.356C207.328,739.555 197.706,741.063 188.283,743.157C179.375,745.699 170.561,748.653 162.132,752.473C156.626,754.968 151.283,757.877 146.311,761.305C137.8,770.856 135.376,785.024 131.945,796.922C127.832,811.189 122.736,825.544 120.013,840.153C119.672,841.985 119.402,843.825 119.205,845.668C119.356,848.057 119.583,850.439 119.893,852.81C123.429,863.671 128.033,874.242 132.495,884.268C135.458,890.923 138.858,897.19 143.046,902.87C144.326,904.28 145.65,905.651 147.012,906.98C150.813,909.143 154.832,911.071 159,912.956C183.406,923.986 210.558,932.383 237.543,928.538C246.011,925.942 254.207,922.369 261.911,918.075C275.211,910.661 288.197,900.866 298.246,888.887C300.465,884.042 302.151,878.889 303.226,873.469C305.83,860.338 305.797,846.696 305.34,833.363C304.927,821.305 303.718,809.201 300.65,797.505C300.52,797.008 300.386,796.513 300.249,796.02C290.641,780.126 276.636,766.468 262.744,754.83C261.803,754.041 260.851,753.282 259.89,752.553C252.843,749.361 245.582,746.59 238.341,744.235C231.374,741.969 224.21,740.318 216.974,739.356ZM560.339,909.937C567.443,914.492 574.175,919.785 580.591,925.463C575.66,920.328 570.194,915.745 564.189,911.924C562.921,911.219 561.637,910.557 560.339,909.937ZM309.134,879.367C307.797,881.628 306.355,883.83 304.822,885.973C304.124,887.251 303.393,888.513 302.628,889.757C300.972,892.451 299.173,895.056 297.243,897.561C295.425,900.711 293.387,903.716 291.147,906.563C292.032,905.725 292.896,904.86 293.738,903.964C300.414,896.866 305.542,888.413 309.134,879.367ZM121.4,872.541C121.911,874.394 122.498,876.232 123.159,878.048C124.188,880.874 125.368,883.576 126.687,886.158C128.448,889.39 130.37,892.527 132.449,895.55C132.827,896.069 133.211,896.583 133.602,897.092C133.972,897.457 134.347,897.815 134.726,898.167C130.964,893.001 127.694,887.444 124.984,881.564C123.613,878.588 122.423,875.579 121.4,872.541ZM305.373,805.655C306.855,813.762 307.622,822.011 308.001,830.227C308.645,844.177 308.755,858.536 306.337,872.338L306.357,872.281C310.576,860.609 312.722,848.09 312.907,835.507C312.493,829.576 311.488,823.674 309.884,817.908C308.713,813.694 307.19,809.611 305.373,805.655ZM314.929,855.108C314.621,857.314 314.234,859.508 313.77,861.684C313.98,861.044 314.18,860.401 314.373,859.753C314.598,858.209 314.783,856.661 314.929,855.108ZM113.311,840.41C113.753,846.403 114.669,852.354 116.04,858.183C115.873,855.659 115.829,853.126 115.913,850.595C114.924,847.221 114.047,843.824 113.311,840.41ZM758.967,654.776C770.53,647.887 782,641.448 796.12,644.082C803.808,645.516 811,648.703 818.081,651.916C821.593,653.509 825.106,655.109 828.586,656.774C837.428,660.129 845.794,664.801 853.388,670.85C862.67,676.901 871.167,684.348 878.522,693.129C887.606,703.972 892.856,716.321 893.306,730.537C893.738,744.22 890.729,757.917 887.559,771.189C886.473,786.981 882.348,802.354 873.184,815.742C872.327,816.995 871.434,818.204 870.509,819.37C863.465,829.423 854.127,837.506 843.501,843.164C836.306,848.494 828.005,852.311 818.315,853.832C810.274,855.094 802.071,854.994 793.896,853.892L793.101,853.95C782.527,855.287 771.556,855.148 761.867,850.558C760.792,850.049 759.765,849.479 758.774,848.863C754.409,847.197 750.212,845.194 746.194,842.892C737.095,838.99 728.628,833.742 721.307,827.149C711.333,822.194 703.835,814.966 698.683,804.668C693.69,794.683 691.14,783.581 689.433,772.522C689.079,771.487 688.729,770.454 688.379,769.422C684.005,756.517 681.29,743.847 685.13,730.441C685.41,729.464 685.717,728.496 686.048,727.541C686.11,726.584 686.191,725.628 686.294,724.675C687.37,709.896 691.353,695.686 701.303,685.081C711.095,674.645 725.505,667.5 738.482,661.926C745.124,659.073 751.976,656.659 758.967,654.776ZM802.657,658.919C791.294,657.401 779.782,658.672 768.622,661.611C759.847,663.922 751.003,666.894 742.422,670.323C735.147,675.883 728.185,681.99 721.33,687.783C714.163,693.841 707.196,700.328 701.235,707.615C698.801,714.538 697.548,721.974 696.266,729.508C694.454,740.172 692.873,751.107 693.155,761.971C696.205,773.444 700.367,784.652 705.899,795.161C708.671,800.425 711.822,805.5 715.333,810.298C722.257,816.566 730.346,821.819 738.889,826.266C749.161,831.613 759.926,835.98 770.693,840.212C778.747,843.377 786.783,846.006 795.081,847.362C795.521,847.346 795.96,847.328 796.399,847.307C803.029,846.997 810.015,846.371 816.976,845.204C829.209,842.164 841.378,837.929 851.872,831.288C856.023,826.693 859.646,821.575 862.937,816.334C870.019,805.056 876.059,793.044 880.257,780.389C881.021,778.088 881.723,775.757 882.354,773.402C882.362,772.511 882.354,771.618 882.33,770.724C882.127,762.941 881.35,755.24 881.72,747.442C881.962,742.315 882.433,737.188 882.408,732.055C881.972,729.404 881.548,726.636 881.072,723.819C878.077,716.338 873.821,709.384 868.879,702.806C861.372,692.811 852.417,683.459 842.222,675.914L841.271,675.485C840.487,675.135 839.703,674.785 838.919,674.435L837.173,673.659C836.409,674.07 835.472,674.073 834.495,673.386C834.137,673.134 833.932,672.681 833.857,672.176C833.251,671.903 832.649,671.629 832.053,671.355C823.009,667.199 813.588,662.597 803.933,659.309L802.657,658.919ZM126.685,781.246C123.421,786.295 120.791,791.758 118.756,797.429L118.765,797.563C118.799,798.105 118.707,798.715 118.219,799.035L118.191,799.051C117.203,801.985 116.369,804.969 115.686,807.975C114.804,811.858 114.143,815.782 113.699,819.723C113.821,826.322 114.734,832.907 116.188,839.423C116.118,825.12 118.442,810.671 121.848,796.61C123.116,791.375 124.671,786.203 126.685,781.246ZM308.579,792.01C311.357,799.861 313.311,808.071 314.428,816.427C316.176,823.515 317.362,830.736 317.868,837.983C318.138,832.191 317.964,826.39 317.481,820.747C316.596,810.38 313.792,800.669 308.579,792.01ZM137.322,769.094C131.766,776.479 128.098,785.031 125.592,794.142C122.509,805.351 120.187,817.019 119.333,828.713C121.89,818.535 125.395,808.476 128.256,798.574C130.99,789.113 133.059,778.41 137.322,769.094ZM877.065,796.346C876.389,797.858 875.69,799.357 874.974,800.839C872.082,806.826 868.897,812.818 865.31,818.517C867.199,816.02 868.922,813.387 870.5,810.653C872.913,806.019 875.115,801.238 877.065,796.346ZM696.015,789.952C697.672,795.553 699.842,800.976 702.836,805.993C705.092,809.772 707.722,812.86 710.661,815.475C709.45,813.846 708.299,812.162 707.21,810.422C705.788,808.149 704.447,805.814 703.175,803.429C700.392,799.157 698.066,794.623 696.015,789.952ZM300.796,788.026C301.333,789.565 301.833,791.118 302.297,792.681C302.445,793.176 302.588,793.672 302.728,794.169C304.035,796.357 305.259,798.592 306.391,800.877C305.118,797.549 303.736,794.276 302.263,791.07C301.789,790.037 301.3,789.022 300.796,788.026ZM700.374,790.458C701.023,791.985 701.692,793.5 702.387,794.999L702.669,795.449C702.768,795.605 702.868,795.761 702.968,795.918L703.219,796.304C702.227,794.376 701.28,792.427 700.374,790.458ZM276.118,762.03C281.59,767.392 286.776,773.069 291.623,778.775C293.244,780.682 294.805,782.63 296.299,784.62C294.29,779.868 291.852,775.307 288.917,771.062L288.863,771.005C284.753,767.819 280.449,764.868 276.118,762.03ZM694.955,777.086C695.031,777.408 695.108,777.73 695.189,778.052C695.596,779.058 696.007,780.06 696.42,781.057C695.915,779.739 695.427,778.415 694.955,777.086ZM281.297,757.028C282.727,758.344 284.102,759.727 285.416,761.183C287.141,763.092 288.74,765.093 290.221,767.17L290.651,767.609C291.883,768.577 293.096,769.566 294.287,770.579C290.939,765.999 287.076,761.8 282.656,758.129C282.207,757.756 281.754,757.389 281.297,757.028ZM884.523,747.937C884.352,751.909 884.261,755.884 884.467,759.888C884.519,760.888 884.573,761.888 884.627,762.886C884.829,761.647 885.006,760.404 885.158,759.158C885.084,755.41 884.863,751.661 884.523,747.937ZM263.386,749.227C264.345,749.824 265.301,750.425 266.254,751.03C267.102,751.452 267.946,751.881 268.784,752.317C267.023,751.228 265.22,750.201 263.386,749.227ZM696.246,714.274C695.969,714.68 695.696,715.09 695.425,715.502C694.929,716.26 694.448,717.024 693.984,717.796C693.235,719.3 692.526,720.822 691.866,722.36L691.912,722.618C692.045,723.401 691.755,724.432 690.922,724.711L690.899,724.717C690.209,726.482 689.59,728.269 689.055,730.078C688.93,733.66 688.925,737.257 689.025,740.857C689.401,744.43 689.985,747.992 690.697,751.514C691.388,739.013 693.579,726.411 696.246,714.274ZM871.346,689.946C871.718,690.475 872.084,691.008 872.443,691.545C874.484,694.139 876.139,697.013 877.505,700.062C885.445,715.214 889.264,732.514 889.308,749.614C889.811,746.298 890.21,742.976 890.474,739.654C891.683,724.459 888.25,710.644 878.835,698.541C876.501,695.54 873.998,692.673 871.346,689.946ZM708.82,688.13C707.252,689.625 705.666,691.207 704.124,692.868C699.556,697.917 695.727,703.61 692.956,710.059C692.357,711.815 691.925,713.609 691.698,715.437C695.139,708.307 699.425,701.475 703.931,694.974C704.781,693.648 705.69,692.36 706.662,691.107C707.376,690.111 708.092,689.125 708.807,688.147L708.82,688.13ZM855.087,682.281C856.913,684.028 858.689,685.828 860.412,687.672C867.125,694.856 873.536,702.789 878.47,711.446C877.879,709.273 877.201,707.135 876.406,705.067C874.7,701.301 872.669,697.676 870.365,694.221C869.538,693.192 868.645,692.214 867.679,691.294C864.03,687.818 859.703,684.884 855.087,682.281ZM713.121,679.788C709.332,682.433 705.809,685.355 702.759,688.612C700.492,691.034 698.581,693.681 696.977,696.491C701.38,690.202 706.85,684.718 712.96,679.925L713.121,679.788ZM727.945,677.667C722.102,681.376 716.507,685.437 711.657,690.365C711.183,690.847 710.725,691.336 710.285,691.829C709.198,693.225 708.148,694.665 707.122,696.139C713.613,689.515 720.703,683.494 727.945,677.667ZM822.513,660.381C824.622,661.259 826.698,662.222 828.735,663.265C832.636,664.243 838.023,665.479 838.9,669.239C840.31,670.179 841.698,671.152 843.065,672.156C847.95,674.379 852.988,676.724 857.704,679.468C857.511,679.292 857.315,679.117 857.118,678.942C853.292,675.545 849.168,672.563 844.858,669.863C837.746,665.946 830.233,662.763 822.513,660.381ZM479.423,440.949C482.469,440.661 485.614,440.597 488.874,440.75C498.412,441.197 507.84,443.227 516.779,446.559C517.475,446.749 518.169,446.944 518.859,447.143C530.493,448.562 541.986,451.934 551.481,459.029C562.986,467.625 572.413,481.121 579.633,493.367C586.426,504.889 590.208,517.451 591.75,530.631C594.132,544.551 593.942,558.921 591.362,572.915C591.212,574.296 591.05,575.674 590.877,577.047C590.65,579.914 590.331,582.763 589.917,585.585C590.728,590.241 591.025,594.956 590.378,599.776C588.649,612.656 580.005,623.089 570.282,631.105C569.822,631.484 569.359,631.861 568.893,632.234C558.397,643.198 544.69,651.534 531.19,656.672C506.264,666.161 478.231,666.174 453.575,655.824C448.561,653.719 443.718,651.229 439.09,648.391C437.829,647.857 436.582,647.293 435.349,646.698C416.442,637.572 403.965,621.348 396.439,602.561C395.499,600.56 394.643,598.497 393.874,596.368C391.789,590.591 390.307,584.647 389.221,578.621C387.406,572.399 385.832,566.112 384.336,559.884C380.909,545.614 379.203,530.926 383.367,516.621C385.301,509.977 388.228,503.816 391.887,498.105C394.632,492.613 398.321,487.712 403.009,483.496C413.421,470.956 427.421,461.087 442.073,454.867C446.585,450.96 451.325,447.186 456.748,444.629C463.311,441.535 470.597,440.701 477.781,440.896C478.327,440.911 478.874,440.928 479.423,440.949ZM462.092,654.834C472.193,658.097 482.732,659.688 493.277,659.666C492.555,659.545 491.834,659.402 491.115,659.237C487.822,658.482 484.526,657.499 481.25,656.341C474.819,656.298 468.396,655.829 462.092,654.834ZM806.512,651.2C798.108,648.064 789.341,646.215 780.516,648.55C778.299,649.137 776.158,649.937 774.069,650.873C775.923,650.661 777.828,650.57 779.788,650.615C780.383,650.629 780.976,650.651 781.571,650.682C789.936,649.923 798.314,650.082 806.512,651.2ZM430.868,638.342C433.902,640.668 437.06,642.83 440.326,644.815C441.439,645.282 442.569,645.723 443.718,646.14C448.964,648.043 454.38,649.467 459.894,650.474C456.102,649.303 452.352,648.015 448.663,646.635C442.486,644.324 436.505,641.573 430.868,638.342ZM563.79,486.968C552.588,474.053 537.216,464.172 522.05,458.164C508.1,452.637 493.229,450.143 478.466,450.805C474.971,451.111 471.505,451.515 468.095,452.034C459.733,453.305 452.753,456.344 446.321,460.62L446.256,460.672C444.295,462.253 442.273,463.733 440.21,465.148C438.399,466.623 436.612,468.189 434.828,469.834C426.648,477.376 418.552,485.27 407.826,489C407.274,489.192 406.85,488.941 406.579,488.496C399.471,495.984 394.748,505.213 392.374,515.6C388.996,530.388 390.434,545.734 392.816,560.555C394.074,568.377 395.416,576.28 397.311,584.024C409.823,607.955 430.851,626.187 454.209,639.196C458.614,641.649 463.25,644.187 468.025,646.545C473.692,648.071 479.447,649.216 485.357,649.288C492.143,649.371 498.872,648.201 505.554,647.16C513.905,645.859 522.255,644.55 530.604,643.241C534.393,642.646 538.234,642.095 541.969,641.187C545.992,639.469 549.9,637.506 553.623,635.271C557.481,632.518 561.182,629.546 564.691,626.364C569.278,620.752 572.976,614.266 576.191,608.117C579.753,601.305 582.712,594.162 585.011,586.816C585.096,582.972 584.955,579.083 584.713,575.201C582.366,567.341 579.444,559.565 578.259,551.525C576.287,538.142 577.737,524.51 575.738,511.139C575.372,508.691 574.856,506.338 574.201,504.076C571.198,498.081 567.726,492.35 563.79,486.968ZM400.781,595.951C401.196,597.151 401.63,598.344 402.086,599.528C406.661,611.396 413.74,621.981 424.347,629.252C432.152,634.601 441.059,638.127 450.091,641.096L449.201,640.573C430.086,629.29 412.906,614.461 400.781,595.951ZM588.05,595.257C587.512,597.315 586.872,599.326 586.139,601.285C586.028,601.801 585.909,602.316 585.782,602.829C584.886,606.465 583.63,609.967 582.067,613.325C585.54,607.957 587.824,601.946 588.05,595.257ZM581.51,604.145C580.669,605.997 579.786,607.83 578.862,609.643L578.943,609.508C579.882,607.756 580.735,605.966 581.51,604.145ZM393.685,583.485C394.453,585.866 395.266,588.231 396.136,590.572C395.687,588.993 395.26,587.406 394.854,585.812C394.456,585.042 394.066,584.267 393.685,583.485ZM584.557,532.601C585.273,540.412 585.507,548.292 585.932,556.049C586.269,562.17 586.908,568.507 587.311,574.869L587.587,575.818L587.777,576.483C587.959,575.673 588.132,574.861 588.296,574.047C589.068,560.187 587.81,546.12 584.557,532.601ZM0,358.882C6.406,358.155 12.993,358.217 19.488,358.329C20.612,358.348 21.738,358.376 22.861,358.414C42.969,355.806 63.715,358.708 81.909,368.029C96.087,375.292 106.858,385.897 113.872,398.982C114.402,399.77 114.921,400.565 115.429,401.367C117.428,404.163 119.288,407.047 121,410.007C127.979,422.069 132.588,435.274 133.052,449.281C133.315,457.234 132.397,465.134 130.731,472.894C130.249,483.832 127.964,494.739 123.613,505.391C122.176,508.909 120.532,512.323 118.695,515.62C114.945,523.699 110.271,531.265 104.442,537.765C96.73,553.296 85.475,566.88 67.749,567.842C61.244,568.195 54.859,567.782 48.417,568.421C45.005,569.269 41.547,569.887 38.062,570.212C32.626,571.348 27.197,572.531 21.629,572.735C14.187,573.006 6.887,571.508 0,568.843L0,564.858C6.016,567.22 12.347,568.659 18.83,568.838C14.617,567.86 10.504,566.482 6.501,564.81C4.313,564.551 2.142,564.212 0,563.767L0,555.597C9.635,559.398 19.863,561.594 30.194,562.211L31.786,562.178L33.486,562.141C38.388,561.517 43.307,560.561 48.267,559.565C57.072,557.796 65.949,555.858 74.441,552.864C77.958,551.192 81.362,549.314 84.633,547.245C92.291,541.935 99.318,535.69 105.26,528.577C108.225,521.885 110.719,514.964 112.882,508.083C120.311,484.455 123.621,458.494 120.93,433.625C119.815,428.761 118.439,423.97 116.752,419.322C115.456,416.32 114.165,413.245 112.811,410.177C101.988,388.946 82.138,374.757 59.104,368.024C50.741,365.579 42.15,364.1 33.49,363.309C22.183,363.9 10.982,366.488 0,369.874L0,358.882ZM389.376,556.431L389.388,556.597C389.636,560.041 389.931,563.498 390.315,566.946L390.326,567.025C390.745,568.403 391.196,569.774 391.68,571.139C390.786,566.244 390.033,561.326 389.376,556.431ZM1000,358.882L1000,369.874C995.067,371.394 990.18,373.075 985.347,374.809C970.733,382.816 958.111,394.302 949.364,408.821C942.745,419.807 938.474,432.232 937.41,445.039C936.155,460.136 939.223,475.314 943.074,489.838C946.374,502.284 950.873,514.482 958.665,524.773C969.269,538.127 983.291,548.803 999.07,555.225C999.379,555.35 999.689,555.474 1000,555.597L1000,563.767C998.053,563.363 996.129,562.872 994.238,562.274C996.122,563.225 998.044,564.091 1000,564.858L1000,568.843C994.352,566.658 988.982,563.689 984.036,560.267C975.602,554.431 968.212,547.276 961.888,539.239C951.812,530.973 944.583,520.269 939.673,508.227C934.522,495.594 931.753,482.135 929.196,468.785C926.48,454.609 923.639,439.882 927.231,425.589C929.378,417.049 933.514,409.315 938.716,402.322C939.608,399.814 940.64,397.361 941.834,394.99C945.023,386.853 949.982,379.889 957.904,374.972C963.454,371.526 969.614,369.312 975.964,367.714C976.456,367.367 976.949,367.022 977.442,366.681C984.329,361.91 992.024,359.785 1000,358.882ZM31.523,566.332L30.922,566.388C31.249,566.398 31.576,566.405 31.903,566.41C32.514,566.417 33.124,566.415 33.733,566.402C33.018,566.384 32.303,566.359 31.587,566.326L31.523,566.332ZM94.776,547.669C88.784,552.503 81.855,556.209 74.583,559.127C71.763,560.258 68.893,561.258 65.979,562.129C64.492,562.809 62.988,563.463 61.467,564.086C62.944,564.082 64.424,564.07 65.911,564.029C78.737,563.671 87.763,557.489 94.776,547.669ZM578.863,514.63C580.233,528.552 578.796,542.713 581.951,556.448C582.482,558.758 583.115,561.062 583.794,563.364C583.566,560.594 583.354,557.856 583.206,555.169C582.463,541.663 582.332,527.788 578.863,514.63ZM569.113,486.376C571.327,489.674 573.228,493.198 574.754,496.972C577.25,501.402 579.273,506.074 580.714,510.965C580.75,511.084 580.784,511.204 580.819,511.322C585.448,522.913 588.642,535.467 590.204,548.221C590.203,545.135 590.122,542.052 589.943,538.982C587.766,519.681 580.527,501.432 569.113,486.376ZM963.827,535.72C964.236,536.198 964.651,536.675 965.07,537.151C965.391,537.405 965.714,537.657 966.04,537.907C965.291,537.188 964.552,536.459 963.827,535.72ZM386.306,516.772L386.167,517.204C384.098,523.755 383.428,530.39 383.648,537.028C383.867,531.427 384.596,525.84 385.856,520.332C385.982,519.142 386.132,517.955 386.306,516.772ZM942.452,507.319C942.898,508.376 943.363,509.427 943.848,510.47C944.694,512.291 945.604,514.057 946.576,515.768C945.095,512.979 943.719,510.156 942.452,507.319ZM124.306,455.193C123.89,474.367 120.465,493.572 114.618,511.606C117.827,504.087 120.654,496.372 123.244,488.787C123.481,488.093 123.714,487.397 123.943,486.701C125.249,477.737 125.324,468.577 124.669,459.556C124.564,458.104 124.443,456.649 124.306,455.193ZM423.092,475.87C419.994,477.802 416.937,479.799 413.984,481.972C413.491,482.335 413.006,482.705 412.53,483.079C416.335,481.092 419.795,478.599 423.092,475.87ZM933.168,453.304C933.195,459.435 933.676,465.564 934.591,471.628C934.203,468.493 933.904,465.35 933.677,462.209C933.464,459.254 933.29,456.284 933.168,453.304ZM126.337,446.643C127.556,454.667 128.175,462.858 128.047,470.978C128.336,468.145 128.526,465.303 128.614,462.458C128.595,462.075 128.573,461.694 128.549,461.314C128.234,456.326 127.457,451.442 126.337,446.643ZM935.913,412.22C932.698,417.745 930.307,423.687 929.113,430.124C926.953,441.765 928.928,453.779 931.269,465.414C930.033,453.142 930.49,440.709 932.783,428.596C933.236,426.202 933.748,423.777 934.333,421.348C934.733,418.307 935.248,415.249 935.913,412.22ZM488.489,445.645C485.956,445.719 483.45,446.075 480.969,446.597C481.936,446.578 482.904,446.573 483.87,446.581C486.88,446.381 489.905,446.236 492.931,446.152C491.451,445.959 489.97,445.789 488.489,445.645ZM121.362,419.57C121.685,421.066 121.971,422.583 122.219,424.12C122.36,424.996 122.495,425.874 122.621,426.751C124.488,431.547 126.06,436.404 127.312,441.297C126.135,433.867 124.173,426.574 121.362,419.57ZM969.257,380.966C968.174,381.446 967.105,381.943 966.054,382.462C958.313,387.863 951.271,394.27 945.206,401.616C945.05,401.805 944.897,401.898 944.754,401.915C943.06,405.002 941.594,408.243 940.328,411.578C939.328,416.738 938.515,422.008 937.909,427.346C939.892,420.598 942.684,414.083 946.156,407.963C952.11,397.466 960.02,388.399 969.257,380.966ZM112.683,403.275C113.189,404.313 113.682,405.359 114.166,406.41C114.454,406.948 114.738,407.49 115.015,408.035C114.444,406.649 113.832,405.288 113.18,403.954L112.683,403.275ZM639.876,196.358C649.602,188.803 660.012,182.024 671.62,177.994C679.312,175.325 687.493,174.021 695.629,174.722C704.662,175.5 713.34,178.564 722.206,180.283C723.495,180.533 724.784,180.774 726.071,181.014C734.16,180.961 742.282,181.762 749.767,185.053C764.824,191.672 776.615,205.479 786.384,218.302C790.148,223.243 793.673,228.435 796.794,233.857C807.719,250.627 813.701,270.643 813.825,290.664C814.341,296.029 814.273,301.436 813.426,306.822C812.719,311.318 811.401,315.639 809.649,319.801C808.035,325.085 805.954,330.223 803.454,335.151C801.965,338.917 799.925,342.507 797.151,345.842C796.71,346.493 796.262,347.139 795.805,347.78C785.173,376.888 755.731,395.211 726.009,400.244C697.171,405.127 666.049,398.319 643.036,379.952C634.932,376.832 627.459,372.474 621.29,365.559C618.728,362.687 616.477,359.592 614.484,356.337C614.301,356.13 614.117,355.919 613.934,355.708C604.116,344.387 596.492,329.319 599.251,313.976C594.802,295.595 591.702,275.997 594.474,257.605L594.478,257.331C594.582,251.066 596.261,245.551 599.112,240.34C601.011,235.635 603.448,231.076 606.513,226.711C611.859,219.097 618.256,212.716 625.396,207.378C628.995,203.985 632.815,200.877 636.907,198.191C637.884,197.549 638.875,196.939 639.876,196.358ZM751.286,382.838C745.604,385.742 739.647,388.091 733.625,389.879C714.471,395.566 694.278,395.556 675.507,390.217C685.027,393.201 694.776,395.218 704.415,396.219C713.262,397.138 722.52,397.494 731.132,394.89C738.749,392.588 745.259,387.907 751.286,382.838ZM788.033,357.368C781.068,364.946 772.927,371.433 763.923,376.42C760.202,379.737 756.458,383.029 752.648,386.236C751.105,387.534 749.53,388.807 747.912,390.025C764.268,383.291 778.996,372.27 788.033,357.368ZM960.581,379.708C956.567,382.188 952.947,385.207 949.855,388.87C951.997,386.644 954.349,384.709 956.855,382.992C958.082,381.883 959.324,380.788 960.581,379.708ZM719.903,190.416C715.633,189.85 711.334,189.539 707.034,189.493C697.556,189.391 688.107,190.43 678.761,191.933C676.245,192.338 673.716,192.757 671.199,193.24C671.011,193.817 670.636,194.264 670.064,194.319C655.383,195.723 644.871,206.66 636.88,218.168C627.89,231.114 620.343,245.238 612.467,258.876C610.021,263.111 607.632,267.432 606.416,272.201C605.059,277.529 606.006,282.643 606.668,287.985C607.256,292.73 606.909,296.822 605.944,300.962C606.717,309.136 607.746,317.321 609.332,325.328C610.656,328.757 612.144,332.125 613.824,335.415C620.671,348.832 630.63,360.566 642.595,369.7C643.548,370.428 644.513,371.137 645.486,371.824C646.898,372.687 648.343,373.508 649.823,374.286C661.536,380.447 674.499,383.36 687.603,384.51L688.062,384.508C706.181,384.392 724.701,381.411 742.36,377.462C750.394,375.665 757.596,372.78 764.158,368.856C771.8,362.79 778.579,355.591 784.211,347.596C790.101,337.588 794.479,326.448 798.73,316.005C798.897,315.595 799.062,315.185 799.226,314.773C799.659,307.41 799.653,300.021 799.556,292.817C799.399,281.256 798.477,269.606 796.149,258.263C792.314,247.221 786.746,236.745 779.841,227.321C765.291,211.634 745.646,200.581 726.004,192.757C723.975,191.949 721.941,191.162 719.903,190.416ZM636.93,370.104C638.122,371.243 639.338,372.356 640.576,373.44C640.744,373.535 640.91,373.629 641.077,373.722C642.327,374.42 643.593,375.079 644.872,375.7C644.472,375.422 644.074,375.14 643.678,374.854C641.335,373.374 639.086,371.787 636.93,370.104ZM217.137,171.517C223.16,165.402 229.96,160.035 237.289,156.068C252.187,148.004 268.007,148.926 283.6,154.512C285.428,155.167 287.259,155.842 289.088,156.538C292.087,156.931 295.066,157.471 298.017,158.157C313.854,160.098 327.383,166.812 339.429,177.324C345.945,183.01 352.342,189.226 358.125,195.93C364.195,201.617 369.577,207.985 373.654,215.309C376.663,220.715 378.823,226.47 380.255,232.408C380.37,232.718 380.482,233.03 380.59,233.344C381.883,237.11 382.667,241.019 383.042,244.972C383.968,247.377 384.786,249.822 385.437,252.322C387.952,261.978 386.786,271.373 383.77,280.356C381.423,289.87 376.514,298.407 370.784,306.367C367.561,311.68 364.121,316.926 360.443,321.987C356.132,328.425 351.256,334.409 345.873,339.76C339.364,346.23 332.113,351.447 324.352,355.355C319.599,360.045 314.456,364.505 307.954,366.429C299.863,368.821 291.082,367.391 282.879,366.407C274.792,365.435 266.681,364.201 258.853,361.893C256.429,361.178 254.061,360.333 251.749,359.366C248.379,358.447 245.085,357.332 241.908,355.987C233.794,352.553 227.047,347.279 221.002,341.188C215.91,338.182 211.111,334.573 206.693,330.251C197.321,321.084 191.699,309.596 188.471,297.17C186.037,292.252 184.035,287.13 182.655,281.762C182.383,280.706 182.14,279.647 181.924,278.585C179.776,272.567 178.272,266.322 177.78,259.717C176.625,244.241 180.387,228.646 186.718,214.595C190.651,205.866 195.558,197.337 201.343,189.52C205.729,182.812 210.979,176.712 217.137,171.517ZM997.01,363.467C996.073,363.6 995.141,363.753 994.214,363.929C992.831,364.19 991.494,364.526 990.197,364.929L990.48,364.884C992.65,364.389 994.828,363.916 997.01,363.467ZM313.061,360.004C306.683,362.077 300.063,363.341 293.309,363.769C295.723,363.911 298.131,363.945 300.515,363.809C305.036,363.55 309.194,362.142 313.061,360.004ZM252.633,352.529C254.286,353.221 255.954,353.873 257.639,354.484C259.814,354.982 262.009,355.397 264.215,355.73C267.295,356.194 270.379,356.495 273.46,356.637C274.758,356.647 276.061,356.64 277.37,356.621C279.588,356.589 281.821,356.557 284.063,356.507C287.759,356.245 291.427,355.76 295.053,355.06C281.082,355.481 266.535,355.123 252.633,352.529ZM605.959,329.231C608.32,337.3 611.316,345.391 615.576,352.669L615.595,352.692C613.347,348.706 611.477,344.358 610.047,339.635C609.735,338.607 609.437,337.573 609.153,336.536C608.013,334.134 606.948,331.697 605.959,329.231ZM280.814,160.773C271.205,160.853 261.499,161.79 252.206,163.505C250.846,163.919 249.495,164.367 248.153,164.852C235.002,169.597 223.056,177.468 213.449,187.619C210.499,190.736 207.849,194.059 205.445,197.542C202.304,203.128 199.686,208.777 197.611,213.987C197.267,214.849 196.933,215.714 196.607,216.584C196.14,218.213 195.709,219.851 195.314,221.494C189.29,246.524 191.373,273.35 200.72,297.303C205.339,309.138 212.056,321.159 220.638,331.485C225.143,334.978 229.4,338.625 233.609,342.453C234.646,343.123 235.692,343.778 236.75,344.418C254.879,350.825 275.193,351.794 294.279,351.199C299.74,351.028 305.319,350.987 310.81,350.571C321.46,346.518 331.429,340.559 340.188,332.973C341.866,331.519 343.506,330.01 345.104,328.449C363.247,306.854 377.958,281.146 376.418,252.079C375.924,242.755 373.427,234.236 369.432,226.388C364.536,218.565 358.774,211.134 352.993,204.172C343.82,194.492 333.706,185.543 322.71,178.037C311.978,170.711 299.755,164.823 287.009,161.475C284.964,161.184 282.896,160.951 280.814,160.773ZM331.149,344.237C328.861,345.751 326.518,347.17 324.126,348.489C324.508,348.387 324.888,348.282 325.267,348.172C327.056,347.194 328.786,346.131 330.464,344.996L331.149,344.237ZM797.928,327.719C795.26,334.648 791.824,341.287 787.731,347.494L787.607,347.716C790.49,344.315 793.402,340.738 796.151,337.01C796.882,333.953 797.466,330.85 797.928,327.719ZM601.727,323.651C602.233,329.204 603.999,334.566 606.605,339.621C605.059,335.377 603.743,331.054 602.566,326.751C602.285,325.724 602.005,324.691 601.727,323.651ZM804.555,308.412C803.779,310.744 802.933,313.063 802.029,315.367L801.743,316.095C801.398,321.297 800.834,326.48 799.951,331.58C800.961,330.049 801.932,328.496 802.851,326.923C804.271,321.003 804.618,314.775 804.555,308.412ZM203.272,321.709C204.844,323.689 206.564,325.585 208.447,327.386C209.12,328.029 209.801,328.657 210.492,329.268C209.541,328.094 208.598,326.914 207.66,325.733C206.151,324.441 204.682,323.106 203.272,321.709ZM189.331,248.613C188.83,252.199 188.412,255.796 188.114,259.4L188.114,259.411C187.785,270.197 188.385,281.868 191.342,292.638C193.518,296.711 195.854,300.715 198.192,304.691C202.094,311.327 206.246,317.924 210.972,324.041L211.911,324.797C206.99,317.51 202.877,309.731 199.624,301.916C192.642,285.144 189.099,266.835 189.331,248.613ZM809.799,282.039C809.495,288.22 808.478,294.34 806.93,300.379C807.205,306.545 807.408,312.834 806.926,318.974C807.149,318.466 807.364,317.956 807.573,317.446L807.666,317.131C810.077,308.87 811.261,300.33 811.305,291.781C811.026,288.515 810.505,285.262 809.799,282.039ZM603.956,307.63L603.926,307.716L603.999,308.018L603.956,307.63ZM601.188,267.774C600.212,273.137 599.721,278.589 599.677,284.049C599.79,284.863 599.904,285.675 600.018,286.486C600.774,291.874 601.666,297.273 602.785,302.622C602.961,302.107 603.13,301.588 603.291,301.067C602.773,295.485 602.362,289.918 601.953,284.436C601.542,278.925 601.178,273.33 601.188,267.774ZM804.2,299.704L804.169,300.129L804.28,299.714L804.246,298.999L804.2,299.704ZM382.586,261.25C382.11,264.977 381.421,268.698 380.535,272.391C379.242,279.444 377.34,286.466 374.877,293.309C377.347,288.767 379.585,284.08 381.245,279.267C381.38,278.733 381.507,278.195 381.626,277.653C382.84,272.09 383.095,266.618 382.586,261.25ZM800.571,255.834C804.211,266.757 805.61,278.279 806.369,289.817C807.271,283.956 807.558,278.022 807.024,272.021C805.317,266.855 803.257,261.814 801.084,256.972L800.571,255.834ZM596.187,278.265C596.261,279.824 596.366,281.385 596.498,282.949C596.402,281.56 596.322,280.169 596.256,278.777L596.187,278.265ZM183.698,254.184C182.741,261.552 182.703,268.999 184.023,276.361C184.406,277.466 184.813,278.562 185.241,279.651C184.143,271.227 183.607,262.686 183.698,254.184ZM643.007,205.201C640.677,207.092 638.408,209.04 636.198,211.016C623.813,222.084 612.618,234.984 606.225,250.489C605.744,251.655 605.292,252.829 604.866,254.013C604.749,254.652 604.644,255.296 604.551,255.946C603.805,261.166 603.709,266.447 603.883,271.724C604.676,267.963 606.081,264.32 608.024,260.6C612.691,251.668 618.158,243.094 623.255,234.402C627.515,227.138 631.678,219.795 636.653,212.987C638.624,210.289 640.735,207.659 643.007,205.201ZM614.498,224.802C611.921,228.028 609.433,231.309 606.979,234.549C604.859,237.347 602.995,240.08 601.478,242.889C598.923,250.346 598.702,258.524 598.673,266.385C599.57,261.519 600.845,256.726 602.519,252.066C603.78,245.417 606.09,239.007 610.068,233.068L610.114,232.999C611.372,230.105 612.842,227.376 614.498,224.802ZM188.775,217.252C182.971,230.284 179.466,244.532 180.362,258.854C180.418,259.76 180.496,260.659 180.594,261.554C180.894,253.077 182.497,244.615 184.837,236.436C185.633,229.991 186.938,223.543 188.775,217.252ZM377.827,242.548C378.125,244.13 378.367,245.739 378.553,247.374C378.832,249.834 378.994,252.279 379.047,254.709C379.131,251.362 379.008,248.017 378.66,244.689C378.393,243.973 378.116,243.261 377.827,242.548ZM793.245,233.975C796.956,240.894 800.244,247.925 803.22,254.664C800.96,248.015 797.909,241.642 794.335,235.568L793.937,234.977C793.797,234.773 793.657,234.569 793.518,234.366L793.245,233.975ZM189.362,231.078C188.648,233.149 187.973,235.243 187.349,237.354C186.947,240.639 186.66,243.943 186.482,247.259C187.125,241.816 188.086,236.409 189.362,231.078ZM767.254,208.457C770.033,211.107 772.685,213.889 775.201,216.783C776.867,218.7 778.475,220.671 780.019,222.692C782.484,225.25 784.816,227.93 786.992,230.736C784.938,226.537 782.59,222.481 779.95,218.629C775.992,214.909 771.74,211.511 767.254,208.457ZM194.211,209.895C193.412,211.931 192.676,213.993 192.003,216.075C192.456,214.995 192.922,213.92 193.402,212.85C193.66,211.861 193.929,210.876 194.211,209.895ZM349.161,194.552C351.499,197.274 353.854,200.062 356.178,202.913C357.001,203.807 357.818,204.709 358.627,205.616C359.081,206.125 359.53,206.638 359.972,207.154C357.133,203.547 354.222,199.992 351.193,196.545C350.526,195.871 349.85,195.208 349.161,194.552ZM742.215,195.793C748.042,198.714 753.749,201.962 759.2,205.568C756.339,203.241 753.366,201.052 750.294,199.017C747.645,197.837 744.949,196.761 742.215,195.793ZM736.411,187.376C737.189,187.718 737.964,188.078 738.738,188.455C742.619,190.349 746.38,192.48 750.008,194.823C756.468,197.633 762.662,201.05 768.477,205.04C767.678,204.273 766.862,203.522 766.03,202.786C757.09,194.887 747.267,190.33 736.411,187.376ZM709.648,181.34C705.912,180.451 702.166,179.64 698.374,179.125C690.418,178.045 682.383,178.84 674.72,181.202C668.466,183.13 662.563,185.906 656.94,189.203C658.825,188.649 660.728,188.15 662.646,187.696C667.694,185.153 672.964,183.105 678.465,181.751C687.377,179.557 696.059,179.935 704.568,181.708C706.259,181.563 707.953,181.439 709.648,181.34ZM720.742,186.531L720.827,186.563L721.331,186.635L720.742,186.531ZM909.639,0C898.708,5.453 888.318,12.356 879.831,21.001C876.208,26.74 873.195,32.961 870.764,39.462C867.637,47.825 864.885,57.068 863.766,66.242C864.297,76.418 866.663,86.526 870.505,96.016C874.06,101.366 878.227,106.477 881.304,112.384C882.785,115.225 884.096,118.151 885.341,121.109C891.596,128.741 898.916,135.395 906.59,141.679C912.26,146.321 917.988,151.117 923.977,155.507C925.021,155.879 926.066,156.238 927.11,156.587C936.332,159.671 946.182,162.947 956.238,165.358C965.538,164.143 974.773,162.209 984.151,161.761C989.351,161.513 994.695,161.731 1000,161.66L1000,174.535C975.251,183.571 946.219,184.939 922.331,172.945C911.833,167.674 902.461,159.967 895.859,150.206C891.625,146.068 887.764,141.494 884.274,136.668C877.525,127.673 871.775,117.745 866.271,108.083C859.503,96.2 853.624,83.414 852.601,69.595C851.607,56.174 855.84,43.035 861.937,31.233C868.163,19.183 876.865,8.251 887.53,0L909.639,0ZM913.474,163.314C917.307,166.051 921.42,168.401 925.697,170.343C945.89,179.506 968.867,179.853 990.364,173.784C974.776,177.764 958.467,177.613 943.28,171.379C942.116,171.134 940.954,170.878 939.796,170.61C937.963,170.532 936.125,170.376 934.284,170.126C926.786,169.106 919.849,166.72 913.474,163.314ZM43.379,0C50.563,6.684 56.676,14.526 61.344,23.118C67.344,34.164 70.55,46.116 71.606,58.612C72.841,73.217 73.418,89.225 70.432,103.667C68.149,114.718 62.699,123.857 55.34,131.962C43.043,150.425 24.524,164.641 4.067,172.966C2.726,173.512 1.371,174.035 0,174.535L0,161.66C0.58,161.652 1.16,161.641 1.739,161.626C3.659,160.746 5.56,159.854 7.439,158.978C19.675,153.273 31.639,146.899 41.742,138.622C44.447,134.766 46.886,130.767 49.141,126.931C56.232,114.87 61.649,101.71 64.466,87.981C65.732,81.809 66.435,75.545 66.55,69.294C65.901,63.915 64.868,58.508 63.508,53.104C62.026,47.217 60.192,41.342 57.969,35.601C51.461,23.734 42.586,12.954 32.21,3.947C29.986,2.566 27.706,1.254 25.385,0L33.353,0C33.683,0.283 34.013,0.568 34.342,0.855C36.704,2.376 39,3.973 41.214,5.662C40.109,4.266 38.966,2.901 37.782,1.57C37.154,1.036 36.516,0.513 35.869,0L43.379,0ZM957.122,169.542L956.902,169.572C957.192,169.611 957.482,169.649 957.773,169.687L957.122,169.542ZM991.6,165.952C988.203,165.942 984.824,165.971 981.511,166.221C977.208,166.546 972.912,167.147 968.619,167.805C973.142,168.486 977.673,168.91 982.176,168.982C985.36,168.181 988.503,167.137 991.6,165.952ZM938.102,164.53C938.673,164.833 939.247,165.131 939.824,165.421C940.472,165.747 941.122,166.06 941.773,166.36C941.931,166.363 942.088,166.364 942.245,166.365C942.956,166.369 943.667,166.362 944.378,166.346C942.279,165.765 940.186,165.159 938.102,164.53ZM895.783,144.277C896.019,144.677 896.26,145.074 896.505,145.47C905.348,153.823 916.238,159.32 927.814,162.976L928.134,163.076C926.391,161.93 924.668,160.743 922.965,159.524L922.77,159.454C913.019,155.943 903.445,151.297 895.783,144.277ZM267.619,154.615C263.62,154.091 259.614,153.975 255.615,154.381C251.617,154.788 247.626,155.718 243.658,157.286C251.475,155.079 259.544,154.271 267.619,154.615ZM889.368,130.954C889.56,131.417 889.753,131.879 889.947,132.34C891.631,134.703 893.462,136.951 895.511,139.021C899.782,143.335 904.756,146.742 910.079,149.546C906.831,146.874 903.64,144.156 900.494,141.463C896.599,138.128 892.868,134.641 889.368,130.954ZM870.843,106.336C873.735,112.81 877.003,119.116 880.587,125.104C882.227,127.843 883.989,130.534 885.869,133.144C886.834,134.465 887.824,135.766 888.843,137.041L888.235,135.631C885.132,131.224 882.57,126.444 879.99,121.707C877.13,116.457 874.021,111.386 870.843,106.336ZM62.625,110.841C62.386,111.39 62.143,111.939 61.895,112.485C60.422,115.735 58.804,118.985 57.043,122.201C58.002,120.799 58.915,119.354 59.778,117.862C60.848,115.547 61.794,113.205 62.625,110.841ZM623.011,0C622.584,4.479 621.823,8.935 620.777,13.334C620.163,27.766 616.411,41.793 608.142,54.497C600.498,66.241 590.088,75.971 578.266,83.492C569.356,92.695 559.345,100.302 546.739,103.568C530.301,107.827 513.943,105.478 498.125,100.628C493.743,99.864 489.414,98.787 485.178,97.372C464.114,90.336 445.542,75.63 434.087,56.579C431.65,52.525 429.506,48.256 427.644,43.832C426.135,41.641 424.75,39.388 423.524,37.076C419.594,29.658 418.958,21.686 419.435,13.638C418.782,9.1 418.359,4.538 418.156,0L423.729,0C423.501,1.609 423.276,3.218 423.07,4.823C424.308,12.99 426.438,21.028 429.315,28.795C426.368,19.481 424.495,9.78 423.741,0L426.186,0C427.757,19.139 433.853,37.983 443.616,53.569C446.064,57.476 448.8,61.193 451.782,64.69C460.101,71.59 469.258,77.472 478.69,82.055C498.157,91.514 520.364,95.808 541.822,91.94C556.993,89.205 571.572,82.601 583.62,72.92C584.364,72.172 585.098,71.414 585.821,70.646C589.654,66.065 593.213,61.309 596.54,56.632C603.588,46.725 609.442,35.771 612.018,23.807C613.216,16.087 613.485,8.104 613.107,0L617.944,0C618.337,3.897 618.495,7.805 618.38,11.706L618.396,11.639C618.52,7.792 618.411,3.907 618.089,0L623.011,0ZM474.639,84.381C480.477,88.033 486.679,91.074 493.113,93.417C495.41,94.009 497.762,94.506 500.166,94.906C502.581,95.307 505.011,95.617 507.45,95.84C496.512,93.825 485.855,90.102 475.966,85.067C475.523,84.841 475.081,84.612 474.639,84.381ZM858.51,84.204C859.669,87.713 861.084,91.141 862.667,94.498C862.165,93.052 861.689,91.598 861.245,90.14C860.255,88.193 859.334,86.216 858.51,84.204ZM436.166,54.411C441.93,63.861 449.471,72.163 458.208,78.934C452.364,73.727 447.118,67.669 442.492,60.87C440.341,58.798 438.216,56.645 436.166,54.411ZM861.119,54.217C859.784,60.708 859.687,67.274 860.542,73.814C860.588,71.584 860.731,69.342 860.961,67.095C860.706,62.805 860.752,58.501 861.119,54.217ZM616.507,27.217C616.39,27.529 616.272,27.84 616.152,28.151C614.21,36.04 611.188,43.535 607.25,50.491C611.739,43.125 614.749,35.312 616.507,27.217ZM869.69,33.695C868.999,34.783 868.337,35.892 867.704,37.023C867.338,38.085 866.998,39.153 866.684,40.229C866.027,42.479 865.481,44.75 865.043,47.035C866.014,43.737 867.102,40.496 868.266,37.347C868.72,36.12 869.194,34.902 869.69,33.695ZM422.193,14.562L422.179,14.974C423.554,23.522 425.798,31.941 428.942,39.847C430.588,42.266 432.343,44.631 434.196,46.933C428.797,36.502 424.716,25.342 422.219,13.926L422.193,14.562ZM868.831,25.938C867.497,27.999 866.244,30.107 865.074,32.251C864.347,33.583 863.647,34.934 862.978,36.302C863.614,35.232 864.278,34.18 864.964,33.146C865.55,32.264 866.151,31.389 866.766,30.523C867.404,28.974 868.093,27.444 868.831,25.938ZM58.749,29.976L58.906,30.352L59.127,30.73L58.945,30.314C58.879,30.2 58.814,30.087 58.749,29.976Z" style="fill-rule:nonzero;"/>
</svg>
