<?xml version="1.0" encoding="UTF-8" standalone="no"?>
<!DOCTYPE svg PUBLIC "-//W3C//DTD SVG 1.1//EN" "http://www.w3.org/Graphics/SVG/1.1/DTD/svg11.dtd">
<svg width="100%" height="100%" viewBox="0 0 1000 1000" version="1.1" xmlns="http://www.w3.org/2000/svg" xmlns:xlink="http://www.w3.org/1999/xlink" xml:space="preserve" xmlns:serif="http://www.serif.com/" style="fill-rule:evenodd;clip-rule:evenodd;stroke-linejoin:round;stroke-miterlimit:2;">
    <path d="M798.329,1000C800.848,980.112 810.028,961.035 825.246,947.803C827.203,946.101 828.525,951.062 828.673,952.041C829.055,954.545 828.931,957.858 826.974,959.697C815.524,970.46 807.214,984.721 804.214,1000L798.329,1000ZM735.444,1000C736.635,988.668 740.384,978.029 749.162,969.053C751.013,967.159 751.77,973.3 750.353,974.737C743.301,981.886 739.882,990.675 738.519,1000L735.444,1000ZM487.289,1000C494.367,993.122 501.391,986.199 508.188,979.02C509.923,977.188 510.365,981.622 510.325,982.577C510.081,988.42 510.03,994.224 510.156,1000L507.084,1000C507.069,995.702 507.143,991.409 507.304,987.13C503.383,991.395 499.511,995.709 495.615,1000L487.289,1000ZM214.401,1000C207.966,991.35 202.177,982.22 197.033,972.673C196.029,970.81 197.309,963.774 199.217,967.315C205.44,978.863 212.698,989.779 220.861,1000L214.401,1000ZM146.98,1000C150.774,993.643 153.533,986.379 151.646,979.136C148.189,965.87 132.643,958.041 121.014,953.265C108.735,948.222 95.373,944.514 85.654,934.948C64.907,914.529 74.856,881.912 87.49,860.153C100.187,838.284 124.138,807.239 104.485,782.076C94.889,769.79 78.636,769.747 64.589,772.303C49.006,775.14 34.577,781.261 21.87,790.74C20.391,791.844 19.563,786.005 21.015,784.853C43.165,767.285 92.343,747.559 109.633,781.49C123.244,808.199 107.933,836.043 94.149,858.89C85.614,873.039 76.765,888.538 77.435,905.652C78.115,922.989 91.246,933.098 105.95,939.473C119.035,945.147 133.424,948.664 144,958.796C153.891,968.271 157.346,982.043 153.219,995.108C152.694,996.77 152.085,998.4 151.404,1000L146.98,1000ZM318.502,968.096C310.841,950.63 304.874,932.119 304.112,912.932C303.728,903.251 304.723,893.505 308.085,884.367C311.21,875.873 316.249,868.428 321.626,861.22C332.654,846.438 342.621,832.557 345.318,813.826C347.998,795.227 344.231,776.513 339.513,758.567C333.361,735.166 325.414,712.693 327.235,688.158C327.349,686.625 327.415,682.018 325.393,681.435C323.257,680.821 322.705,683.821 322.534,685.348C317.748,728.1 346.815,766.967 341.316,809.602C338.659,830.204 324.482,843.975 313.501,860.477C303.113,876.085 298.508,894.371 299.11,913.055C299.805,934.601 306.763,955.687 315.626,975.152C316.49,977.05 317.812,976.641 318.673,975.076C319.713,973.186 319.333,969.991 318.502,968.096ZM630.363,936.08C633.97,938.978 638.306,940.669 642.321,942.934C646.15,945.095 649.956,947.3 653.772,949.482C662.064,954.226 670.435,958.822 678.804,963.429C680.654,964.447 681.238,957.926 679.427,956.903C670.831,952.044 662.239,947.185 653.563,942.468C649.531,940.276 645.523,938.03 641.458,935.902C637.935,934.058 634.556,931.958 630.482,932.639C629.293,932.837 629.696,935.544 630.363,936.08ZM1000,921.684L1000,931.304C996.427,933.099 992.854,934.894 989.281,936.69C980.355,941.173 971.5,945.76 962.344,949.756C959.823,950.857 959.318,943.313 961.244,942.188C970.264,936.916 979.587,932.238 988.866,927.441C992.578,925.522 996.289,923.603 1000,921.684ZM404.728,944.641C410.237,936.712 416.093,928.811 420.639,920.279C425.436,911.273 431.967,903.008 436.082,893.654C436.421,892.881 436.056,888.48 434.77,890.052C428.737,897.427 425.089,906.661 419.201,914.182C413.244,921.792 408.348,930.295 402.947,938.315C401.813,939.998 403.067,947.032 404.728,944.641ZM272.268,933.66C271.257,924.599 269.332,915.647 268.34,906.57C267.347,897.479 265.319,887.647 270.228,879.298C273.686,873.416 279.329,868.823 283.815,863.751C288.578,858.365 292.704,852.54 296.268,846.297C309.11,823.809 316.537,793.693 307.118,768.543C306.593,767.143 305.702,767.44 304.961,768.303C303.996,769.428 304.381,771.892 304.659,773.149C308.011,788.332 308.164,802.601 303.449,817.584C299.203,831.075 291.96,843.392 283.244,854.468C274.983,864.966 265.284,874.139 264.415,888.274C263.97,895.518 265.274,902.825 266.424,909.946C267.769,918.28 268.715,926.88 270.905,935.042C271.467,937.139 272.376,934.629 272.268,933.66ZM841.108,933.909C850.08,930.449 857.822,926.197 865.379,920.221C872.826,914.331 879.492,907.302 885.394,899.88C897.133,885.119 906.443,867.295 909.986,848.699C910.093,848.131 909.494,845.369 908.913,846.907C902.485,863.926 894.759,879.709 883.036,893.771C871.242,907.919 856.044,919.839 840.48,929.584C839.426,930.243 839.598,934.491 841.108,933.909ZM0,921.684L2.709,920.284C6.778,918.181 10.782,915.426 15.396,914.857C17.955,914.541 17.119,921.18 16.012,922.21C12.118,925.83 6.999,927.788 2.283,930.157L0,931.304L0,921.684ZM533.67,840.208C533.456,838.301 534.044,835.914 535.285,836.413C551.321,842.865 567.316,850.223 583.928,855.056C585.232,855.435 585.276,858.582 585.16,859.55C584.147,868.005 582.5,876.356 580.498,884.63C578.721,891.978 577.041,899.982 573.935,906.908C571.425,912.505 568.132,912.004 562.721,910.536C554.853,908.403 547.103,905.95 539.239,903.756C534.094,902.322 525.412,902.262 521.45,897.981C518.086,894.344 519.324,888.294 519.848,883.862C521.646,868.682 526.939,853.858 533.67,840.208ZM536.241,842.925C536.238,843.475 536.171,843.956 536.029,844.267C530.606,856.146 526.596,868.59 523.852,881.356C523.301,883.923 522.059,887.234 522.033,889.863C521.987,894.408 524.336,894.783 528.143,895.279C533.299,895.95 538.14,896.572 543.037,898.407C549.05,900.66 554.664,903.647 560.503,906.257C565.078,908.303 568.618,909.095 571.039,903.633C572.292,900.806 572.911,897.307 573.744,894.327C576.804,883.373 579.198,872.357 581.326,861.213C566.8,854.108 551.321,848.755 536.241,842.925ZM171.477,881.669C173.53,883.868 182.148,872.532 183.251,871.318C186.522,867.72 189.926,864.242 193.32,860.761C200.453,853.444 208.089,846.558 215.954,840.04C218.172,838.202 216.986,828.884 214.592,830.669C204.27,838.364 194.497,846.909 185.935,856.549C181.638,861.388 177.459,866.375 173.723,871.662C172.103,873.954 168.859,878.863 171.477,881.669ZM672.663,848.652C694.568,861.653 722.128,865.935 746.839,859.241C773.101,852.128 793.422,834.429 807.562,811.565C816.046,797.847 822.445,782.976 828.23,767.959C828.969,766.044 829.187,762.98 828.063,761.155C827.149,759.671 825.856,759.263 825.094,761.228C812.827,792.806 796.717,825.549 765.247,841.775C737.001,856.339 701.485,857.236 673.274,842.247C671.398,841.25 670.954,847.637 672.663,848.652ZM72.719,813.789C70.791,808.583 71.64,801.6 76.461,799.172C77.891,798.451 79.161,798.336 80.268,798.646C83.076,798.922 86.107,800.818 87.404,803.07C90.257,808.023 89.187,815.772 84.031,818.778C82.932,820.674 81.188,821.991 78.685,821.86C74.54,821.642 72.828,817.627 72.719,813.789ZM397.514,815.224C401.779,816.272 406.491,813.247 410.401,811.786C415.582,809.849 420.857,808.17 426.201,806.747C436.046,804.126 446.192,802.25 456.289,800.926C458.88,800.587 458.534,792.467 456.086,792.679C445.195,793.62 434.697,795.721 424.266,799.006C419.79,800.416 415.365,801.99 411.009,803.737C405.935,805.773 400.429,807.578 397.065,812.09C396.561,812.767 396.476,814.969 397.514,815.224ZM523.414,795.959C535.103,782.203 544.195,766.633 559.998,756.928C577.318,746.29 597.997,746.438 616.971,752.194C654.6,763.609 684.514,793.677 723.874,800.248C760.709,806.397 794.666,783.924 811.862,752.321C820.944,735.63 825.967,717.056 828.212,698.254C830.751,676.992 828.492,655.077 833.999,634.206C839.19,614.532 852.917,596.492 874.483,594.643C884.03,593.823 893.501,596.916 899.87,604.265C906.547,611.967 909.183,622.075 912.003,631.634C912.514,633.364 913.393,634.498 914.957,633.311C916.491,632.145 915.916,628.124 915.557,626.624C911.76,610.769 905.63,591.586 888.71,585.47C872.645,579.662 855.245,586.712 844.503,599.14C832.016,613.585 827.834,633.436 826.411,651.96C824.711,674.093 825.395,696.046 819.411,717.646C809.186,754.551 779.333,789.272 738.652,790.521C696.206,791.822 663.152,758.384 625.335,744.492C605.083,737.053 582.408,734.099 562.481,744.132C544.162,753.355 530.167,771.428 521.003,789.341C520.236,790.839 521.043,798.749 523.414,795.959ZM910.775,781.324C910.831,782.457 910.532,783.621 909.817,783.276C898.335,777.741 887.342,771.34 876.265,765.039C871.381,762.261 865.059,759.657 860.825,755.968C858.924,754.311 858.369,751.178 858.981,748.783C860.088,744.434 865.324,742.867 868.845,741.022C874.372,738.125 879.9,735.227 885.427,732.331C896.353,726.604 907.299,720.529 918.726,715.868C920.499,715.144 920.667,718.879 920.569,719.822C918.44,740.076 917.213,760.413 915.275,780.684C915.245,780.982 915.007,782.434 914.404,782.291C913.179,782 911.97,781.678 910.775,781.324ZM917.49,723.424C908.621,728.751 899.241,733.333 890.003,737.967C885.043,740.457 880.082,742.946 875.121,745.434C872.211,746.895 867.166,748.448 863.868,750.813C865.35,751.614 867.157,752.529 867.486,752.723C869.485,753.911 871.486,755.092 873.481,756.284C877.495,758.682 881.466,761.154 885.451,763.601C891.326,767.21 897.151,770.814 902.886,774.59C906.33,775.979 909.867,777.054 913.541,777.821C914.711,759.677 916.394,741.569 917.49,723.424ZM718.974,683.017C729.684,683.338 740.33,689.094 745.939,698.794C753.33,711.575 751.97,728.63 742.691,740.121C732.844,752.316 717.005,755.902 703.138,748.185C689.934,740.836 682.808,725.763 685.584,710.918C688.266,696.586 701.991,679.78 718.093,682.515C718.429,682.572 718.723,682.75 718.974,683.017ZM146.726,721.717C148.459,714.954 152.48,708.708 158.234,705.714C167.707,700.784 178.86,707.148 182.437,716.533C186.24,726.508 182.234,738.328 174.211,745.006C166.243,751.637 151.806,753.517 145.458,743.669C141.519,737.557 140.764,726.784 146.726,721.717ZM717.132,690.762C703.748,693.791 689.632,702.009 688.383,717.301C687.289,730.682 699.938,742.055 712.096,744.804C724.021,747.5 736.065,742.131 742.471,731.794C750.211,719.307 747.649,704.954 735.501,696.32C729.811,692.275 723.478,690.581 717.132,690.762ZM145.904,731.818C144.281,738.617 153.634,744.287 160.809,743.874C170.166,743.338 180.086,735.862 181.198,726.097C182.347,715.984 170.283,707.86 161.311,712.314C152.165,716.854 148.74,726.367 148.79,735.986C148.793,736.675 147.955,739.345 147.244,737.527C146.55,735.754 146.109,733.825 145.904,731.818ZM452.934,688.783C458.156,681.933 466.146,677.299 475.211,677.485C483.14,677.648 486.513,682.369 489.076,689.283C491.923,696.963 493.689,705.228 492.787,713.447C492.063,720.038 489.427,726.656 484.484,731.208C478.459,736.756 469.642,737.649 461.797,738.018C447.126,738.709 437.214,728.321 437.116,713.802C437.05,703.984 443.388,692.278 452.934,688.783ZM909.194,730.936C909.496,730.936 909.641,730.436 909.631,729.936C909.622,729.436 909.459,728.937 909.145,728.937C908.542,728.937 908.568,730.936 909.194,730.936ZM447.032,702.06C441.345,707.168 438.003,713.71 442.728,722.006C446.742,729.056 453.913,731.142 461.621,730.82C468.321,730.539 476.304,729.979 481.811,725.775C488.797,720.442 490.541,711.142 488.84,702.962C487.212,695.133 484.629,686.539 475.422,686.094C470.599,685.86 465.726,687.221 461.502,689.715C461.717,691.108 461.425,692.82 460.685,693.21C458.268,694.484 455.584,695.945 452.983,697.613C450.952,700.578 449.58,703.962 449.15,707.577C448.658,711.712 446.479,708.607 446.586,706.045C446.642,704.706 446.793,703.375 447.032,702.06ZM82.187,659.869C79.382,660.46 78.101,665.672 76.997,668.019C74.55,673.222 71.957,678.354 69.202,683.4C64.164,692.627 58.643,701.618 52.814,710.364C51.636,712.132 52.945,719.53 54.686,717.013C60.813,708.151 66.368,698.99 71.414,689.471C73.959,684.668 76.38,679.801 78.665,674.87C80.671,670.542 82.811,666.347 82.965,661.538C82.976,661.214 82.789,659.743 82.187,659.869ZM556.582,683.335C558.525,684.297 560.179,684.507 562.297,684.929C565.516,685.569 568.494,686.763 571.534,687.944C576.777,689.981 582.084,691.866 587.361,693.814C597.914,697.708 608.467,701.603 619.02,705.497C621.772,706.513 622.198,698.05 619.816,697.158L586.312,684.613C581.071,682.651 575.862,680.565 570.551,678.802C565.908,677.26 560.631,675.106 556.464,678.516C555.467,679.331 555.263,682.683 556.582,683.335ZM193.809,652.638C207.215,653.482 219.58,644.907 227.766,634.985C237.157,623.603 241.696,609.181 243.289,594.687C245.154,577.73 242.633,561.034 240.381,544.263C238.105,527.31 237.768,509.492 251.594,497.221C254.282,494.834 252.777,483.153 249.882,485.447C238.713,494.296 234.546,509.193 233.993,522.909C233.281,540.568 238.227,557.818 238.906,575.408C239.526,591.493 237.144,608.139 227.585,621.519C219.21,633.242 207.509,640.104 193.573,643.016C190.664,643.623 190.76,652.446 193.809,652.638ZM493.096,493.323C485.148,507.963 480.246,524.155 479.353,540.834C478.989,547.627 479.612,554.591 484.848,559.474C490.912,565.131 499.856,568.452 507.154,572.192C521.303,579.443 537.692,585.74 544.602,601.213C550.977,615.486 547.851,630.343 549.142,645.272C549.406,648.327 552.142,650.26 553.059,646.342C554.592,639.789 554.338,632.388 554.292,625.685C554.243,618.637 553.695,611.531 552.178,604.639C549.159,590.925 542.109,579.372 530.142,571.754C523.262,567.374 515.619,564.252 508.239,560.835C504.066,558.902 499.933,556.842 495.707,555.031C492.451,553.636 489.042,552.424 486.351,550.01C480.43,544.695 484.798,530.47 486.469,523.779C488.522,515.56 491.681,507.724 495.614,500.233C496.416,498.704 496.328,495.939 495.622,494.405C495.236,493.566 494.01,491.639 493.096,493.323ZM871.25,625.896C871.941,625.902 872.594,626.025 873.1,626.341C874.767,627.383 875.103,630.939 875.163,632.653C875.283,636.103 874.411,639.984 871.654,642.299C869.129,644.419 865.75,644.088 863.228,642.152C857.765,637.959 857.817,626.44 865.265,624.429C867.902,623.717 869.879,624.428 871.25,625.896ZM368.755,636.406C373.475,637.739 378.51,632.76 382.302,630.308C387.33,627.058 392.333,623.769 397.311,620.443C407.588,613.576 417.61,606.341 427.566,599.018C429.795,597.379 428.512,588.785 426.309,590.368C416.554,597.376 406.666,604.191 396.809,611.053C392.112,614.323 387.393,617.558 382.651,620.76C377.621,624.157 371.385,627.046 368.438,632.529C368.06,633.232 367.553,636.067 368.755,636.406ZM672.282,555.17C671.859,555.244 671.433,555.311 671.004,555.372C669.015,555.653 668.579,548.655 670.832,548.374C682.336,546.938 691.966,540.48 702.282,535.727C712.001,531.248 722.399,527.659 732.79,525.096C733.524,524.915 734.039,526.353 734.152,526.797C736.601,536.488 740.494,545.526 745.49,554.172C749.799,561.633 754.724,568.761 757.676,576.916C759.516,581.999 761.749,590.018 757.621,594.649C754.958,597.637 749.635,598.725 746.111,600.399C741.647,602.522 737.175,604.607 732.658,606.611C724.306,610.317 715.783,615.131 706.915,617.46C697.769,619.864 695.033,612.4 691.535,605.439C683.483,589.416 676.776,572.547 672.282,555.17ZM732.03,532.285C720.799,534.63 710.252,538.26 699.995,543.482C691.727,547.693 683.775,552.54 674.743,554.666C679.356,568.577 684.596,582.214 691.185,595.34C692.812,598.58 694.467,601.822 696.269,604.971C698.847,609.473 701.462,610.864 706.456,609.195C714.01,606.671 721.417,603.095 728.852,600.183C736.625,597.138 744.908,594.778 752.424,591.154C760.466,587.278 752.543,575.947 749.393,570.615C745.816,564.562 741.824,558.733 738.859,552.338C735.884,545.921 733.653,539.165 732.03,532.285ZM109.178,548.664C119.057,559.336 129.532,569.113 141.102,577.926C142.944,579.329 143.878,571.545 141.864,569.949C131.062,561.392 120.469,552.424 110.497,542.91C108.474,540.98 107.95,547.339 109.178,548.664ZM304.111,523.653C304.732,517.524 307.435,511.773 313.236,507.182C324.785,498.044 341.287,501.452 350.519,512.083C359.954,522.948 363.411,541.38 356.664,554.438C349.546,568.213 326.454,577.168 313.254,567.048C301.433,557.987 301.759,540.036 302.498,526.682C302.554,525.664 302.962,523.811 304.111,523.653ZM0,553.275C11.543,556.456 23.434,557.688 35.078,554.283C63.295,546.033 73.442,514.906 95.692,498.519C109.93,488.032 127.112,487.946 143.916,485.588C158.286,483.572 175.371,477.696 180.322,462.503C181.441,459.069 183.377,465.091 182.87,466.759C177.876,483.183 161.695,490.604 145.852,493.226C127.698,496.229 109.232,495.917 94.253,508.129C82.683,517.561 74.822,530.605 65.172,541.814C55.229,553.363 43.313,562.483 27.656,563.771C18.268,564.543 9.005,562.953 0,560.199L0,553.275ZM305.961,538.242C306.555,550.558 310.623,563.002 325.33,563.912C333.088,564.391 340.851,561.369 347.079,556.891C355.163,551.08 358.209,541.952 355.994,532.337C352.752,518.261 339.824,507.47 325.142,510.934C319.032,512.376 312.606,516.13 309.392,521.698C304.06,530.933 311.301,542.062 316.248,549.819C317.177,551.276 316.47,557.708 314.929,555.574C311.315,550.571 307.98,544.526 305.961,538.242ZM1000,560.199C990.465,557.283 981.22,553.061 972.426,548.958C970.802,548.2 971.149,542.366 972.98,543.156C981.552,546.856 990.662,550.702 1000,553.275L1000,560.199ZM929.724,549.508C929.842,549.431 929.975,549.372 930.123,549.336C930.303,549.292 930.483,549.248 930.663,549.204C931.142,549.087 931.558,549.89 931.716,550.155C932.389,551.283 932.456,552.579 932.506,553.864C932.55,554.989 932.399,557.677 931.153,558.299C927.318,560.209 924.898,553.217 923.486,550.826C920.257,545.349 916.831,539.987 913.308,534.696C909.781,529.399 906.101,524.207 902.271,519.126C898.711,514.403 893.594,509.729 891.465,504.195C891.2,503.508 890.492,498.67 892.265,499.053C896.535,499.975 900.28,506.939 902.878,510.239C906.393,514.703 909.788,519.26 913.057,523.908C916.512,528.818 919.799,533.839 922.934,538.959C924.334,541.245 925.696,543.554 927.057,545.864C927.739,547.023 928.877,548.424 929.457,549.377C929.508,549.461 929.604,549.498 929.724,549.508ZM603.357,510.428L603.6,510.088C606.476,506.05 609.221,501.918 611.826,497.699C613.889,494.359 615.52,490.144 618.376,487.445C619.444,486.436 619.785,490.392 619.633,490.904C617.222,498.966 611.582,506.776 606.666,513.818C611.369,518.844 615.604,524.336 618.93,530.323C619.284,530.96 619.199,535.857 617.923,534.736C612.569,530.034 607.699,524.756 602.563,519.775C598.02,526.352 592.928,533.27 586.59,537.798C585.299,538.721 585.354,534.452 585.756,533.82C589.656,527.696 594.387,522.077 598.896,516.33C598.74,516.189 598.583,516.048 598.426,515.908C594.859,512.719 591.222,509.631 587.401,506.746C583.783,504.015 580.017,502.187 578.062,497.999C577.604,497.019 577.206,494.148 578.469,493.496C582.073,491.636 586.771,496.631 589.604,498.74C593.13,501.364 596.578,504.124 599.827,507.088C601.021,508.176 602.2,509.29 603.357,510.428ZM761.809,503.516C764.481,504.314 766.878,503.614 769.662,503.691C773.172,503.787 776.632,504.49 779.959,505.604C785.69,507.525 791.059,510.472 796.121,513.739C805.943,520.076 815.145,527.427 826.548,530.731C829.161,531.488 829.387,523.87 827.264,523.238C815.293,519.672 805.822,511.658 795.454,505.07C790.261,501.771 784.786,498.938 778.828,497.312C773.752,495.928 766.09,494.329 761.67,497.852C760.624,498.685 760.166,503.025 761.809,503.516ZM1000,467.564C994.385,474.922 989.045,482.475 984.106,490.242C982.918,492.11 981.746,486.615 982.687,485.202C988.034,477.178 993.483,469.295 999.165,461.594C990.25,455.253 981.693,448.413 973.502,441.031C971.558,439.28 972.612,431.486 974.275,432.934C982.547,440.139 991.131,447.02 1000,453.505L1000,467.564ZM0.007,453.51C1.13,454.331 2.26,455.147 3.393,455.956C9.401,448.08 15.689,440.414 22.4,433.005C24.243,430.971 25.231,437.307 24,438.688C18.236,445.155 12.56,451.772 7.08,458.554C13.368,462.927 19.794,467.1 26.347,471.047C28.342,472.249 27.716,479.594 25.643,478.419C17.755,473.951 10.105,469.175 2.698,464.069C1.795,465.226 0.898,466.387 0.007,467.555L0.007,453.51ZM707.388,470.483C713.302,458.822 723.276,449.544 735.224,444.27C748.325,438.486 763.099,438.893 777.097,439.825C791.162,440.761 805.514,442.732 819.529,440.231C831.803,438.041 842.547,432.187 851.128,423.176C868.927,404.49 874.715,378.413 881.283,354.323C885.052,340.499 889.287,326.373 897.181,314.263C905.128,302.07 916.56,293.437 927.808,284.512C952.85,264.643 973.348,240.997 987.05,211.915C988.056,209.778 988.117,205.926 986.852,203.874C985.69,201.987 984.378,201.783 983.342,203.96C970.786,230.329 952.213,251.612 929.306,269.494C918.304,278.082 907.071,286.804 898.526,297.968C890.161,308.895 884.878,321.75 880.826,334.8C873.084,359.734 869.42,386.85 853.015,408.084C844.735,418.8 833.419,426.319 820.054,428.939C806.093,431.675 791.744,430.008 777.681,429.215C762.536,428.36 747.137,428.791 733.249,435.608C720.673,441.782 710.818,452.262 704.74,464.801C703.76,466.82 705.396,474.41 707.388,470.483ZM765.314,384.856C753.352,386.748 741.237,389.284 729.556,392.52C718.963,395.456 710.755,401.256 702.261,408.017C687.271,419.949 671.287,433.201 664.502,451.747C663.897,453.398 665.257,460.006 666.743,456.555C674.639,438.212 689.227,425.289 704.338,412.842C712.728,405.932 720.824,400.384 731.422,397.407C742.71,394.236 754.204,391.975 765.404,388.48C766.473,388.146 766.382,384.687 765.314,384.856ZM412.408,422.164C402.542,406.519 390.414,392.444 380.955,376.47C371.784,360.982 364.36,343.886 361.483,326.034C360.387,319.237 358.34,309.493 362.04,303.16C366.864,294.905 378.477,298.227 385.73,300.555C401.453,305.601 416.935,315.09 433.953,314.459C450.123,313.859 463.538,302.735 471.342,289.172C480.635,273.021 483.194,254.173 486.348,236.107L491.617,205.924C493.131,197.252 494.222,187.744 499.505,180.407C510.334,165.369 531.683,166.702 547.983,167.601C558.3,168.169 568.712,168.523 578.708,165.477C586.675,163.05 594.051,159.059 600.437,153.713C613.227,143.008 622.576,127.076 623.425,110.228C623.505,108.658 623.633,104.941 621.929,103.996C620.276,103.079 619.458,104.612 619.087,106.24C615.512,121.916 607.564,135.348 594.09,144.517C587.497,149.003 580.069,152.195 572.194,153.542C561.797,155.321 551.227,153.999 540.787,153.429C524.625,152.547 505.535,154.497 495.705,169.214C490.968,176.306 488.92,184.828 487.437,193.109C485.554,203.636 483.874,214.203 482.098,224.749C478.888,243.805 477.201,265.19 466.359,281.77C456.459,296.91 440.654,304.721 422.672,301.025C413.512,299.142 404.925,295.153 396.277,291.721C388.685,288.707 379.842,284.846 371.504,285.124C353.004,285.741 354.109,309.76 355.616,322.754C357.948,342.872 365.531,362.084 375.336,379.675C385.214,397.398 396.467,416.029 410.417,430.851C411.944,432.472 412.954,430.369 413.359,428.984C413.992,426.819 413.605,424.061 412.408,422.164ZM470.582,414.213C474.995,417.261 482.737,417.021 487.94,416.975C494.157,416.92 500.379,415.992 506.353,414.276C517.575,411.055 528.044,405.234 536.319,396.955C545.661,387.607 549.893,374.925 558.556,365.159C569.207,353.152 586.198,348.703 599.696,340.886C601.811,339.661 601.433,331.423 598.475,332.476C590.833,335.195 583.439,339.445 576.279,343.238C570.12,346.502 564.055,350.078 559.106,355.053C549.938,364.271 545.972,377.203 537.594,387.05C529.593,396.455 518.85,403.571 507.204,407.612C501.416,409.62 495.348,410.854 489.238,411.287C486.374,411.49 483.493,411.506 480.627,411.332C477.532,411.144 473.7,409.883 470.709,410.526C469.501,410.785 469.777,413.657 470.582,414.213ZM193.872,371.252C197.609,378.691 201.562,386.014 205.784,393.189C209.298,399.159 212.704,406.943 217.998,411.475C219.777,412.997 219.585,406.475 219.293,405.8C216.334,398.964 211.279,392.807 207.445,386.418C203.417,379.706 199.643,372.851 196.057,365.894C194.213,362.317 192.937,369.391 193.872,371.252ZM301.368,372.519C306.17,366.625 310.818,360.615 315.304,354.471C317.007,352.139 318.219,359.054 317.055,360.69C313.354,365.888 309.559,371.023 305.631,376.054C310.593,380.354 315.234,385.045 319.515,390.119C320.857,391.71 320.235,399.185 317.972,396.851C312.696,391.411 307.077,386.339 301.137,381.692C300.536,382.429 299.932,383.163 299.326,383.895C296.335,387.5 293.256,391.034 290.128,394.52C287.956,396.94 285.13,401.974 281.643,401.95C280.154,401.94 280.499,398.616 280.789,397.809C282.417,393.283 286.367,390.105 289.52,386.53C291.919,383.809 294.272,381.051 296.603,378.274C289.287,372.959 281.516,368.275 273.327,364.316C270.952,363.168 271.53,354.659 274.136,355.856C283.905,360.343 293.041,365.911 301.368,372.519ZM17.822,179.796C25.428,162.844 33.305,145.703 42.59,129.593C49.824,117.042 66.209,99.84 81.828,111.007C96.069,121.189 89.806,142.255 85.737,155.886C81.413,170.371 76.792,184.925 79.774,200.157C82.062,211.846 88.543,223.88 100.789,227.237C116.257,231.477 130.563,220.481 143.401,213.631C155.929,206.947 176.647,200.706 185.502,216.317C190.032,224.304 188.155,233.436 185.113,241.584C181.962,250.024 177.848,258.113 174.332,266.405C158.498,303.735 145.756,343.114 139.371,383.236C139.173,384.481 138.83,387.296 140.06,388.18C141.248,389.036 141.902,388.151 142.193,386.827C150.634,348.329 160.994,310.562 176.445,274.212C183.12,258.506 193.32,242.279 192.085,224.573C191.072,210.05 181.915,196.488 165.965,197.47C148.789,198.528 136.025,211.651 120.606,217.555C112.383,220.703 103.157,221.604 95.313,216.906C88.892,213.06 84.935,206.269 83.137,199.149C78.61,181.219 88.161,163.324 91.829,146.102C94.472,133.696 95.112,117.52 85.682,107.571C80.091,101.671 72.039,100.224 64.371,102.348C55.929,104.687 49.756,110.109 44.726,117.147C38.885,125.322 34.478,134.66 29.927,143.587C24.745,153.751 19.958,164.104 15.377,174.551C14.548,176.443 16.176,183.465 17.822,179.796ZM401.615,336.613L401.661,336.589C401.974,336.386 402.292,336.378 402.614,336.565C407.929,340.091 408.599,349.082 405.38,354.221C402.248,359.22 395.297,358.613 391.833,354.263C388.371,349.918 388.645,342.531 392.527,338.562C394.458,336.589 397.26,335.35 400.044,335.928C400.622,336.049 401.145,336.289 401.615,336.613ZM28.198,337.479C37.864,339.09 47.614,340.427 57.371,341.321C62.533,341.794 67.707,341.97 72.873,342.356C77.394,342.693 82.411,342.61 86.653,344.273C87.261,344.511 87.328,346.543 86.715,346.803C82.551,348.576 77.512,348.481 73.026,348.552C67.874,348.635 62.666,348.232 57.531,347.861C47.166,347.11 36.961,345.711 26.775,343.663C25.238,343.354 25.267,340.737 25.317,339.614C26.082,322.32 26.382,304.982 27.093,287.679C27.131,286.755 27.501,285.227 28.551,284.984C49.839,280.073 72.445,280.19 92.94,288.073C93.786,288.399 93.743,290.201 93.709,290.879C92.811,309.041 92.386,327.21 91.84,345.384C91.728,349.108 89.56,347.665 89.681,344.773C90.412,327.301 91.253,309.842 91.678,292.362C71.16,288.22 50.585,287.091 30.102,291.891C29.542,307.088 28.709,322.287 28.198,337.479ZM395.928,345.567C395.878,345.591 395.828,345.615 395.78,345.64C395.704,345.679 395.424,345.901 395.105,346.168C395.426,346.476 395.853,346.821 396.215,346.936C396.279,346.455 396.147,345.994 395.928,345.567ZM399.187,345.515C399.191,345.74 399.188,345.965 399.18,346.19C399.253,346.122 399.323,346.05 399.39,345.975C399.468,345.887 399.54,345.784 399.606,345.677C399.459,345.632 399.321,345.576 399.187,345.515ZM780.24,293.725C780.725,284.044 786.468,274.583 796.041,271.465C807.535,267.723 820.116,275.49 824.842,285.986C829.437,296.193 827.597,309.356 820.164,317.759C811.755,327.267 796.447,331.024 785.609,323.201C776.889,316.906 774.405,304.039 778.951,294.557C779.401,293.619 779.849,293.447 780.24,293.725ZM780.772,300.431C775.21,313.273 789.75,323.739 801.616,322.639C813.417,321.546 823.548,311.62 824.437,299.645C825.316,287.822 814.023,278.26 802.712,278.293C791.979,278.324 780.416,288.431 783.456,299.896C783.911,301.613 782.55,306.311 781.405,302.786C781.154,302.012 780.943,301.226 780.772,300.431ZM664.897,228.353C670.728,247.89 674.777,267.942 677.079,288.2C677.2,289.267 677.79,291.4 679.225,290.854C680.622,290.324 680.383,287.08 680.29,286.06C678.334,264.913 674.23,244.184 668.088,223.855C666.447,218.423 664.074,225.594 664.897,228.353ZM570.134,237.483C572.955,234.662 575.851,231.914 578.82,229.249C582.55,225.9 587.016,220.839 591.738,219.114C593.35,218.525 593.228,222.563 592.619,223.321C589.427,227.291 584.759,230.23 580.936,233.606C578.483,235.773 576.079,237.996 573.725,240.271C578.714,244.251 583.494,248.502 588.16,252.841C590.07,254.617 589.102,263.353 586.344,260.767C580.622,255.404 574.626,250.375 568.476,245.521C561.025,253.227 554.117,261.527 547.657,270.074C546.453,271.667 545.75,266.959 546.479,265.893C552.085,257.704 558.239,250.035 564.992,242.8L564.365,242.316C560.804,239.573 557.17,236.926 553.465,234.381C549.712,231.804 545.62,229.678 542.801,226.036C542.259,225.336 541.698,221.78 543.204,221.716C547.393,221.538 551.523,225.023 554.943,227.152C558.905,229.617 562.792,232.201 566.601,234.898C567.791,235.742 568.968,236.604 570.134,237.483ZM804.214,0C802.547,8.482 802.516,17.276 804.491,25.961C807.33,38.452 812.964,50.112 815.771,62.618C818.149,73.217 818.813,84.175 817.679,94.983C815.497,115.783 806.924,136.156 792.428,151.375C776.709,167.878 753.845,175.843 739.685,193.961C733.078,202.415 728.417,212.291 726.114,222.771C723.707,233.716 724.768,244.086 726.644,254.993C726.863,256.267 725.397,262.01 724.086,258.584C715.501,236.141 721.535,207.523 734.331,187.899C747.717,167.37 770.676,158.326 787.851,141.834C804.318,126.02 813.923,102.796 812.842,79.947C812.227,66.935 807.137,54.976 803.102,42.764C799.232,31.051 797.113,19.154 797.73,6.798C797.843,4.526 798.043,2.257 798.329,0L804.214,0ZM898.924,239.336C887.869,234.774 876.808,230.178 866.061,224.922C860.834,222.366 855.683,219.666 850.579,216.873C846.645,214.72 841.949,210.678 837.225,210.844C835.8,210.894 836.317,214.07 836.608,214.808C838.297,219.089 844.582,221.417 848.265,223.392C853.612,226.261 859.063,228.941 864.57,231.49C875.581,236.587 886.794,241.154 898.416,244.654C900.258,245.209 900.39,239.941 898.924,239.336ZM321.051,183.985L319.309,182.226C318.061,180.966 318.806,175.117 320.527,176.905L322.483,178.938L322.561,178.665C323.412,175.671 324.851,179.407 324.475,181.01C330.21,186.975 335.939,192.946 341.693,198.892C345.075,202.387 348.712,205.68 351.994,209.269C353.768,211.209 355.08,212.626 354.676,215.382C354.188,218.708 351.668,219.441 348.87,220.739C344.808,222.623 340.69,224.325 336.446,225.757C327.655,228.724 318.659,230.912 309.507,232.421C308.121,232.649 308.21,229.07 308.4,228.421C312.701,213.634 316.854,198.802 321.051,183.985ZM323.071,186.023C319.274,199.544 315.439,213.057 311.71,226.597C318.726,225.124 325.649,223.266 332.426,220.907C335.941,219.684 339.414,218.331 342.876,216.965C344.485,216.331 348.41,215.311 350.751,213.895C346.644,208.726 340.956,204.072 336.471,199.546C332.004,195.038 327.537,190.53 323.071,186.023ZM458.53,197.667C459.53,179.283 466.61,161.688 479.306,148.255C486.146,141.018 493.163,136.175 503.186,134.661C513.98,133.03 524.722,131.545 535.456,129.502C538.159,128.988 537.862,120.533 535.241,120.755C523.156,121.781 510.679,122.526 498.843,125.317C489.009,127.635 481.682,134.3 475.471,141.979C462.921,157.497 456.044,176.964 455.669,196.856C455.614,199.739 458.319,201.542 458.53,197.667ZM108.298,182.66C107.546,181.045 107.591,178.712 108.254,177.112C109.819,173.339 113.866,170.551 118.062,171.143C123.206,171.868 125.416,176.842 125.411,181.57C125.406,185.94 123.236,190.542 119.033,192.297C114.96,193.998 110.649,191.846 109.042,187.812C108.431,186.276 108.144,184.43 108.298,182.66ZM119.665,180.297C119.854,180.857 119.989,181.45 120.064,182.063C120.113,182.455 120.139,182.861 120.144,183.274C120.356,183.071 120.556,182.856 120.744,182.627C121.016,182.297 121.208,181.907 121.474,181.577L121.483,181.558C121.308,181.39 121.072,181.088 120.958,180.999C120.574,180.696 120.129,180.466 119.665,180.297ZM223.109,182.719C225.728,183.096 227.464,178.135 228.627,176.288C230.769,172.883 232.99,169.527 235.271,166.213C239.688,159.799 244.541,153.6 250.339,148.369C255.779,143.462 262.026,139.373 268.949,136.894C277.972,133.662 287.708,133.293 297.184,132.846C313.431,132.08 328.304,129.549 342.436,121.109C355.14,113.521 365.684,102.326 371.992,88.921C372.777,87.251 371.138,80.063 369.722,82.692C362.232,96.599 351.484,108.3 337.476,115.81C321.886,124.168 305.286,124.042 288.112,125.267C271.656,126.441 257.724,131.793 245.998,143.559C240.902,148.673 236.434,154.405 232.422,160.4C228.6,166.114 222.86,173.204 222.205,180.209C222.145,180.851 222.176,182.584 223.109,182.719ZM814.013,173.542C828.935,160.398 838.827,142.7 842.865,123.268C846.583,105.369 846.62,82.977 837.623,66.479C836.311,64.073 835.688,68.581 835.984,69.55C841.306,86.963 843.795,103.57 839.393,121.571C835.205,138.693 826.038,154.587 812.983,166.453C811.299,167.983 812.471,174.9 814.013,173.542ZM738.518,0C737.048,10.05 737.963,20.722 739.288,30.642C741.418,46.578 743.858,62.409 741.206,78.44C738.972,91.948 733.803,104.908 726.421,116.422C711.746,139.309 688.033,156.835 660.85,160.808C658.988,161.08 658.649,154.739 660.69,154.31C676.243,151.047 691.06,144.042 703.387,134.007C725.685,115.854 740.392,87.903 739.395,58.838C738.762,40.41 733.424,19.212 735.444,0L738.518,0ZM1000,94.958L1000,103.402C986.954,107.952 972.138,107.292 958.576,108.716C943.494,110.3 928.023,112.993 915.192,121.583C904.343,128.846 895.477,139.941 894.622,153.368C894.351,157.614 891.452,155.629 891.491,152.481C891.855,123.065 918.845,106.55 944.969,101.818C961.185,98.881 978.047,100.237 994.131,96.736C996.204,96.285 998.155,95.687 1000,94.958ZM204.986,88.519C203.838,81.532 203.596,75.107 208.05,69.118C211.749,64.144 218.164,61.108 224.32,60.86C238.615,60.284 245.238,75.901 242.559,88.117C239.992,99.818 230.236,108.717 217.877,107.66C211.66,107.129 205.219,104.362 201.359,99.322C195.789,92.05 196.49,83.069 200.23,75.197C200.615,74.385 200.103,70.026 198.918,71.596C191.085,81.97 194.019,98.078 203.346,106.497C213.114,115.313 228.1,114.933 237.196,105.411C245.175,97.057 247.386,83.947 244.665,72.976C241.46,60.059 230.129,49.241 216.105,54.042C202.242,58.789 196.576,79.102 202.781,91.615C204.204,94.484 205.171,89.645 204.986,88.519ZM12.95,86.48C18.51,81.151 22.934,74.433 27.188,67.473C28.196,65.823 29.344,67.988 29.649,68.87C29.872,69.511 29.989,70.241 29.999,70.983C30.015,72.214 29.736,73.481 29.15,74.443C22.312,85.671 14.698,97.64 1.927,102.686C1.29,102.938 0.648,103.176 0,103.402L0,94.958C5.015,92.979 9.235,90.039 12.95,86.48ZM151.404,0C145.479,13.917 134.065,25.669 124.715,37.156C112.433,52.245 100.106,67.262 87.481,82.065C85.925,83.89 85.147,78.353 86.093,77.133C98.786,60.753 111.773,44.636 124.826,28.542C130.862,21.099 137.287,13.873 142.909,6.11C144.291,4.202 145.695,2.153 146.98,0L151.404,0ZM510.156,0C510.548,17.956 512.65,35.659 515.96,53.487C516.364,55.66 514.346,60.122 513.231,57.691C513.213,59.275 512.724,60.764 511.849,60.644C500.797,59.124 489.881,57.117 479.096,54.25C474.034,52.904 469,51.448 464.006,49.87C458.876,48.248 453.169,46.747 448.689,43.732C447.787,43.125 447.897,41.328 448.232,40.461C450.397,34.824 455.637,30.552 459.911,26.47C465.354,21.271 470.767,16.037 476.163,10.789C479.87,7.185 483.587,3.598 487.289,0L495.615,0C490.583,5.543 485.513,11.048 480.252,16.366C475.463,21.208 470.434,25.813 465.141,30.097C460.902,33.528 455.791,36.299 451.984,40.231C455.941,40.947 459.905,42.539 463.663,43.609C469.027,45.138 474.425,46.543 479.858,47.803C490.393,50.247 501.01,52.436 511.689,54.146C512.008,54.197 512.275,54.385 512.492,54.666C508.842,36.782 507.148,18.339 507.084,0L510.156,0ZM220.861,0C224.904,5.063 229.169,9.955 233.64,14.669C235.057,16.163 234.258,23.099 232.197,20.966C225.797,14.347 219.867,7.346 214.401,0L220.861,0Z" style="fill-rule:nonzero;"/>
</svg>
