<?xml version="1.0" encoding="UTF-8" standalone="no"?>
<!DOCTYPE svg PUBLIC "-//W3C//DTD SVG 1.1//EN" "http://www.w3.org/Graphics/SVG/1.1/DTD/svg11.dtd">
<svg width="100%" height="100%" viewBox="0 0 1000 1000" version="1.1" xmlns="http://www.w3.org/2000/svg" xmlns:xlink="http://www.w3.org/1999/xlink" xml:space="preserve" xmlns:serif="http://www.serif.com/" style="fill-rule:evenodd;clip-rule:evenodd;stroke-linejoin:round;stroke-miterlimit:2;">
    <path d="M803.158,1000C805.325,994.807 807.577,989.649 809.894,984.532C810.318,983.317 810.824,982.028 811.512,980.979C812.26,979.353 813.014,977.73 813.774,976.112C814.687,974.169 816.499,973.09 818.067,975.159C824.237,983.299 830.202,991.583 835.961,1000L828.122,1000C826.304,997.423 824.467,994.86 822.61,992.312C822.669,992.583 822.715,992.871 822.75,993.166C824.498,995.442 826.242,997.721 827.986,1000L820.038,1000C818.322,997.736 816.606,995.47 814.891,993.205C814.454,995.503 813.915,997.767 813.292,1000L803.158,1000ZM208.1,1000C210.48,994.51 212.821,989.005 215.092,983.471C217.955,975.003 221.23,966.7 225.063,958.614C227.053,954.415 230.22,959.038 229.121,962.052C224.505,974.71 219.765,987.336 215.146,1000L208.1,1000ZM323.994,1000C329.508,989.552 335.505,979.355 341.746,969.403C343.057,967.313 345.091,968.271 345.955,970.122C350.517,979.9 354.627,989.867 358.283,1000L349.258,1000C347.987,994.613 346.556,989.301 344.127,984.366C343.719,985.461 342.945,986.155 341.778,985.625C341.175,986.88 340.525,988.11 339.835,989.319C338.019,993.017 335.876,996.547 333.578,1000L323.994,1000ZM75.271,1000C76.433,998.661 77.603,997.333 78.783,996.014C84.105,989.426 89.679,983.039 95.489,976.88C98.409,973.784 100.722,981.107 98.967,983.347C94.568,988.963 90.041,994.462 85.576,1000L75.271,1000ZM189.543,1000C183.035,987.137 176.72,974.169 170.438,961.211C169.101,958.453 172.061,954.008 174.076,957.808C174.847,959.262 175.616,960.718 176.386,962.173C184.372,974.15 191.509,986.613 197.764,999.538L198.005,1000L189.543,1000ZM596.064,1000C593.405,998.858 590.718,997.785 587.994,996.799C585.656,995.953 585.736,991.329 587.834,990.292C589.69,989.375 591.551,988.469 593.415,987.567C593.685,986.996 594.115,986.538 594.74,986.306C596.669,985.59 598.581,984.878 600.473,984.149C605.724,981.598 610.953,979.006 616.083,976.201C618.715,974.76 621.309,973.255 623.889,971.724C625.058,970.938 626.243,970.203 627.47,969.537C630.617,967.444 633.837,965.468 637.217,963.74C639.158,962.599 641.107,961.473 643.079,960.386C644.842,959.414 645.675,962.222 645.326,964.144C645.481,965.125 645.425,966.125 645.166,966.741C643.679,970.267 641.15,972.205 637.631,973.599C632.961,975.45 628.866,976.84 624.697,979.822C617.978,984.627 611.183,988.087 603.723,990.758C603.452,990.893 603.181,991.03 602.908,991.163C607.446,994.228 612.143,997.092 616.78,1000L596.064,1000ZM1000,958.233C993.345,948.696 986.654,939.182 979.972,929.661C977.097,939.095 975.463,948.801 974.381,958.603C973.89,966.526 973.624,974.514 972.454,982.304C972.193,986.17 971.93,990.028 971.618,993.868C971.258,998.322 966.521,996.737 966.603,992.962C966.867,980.728 967.137,968.457 968.601,956.296C969.141,951.815 969.906,947.404 970.834,943.033C971.98,936.106 973.546,929.256 975.79,922.538C976.075,921.683 976.428,921.11 976.814,920.766C977.217,920.069 977.881,919.667 978.557,919.687C978.814,919.19 979.07,918.691 979.345,918.198C980.105,916.828 981.72,916.922 982.553,918.119C988.508,926.682 994.339,935.34 1000,944.111L1000,958.233ZM742.231,987.346C740.825,966.639 738.16,946.017 736.707,925.305C736.421,921.244 732.567,921.384 732.383,925.411C731.615,942.285 732.039,959.31 734.164,976.09C726.402,971.172 718.505,966.458 710.453,962.034C705.667,959.405 700.68,957.261 695.746,954.922C690.527,952.449 685.032,950.741 679.849,948.336C678.388,947.658 678.316,950.35 678.551,951.073C678.733,951.63 678.942,952.084 679.211,952.469C679.115,953.988 679.585,955.703 680.678,956.291C700.362,966.869 720.289,977.641 738.29,990.964C740.686,992.737 742.372,989.415 742.231,987.346ZM456.933,930.995C457.427,928.2 455.111,923.445 453.278,926.882C449.434,934.085 445.749,941.377 442.113,948.697C441.014,950.414 439.888,952.115 438.721,953.79C434.944,959.215 430.068,964.213 426.893,970.072C419.892,954.902 411.786,940.294 402.575,926.343C402.168,925.727 401.776,925.432 401.415,925.368C399.55,923.512 397.401,927.192 398.54,929.586C407.649,948.723 416.641,967.887 424.841,987.435C425.541,989.106 427.699,990.155 428.79,988.11C438.747,969.452 448.811,950.581 457.027,931.074L456.933,930.995ZM0,944.111C7.737,956.099 15.153,968.298 22.12,980.746C23.429,983.084 21.467,989.365 19.006,985.754C12.728,976.541 6.38,967.376 0,958.233L0,944.111ZM146.032,966.915C130.924,958.187 115.656,949.586 100.742,940.501C102.225,939.679 103.708,938.851 105.19,938.014C118.95,930.805 132.881,922.769 143.107,911.367C145.312,908.907 143.057,901.216 140.234,904.397C136.68,908.091 132.806,911.372 128.737,914.398C119.391,919.888 110.209,925.683 101.107,931.58C98.34,933.19 95.588,934.816 92.884,936.497C92.41,936.791 92.039,937.201 91.761,937.676C90.496,938.504 89.229,939.333 87.966,940.162C85.821,941.568 85.546,945.986 88.137,947.164C107.198,955.828 125.928,965.228 144.922,974.044C148.196,975.563 148.553,968.371 146.032,966.915ZM545.521,927.414C529.057,914.728 512.64,901.862 495.714,889.8C494.87,889.199 494.212,889.414 493.772,890.001C492.544,888.993 491.289,888.037 489.979,887.195C487.705,884.996 486.374,890.495 487.659,892.067C494.183,900.051 503.131,906.693 510.908,913.448C517.417,919.101 523.975,924.691 530.613,930.191C515.818,939.699 501.833,950.549 489.427,963.02C487.139,965.321 488.515,973.01 492.398,970.228C509.779,957.78 527.427,945.686 545.137,933.709C546.968,932.47 547.43,928.885 545.521,927.414ZM352.379,942.615C342.676,929.924 332.508,917.585 322.072,905.488C319.324,901.837 316.271,898.417 312.923,895.21C310.606,892.989 309.298,898.781 311.043,900.492C318.382,907.686 323.466,916.084 327.978,925.233C330.372,930.086 332.834,934.899 336.029,939.186C319.366,939.522 302.856,940.992 286.285,943.01C283.465,943.353 283.552,949.434 286.442,949.44C308.015,949.491 329.524,948.189 351.075,947.921C353.367,947.893 353.378,943.922 352.379,942.615ZM854.748,909.986C834.45,899.646 814.733,888.229 795.486,876.052C793.923,874.974 792.363,873.89 790.778,872.844C787.281,870.535 786.1,877.522 788.434,879.433C803.161,891.492 819.168,901.976 834.214,913.649C826.26,917.157 818.468,921.592 810.836,925.399C802.161,929.725 793.904,934.19 787.012,941.115C785.291,942.844 785.92,950.463 789.229,948.424C809.954,935.663 831.927,925.311 854.929,917.358C857.742,916.385 856.943,911.104 854.748,909.986ZM620.724,878.83C614.453,886.828 610.983,896.464 607.112,905.833C604.531,911.021 601.958,916.214 599.396,921.411C598.254,923.192 597.011,924.912 595.639,926.554C593.327,918.544 590.502,910.63 586.748,903.186C585.078,899.876 582.834,896.656 580.703,893.369C578.452,887.817 576.209,882.262 573.935,876.72C573.65,876.024 573.331,875.595 573.003,875.363C572.89,875.003 572.773,874.644 572.661,874.284C571.688,871.162 568.679,874.215 569.339,876.534C569.589,877.41 569.853,878.282 570.107,879.157C570.11,879.207 570.108,879.26 570.114,879.309C570.506,882.598 571.521,885.575 572.866,888.397C578.319,906.148 584.57,923.618 591.67,940.799C592.287,942.29 594.305,943.304 595.263,941.412C604.982,922.237 614.709,903.055 624.11,883.721C625.258,881.359 623.539,875.239 620.724,878.83ZM343.831,939.541C339.915,936.109 337.108,931.929 334.659,927.497C338.377,932.261 342.052,937.059 345.701,941.878C345.427,941.885 345.154,941.893 344.88,941.898C344.721,940.904 344.343,939.99 343.831,939.541ZM67.675,872.728C66.273,871.802 64.81,872.568 64.338,874.156C59.193,891.468 53.702,908.663 48.22,925.868C35.844,916.213 27.342,902.68 17.346,890.641C15.681,888.058 14.025,885.469 12.366,882.886C11.47,881.491 10.587,881.863 10.011,882.86C7.986,882.423 6.949,887.882 8.72,889.709C11.812,892.9 14.668,896.291 17.433,899.761C26.145,913.69 35.618,927.123 47.346,938.736C48.226,939.606 49.729,939.121 50.243,938.092C59.566,919.434 63.427,897.904 68.685,877.839C69.086,876.31 69.226,873.752 67.675,872.728ZM920.359,860.779C916.053,878.148 909.221,897.083 910.114,915.41C909.78,917.203 909.444,918.997 909.11,920.791C895.163,901.309 879.548,883.209 863.806,865.153C860.85,861.762 858.573,868.026 860.516,870.443C875.684,889.305 890.802,908.206 905.902,927.122C906.835,928.429 907.782,929.727 908.701,931.046C909.058,931.558 909.436,931.864 909.814,932.02C911.119,933.656 912.426,935.289 913.731,936.924C915.675,939.362 917.416,936.448 917.486,934.424C918.122,916.33 919.731,898.31 922.028,880.365C923.103,874.474 924.182,868.586 925.251,862.694C925.988,858.627 921.571,855.888 920.359,860.779ZM255.086,919.832C253.811,917.03 252.062,914.576 250.119,912.259C249.423,911.256 248.682,910.267 247.905,909.276C247.561,908.837 247.244,908.389 246.908,907.947C243.494,902.823 240.24,897.592 237.187,892.246C234.487,886.842 231.998,881.203 228.996,875.911C228.257,874.431 227.479,872.979 226.614,871.599C226.186,870.916 225.664,870.28 225.083,869.758C224.089,868.374 223.04,867.03 221.903,865.752C221.369,865.151 220.539,864.781 219.877,865.101C218.578,864.476 217.195,865.594 216.727,867.595C215.929,871.005 215.174,874.421 214.437,877.84C209.664,892.57 207.94,908.394 205.981,923.827C205.475,926.149 205.142,928.525 205.036,930.976C204.9,931.954 204.766,932.934 204.624,933.907C204.153,937.224 208.061,939.617 208.648,935.482C209.393,930.386 210.214,925.297 211.088,920.216C212.976,914.579 215.624,909.126 217.546,903.53C218.965,899.399 220.03,895.135 220.691,890.816C221.024,888.642 221.247,886.456 221.382,884.26C221.485,882.603 221.16,880.378 221.236,878.499C225.064,885.838 228.883,893.187 232.925,900.403C235.118,904.317 237.558,908.035 240.576,911.366C242.902,913.935 245.547,916.264 247.808,918.895C249.009,920.711 250.218,922.522 251.457,924.315C253.862,927.797 256.121,922.107 255.086,919.832ZM708.198,828.004C708.22,826.254 706.226,822.318 704.094,824.592C695.113,834.172 686.201,843.802 677.377,853.526C673.821,857.444 670.208,861.357 666.644,865.317C663.424,868.005 660.521,870.951 658.477,874.692C656.246,877.362 654.071,880.072 651.995,882.846C650.462,884.894 652.219,891.609 655.226,888.854C663.452,881.32 670.859,872.712 678.259,864.308C679.604,863.25 680.898,862.162 682.077,861.002C685.936,857.204 688.726,852.539 693.075,849.216C695.926,847.037 698.846,845.295 701.427,843.043C702.228,852.464 699.788,862.078 699.503,871.504C699.177,882.257 700.511,893.053 703.082,903.486C704.174,907.914 708.191,906.292 708.209,902.298C708.321,877.538 707.877,852.76 708.198,828.004ZM440.051,884.314C424.216,864.41 406.456,846.235 387.142,829.69C385.76,828.505 384.389,829.789 383.839,831.104C379.796,840.776 378.611,851.286 376.994,861.561C376.819,862.672 376.648,863.785 376.474,864.896C374.027,874.559 371.588,884.225 369.145,893.89C368.457,896.613 370.907,901.062 372.749,899.196C373.76,900.332 375.345,900.324 375.822,897.792C376.859,892.291 377.831,886.777 378.765,881.256C381.801,870.127 384.071,858.796 386.099,847.422C386.482,845.87 386.867,844.318 387.249,842.765C391.922,846.382 396.193,850.422 400.005,854.991C400.573,855.671 401.127,856.021 401.644,856.127C412.617,868.439 424.374,880.043 437.056,890.605C440.283,893.293 441.643,886.315 440.051,884.314ZM308.77,835.837C302.658,840.47 297.063,845.449 291.686,850.923C287.496,855.189 283.427,860.52 278.725,864.467C276.235,855.328 273.485,846.255 270.857,837.157C270.237,835.01 269.648,832.83 268.996,830.676C268.323,827.339 267.65,823.998 266.962,820.649C266.539,818.597 264.982,818.431 264.081,819.407C263.46,818.474 262.785,817.569 262.023,816.709C259.474,813.826 257.974,818.613 258.775,820.723C261.045,826.701 263.285,832.625 265.319,838.639C267.203,851.003 270.097,863.296 273.227,875.274C273.684,877.021 275.592,879.917 277.643,877.861C289.086,866.388 301.136,854.885 311.475,842.396C313.217,840.29 312.366,833.11 308.77,835.837ZM118.268,828.861C118.729,823.253 119.173,817.642 119.572,812.03C119.712,810.068 118.611,808.319 117.42,807.714C117.415,807.636 117.412,807.56 117.406,807.483C117.184,804.352 114.25,804.479 114.083,807.565C113.831,812.224 113.694,816.895 113.631,821.572C112.547,833.194 111.595,844.83 110.71,856.468C96.155,845.883 81.313,835.623 67.056,824.658C64.51,822.7 63.432,828.255 65.233,829.779C73.824,837.046 82.449,844.265 91.112,851.446C98.747,857.774 106.33,864.209 115.729,867.734C117.618,868.442 118.41,865.795 118.398,864.479C118.292,852.643 118.457,840.739 118.268,828.861ZM211.294,775.168C198.85,775.637 186.167,778.981 173.958,781.308C166.482,782.733 158.027,783.708 150.478,786.301C147.494,786.706 144.542,787.333 141.649,788.367C139.966,788.969 139.578,791.737 140.319,793.619C140.512,794.918 141.302,796.076 142.58,795.718C142.948,795.615 143.316,795.524 143.684,795.424C162.38,795.76 180.719,791.893 198.93,787.963C198.377,788.513 197.871,789.02 197.513,789.459C195.966,791.361 194.565,793.364 193.312,795.473C190.773,799.746 188.796,804.349 187.071,809.002C183.283,819.216 180.838,829.939 175.872,839.69C174.665,842.06 177.158,847.831 179.061,844.298C179.388,843.691 179.705,843.08 180.014,842.467C182.846,839.302 184.586,835.615 186.346,831.748C189.057,825.79 191.821,819.855 194.779,814.015C195.127,813.326 195.481,812.64 195.832,811.952C196.175,811.379 196.516,810.802 196.862,810.231C201.55,802.508 209.129,794.225 210.918,785.032C211.666,783.857 212.42,782.687 213.192,781.527C214.285,779.885 214.1,775.063 211.294,775.168ZM569.806,818.006C557.16,801.445 543.448,785.814 528.684,771.148C526.993,768.966 525.315,766.773 523.659,764.562C521.919,762.24 520.019,764.296 519.547,766.334C517.355,775.808 515.504,785.395 513.931,795.032C511.169,807.468 509.374,820.081 508.534,832.916C508.478,833.769 508.669,834.582 508.996,835.266C508.983,835.426 508.965,835.585 508.952,835.745C508.715,838.595 511.874,840.863 512.509,837.137C512.592,836.65 512.671,836.161 512.753,835.674C512.855,835.382 512.945,835.06 513.005,834.666C515.201,820.449 517.708,806.286 520.146,792.111C521.533,786.698 523.093,781.333 524.825,776.031C537.789,793.015 551.755,809.174 566.759,824.405C569.69,827.382 571.386,820.075 569.806,818.006ZM773.57,759.932C774.674,756.544 770.762,751.163 769.008,756.069C768.027,758.814 767.101,761.567 766.222,764.328C760.938,780.19 756.116,796.215 753.729,812.743C748.791,804.667 743.742,796.652 738.662,788.674C732.437,778.901 725.516,769.425 715.651,763.055C713.085,761.397 712.05,764.316 712.323,766.881C712.334,767.052 712.354,767.217 712.386,767.375C712.544,768.261 712.863,769.062 713.337,769.559C713.545,769.777 713.737,770.005 713.942,770.224C727.014,792.046 741.997,812.526 756.134,833.652C757.755,836.073 759.686,833.768 760.144,831.924C760.254,831.482 760.351,831.037 760.461,830.595C760.813,830.196 761.08,829.637 761.203,828.918C763.372,826.947 763.079,823.025 763.165,820.276C763.183,819.687 763.216,819.098 763.245,818.51C767.397,799.469 770.503,780.155 773.257,760.893L773.57,759.932ZM357.024,771.474C356.524,770.859 355.857,770.465 355.003,770.492C335.672,770.248 316.404,771.025 297.055,770.232C296.052,770.191 295.348,770.751 294.9,771.593C294.382,772.313 294.224,773.424 294.284,774.503C294.289,775.839 294.616,777.137 295.194,777.802C295.386,778.023 295.576,778.246 295.768,778.467C305.958,794.709 320.357,808.447 333.204,822.537C335.919,825.514 338.137,818.231 336.294,816.047C333.537,812.782 330.781,809.515 328.028,806.247C327.94,806.117 327.838,806.001 327.73,805.893C325.003,802.657 322.284,799.415 319.567,796.172C317.816,793.558 316.119,790.909 314.226,788.556C311.725,785.448 309.056,782.419 306.213,779.578C322.49,780.489 339.111,780.948 355.222,779.406C356.627,779.272 357.497,778.077 357.868,776.609C359.007,775.262 358.694,772.032 357.024,771.474ZM992.334,789.578C972.501,777.204 952.552,763.84 931.155,754.31C928.891,753.301 928.076,757.234 928.465,758.637C934.055,778.801 940.05,799.832 949.433,818.603C951.126,821.991 953.275,818.016 952.517,815.72C952.254,814.924 951.98,814.134 951.713,813.34C951.899,812.758 951.949,812.11 951.786,811.509C947.692,796.406 943.616,781.302 939.418,766.228C946.288,771.225 953.294,776.046 960.799,780.045C966.627,783.151 972.549,785.779 978.334,788.725C982.456,791.16 986.585,793.584 990.73,795.976C993.361,797.495 994.426,790.914 992.334,789.578ZM881.16,812.121C864.899,806.682 848.224,802.709 831.265,800.267C832.448,798.979 833.641,797.69 834.414,796.115C836.227,792.416 836.812,788.503 839.089,784.942C844.294,776.801 850.207,769.038 855.723,761.103C857.646,758.338 854.66,751.56 851.871,755.54C851.841,755.584 851.808,755.628 851.777,755.672C851.235,755.488 850.633,755.715 850.054,756.647C848.076,759.83 846.115,763.022 844.154,766.214C840.678,771.006 837.272,775.857 834.369,780.921C833.596,782.268 833.058,783.715 832.583,785.18C828.275,792.281 823.978,799.389 819.669,806.49C818.663,808.147 818.874,811.906 821.346,812.107C841.201,813.725 861.041,815.891 880.717,819.04C883.57,819.497 883.557,812.923 881.16,812.121ZM461.906,742.231C461.687,738.398 456.937,736.386 456.58,741.268C455.221,759.848 455.094,778.371 456.156,796.937C444.417,787.698 432.076,779.292 419.269,771.617C414.956,768.484 410.607,765.41 406.191,762.45C403.028,760.332 402.06,766.629 404.078,768.386C404.828,769.039 405.596,769.673 406.351,770.321C406.565,771.412 407.05,772.383 407.859,772.841C409.459,773.746 411.043,774.676 412.629,775.606C428.387,788.607 445.039,800.674 461.203,813.105C463.674,815.004 465.358,811.449 465.258,809.382C464.175,786.997 463.184,764.605 461.906,742.231ZM640.204,737.995C633.201,752.451 625.035,766.397 617.484,780.598C613.349,773.282 609.214,765.968 605.078,758.653C601.229,751.845 597.44,744.934 591.914,739.312C589.605,736.964 588.307,741.933 588.586,743.408C588.65,743.745 588.726,744.069 588.808,744.39C588.193,745.392 587.901,746.933 588.38,747.854C597.217,764.849 607.408,781.156 618.535,796.744C619.884,798.634 621.715,797.666 622.458,795.874C629.81,778.14 637.096,760.382 644.316,742.594C645.355,740.033 642.116,734.046 640.204,737.995ZM84.931,776.333C75.99,755.768 66.009,735.649 56.834,715.186C56.091,713.528 54.071,712.518 52.937,714.52C47.067,724.878 43.365,736.186 39.436,747.373C35.358,758.989 30.013,770.914 27.948,783.09C27.678,784.685 29.523,788.254 31.031,785.69C34.875,779.155 37.459,771.661 39.868,764.224C45.198,752.222 49.821,739.883 55.257,727.906C61.28,735.09 63.48,744.919 67.066,753.41C71.079,762.914 75.936,771.991 81.338,780.771C83.528,784.329 85.904,778.571 84.931,776.333ZM166.188,720.314C165.762,719.228 164.984,718.377 163.816,718.224C148.089,716.169 132.481,710.769 116.565,710.448C112.132,709.324 107.709,708.106 103.297,706.754C100.421,705.872 99.98,710.967 101.26,712.501C109.546,722.41 117.418,732.613 124.771,743.199C128.005,748.034 131.223,752.879 134.392,757.756C135.513,759.482 136.642,758.997 137.361,757.736C138.948,756.943 139.73,753.376 138.296,751.733C129.399,741.536 123.505,729.18 116.194,717.796C117.751,717.843 119.301,717.944 120.844,718.092C130.122,720.319 139.497,722.299 148.906,723.774C153.893,724.892 158.91,725.848 164.014,726.286C164.014,726.269 164.012,726.252 164.012,726.233C164.5,726.216 164.914,726.044 165.264,725.767C165.599,725.795 165.934,725.832 166.268,725.858C168.726,726.053 168.506,720.804 166.188,720.314ZM270.061,678.384C269.481,676.375 268.053,674.605 266.024,676.213C261.308,679.955 256.543,683.643 251.76,687.309C247.171,690.016 242.612,692.775 238.118,695.619C229.979,700.769 221.142,705.468 216.696,714.329C214.253,716.279 211.821,718.24 209.409,720.225C207.564,721.741 208.502,728.403 211.387,726.746C229.518,716.344 246.488,703.096 262.423,689.379C262.499,689.34 262.573,689.3 262.648,689.262C259.991,703.498 259.459,718.238 263.333,732.188C263.501,735.896 263.733,739.607 264.041,743.323C264.414,747.808 268.911,747.804 268.898,743.204C268.895,742.022 268.895,740.84 268.894,739.658C269.729,738.49 270.202,736.567 269.664,735.102C269.39,734.351 269.148,733.595 268.902,732.84C268.962,716.185 269.387,699.56 271.318,682.983C271.435,681.982 271.078,679.528 270.061,678.384ZM929.177,664.651C928.983,665.437 928.768,666.216 928.56,666.999C928.244,667.194 927.949,667.589 927.712,668.244C924.481,677.151 921.545,686.26 917.864,694.996C915.295,701.089 910.489,706.069 907.697,711.972C904.035,704.535 899.768,697.409 894.938,690.658C891.869,686.369 888.403,682.464 886.315,677.569C884.694,673.765 883.122,670.483 880.604,667.349C880.266,666.922 879.912,666.499 879.531,666.086C879.258,665.79 878.994,665.686 878.753,665.719C877.12,663.463 875.654,667.714 876.634,669.377C879.636,674.466 880.858,680.011 883.153,685.381C885.183,690.13 888.291,694.181 891.332,698.313C898.434,707.963 903.868,718.417 908.323,729.515C909.232,731.78 911.171,730.587 911.596,728.78C913.608,720.207 916.529,711.923 919.621,703.694C920.975,700.684 922.059,697.547 923.211,694.462C926.659,685.228 931.276,675.772 932.334,665.886C932.612,663.296 929.972,661.437 929.177,664.651ZM374.239,640.875C371.85,654.595 369.545,668.329 367.218,682.061C365.645,691.338 363.517,700.876 363.654,710.332C350.251,694.04 336.645,677.902 323.49,661.416C321.8,659.298 320.26,661.164 319.944,663.297C319.941,663.294 319.939,663.292 319.937,663.289C317.739,660.95 315.963,666.734 317.477,668.455C334.591,687.909 348.352,710.072 366.536,728.614C368.225,730.337 370.055,727.703 370.211,726.21C370.625,722.26 371.029,718.309 371.436,714.357C373.319,705.215 374.092,695.885 374.865,686.537C375.767,675.619 376.647,664.698 377.59,653.783C378.166,650.143 378.748,646.503 379.314,642.861C379.965,638.683 375.143,635.679 374.239,640.875ZM811.541,717.687C806.669,704.97 801.229,692.481 795.15,680.294C792.248,674.475 789.208,668.722 786.048,663.039C784.331,659.951 781.394,651.666 776.467,653.766C774.379,654.657 773.012,657.336 771.801,659.11C769.912,661.879 768.137,664.729 766.438,667.62C763.032,673.414 759.97,679.4 757.061,685.458C751.047,697.983 745.137,710.789 740.407,723.853C739.765,725.626 741.649,729.968 743.305,727.75C744.437,729.101 746.087,729.359 747.124,726.729C755.214,706.214 763.531,685.628 776.22,667.482C788.685,685.105 792.759,707.492 807.978,723.416C810.952,726.528 812.209,719.43 811.541,717.687ZM599.587,694.447C597.862,693.597 596.14,692.734 594.416,691.873C577.178,681.565 558.881,672.564 540.552,664.474C539.154,663.857 538.228,664.895 537.861,666.368C537.023,667.846 537.414,670.95 538.853,671.782C552.218,679.509 566.22,686.323 580.204,693.058C582.162,694.209 584.114,695.375 586.065,696.55C578.972,698.758 571.883,700.975 564.805,703.23C555.007,706.351 545.198,709.609 536.427,715.103C534.041,716.597 534.412,723.547 537.876,722.121C539.804,721.328 541.739,720.558 543.676,719.791C561.195,712.992 579.549,708.128 597.438,702.47C597.491,702.454 597.537,702.423 597.588,702.402C598.316,702.224 599.039,702.031 599.769,701.857C602.702,701.161 601.665,695.471 599.587,694.447ZM694.982,706.268C694.858,705.68 694.745,705.09 694.627,704.501C694.157,688.141 693.229,671.801 692.166,655.466C691.953,652.206 687.913,650.447 687.606,654.643C687.373,657.836 687.216,661.03 687.132,664.222C686.544,670.484 685.972,676.747 685.464,683.017C685.141,687.014 684.414,691.268 684.917,695.268C685.071,696.495 685.724,697.896 686.391,699.304C670.834,690.084 655.189,680.091 638.468,673.355C637.572,672.994 636.921,673.378 636.509,674.09C636.363,674 636.217,673.911 636.071,673.821C633.216,672.058 632.134,677.709 634.171,679.158C652.468,692.161 672.153,703.395 691.94,713.955C693.877,714.988 694.806,711.644 694.781,710.49C694.769,709.933 694.752,709.376 694.738,708.82C695.041,707.914 695.103,706.842 694.982,706.268ZM477.628,679.029C462.05,655.429 445.018,632.804 426.752,611.219C424.863,608.987 423.2,611.59 423.158,613.611C423.13,614.982 423.078,616.349 423.041,617.719C419.433,644.276 416.988,670.887 415.364,697.637C415.364,697.642 415.363,697.647 415.362,697.652L415.363,697.652C415.343,697.976 415.32,698.3 415.301,698.624C415.168,700.835 416.84,702.216 418.237,701.99C419.098,703.333 420.706,703.649 421.095,701.157C424.17,681.441 425.772,661.37 426.635,641.33C427.351,635.997 428.101,630.669 428.877,625.343C435.161,634.459 441.559,643.494 448.108,652.421C455.952,663.114 463.582,674.518 472.588,684.267C473.55,685.308 474.369,685.021 474.981,684.222C477.545,686.515 479.053,681.188 477.628,679.029ZM1000,675.833L1000,686.57C988.11,689.582 976.037,691.947 963.95,694.222C961.275,694.726 960.823,688.362 963.199,687.61C975.457,683.733 987.695,679.666 1000,675.833ZM0,648.982C0.302,649.136 0.602,649.288 0.902,649.44C12.714,655.415 24.639,661.209 36.333,667.409C38.507,668.561 39.058,673.246 36.504,674.367C24.667,679.565 12.434,683.421 0,686.57L0,675.833C6.354,673.853 12.729,671.935 19.131,670.138C12.93,665.818 6.532,661.737 0,657.872L0,648.982ZM152.108,656.445C144.353,649.106 137.28,641.059 130.916,632.488C128.995,629.901 127.233,627.013 125.359,624.202C122.326,619.34 119.147,614.58 115.506,610.154C112.923,607.015 110.733,612.758 112.518,614.958C112.605,615.064 112.685,615.174 112.771,615.282C112.846,615.868 113.033,616.391 113.33,616.641C113.909,617.131 114.465,617.645 115.011,618.173C123.876,630.055 130.224,643.656 139.17,655.424C121.393,654.567 103.597,654.013 85.815,653.323C82.933,653.212 83.051,659.674 85.976,659.885C106.539,661.364 127.094,662.923 147.662,664.341C148.979,664.432 149.586,663.481 149.754,662.262C150.241,662.274 150.728,662.289 151.215,662.299C153.903,662.356 153.37,657.64 152.108,656.445ZM1000,657.872C990.208,652.075 980.115,646.761 969.935,641.838C968.687,641.318 967.436,640.808 966.175,640.331C965.096,639.923 964.531,638.631 964.426,637.264C964.229,635.576 964.777,633.713 965.918,633.459C966.297,633.289 966.736,633.25 967.249,633.432C978.614,637.466 989.27,643.517 1000,648.982L1000,657.872ZM221.425,585.949C220.714,587.21 220.043,588.488 219.402,589.78C218.468,589.793 217.612,590.508 217.491,592.191C217.129,597.289 213.304,600.577 210.481,604.488C207.558,608.537 206.474,613.047 204.95,617.711C202.745,624.455 198.447,629.854 196.102,636.214C194.544,633.646 192.971,631.095 191.378,628.563C188.344,623.327 184.92,618.265 181.317,613.328C177.448,607.768 173.41,602.326 169.134,597.023C168.411,595.599 167.691,594.172 166.974,592.736C166.196,591.176 165.3,591.019 164.582,591.545C164.246,591.152 163.915,590.756 163.576,590.365C160.595,586.926 158.565,593.181 160.297,595.637C162.642,598.964 165.03,602.261 167.426,605.551C174.779,621.874 184.827,637.303 195.601,651.388C195.72,651.782 195.843,652.173 195.954,652.57C196.659,655.096 199.565,656.684 200.661,653.387C201.185,651.813 201.709,650.239 202.235,648.665C210.661,635.252 214.047,619.604 219.641,604.886C219.726,604.723 219.805,604.558 219.891,604.395C222.377,599.658 225.079,595.267 226.198,589.976C226.73,587.465 223.65,582.003 221.425,585.949ZM582.582,615.353C572.435,616.985 562.277,618.568 552.139,620.251C546.208,621.237 539.598,621.805 533.394,623.193C538.503,606.59 544.14,590.143 548.98,573.459C549.492,571.693 549.635,568.687 547.855,567.49C546.191,566.372 544.57,567.305 543.95,569.122C543.14,571.498 542.323,573.884 541.509,576.277C537.55,583.124 534.749,590.952 532.527,598.26C529.563,608.012 528.491,618.661 522.884,627.37C521.562,629.422 522.022,635.864 525.763,634.56C534.644,631.462 544.929,631.12 554.192,629.531C563.706,627.899 573.216,626.248 582.728,624.606C586.842,623.935 586.501,614.721 582.582,615.353ZM348.123,579.049C344.831,579.534 341.543,580.049 338.258,580.58C336.486,580.547 334.404,581.026 332.501,581.535C326.512,582.557 320.535,583.653 314.576,584.845C309.581,585.844 304.591,586.877 299.635,588.053C294.049,589.379 287.938,590.297 282.726,592.727C280.652,593.694 280.664,599.167 283.443,599.033C284.042,599.005 284.642,598.949 285.242,598.885C285.708,599.67 286.404,600.191 287.33,600.154C296.079,599.817 304.49,597.652 312.838,595.147C317.06,593.88 321.267,592.564 325.526,591.428C328.106,590.74 333.615,588.626 337.379,588.675C336.826,590.128 336.033,591.803 335.817,592.46C335.224,594.27 334.619,596.076 334.008,597.88C332.577,602.102 331.139,606.32 329.639,610.518C327.147,617.486 323.441,624.568 325.345,632.115C325.942,634.484 329.035,636.188 329.903,632.907C334.332,616.172 341.051,600.311 350.055,585.521C350.971,584.016 351.042,578.619 348.123,579.049ZM901.24,629.464C901.15,629.233 901.056,629.005 900.965,628.774C901.006,627.81 900.812,626.851 900.288,626.186C900.035,625.864 899.795,625.536 899.546,625.214C895.522,615.322 891.061,605.609 887.289,595.604C882.86,583.857 878.942,571.934 875.508,559.858C874.916,557.776 872.912,556.868 871.904,559.233C861.834,582.855 851.261,607.176 837.396,628.869C836.339,630.521 837.943,636.063 839.951,633.62C840.085,633.458 840.211,633.29 840.344,633.127C840.345,633.128 840.346,633.13 840.347,633.131C840.351,633.124 840.354,633.116 840.358,633.109C853.332,617.164 862.572,598.609 870.885,579.867C871.219,580.333 871.544,580.804 871.862,581.278C876.349,597.566 883.632,612.991 893.525,626.701C894.607,628.316 895.775,629.885 897.048,631.395C897.791,632.275 898.492,632.498 899.093,632.317C900.355,634.322 901.758,630.793 901.24,629.464ZM798.867,593.489C778.199,587.586 757.948,580.431 737.375,574.256C734.047,573.257 733.604,580.005 736.309,581.094C736.513,581.176 736.72,581.251 736.923,581.332C737.294,582.013 737.847,582.517 738.588,582.625C739.633,582.776 740.667,582.966 741.695,583.18C747.292,585.313 752.951,587.31 758.659,589.183C760.221,589.912 761.775,590.659 763.313,591.425C769.305,594.406 775.933,597.224 781.961,600.614C769.83,608.842 758.142,617.803 746.461,626.612C744.476,628.109 745.507,634.83 748.474,633.248C757.336,628.523 766.163,623.721 774.199,617.659C782.118,611.684 789.576,604.179 799.044,600.72C801.466,599.836 801.389,594.21 798.867,593.489ZM700.38,606.514C700.339,606.152 700.27,605.804 700.21,605.452C700.196,604.934 700.113,604.424 699.939,603.956C699.901,603.857 699.86,603.76 699.823,603.66C699.26,601.546 698.392,599.578 697.382,597.642C694.074,589.979 690.109,582.817 685.306,575.972L667.473,544.071C667.113,543.428 666.198,542.973 665.495,543.33C665.406,543.376 665.326,543.43 665.239,543.478C664.362,543.248 663.375,543.609 662.861,544.559C662.544,545.147 662.234,545.738 661.919,546.326C659.674,549.106 658.327,552.814 656.759,555.888C655.711,557.942 654.684,560.006 653.641,562.063C645.238,578.365 637.2,594.828 629.033,611.266C627.876,613.586 630.388,619.095 632.103,615.7C632.485,614.942 632.876,614.187 633.26,613.43C634.079,613.986 634.97,613.777 635.446,612.008C638.219,601.702 645.651,593.085 651.214,584.16C653.994,579.699 656.643,575.153 658.944,570.424C659.941,568.378 660.899,566.311 661.749,564.201C662.385,562.625 663.352,556.944 664.556,555.96C666.788,554.137 667.453,558.804 668.108,560.226C669.009,562.187 670.05,564.093 671.173,565.935C673.151,569.175 675.429,572.211 677.731,575.227C683.851,586.058 689.773,596.999 695.62,607.996C696.728,610.079 697.962,610.123 698.873,609.246C699.764,608.952 700.539,607.949 700.38,606.514ZM995.66,570.323C984.454,562.17 971.796,555.479 959.678,548.797C953.653,545.473 947.564,542.273 941.421,539.177C935.121,536.001 928.278,533.375 923.318,528.189C921.381,526.164 920.223,530.433 920.476,531.686C922.861,543.484 924.801,555.446 929.1,566.735C933.786,579.033 937.496,591.465 941.283,604.055C942.357,607.626 945.48,605.533 944.903,602.558C945.087,601.978 945.143,601.348 944.988,600.767C943.55,595.36 942.175,589.919 940.808,584.467C939.837,579.787 938.91,575.094 937.668,570.486C936.764,567.128 935.723,563.812 934.69,560.499C933.499,556.048 932.264,551.612 930.949,547.206C930.609,545.713 930.3,544.21 930.046,542.691C938.233,548.571 947.953,552.341 956.99,556.637C963.114,559.549 969.238,562.461 975.362,565.372C976.641,565.98 977.94,566.577 979.242,567.178C984.196,570.201 989.169,573.187 994.239,575.994C996.653,577.33 997.422,571.523 995.66,570.323ZM89.088,593.403C71.123,593.436 53.132,593.535 35.165,593.193C38.708,587.819 41.242,581.855 43.849,575.888C47.782,566.886 51.714,557.883 55.648,548.882C56.58,546.973 57.488,545.057 58.34,543.118C59.243,541.063 57.01,536.323 54.993,539.375C54.69,539.833 54.402,540.303 54.105,540.766C53.589,540.959 53.088,541.457 52.671,542.414C52.345,543.162 52.019,543.91 51.693,544.658C47.063,552.399 43.027,560.582 38.746,568.475C33.394,578.344 28.082,588.22 22.926,598.193C21.969,600.044 22.171,604.668 25.271,603.902C36.057,601.24 47.125,601.531 58.138,601.856C68.532,602.163 78.919,601.759 89.269,600.778C92.523,600.469 92.385,593.397 89.088,593.403ZM508.732,535.572C497.768,534.872 486.796,534.395 475.821,533.898C469.046,533.592 462.102,532.929 455.204,532.695C454.198,532.57 453.194,532.435 452.187,532.32C451.779,532.272 451.441,532.394 451.158,532.613C448.395,532.598 445.646,532.677 442.925,532.903C440.556,533.099 440.274,538.352 442.546,538.807C448.589,540.014 454.829,540.528 461.071,540.897C472.951,543.631 485.064,545.607 497.09,547.603C496.542,548.321 495.984,549.03 495.427,549.738C491.499,553.307 487.674,556.99 483.994,560.813C480.18,564.775 476.524,568.876 473.006,573.092C469.087,576.821 465.472,580.802 463.057,585.78C461.81,588.352 463.791,595.136 466.763,591.134C469.21,587.838 471.751,584.615 474.371,581.458C478.471,577.52 483.128,574.038 487.145,570.139C492.078,565.35 496.714,560.211 500.933,554.76C505.154,550.989 509.043,546.923 511.267,541.83C512.153,539.803 511.438,535.745 508.732,535.572ZM877.463,581.957C876.649,579.134 875.923,576.277 875.304,573.384C876.408,576.986 877.543,580.597 878.728,584.202C878.317,583.447 877.898,582.698 877.463,581.957ZM873.338,566.941L873.35,566.915C873.354,566.93 873.359,566.945 873.362,566.96C873.355,566.953 873.346,566.948 873.338,566.941ZM169.155,555.279C167.132,549.302 165.638,543.164 164.457,536.942C165.055,536.056 165.38,534.807 165.086,533.443C164.089,528.822 162.988,524.229 161.834,519.649C160.902,512.103 160.144,504.542 159.204,497.097C159.031,495.733 157.638,493.735 156.035,494.49C145.965,499.238 135.896,504.05 126.73,510.425C125.413,511.341 124.135,512.314 122.874,513.317C114.787,517.31 106.968,521.793 99.685,527.04C98.102,528.179 98.436,532.139 99.772,533.647C100.049,534.277 100.528,534.689 101.226,534.583C109.351,533.339 115.203,528.321 121.229,523.292C123.497,522.19 125.776,521.108 128.056,520.027C135.983,516.554 144.057,513.376 152.017,509.935C155.034,526.648 159.517,542.98 165.146,559.028C166.717,563.507 170.2,558.367 169.155,555.279ZM842.479,533.361C826.464,532.233 810.564,533.832 795.064,537.73C794.995,537.733 794.925,537.737 794.856,537.739C797.07,533.577 799.477,529.494 802.041,525.499C808.305,516.942 814.726,508.502 821.363,500.223C821.58,499.952 821.722,499.597 821.808,499.199C822.432,498.471 823.056,497.744 823.683,497.024C825.08,495.423 823.756,490.237 821.767,492.375C821.243,492.938 820.73,493.508 820.214,494.077C819.639,493.697 818.972,493.728 818.288,494.505C806.133,508.308 795.214,523.092 785.854,538.929C785,540.374 784.969,544.801 787.541,544.646C787.944,545.744 788.768,546.491 790.14,546.134C793.591,545.236 797.063,544.456 800.549,543.778C814.595,542.86 828.629,541.961 842.656,540.559C845.861,540.239 845.678,533.587 842.479,533.361ZM752.826,531.999C751.582,522.617 750.335,513.235 749.08,503.855C748.377,497.413 747.513,490.986 746.478,484.58C746.219,482.971 744.882,481.183 743.095,481.796C741.2,482.446 741.135,485.351 741.337,486.889C742.345,494.579 743.373,502.267 744.408,509.952C744.994,515.799 745.433,521.659 745.728,527.532C739.431,525.52 733.139,523.494 726.848,521.46C717.646,517.313 708.109,513.743 698.847,510.09C698.541,509.232 698.023,508.574 697.275,508.428C696.508,508.275 695.74,508.126 694.972,507.978C694.476,507.883 694.055,507.913 693.69,508.028C693.483,507.944 693.273,507.861 693.066,507.776C690.182,506.6 689.688,512.884 692.095,514.01C692.298,514.104 692.5,514.199 692.702,514.294C692.853,514.561 693.022,514.803 693.214,514.992C699.712,521.395 709.03,523.55 717.436,526.335C719.338,526.965 721.233,527.609 723.134,528.241C731.536,531.936 739.93,535.664 747.459,540.987C749.828,542.663 751.269,539.519 751.232,537.522C751.229,537.37 751.222,537.218 751.22,537.065C752.725,536.319 753.014,533.42 752.826,531.999ZM423.148,500.271C422.564,499.734 421.789,499.538 420.836,499.924C410.154,504.262 399.737,509.418 389.462,514.638C384.585,517.115 379.645,519.53 374.897,522.245C373.366,523.121 371.873,524.028 370.511,525.07C370.404,521.156 370.065,517.254 369.577,513.357C368.734,499.209 366.963,485.189 362.657,471.522C362.568,471.242 362.462,471.01 362.349,470.8C362.294,470.107 362.232,469.416 362.179,468.723C361.925,465.471 358.471,465.469 358.651,468.809C358.69,469.529 358.739,470.248 358.78,470.967C358.239,471.691 357.894,472.642 357.986,473.585C358.463,478.476 359.176,483.327 359.971,488.162C361.277,504.188 363.113,520.165 365.387,536.088C365.368,536.521 365.365,536.951 365.339,537.385C365.279,538.428 366.421,541.499 368.044,540.833C368.205,540.811 368.37,540.759 368.537,540.664C387.175,530.148 405.632,519.299 423.927,508.195C426.545,506.606 425.655,500.014 423.148,500.271ZM312.759,533.267C308.408,521.471 303.681,509.833 298.676,498.3C296.175,492.539 293.72,486.701 290.895,481.09C290.579,480.464 290.228,479.879 289.841,479.357C289.089,477.594 288.342,475.829 287.589,474.066C286.769,472.146 284.565,471.204 283.279,473.329C277.339,483.15 270.245,491.95 262.99,500.633C262.519,501.004 262.045,501.374 261.565,501.737C257.548,504.774 253.835,507.809 250.992,512.014C249.603,514.067 248.394,516.262 247.033,518.329C245.265,520.282 243.494,522.234 241.726,524.188C239.849,526.264 240.925,533.275 244.387,530.644C245.636,529.694 246.736,528.629 247.739,527.49C255.191,520.86 262.253,513.371 268.761,505.414C273.832,500.104 278.875,494.767 283.872,489.388C292.816,504.287 300.417,519.846 306.716,536.058C307.283,537.518 308.019,538.065 308.745,538.026C310.837,541.559 313.912,536.394 312.759,533.267ZM594.315,469.712C591.867,477.087 589.7,484.595 587.752,492.117C586.823,495.706 585.954,499.311 585.172,502.934C584.9,504.199 584.661,505.474 584.404,506.744C583.852,508.415 583.309,510.087 582.763,511.76C582.494,511.594 582.175,511.209 581.8,510.571C578.876,508.844 576.317,505.327 573.796,503.009C571.093,500.525 568.358,498.079 565.588,495.67C559.587,490.449 553.424,485.423 547.136,480.554C546.064,479.723 545.18,479.987 544.563,480.759C544.425,480.665 544.293,480.564 544.155,480.472C541.262,478.529 540.881,484.068 542.313,485.645C548.387,492.332 555.63,498.131 562.326,504.189C569.035,510.259 575.742,516.335 582.455,522.401C584.017,523.812 585.856,522.305 586.404,520.711C591.771,505.079 599.276,488.43 599.429,471.676C599.458,468.556 595.675,465.615 594.315,469.712ZM993.234,457.97C993.7,452 994.182,446.032 994.701,440.068C994.828,438.597 993.73,434.74 991.627,436.642C986.002,441.727 980.322,446.793 974.652,451.881C969.549,455.555 964.428,459.204 959.442,463.037C950.085,470.231 942.348,478.219 934.968,487.348C934.961,487.355 934.953,487.362 934.946,487.369C934.946,487.37 934.947,487.372 934.948,487.373C934.819,487.533 934.687,487.687 934.558,487.848C933.305,489.407 934.41,493.837 936.7,492.717C937.158,493.245 937.807,493.385 938.618,492.721C942.374,489.645 946.063,486.471 949.724,483.259C961.822,474.242 973.718,464.856 985.33,455.26C983.429,468.768 983.244,482.32 985.041,495.913C984.524,501.522 984.36,507.14 984.962,512.771C985.259,515.553 988.682,517.299 988.998,513.499C989.383,508.842 989.741,504.182 990.099,499.523C990.338,498.834 990.443,498.052 990.316,497.227C990.308,497.174 990.301,497.119 990.293,497.065C991.004,487.743 991.693,478.419 992.392,469.096C992.832,465.395 993.152,461.688 993.234,457.97ZM912.493,445.62C900.747,440.198 888.986,434.809 877.221,429.429C867.571,425.017 857.619,419.198 847.34,416.016C846.118,415.354 844.889,414.706 843.673,414.034C842.398,413.329 841.652,414.69 841.365,416.033C841.021,416.781 840.938,417.778 841.063,418.67C840.34,419.677 840.156,421.496 840.342,422.371C843.626,437.849 848.08,453.08 853.871,467.791C855.779,475.269 857.754,482.726 859.898,490.128C860.917,493.644 863.856,491.467 863.343,488.581C863.341,488.566 863.338,488.552 863.335,488.537C864.954,490.034 867.012,487.349 866.353,485.065C862.763,472.602 859.307,460.102 855.707,447.642C853.892,441.366 852.439,434.601 850.273,428.192C869.301,436.138 888.361,443.921 907.674,451.191C908.303,451.428 908.84,451.361 909.278,451.089C910.022,451.373 910.761,451.672 911.507,451.953C914.5,453.083 914.927,446.744 912.493,445.62ZM77.128,421.69C76.962,422.32 76.791,422.95 76.625,423.58C76.474,423.798 76.329,424.049 76.197,424.376C70.045,439.684 65.03,455.152 61.45,471.194C50.568,456.04 39.216,441.443 24.987,429.229C24.477,428.625 23.976,428.013 23.463,427.411C21.216,424.775 19.397,429.636 20.922,431.497C21.048,431.65 21.17,431.806 21.296,431.959C21.34,432.649 21.505,433.273 21.81,433.661C28.236,441.854 34.782,449.943 41.432,457.946C48.313,467.336 54.927,476.922 61.255,486.705C62.323,488.356 64.225,487.566 64.735,485.932C71.096,465.572 76.577,444.956 81.109,424.11C81.686,421.459 78.118,417.928 77.128,421.69ZM675.121,428.258C665.228,427.043 655.231,426.331 645.293,425.58C635.556,424.845 625.223,423.17 615.488,423.883C613.054,424.061 612.852,429.275 615.105,429.848C624.521,432.241 634.843,432.505 644.495,433.514C651.563,434.253 658.654,435.013 665.75,435.614C662.932,443.6 660.2,451.479 656.296,459.063C652.857,465.744 647.745,471.906 647.934,479.756C647.981,481.662 650.445,485.11 651.99,482.178C660.289,466.437 668.376,450.563 677.16,435.088C678.362,432.969 678.139,428.629 675.121,428.258ZM433.221,393.124C419.983,395.451 406.845,398.389 393.896,401.999C390.53,402.938 387.166,403.908 383.823,404.942C377.886,406.422 371.986,408.057 366.136,409.891C365.242,410.17 364.724,411.065 364.536,412.123C361.274,413.56 358.03,415.02 354.721,416.329C353.031,416.997 353.176,421.58 355.287,421.301C367.7,419.664 379.918,416.321 392.031,413.228C402.048,410.671 412.056,408.078 422.066,405.491C410.842,425.472 403.713,447.884 398.084,469.938C397.367,472.748 400.373,477.437 401.948,473.997C402.684,474.427 403.55,474.21 404.21,472.721C415.096,448.131 425.044,423.103 435.294,398.242C435.824,396.958 435.505,392.723 433.221,393.124ZM564.466,457.13C551.691,438.039 538.92,418.944 526.15,399.849C524.958,398.067 522.817,398.661 522.111,400.442C520.633,399.462 518.938,400.008 518.287,402.117C511.496,424.11 504.759,446.113 498.082,468.139C497.339,470.591 500.057,477.089 502.274,473.778C503.447,473.919 504.737,472.828 504.846,470.578C504.891,469.648 505.014,468.73 505.168,467.817C509.582,458.224 513.214,448.466 516.471,438.572L516.5,438.495C519.375,430.45 521.804,422.26 524.112,414.036C529.529,421.236 534.244,428.934 538.94,436.641C541.938,441.563 544.933,446.49 548.136,451.283C550.436,454.723 553.112,460.874 557.702,461.244C558.35,461.296 558.863,461.013 559.272,460.573C559.802,461.357 560.335,462.138 560.864,462.922C563.586,466.951 566.337,459.925 564.466,457.13ZM773.006,457.071C770.241,448.758 765.334,441.74 760.198,434.854C755.572,427.553 750.729,420.384 745.914,413.192C745.777,412.901 745.626,412.618 745.494,412.323C744.79,410.751 743.12,409.878 741.919,411.163C741.713,411.33 741.518,411.525 741.352,411.776C740.066,413.726 738.923,415.769 737.88,417.87C729.096,433.346 722.26,449.821 717.549,467.013C717.137,468.514 717.034,470.705 718.308,471.874C719.002,472.511 719.934,472.778 720.69,472.403C721.124,472.526 721.593,472.288 722.042,471.425C723.994,467.67 725.722,463.816 727.345,459.916C733.291,447.991 739.207,436.05 745.011,424.055C745.074,423.924 745.129,423.779 745.188,423.637C748.398,428.915 752.186,433.851 755.87,438.838C760.422,446.1 764.731,453.511 768.639,461.155C771.078,465.927 774.091,460.332 773.006,457.071ZM189.521,457.025C188.743,456.568 187.952,456.18 187.153,455.829C186.75,455.362 186.235,455.045 185.607,454.98C185.25,454.944 184.896,454.912 184.54,454.876C182.855,454.386 181.122,454.113 179.336,454.044C173.133,452.588 166.817,451.671 160.45,450.898C151.993,449.871 143.535,448.72 135.053,447.872C139.633,441.692 143.683,435.21 146.952,428.129C147.266,427.452 147.563,426.765 147.854,426.074C153.887,417.265 161.964,410.043 167.333,400.814C168.623,398.599 167.793,392.409 164.684,393.366C164.077,392.744 163.282,392.693 162.485,393.886C162.103,394.459 161.718,395.03 161.335,395.603C158.063,398.054 154.94,400.682 152.418,403.943C149.904,407.195 148.265,410.883 146.755,414.651C145.43,416.334 144.16,418.061 142.988,419.867C139.571,425.134 136.561,430.872 133.279,436.392C129.209,442.067 125.083,447.702 120.865,453.273C119.846,454.619 120.049,460.095 122.732,459.527C129.685,458.054 136.757,458.229 143.81,458.779C155.379,460.609 167,461.986 178.719,462.36C181.946,463.094 185.142,463.942 188.283,464.971C192.327,466.296 192.208,458.605 189.521,457.025ZM294.961,403.889C282.389,405.577 269.829,407.364 257.264,409.105C255.187,409.393 253.113,409.701 251.037,409.993C242.366,410.066 233.724,410.092 225.151,412.042C225.137,412.043 225.123,412.043 225.109,412.043L225.109,412.052C224.861,412.108 224.613,412.155 224.365,412.215C221.723,412.853 221.77,418.537 223.94,420.165C224.334,421.116 225.05,421.712 226.067,421.241C226.691,420.951 227.336,420.699 227.995,420.476C235.564,420.097 243.124,419.757 250.666,419.274C252.92,419.312 255.175,419.346 257.43,419.338C262.442,419.322 267.354,418.957 272.295,418.108C274.922,417.657 277.534,417.123 280.178,416.775C280.277,416.762 280.397,416.743 280.528,416.722C278.504,420.127 276.779,423.735 275.058,427.352C270.364,437.213 265.693,447.084 260.948,456.921C259.676,459.558 262.249,466.388 264.635,462.246C269.752,453.364 274.838,444.465 279.93,435.568C284.816,427.032 289.32,418.068 296.432,411.125C297.942,409.651 298.25,403.448 294.961,403.889ZM960.004,351.52C959.552,348.647 955.888,347.198 954.932,350.639C952.249,360.293 952.965,370.141 952.401,380.037C952.211,383.375 951.893,386.714 951.483,390.046C951.165,391.171 950.883,392.304 950.686,393.458C950.551,394.251 950.547,395.436 950.527,396.732C950.159,398.958 949.739,401.175 949.284,403.383C948.745,404.055 947.968,404.39 946.84,404.183C939.404,397.678 931.969,391.173 924.532,384.668C920.655,381.276 916.784,377.876 912.892,374.503C909.94,371.944 907.186,369.393 903.24,368.648C900.178,368.071 899.909,373.222 901.721,374.711C904.238,376.781 906.756,378.85 909.274,380.919C921.267,394.519 934.233,407.272 948.316,418.701C949.875,419.966 951.768,418.75 952.262,417.012C955.091,407.065 957.065,396.995 957.901,386.681C957.942,386.173 957.973,385.663 958.003,385.152C958.156,384.617 958.306,384.08 958.445,383.537C961.123,373.126 961.677,362.14 960.004,351.52ZM826.987,348.01C819.832,361.171 812.672,375.651 803.147,387.61C802.227,388.694 801.317,389.786 800.418,390.885C800.074,391.279 799.734,391.678 799.383,392.066C797.713,384.294 795.667,376.624 793.206,369.089C792.984,368.089 792.769,367.088 792.543,366.09C790.691,357.919 788.261,349.836 782.922,343.22C782.755,342.687 782.594,342.151 782.426,341.618C781.33,338.126 777.928,341.533 778.7,344.142C784.535,363.863 789.924,383.711 794.625,403.734C794.957,405.145 796.364,407.087 797.92,405.665C805.294,398.92 810.385,390.392 815.191,381.727C820.626,371.93 825.657,361.927 830.325,351.742C831.277,349.666 828.69,344.878 826.987,348.01ZM505.176,331.527C495.089,346.276 489.042,363.551 478.093,377.722C472.19,368.14 466.342,358.524 460.528,348.887C460.629,347.873 460.515,346.863 460.092,346.139C457.044,340.929 453.666,335.981 449.923,331.245C446.933,327.464 445.023,334.179 446.525,336.708C447.987,339.17 449.462,341.625 450.933,344.082C450.861,344.729 450.899,345.346 451.099,345.81C457.789,361.325 467.056,376.19 477.117,389.722C478.164,391.13 480.02,391.298 480.976,389.627C486.565,379.847 492.74,370.195 497.308,359.881C499.37,355.226 500.975,350.406 503.875,346.173C506.341,342.575 508.621,339.511 509.473,335.152C509.941,332.755 507.451,328.201 505.176,331.527ZM746.463,323.588C739.395,322.745 732.315,322.011 725.226,321.369C707.761,319.147 690.05,318.647 672.491,318.11C669.36,318.014 669.428,324.651 672.019,325.477C682.558,328.838 692.959,329.525 703.947,329.736C714.039,329.931 724.037,331.124 734.021,332.499C723.014,348.38 712.191,364.388 701.132,380.234C699.454,382.637 701.965,388.544 704.502,385.102C718.293,366.394 732.591,348.037 747.871,330.519C749.484,328.671 749.595,323.962 746.463,323.588ZM1000,346.226L1000,374.989C998.058,376.016 996.128,377.065 994.21,378.132C992.758,378.94 991.953,377.744 991.585,376.27C989.157,376.344 988.765,372.065 989.835,370.435C990.535,369.37 991.207,368.291 991.876,367.21C991.909,366.326 992.084,365.495 992.359,364.98C993.71,362.45 995.019,359.904 996.29,357.345C997.485,353.625 998.719,349.916 1000,346.226ZM0,346.226C3.026,337.509 6.318,328.889 10.014,320.443C11.544,314.121 13.421,307.924 17.03,302.516C19.628,298.621 21.893,304.705 21.128,307.099C18.607,314.994 15.867,322.831 12.921,330.593C11.925,334.844 10.909,339.08 9.478,343.122C7.317,349.233 4.708,355.158 1.723,360.889C8.753,358.28 15.807,355.747 22.876,353.228C31.997,349.977 41.159,346.386 50.512,343.821C52.859,342.578 55.2,341.327 57.536,340.069C60.621,338.408 61.199,345.316 58.936,346.848C53.778,350.341 48.553,353.818 42.929,356.527C38.013,358.895 32.805,360.546 27.691,362.422C21.495,365.307 15.232,368.034 8.858,370.495C5.878,371.939 2.926,373.44 0,374.989L0,346.226ZM664.147,345.943C663.622,345.971 663.096,346.006 662.571,346.035C662.197,345.729 661.747,345.576 661.215,345.679C660.122,345.893 659.021,346.098 657.925,346.308C642.022,347.295 626.178,348.806 610.392,350.984C613.931,331.874 617.735,312.766 621.891,293.792C622.254,292.137 621.252,290.198 620.05,289.393C619.151,288.144 617.617,287.673 617.043,289.81C613.24,303.971 609.859,318.234 606.901,332.587C604.968,341.012 603.079,349.448 601.146,357.872C600.867,359.087 601.475,362.204 603.29,362.12C603.646,362.448 604.089,362.63 604.635,362.567C619.872,360.799 634.811,358.415 649.796,355.551C654.647,355.111 659.499,354.676 664.351,354.253C668.036,353.932 667.827,345.745 664.147,345.943ZM148.412,315.671C136.693,309.792 124.72,304.347 112.456,299.695C100.802,295.274 88.578,290.499 76.156,288.967C73.37,288.623 73.823,294.351 75.753,295.24C76.565,295.613 77.39,295.959 78.21,296.316C78.11,298.336 78.799,300.487 80.399,301.088C90.833,305.01 101.196,309.133 111.587,313.169C118.384,315.808 125.389,318.241 131.938,321.511C116.158,330.056 101.499,341.526 88.147,353.119C85.714,355.231 87.113,364.34 90.82,361.928C110.034,349.427 129.358,337.093 148.634,324.687C151.501,322.841 151.639,317.29 148.412,315.671ZM250.352,288.348C250.948,286.035 251.502,283.709 252.006,281.368C252.397,279.554 251.573,276.408 249.309,276.29C244.785,276.055 243.661,283.098 242.57,286.252C240.409,292.497 238.373,298.786 236.461,305.113C233.79,313.957 231.387,322.881 229.195,331.857C217.557,320.313 205.982,308.704 194.27,297.238C193.451,296.435 192.779,296.617 192.309,297.26C190.919,295.858 189.537,294.453 188.175,293.037C185.159,289.902 183.511,297.805 185.636,300.171C198.703,314.726 212.062,329.01 225.369,343.345C226.078,344.387 226.771,345.44 227.445,346.507C229.122,349.161 231.329,346.662 231.807,344.683C231.825,344.702 231.844,344.723 231.863,344.743C233.316,346.295 235.211,344.485 235.725,343.089C241.662,326.959 246.998,310.619 252.546,294.354C253.323,292.075 251.965,288.939 250.352,288.348ZM365.132,323.888C348.708,323.621 332.13,324.066 316.578,329.411C316.266,329.365 315.954,329.33 315.642,329.279C315.703,329.045 315.764,328.811 315.826,328.577C316.609,326.997 317.583,325.449 318.224,324.178C319.375,321.897 320.515,319.612 321.658,317.327C323.802,313.036 325.942,308.743 328.069,304.444C332.351,295.791 337.319,287.069 340.56,277.967C341.843,274.926 338.678,267.934 335.749,271.517C334.776,270.454 333.453,270.268 332.7,272.499C330.99,277.562 329.475,282.681 327.25,287.554C324.682,293.174 321.239,298.335 318.489,303.862C315.519,309.83 313.431,316.102 311.708,322.492C310.276,325.769 309.116,329.075 309.086,332.8C309.085,332.904 309.096,333.029 309.105,333.15C308.997,333.626 308.886,334.101 308.778,334.576C308.359,336.434 309.517,340.352 312.103,339.379C313.717,338.771 315.347,338.239 316.984,337.742C333.258,339.8 349.357,336.234 365.349,332.734C369.053,331.924 369.244,323.955 365.132,323.888ZM902.312,330.144C896.769,319.032 890.96,308.05 885.248,297.024C880.04,286.971 875.118,276.755 868.764,267.36C867.623,265.672 865.685,266.432 865.136,268.165C861.551,279.48 858.304,290.904 855.183,302.354C854.794,303.781 854.394,305.211 853.989,306.645C852.595,310.421 851.462,314.207 850.793,318.085C849.202,324.036 847.794,330.032 847.009,336.05C846.732,338.17 849.113,341.222 850.322,338.065C851.165,335.863 851.913,333.617 852.618,331.351C853.423,331.348 854.194,330.68 854.493,329.066C855.999,320.921 857.897,312.908 860.178,305.012C860.273,304.779 860.369,304.545 860.462,304.313C863.423,296.982 866.389,289.653 869.352,282.323C878.627,299.991 888.608,317.245 898.918,334.336C900.899,337.62 903.402,332.33 902.312,330.144ZM984.594,259.639C982.311,263.517 981.423,267.596 980.618,271.977C979.595,277.556 978.159,282.888 976.185,288.208C973.624,295.106 970.77,301.886 969.066,308.991C965.835,302.993 960.898,297.668 956.737,292.578C953.442,288.548 950.003,284.633 946.531,280.755C943.293,277.138 939.746,271.999 935.1,270.251C933.183,269.529 932.829,272.862 933.337,273.968C933.482,274.284 933.648,274.586 933.81,274.891C933.471,275.904 933.486,277.196 934.081,277.962C946.763,294.296 960.038,310.211 972.164,326.943C973.713,329.08 975.713,327.254 976.03,325.276C979.395,304.345 983.675,283.655 988.636,263.049C989.162,260.862 986.512,256.383 984.594,259.639ZM972.211,318.191C972.396,316.063 972.72,313.974 973.158,311.917C972.832,314.01 972.518,316.104 972.219,318.199C972.216,318.197 972.214,318.194 972.211,318.191ZM564.467,251.479C561.678,267.193 560.053,282.945 559.845,298.853C555.528,293.765 550.607,289.107 546.006,284.349C539.249,277.358 532.43,270.429 525.631,263.479C524.186,262.002 523.042,263.269 522.576,265.125C522.495,265.045 522.417,264.963 522.336,264.885C520.118,262.732 518.703,268.143 520.042,269.703C533.688,285.607 549.077,299.982 562.718,315.88C564.319,317.747 566.488,316.476 566.665,314.179C568.243,293.667 568.597,272.854 568.934,252.286C568.99,248.851 565.153,247.611 564.467,251.479ZM469.549,292.563C465.291,274.111 458.655,256.472 449.452,239.915C448.952,239.015 447.802,238.53 446.842,238.938C442.505,240.781 439.914,244.318 437.419,248.175C433.861,253.677 430.442,259.273 426.981,264.835C425.354,267.451 423.739,270.074 422.117,272.692C415.124,280.339 409.933,289.651 405.932,299.135C405.875,299.271 405.831,299.419 405.795,299.573C405.432,300.08 405.065,300.585 404.705,301.094C403.6,302.656 405.18,307.771 407.103,305.552C407.266,305.363 407.428,305.173 407.591,304.984C408.403,305.567 409.368,305.459 410.272,303.987C411.831,301.445 413.392,298.904 414.951,296.362C426.911,282.132 438.341,267.183 446.955,250.757C452.903,265.762 458.871,280.758 464.833,295.757C466.609,300.225 470.285,295.754 469.549,292.563ZM781.301,290.86C775.405,273.367 769.188,255.998 760.799,239.518C759.963,237.876 757.959,236.668 756.74,238.824C750.53,249.811 743.904,260.556 736.973,271.103C732.913,275.174 729.115,279.401 725.948,284.368C725.348,285.31 725.299,286.691 725.591,287.958C724.481,290.244 726.491,294.839 728.778,291.982C732.267,287.624 735.612,283.17 738.852,278.646C742.001,275.425 745.314,272.345 748.511,268.977C753.235,264 756.31,258.422 758.803,252.32C764.615,267.007 768.561,282.457 777.28,295.827C779.97,299.95 782.083,293.181 781.301,290.86ZM181.295,228.574C178.849,228.001 176.4,227.452 173.951,226.907C173.634,226.661 173.258,226.513 172.809,226.541C172.676,226.549 172.543,226.551 172.41,226.558C151.515,221.96 130.505,218.319 109.358,214.941C107.009,214.566 107.387,219.021 108.087,220.109C108.213,220.304 108.344,220.494 108.47,220.689C108.515,221.048 108.585,221.356 108.669,221.57C111.162,227.864 115.355,232.805 119.949,237.47C130.11,251.547 141.198,264.928 153.331,277.391C155.638,279.761 156.94,273.751 155.27,271.945C155.038,271.695 154.812,271.438 154.581,271.187C154.531,270.57 154.38,269.994 154.106,269.557C148.839,261.184 142.842,253.266 136.14,245.988C131.21,239.22 126.403,232.363 121.721,225.419C122.108,225.428 122.495,225.447 122.882,225.464C129.678,226.7 136.498,227.843 143.33,228.933C152.336,231.096 161.327,233.408 170.633,233.201C174.057,233.741 177.478,234.289 180.892,234.854C183.397,235.269 183.613,229.116 181.295,228.574ZM705.135,263.572C697.096,248.447 689.514,232.831 680.689,218.126C679.4,214.791 677.433,211.928 674.579,209.478C671.825,207.113 670.9,213.114 672.06,214.769C681.464,228.195 685.678,244.329 693.192,258.757C684.457,256.429 675.528,254.88 666.637,253.161C658.446,251.09 650.235,249.088 642.01,247.081C638.712,246.277 638.25,252.813 640.967,253.781C649.079,256.675 657.459,258.464 665.889,260.05C677.574,263.241 689.192,266.71 700.755,270.224C702.173,270.655 703.025,269.855 703.44,268.667C705.387,268.628 705.86,264.935 705.135,263.572ZM395.847,233.605C397.02,219.742 397.641,205.833 397.16,191.931C396.976,186.618 391.442,186.74 391.479,192.07C391.492,193.948 391.491,195.826 391.488,197.703C391.378,213.061 390.093,228.337 388.769,243.626C385.26,241.411 382.222,237.931 379.229,235.379C374.891,231.682 370.462,228.09 365.951,224.605C361.438,221.119 356.844,217.74 352.171,214.474C349.952,212.923 347.713,211.401 345.449,209.918C342.52,207.252 339.546,204.652 336.463,202.209C335.644,201.561 335.014,201.827 334.605,202.469C334.095,202.823 333.675,203.549 333.472,204.753C332.436,210.929 337.898,213.165 342.317,216.183C343.49,216.984 344.659,217.792 345.826,218.601C350.753,223.53 355.874,228.288 360.848,233.058C370.164,241.991 379.668,250.72 389.3,259.311C391.313,261.107 393.267,258.421 393.484,256.575C393.641,255.239 393.795,253.903 393.947,252.566C394.472,251.996 394.81,251.201 394.865,250.4C395.246,244.804 395.568,239.205 395.847,233.605ZM67.045,196.209C67.04,196.208 67.035,196.207 67.03,196.207C67.054,195.859 67.092,195.515 67.111,195.167C67.334,191.168 62.944,189.989 62.038,194.25C59.035,208.382 56.453,222.727 52.832,236.759C52.407,238.253 51.981,239.746 51.556,241.239C51.458,241.582 51.37,241.881 51.287,242.151C41.223,229.582 31.541,214.452 18.325,204.695C17.46,203.17 16.589,201.65 15.75,200.11C14.695,198.174 13.256,199.405 12.618,201.11C10.84,200.97 10.531,205.376 11.435,206.432C14.153,209.609 16.761,212.886 19.325,216.201C27.906,230.926 37.589,244.97 48.389,258.191C49.804,259.922 51.646,259.315 52.385,257.304C56.106,247.197 58.799,236.77 61.09,226.241C63.897,216.415 66.316,206.55 67.02,196.337C67.028,196.295 67.037,196.252 67.045,196.209ZM871.954,225.501C853.22,214.639 834.573,203.609 815.668,193.048C815.222,192.799 814.838,192.855 814.52,193.089C813.875,192.85 813.186,192.668 812.428,192.573C809.836,192.25 809.831,198.348 812.578,198.696C815.65,199.085 817.286,201.721 819.263,203.72C821.009,205.487 822.934,206.986 825.031,208.312C829.236,210.971 833.893,212.724 838.239,215.111C845.157,218.912 850.738,224.702 857.183,229.139C842.074,234.918 826.342,240.477 813.06,249.452C811.026,250.826 811.201,257.063 814.361,255.752C833.632,247.754 852.877,239.704 872.103,231.603C874.421,230.626 873.771,226.555 871.954,225.501ZM280.078,225.367C280.626,223.772 280.652,221.456 280.075,220.534C274.07,210.938 266.068,202.883 257.368,195.482C257.063,195.206 256.776,194.915 256.467,194.644C250.129,189.102 243.304,184.061 236.478,179.06C236.089,178.763 235.705,178.465 235.317,178.167C232.423,175.692 229.5,173.248 226.517,170.871C226.102,170.539 225.723,170.385 225.376,170.355C223.414,169.117 222.27,172.176 222.226,173.723C221.968,182.89 221.714,192.069 221.533,201.251C221.318,205.628 221.1,210.005 220.888,214.382C220.272,227.089 219.096,239.963 221.608,252.537C222.25,255.748 225.653,255.701 226.117,252.427C227.012,246.11 226.557,239.82 226.048,233.534C226.166,225.695 226.245,217.855 226.325,210.015C227.055,205.706 227.983,201.437 228.209,197.045C228.492,191.574 227.879,186.118 228.062,180.664C245.669,195.182 261.735,211.416 275.974,229.273C278.419,232.339 280.831,227.91 280.099,225.43C280.093,225.409 280.084,225.389 280.078,225.367ZM975.725,220.293C969.719,210.415 963.714,200.536 957.709,190.658C952.444,181.997 947.693,172.562 940.683,165.152C939.636,164.046 938.058,164.834 937.391,165.884C931.831,174.638 927.867,184.334 923.985,193.918C921.075,201.1 917.787,208.302 915.053,215.643C913.508,218.845 911.967,222.047 910.389,225.236C909.583,226.865 909.236,229.371 910.528,230.891C911.545,232.089 913.378,232.557 914.241,230.8C922.454,214.072 930.35,197.153 937.845,180.085C948.368,196.104 959.734,211.591 971.956,226.352C975.365,230.469 977.434,223.104 975.725,220.293ZM566.44,208.536C548.914,201.55 530.925,194.086 514.37,184.807C524.677,179.425 534.967,173.618 544.064,166.673C549.066,163.448 554.028,160.159 558.94,156.804C558.941,156.804 558.942,156.803 558.943,156.803L558.943,156.802C559.178,156.641 559.416,156.483 559.651,156.322C562.56,154.33 560.791,146.635 557.142,148.08C557.136,148.051 557.13,148.023 557.125,147.994C546.571,154.069 536.267,160.555 525.997,167.092C520.968,170.291 515.816,173.385 510.987,176.882C509.738,177.786 508.649,178.781 507.815,179.901C505.063,181.339 502.302,182.761 499.525,184.15C497.073,185.377 497.045,190.622 499.709,191.659C521.467,200.123 543.179,208.643 565.222,216.352C568.924,217.646 569.565,209.781 566.44,208.536ZM787.766,158.8C787.418,158.439 787.046,158.098 786.692,157.743C786.547,157.344 786.378,157.01 786.187,156.801C779.787,149.807 772.238,144.451 764.303,139.513C762.075,137.882 759.854,136.258 757.679,134.621C747.511,126.971 737.431,119.183 727.147,111.691C726.122,110.944 725.305,111.174 724.712,111.813C723.293,111.636 722.064,113.521 721.931,114.865C719.895,135.408 719.667,155.906 719.758,176.466C718.759,179.687 717.841,182.911 717.766,186.343C717.73,187.995 718.776,189.143 719.841,189.358C719.849,190.3 719.856,191.241 719.864,192.184C719.895,196.429 724.155,196.204 724.339,192.073C724.587,186.559 724.826,181.04 725.067,175.519C725.395,174.451 725.702,173.384 725.943,172.315C727.187,166.786 727.81,161.121 727.879,155.456C727.935,150.825 727.209,145.866 726.735,140.904C727.048,135.27 727.389,129.638 727.774,124.013C727.843,123.807 727.908,123.6 727.984,123.395C732.727,127.275 737.652,130.887 742.733,134.288C746.623,137.907 750.395,141.692 754.487,145.02C763.685,152.5 773.816,158.368 784.545,163.355C785.402,163.753 786.01,163.615 786.423,163.169C786.496,163.206 786.569,163.247 786.642,163.284C788.867,164.41 788.694,159.763 787.766,158.8ZM652.311,187.12C652.069,184.371 651.819,181.623 651.572,178.875C652.019,178.282 652.283,177.384 652.182,176.17C651.496,167.875 650.47,159.625 649.091,151.43C648.316,142.805 647.555,134.178 646.854,125.545C646.738,124.107 645.009,120.008 643.008,122.347C633.355,133.625 621.959,143.077 610.847,152.827C605.713,156.028 600.855,159.557 596.941,164.148C596.591,164.558 596.363,165.375 596.267,166.306C595.363,167.21 594.464,168.12 593.58,169.045C591.971,170.724 592.915,176.341 595.739,174.282C599.44,171.583 603.007,168.672 606.509,165.673C618.21,157.922 629.974,150.266 641.667,142.504C641.678,142.544 641.689,142.584 641.699,142.624C642.919,157.883 645.337,173.123 647.793,188.167C648.43,192.059 652.623,190.67 652.311,187.12ZM353.892,134.892C352.45,130.986 344.173,129.294 340.659,127.847C334.688,125.387 328.692,122.989 322.671,120.654C320.554,119.833 318.433,119.012 316.308,118.194C304.487,112.669 292.658,107.16 280.722,101.881C277.881,100.624 277.307,106.775 279.179,108.04C280.713,109.077 282.254,110.094 283.803,111.095C283.993,111.44 284.254,111.713 284.588,111.854C284.977,112.018 285.366,112.18 285.754,112.343C297.687,119.909 310.108,126.353 323.61,130.937C325.615,131.618 327.666,132.182 329.711,132.761C332.589,134.153 335.463,135.551 338.335,136.954C338.273,137.041 338.208,137.128 338.123,137.221C338.024,138.475 335.293,141.011 334.592,141.951C331.838,145.64 329.085,149.329 326.331,153.018C319.081,161.902 311.832,170.788 304.41,179.525C302.602,181.654 304.007,188.92 307.071,185.982C316.554,176.889 326.04,167.798 335.541,158.724C340.289,154.189 345.068,149.685 349.786,145.118C352.601,142.394 355.458,139.134 353.892,134.892ZM195.659,156.385C193.756,156.904 191.829,157.365 189.885,157.784C189.788,157.772 189.697,157.748 189.593,157.751C173.183,158.208 157.157,160.529 141.337,164.64C148.06,148.272 154.408,131.285 159.109,114.366C159.806,111.855 157.674,105.397 154.765,109.509C150.047,116.179 147.687,123.952 145.71,131.878C144.572,134.701 143.442,137.527 142.301,140.344C138.79,149.019 135.691,158.103 131.803,166.678C131.765,166.754 131.731,166.833 131.697,166.915C130.951,168.551 130.186,170.174 129.373,171.765C128.258,173.947 128.468,179.468 132.153,178.536C143.273,175.725 154.277,172.812 165.549,170.607C176.133,168.536 186.784,166.633 197.16,163.656C200.17,162.792 199.252,155.402 195.659,156.385ZM0,149.732C2.574,150.999 5.154,152.255 7.739,153.501C13.38,155.923 18.936,158.508 24.332,161.348C26.879,162.524 26.603,169.051 23.286,168.06C15.412,165.707 7.653,162.788 0,159.597L0,149.732ZM476.265,83.645C475.924,83.948 475.607,84.454 475.343,85.214C475.342,85.215 475.342,85.216 475.342,85.217C464.568,104.191 456.881,124.591 452.578,145.946C439.905,129.171 427.491,112.204 414.721,95.501C412.792,92.978 411.365,96.368 411.703,98.674C411.074,99.966 410.919,101.936 411.679,103.048C425.355,123.083 440.119,142.627 452.939,163.215C454.133,165.132 456.303,164.147 456.883,162.34C464.565,138.374 472.111,114.361 479.376,90.265C479.513,90.025 479.642,89.783 479.779,89.544C481.339,86.823 478.582,80.483 476.265,83.645ZM1000,119.074L1000,131.319C995.529,135.288 990.553,138.693 986.264,142.847C990.828,145.177 995.406,147.472 1000,149.732L1000,159.597C991.943,156.237 984.005,152.576 976.172,148.952C973.753,147.832 973.86,143.943 975.426,142.205C982.872,133.934 991.359,126.376 1000,119.074ZM886.592,89.664C880.09,94.161 875.164,99.56 870.618,105.576C861.156,114.969 852.021,124.736 842.584,134.151C838.203,124.06 834.042,113.884 830.273,103.563C827.488,94.712 824.699,85.859 821.664,77.092C820.446,73.574 817.971,76.927 818.109,79.522C818.075,79.538 818.042,79.553 818.009,79.567C818.215,80.284 818.433,80.997 818.642,81.712C822.696,104.85 829.498,127.605 837.588,149.625C838.036,150.844 839.644,152.043 840.79,150.814C849.341,141.651 857.571,132.208 865.746,122.709C873.664,113.508 882.008,104.487 889.373,94.835C890.787,92.982 889.45,87.687 886.592,89.664ZM109.993,133.321C98.66,115.178 86.488,97.558 73.557,80.517C72.466,79.078 70.96,79.166 69.91,80.607C69.698,80.897 69.509,81.198 69.307,81.494C67.933,80.701 66.489,82.051 65.994,83.382C62.557,92.63 59.097,101.868 55.64,111.108C52.86,116.514 50.256,122.048 47.71,127.578C46.075,130.498 44.621,133.482 43.537,136.624C42.943,137.904 42.35,139.186 41.751,140.454C41.242,141.529 41.33,143.061 41.792,144.375C41.736,144.917 41.679,145.459 41.65,146.013C41.516,148.623 44.3,149.477 45.019,146.901C45.483,146.726 45.963,146.345 46.442,145.701C50.841,139.785 53.817,133.156 56.452,126.355C60.379,118.701 64.159,110.97 67.281,103.079C67.652,102.14 67.529,100.732 67.103,99.489C67.994,96.93 68.97,94.412 70.15,91.992C77.231,99.084 83.025,107.019 88.366,115.578C93.8,124.287 99.223,132.936 106.847,139.929C110.26,143.061 111.241,135.32 109.993,133.321ZM346.937,138.729C347.05,138.587 347.147,138.429 347.236,138.264C347.386,138.331 347.537,138.396 347.687,138.463C347.106,138.944 346.463,139.51 345.89,140.028C346.237,139.594 346.59,139.164 346.937,138.729ZM0,119.074C5.208,114.674 10.472,110.366 15.597,106.051C16.498,105.098 17.408,104.155 18.334,103.228C21.049,100.512 22.479,107.177 20.779,109.16C14.64,116.323 8.199,123.653 1.321,130.114C0.887,130.522 0.446,130.923 0,131.319L0,119.074ZM269.285,65.966C267.546,65.019 265.792,64.106 264.031,63.208C263.953,63.156 263.888,63.088 263.803,63.047C263.498,62.902 263.189,62.766 262.883,62.626C244.51,53.401 224.976,46.907 204.59,43.751C201.931,43.34 202.603,48.669 204.217,49.553C216.323,56.185 229.791,58.631 243.008,61.925C246.768,63.5 250.535,65.06 254.304,66.615C240.946,74.127 228.11,82.572 215.912,91.852C212.538,94.124 209.303,96.607 206.287,99.428C205.681,99.994 205.536,101.162 205.732,102.165C204.94,102.597 204.15,103.031 203.358,103.462C201.607,104.414 202.256,109.124 204.311,108.081C226.474,96.835 248.033,84.552 269.431,71.926C271.444,70.739 271.305,67.067 269.285,65.966ZM750.386,65.465C740.698,56.662 730.711,48.168 720.488,39.992C712.009,33.209 703.354,26.162 694.143,20.265C691.63,17.747 689.131,15.216 686.654,12.657C684.813,10.755 681.64,15.066 682.112,16.811C682.356,17.851 682.668,18.869 683.052,19.867C683.372,20.789 683.93,20.961 684.515,20.745C684.602,21.079 684.772,21.389 685.064,21.644C687.24,23.541 689.473,25.377 691.734,27.185C704.842,40.609 718.35,53.667 732.228,66.284C720.683,73.328 708.894,79.901 696.83,85.953C688.415,89.692 680.06,93.579 671.778,97.656C669.38,98.836 668.188,105.064 672.077,103.511C686.046,97.935 699.71,91.557 712.952,84.404C724.452,79.633 736.121,75.282 747.942,71.439C749.944,70.788 752.381,67.28 750.386,65.465ZM997.038,39.931C974.44,29.651 951.525,20.059 928.226,11.489C927.925,11.378 927.654,11.362 927.414,11.419C927.065,11.242 926.717,11.065 926.368,10.888C923.805,9.588 923.105,15.692 925.435,16.879L959.115,34.038C965.902,37.496 972.701,40.836 979.857,43.218C972.827,46.9 965.977,51.001 959.277,55.145C949.735,61.047 939.907,67.149 931.642,74.778C929.763,76.098 930.936,82.168 933.436,80.693C935.198,79.653 936.932,78.565 938.654,77.46C939.669,77.065 940.717,76.717 941.771,76.318C944.786,75.178 947.541,73.693 950.238,71.932C955.348,68.597 960.281,65.205 965.731,62.428C976.308,57.037 987.204,52.568 997.188,46.056C999.069,44.83 999.301,40.96 997.038,39.931ZM469.869,40.715C459.686,35.153 449.508,29.585 439.29,24.088C430.458,19.336 421.611,14.153 412.322,10.279C411.773,9.963 410.865,9.322 410.273,9.042C410.129,8.76 409.956,8.507 409.735,8.315C409.638,8.23 409.539,8.145 409.442,8.059C408.749,7.456 407.895,7.547 407.225,8.113C407.098,8.22 406.973,8.327 406.847,8.434C405.704,9.401 405.514,11.78 406.17,13.034C408.06,16.643 413.728,18.034 416.94,20.253C421.459,23.375 425.116,27.605 429.781,30.495C434.463,33.397 439.561,35.562 444.258,38.463C447.899,40.71 451.38,43.194 454.819,45.737C440.851,53.614 427.051,61.861 415.511,73.133C414.051,74.559 414.702,80.786 417.322,79.101C434.629,67.969 452.394,57.368 470.017,46.741C472.036,45.523 471.924,41.837 469.869,40.715ZM582.28,45.93C572.267,50.231 562.325,54.635 552.155,58.54C542.306,61.747 532.22,64.261 522.084,66.19C524.957,56.895 528.002,47.638 531.084,38.418C534.717,27.548 539.886,16.694 542.376,5.52C542.842,3.427 540.366,-0.902 538.488,2.239C533.672,10.296 530.82,20.124 527.923,29.313C521.984,43.773 516.773,58.496 511.429,73.27C510.96,74.569 511.169,79.157 513.61,78.652C525.566,76.179 537.295,72.06 548.741,67.869C560.627,63.517 572.474,58.783 583.74,52.999C586.58,51.774 585.543,44.528 582.28,45.93ZM740.849,66.76C741.194,67.065 741.538,67.369 741.884,67.673C741.066,67.975 740.246,68.269 739.43,68.574C739.952,68.086 740.466,67.451 740.849,66.76ZM813.292,0C808.675,16.546 799.418,31.499 792.378,47.259C791.141,50.856 789.912,54.459 788.689,58.069C788.381,58.982 787.948,59.475 787.477,59.682C785.499,64.605 781.65,59.14 782.82,55.695C783.539,53.579 784.332,51.487 785.177,49.414C786.267,46.508 787.354,43.602 788.452,40.7C792.594,26.896 797.599,13.324 803.158,0L813.292,0ZM835.961,0C846.667,15.647 856.666,31.763 865.962,48.308C867.004,50.162 866.17,57.927 862.91,54.717C853.537,45.485 846.077,34.214 838.117,23.786C832.075,15.869 826.052,7.938 820.038,0L827.986,0L829.649,2.174C829.141,1.448 828.632,0.723 828.122,0L835.961,0ZM333.578,0C331.199,3.578 328.654,7.072 326.14,10.582C324.631,13.144 323.183,15.741 321.77,18.356C317.332,27.294 313.047,36.318 308.774,45.374C307.084,48.955 304.462,45.007 305.335,42.46C305.598,41.692 305.878,40.929 306.15,40.163C305.918,39.466 305.825,38.765 305.943,38.234C308.41,27.097 313.642,17.103 319.918,7.654C320.132,7.333 320.335,7.013 320.548,6.693C321.673,4.45 322.823,2.22 323.994,0L333.578,0ZM358.283,0C363.02,13.127 366.995,26.528 370.2,40.142C370.985,43.475 367.623,47.568 365.472,43.344C360.065,32.725 354.816,22.056 351.757,10.486C350.839,7.015 350.082,3.491 349.258,0L358.283,0ZM85.576,0C78.717,8.505 72.001,17.1 66.107,26.348C84.185,30.805 102.646,33.617 121.238,34.66C122.111,34.71 122.739,35.292 123.138,36.093C123.959,36.154 124.781,36.227 125.602,36.285C129.081,36.532 129.29,44.142 125.795,44.145C101.346,44.166 76.923,42.245 52.813,38.183C50.089,37.724 49.457,33.67 50.855,31.625C58.385,20.613 66.542,10.059 75.271,0L85.576,0ZM215.146,0C214.287,2.356 213.432,4.713 212.582,7.071C212.049,8.825 211.506,10.576 210.927,12.313C210.495,13.613 210.015,14.85 209.407,15.979C208.401,18.836 207.405,21.696 206.424,24.562C205.588,27.007 203.437,26.622 202.382,24.661C197.995,16.505 193.729,8.275 189.543,0L198.005,0C199.841,3.526 201.655,7.07 203.446,10.631C205.008,7.091 206.562,3.549 208.1,0L215.146,0ZM616.78,0C617.779,0.626 618.775,1.255 619.766,1.887C627.884,7.071 635.91,12.484 644.315,17.195C646.849,18.615 646.341,25.662 643.231,24.154C627.394,16.473 612.268,6.962 596.064,0L616.78,0Z" style="fill-rule:nonzero;"/>
</svg>
