<?xml version="1.0" encoding="UTF-8" standalone="no"?>
<!DOCTYPE svg PUBLIC "-//W3C//DTD SVG 1.1//EN" "http://www.w3.org/Graphics/SVG/1.1/DTD/svg11.dtd">
<svg width="100%" height="100%" viewBox="0 0 1000 1000" version="1.1" xmlns="http://www.w3.org/2000/svg" xmlns:xlink="http://www.w3.org/1999/xlink" xml:space="preserve" xmlns:serif="http://www.serif.com/" style="fill-rule:evenodd;clip-rule:evenodd;stroke-linejoin:round;stroke-miterlimit:2;">
    <path d="M76.319,1000C74.355,995.779 72.944,991.205 72.174,986.36C70.442,975.459 71.835,963.792 76.91,953.926C81.603,944.8 90.639,935.215 101.487,936.337C116.92,931.383 135.044,932.785 150.416,937.137C162.84,940.655 171.695,947.255 174.543,960.323C176.931,971.279 175.36,983.188 171.209,993.528C170.313,995.759 169.287,997.92 168.139,1000L162.558,1000C164.038,997.926 165.38,995.734 166.568,993.435C171.041,984.781 173.562,974.475 171.917,964.747C169.912,952.891 160.643,947.53 149.934,944.529C138.592,941.35 126.722,940.36 114.997,941.373C109.073,941.885 102.728,942.637 97.374,945.401C92.484,947.925 87.165,953.205 89.112,959.222C89.465,960.314 88.476,965.063 87.37,962.485C85.561,958.268 85.443,954.141 86.561,950.423C75.426,960.861 71.682,978.478 77.782,993.612C78.69,995.866 79.782,997.998 81.033,1000L76.319,1000ZM896.065,1000C898.156,995.897 900.899,992.134 904.255,988.888C914.033,979.432 936.432,969.459 943.821,986.509C945.637,990.699 946.801,995.265 947.408,1000L944.336,1000C943.523,993.627 941.387,987.327 936.137,985.048C928.924,981.916 918.301,986.442 912.16,990.23C907.99,992.801 904.281,996.118 901.316,1000L896.065,1000ZM557.158,1000C549.232,988.2 546.338,972.939 550.415,958.017C555.773,938.407 572.536,925.891 591.065,918.434C595.693,914.646 601.042,911.566 606.615,909.154C621.082,902.892 640.767,895.669 655.624,904.527C666.96,911.284 671.371,925.346 672.639,937.744C674.217,953.181 672.413,969.49 666.166,983.78C663.631,989.578 660.304,995.09 656.267,1000L648.864,1000C656.147,993.371 661.69,984.905 665.191,975.678C673.363,954.139 674.715,910.758 643.345,907.988C634.157,907.177 624.374,909.457 615.318,912.81C615.942,914.576 615.787,917.788 614.65,918.225C606.383,921.402 597.216,924.356 588.49,928.058C583.276,933.089 579.388,939.294 578.086,946.801C577.574,949.755 575.969,946.368 576.096,944.972C576.523,940.283 577.809,936.014 579.757,932.15C566.621,939.019 555.744,948.609 552.491,964.805C549.914,977.638 554.208,990.592 562.945,1000L557.158,1000ZM400.667,863.406C406.704,852.018 417.1,842.809 429.252,838.699C438.251,835.654 449.891,834.641 458.116,840.31C466.14,845.839 469.068,856.501 470.079,865.674C472.302,885.864 464.923,908.1 446.537,918.576C429.266,928.415 407.084,925.515 395.328,908.739C390.124,901.314 387.664,892.094 388.706,883.07C389.538,875.866 393.25,866.059 400.667,863.406ZM396.382,874.559C392.139,879.934 390.165,886.325 392.336,894.052C394.789,902.785 401.523,910.217 409.509,914.312C423.892,921.686 441.807,917.224 453.292,906.558C466.302,894.477 471.405,873.003 464.436,856.494C457.016,838.916 434.54,842.28 421.049,850.187C407.556,858.097 398.878,871.726 397.039,887.18C396.725,889.821 395.162,888.571 395.096,886.63C394.956,882.542 395.412,878.488 396.382,874.559ZM766.596,787.868C769.323,786.5 772.199,785.344 775.146,784.345C786.395,780.53 799.894,776.502 811.809,778.954C822.685,781.191 828.662,789.671 831.381,799.916C834.113,810.213 835.757,821.97 834.323,832.59C831.08,856.599 807.454,861.89 786.838,862.984C774.516,863.637 761.461,862.155 751.63,854.02C744.064,847.76 739.081,838.732 737.405,829.091C735.762,819.634 737.434,809.853 742.248,801.538C747.009,793.316 755.738,784.776 765.682,784.166C766.757,784.101 767.002,786.515 766.596,787.868ZM759.448,792.264C753.17,795.894 747.654,800.122 743.759,806.904C737.761,817.349 738.412,829.612 744.857,839.698C756.477,857.887 778.747,858.39 798.021,855.769C806.277,854.646 814.855,852.649 821.691,847.644C831.383,840.549 832.831,829.217 831.585,818.007C830.591,809.064 829.427,797.969 822.717,791.304C815.508,784.145 804.538,784.714 795.288,786.253C779.439,788.888 759.697,793.712 750.756,808.366C749.729,810.049 748.873,805.445 749.337,804.472C751.761,799.399 755.269,795.428 759.448,792.264ZM125.351,814.648C125.374,814.343 125.402,814.075 125.432,813.854C126.448,806.324 130.063,799.465 135.475,794.168C146.194,783.675 162.102,781.771 174.783,789.936C186.239,797.313 193.7,812.269 189.787,825.833C187.583,833.471 181.645,836.721 174.409,838.786C165.384,841.362 155.703,843.985 146.244,842.778C133.544,841.156 120.926,829.477 124.476,815.765C124.703,814.886 125.029,814.594 125.351,814.648ZM129.292,827.146C135.534,836.176 150.836,837.348 161.261,835.274C168.13,833.906 177.317,832.411 182.96,827.99C190.431,822.138 187.638,811.908 182.831,805.34C174.885,794.483 160.342,789.485 147.6,794.307C141.696,796.542 136.459,800.615 132.828,805.773C130.998,808.369 129.491,811.284 128.62,814.351C127.352,818.816 128.653,821.663 130.873,825.424C131.033,825.695 131.144,826.736 130.74,826.89C130.209,827.094 129.728,827.173 129.292,827.146ZM0,676.238C2.102,676.345 4.193,676.632 6.239,677.096C22.883,680.87 38.394,695.691 44.722,711.368C47.618,718.54 47.732,727.108 42.408,733.198C37.359,738.972 29.152,741.509 21.721,742.066C14.329,742.62 6.833,741.182 0,738.19L0,731.461C12.306,737.039 29.707,738.359 40.037,728.564C48.971,720.091 39.271,707.805 33.075,700.628C27.589,694.276 20.838,688.73 12.973,685.619C8.807,683.97 4.417,683.112 0,683.023L0,676.238ZM290.964,678.719C290.703,705.901 312.253,728.874 339.297,731.566C352.204,732.851 364.915,729.179 377.066,725.26C388.394,721.608 401.394,717.898 408.359,707.407C423.043,685.287 405.344,659.325 390.464,642.76C382.659,634.071 373.264,628.662 361.42,628.21C350.818,627.806 340.204,631.101 331.329,636.822C311.56,649.562 303.447,672.253 296.315,693.472C295.494,695.913 294.4,691.555 294.594,690.597C300.08,663.493 314.641,633.507 342.664,624.177C353.904,620.436 366.579,620.187 377.381,625.484C388.897,631.13 397.827,643.376 404.719,653.831C417.07,672.567 423.726,702.064 404.668,719.145C394.492,728.266 378.468,732.088 365.575,735.526C351.851,739.184 337.859,740.023 324.417,734.836C300.104,725.455 286.077,700.305 288.068,674.748C288.112,674.182 288.476,672.034 289.465,672.166C290.826,672.349 292.168,672.585 293.52,672.824C295.166,673.114 295.144,677.408 293.644,677.884C292.75,678.168 291.86,678.452 290.964,678.719ZM1000,738.19C992.292,734.814 985.426,729.46 980.5,722.753C976.34,717.088 972.894,709.92 972.713,702.786C972.675,701.279 972.744,699.618 973.012,698.014C972.973,698.056 972.93,698.093 972.882,698.125C972.286,698.524 972.231,698.579 971.615,698.712C971.351,698.692 971.144,698.57 970.993,698.348C966.56,692.175 974.867,684.522 979.466,681.533C985.515,677.6 992.821,675.871 1000,676.238L1000,683.024C996.649,682.956 993.281,683.332 989.984,684.143C986.173,685.08 982.524,686.695 979.328,688.979C978.725,689.41 977.396,690.494 976.104,691.68C977.188,690.8 978.596,690.284 980.409,690.324C981.799,690.354 981.774,694.29 980.515,694.635C970.819,697.284 977.658,710.812 981.085,715.765C985.31,721.87 991.028,726.806 997.58,730.275C998.361,730.688 999.17,731.085 1000,731.461L1000,738.19ZM975.468,692.275C973.939,693.737 972.649,695.215 972.96,695.724C973.101,695.955 973.226,696.327 973.277,696.716C973.698,695.006 974.387,693.433 975.468,692.275ZM645.069,597.265C644.394,584.407 662.832,580.455 672.764,580.839C684.809,581.305 693.714,592.624 686.399,603.809C673.711,623.207 632.862,612.613 643.418,587.177C644.006,585.76 642.879,580.241 641.523,583.112C637.181,592.312 638.824,604.606 645.715,612.172C653.987,621.255 669.224,622.31 679.708,616.664C689.536,611.371 693.725,600.109 691.394,589.426C688.608,576.658 676.778,572.028 664.728,574.241C658.407,575.402 651.168,577.546 646.759,582.5C643.178,586.524 641.148,593.558 643.773,598.557C644.503,599.946 645.106,597.967 645.069,597.265ZM69.178,470.661C69.04,470.648 68.889,470.541 68.727,470.315C51.717,446.581 65.845,414.438 88.087,400.058C108.808,386.661 137.358,386.393 154.365,405.841C168.705,422.237 172.252,446.998 166.8,467.625C160.513,491.412 140.884,513.403 114.356,511.084C100.944,509.911 90.651,501.458 82.391,491.403C77.198,485.082 72.719,478.087 69.178,470.661ZM64.77,451.28C65.187,451.063 65.665,451.407 66.128,452.74C74.105,475.712 91.562,505.511 119.548,504.184C164.958,502.033 181.156,436.683 149.182,408.359C117.892,380.642 59.799,412.687 64.77,451.28ZM382.088,417.601C383.122,404.246 389.607,391.39 401.357,384.169C410.557,378.515 421.994,376.612 432.525,378.941C444.096,381.501 453.005,388.895 459.717,398.434C467.287,409.196 473.358,421.813 476.666,434.559C479.622,445.951 481.201,460.136 474.887,470.741C462.424,491.672 428.86,486.063 410.721,477.419C399.866,472.245 388.588,464.14 383.438,452.89C378.476,442.053 379.395,429.052 382.088,417.601ZM383.475,433.549C383.22,441.211 384.555,448.499 390.389,455.347C398.143,464.449 409.604,470.826 420.88,474.421C436.914,479.533 466.346,481.891 474.317,462.41C478.856,451.316 474.638,437.398 470.25,426.928C466.019,416.832 460.646,406.501 453.111,398.456C440.195,384.666 418.686,381.675 402.415,391.446C385.42,401.651 379.98,424.531 390.221,441.409C391.026,442.735 390.263,448.233 389.076,446.404C386.52,442.461 384.656,438.102 383.475,433.549ZM788.322,414.413C789.565,407.215 792.827,400.192 796.762,394.145C804.836,381.738 816.39,370.005 829.944,363.744C842.507,357.942 856.646,357.331 869.906,361.022C882.37,364.491 896.262,371.354 901.379,384.012C905.979,395.393 905.418,409.471 903.483,421.376C901.509,433.529 896.767,445.515 887.938,454.33C878.428,463.826 865.242,468.466 852.132,470.146C839.315,471.788 824.795,471.52 813.231,465.059C801.528,458.52 796.477,445.83 791.878,433.917C791.598,434.393 791.222,434.427 790.774,433.53C788.986,429.951 788.072,426.224 787.841,422.466C784.793,412.374 783.306,401.882 786.44,391.524C787.398,388.36 788.83,392.434 788.411,394.032C786.652,400.729 786.93,407.613 788.322,414.413ZM790.797,423.529C792.796,429.569 795.365,435.436 797.816,440.924C803.587,453.842 812.991,461.945 827.05,464.384C847.855,467.994 874.281,463.271 888.706,446.765C896.175,438.22 900.051,427.139 901.376,415.991C902.733,404.562 903.118,390.01 894.705,381.064C886.58,372.424 873.019,367.587 861.542,366.117C850.018,364.641 838.427,366.519 828.168,372.046C818.394,377.312 810.169,385.005 803.233,393.602C796.55,401.888 789.806,412.637 790.797,423.529ZM605.386,310.004C609.065,298.095 616.945,287.341 627.257,280.67C634.806,275.786 644.763,272.182 653.818,274.031C662.92,275.889 667.813,283.445 671.522,291.312C679.744,308.751 682.403,329.077 669.339,344.989C657.661,359.213 636.731,362.775 620.82,353.511C612.591,348.72 606.961,341.019 604.031,332.307C603.796,332.045 603.602,331.556 603.498,330.784C603.485,330.681 603.471,330.577 603.458,330.47C601.376,323.26 601.093,315.467 602.663,308.12C603.424,304.557 605.039,307.543 605.386,310.004ZM605.904,326.644C609.315,338.613 619.616,348.317 632.286,351.035C647.23,354.241 662.617,347.806 670.57,334.721C675.122,327.231 676.545,318.745 674.447,310.224C672.582,302.65 669.036,293.902 664.002,287.826C653.178,274.762 633.235,283.09 622.68,292.172C612.385,301.031 606.685,313.339 605.904,326.644ZM1000,199.23L1000,204.821C994.077,205.773 988.328,207.755 983.257,210.984C970.184,219.311 961.063,237.587 969.374,252.209C975.412,262.832 987.958,268.391 1000,268.185L1000,273.846C984.115,274.11 968.358,264.037 964.605,248.048C960.689,231.36 969.406,212.823 984.246,204.51C989.146,201.766 994.497,200.054 1000,199.23ZM0,199.23C1.042,199.074 2.091,198.95 3.144,198.857C3.279,197.936 3.634,197.223 4.167,197.307L16.331,199.232C17.096,199.339 17.859,199.46 18.62,199.594L27.676,201.026C32.269,201.753 39.852,201.332 43.143,205.207C46.102,208.691 46.528,215.063 46.677,219.374C46.872,225.017 45.996,230.66 44.34,236.046C38.86,253.872 24.194,270.296 5.164,273.388C3.45,273.667 1.723,273.817 0,273.846L0,268.185C2.652,268.14 5.278,267.816 7.806,267.204C23.587,263.388 36.028,250.072 41.484,235.14C43.469,229.708 44.599,223.899 44.114,218.107C43.9,215.558 43.733,212.028 42.045,210.001C41.524,209.377 40.839,208.931 40.064,208.602C40.307,208.936 40.533,209.292 40.741,209.67C41.363,210.803 40.686,215.214 39.376,213.019C36.955,208.966 28.574,207.229 24.389,206.154C19.867,204.993 15.217,204.307 10.55,204.163C7.041,204.055 3.491,204.259 0,204.821L0,199.23ZM188.045,231.075C178.767,213.005 179.705,189.774 189.68,172.225C195.247,162.43 204.104,153.117 214.804,149.064C226.845,144.504 239.689,149.169 249.323,156.846C270.466,173.691 275.051,199.937 274.136,225.549C273.719,237.205 272.217,249.582 265.225,259.314C257.524,270.033 245.622,273.205 233.081,269.91C226.586,268.203 220.452,265.364 214.417,262.472C209.072,259.911 203.686,257.233 199.107,253.413C192.522,247.921 187.781,239.663 188.045,231.075ZM193.829,239.99C197.774,246.509 205.35,251.143 212.106,254.567C222.546,259.858 234.64,266.277 246.732,264.471C271.394,260.787 272.314,229.129 271.15,209.982C269.836,188.368 259.374,166.843 238.74,157.629C218.34,148.519 198.829,163.138 189.955,181.304C182.887,195.773 183.447,210.963 189.37,224.708C190.315,223.649 191.436,226.663 191.256,228.12C191.237,228.277 191.219,228.434 191.204,228.59C193.096,232.265 195.372,235.818 197.986,239.203C198.765,240.211 198.493,245.08 196.991,243.546C195.875,242.406 194.821,241.219 193.829,239.99ZM723.112,112.292C725.252,107.139 728.545,102.341 732.223,97.982C739.848,88.944 749.181,80.824 760.681,77.328C780.157,71.409 800.247,82.9 809.194,100.343C817.995,117.497 814.332,138.55 802.481,153.298C789.065,169.994 766.038,178.408 746.826,166.335C734.183,158.39 725.733,145.155 722.455,130.76C722.085,131.528 721.565,131.86 721.246,130.447C720.404,126.711 720.379,123.084 720.97,119.589C720.887,117.482 720.915,115.374 721.057,113.277C721.247,110.463 722.391,110.902 723.112,112.292ZM723.76,119.873C724.944,139.015 737.029,157.863 755.466,164.505C772.834,170.76 792.002,160.471 802.351,146.498C813.342,131.659 814.625,112.471 802.682,97.795C791.971,84.631 774.373,78.762 758.309,85.025C750.17,88.199 742.978,93.801 736.987,100.074C731.768,105.541 726.039,112.331 723.76,119.873ZM449.864,97.219C451.646,92.2 454.063,87.427 457.399,83.472C464.639,74.891 474.391,74.35 484.924,75.772C495.328,77.178 504.958,80.845 511.171,89.735C515.904,96.509 518.033,104.63 517.893,112.846C517.611,129.515 507.85,145.785 491.732,151.395C474.771,157.297 454.442,151.388 443.294,137.291C437.944,130.525 434.77,121.765 436.04,113.096C437.222,105.038 441.76,98.462 449.864,97.219ZM448.649,100.996C439.652,105.839 436.058,116.709 440.409,126.183C444.094,134.209 451.181,140.439 459.082,144.149C471.995,150.21 488.273,150.012 500.132,141.599C511.816,133.311 518.508,117.256 514.25,103.29C508.959,85.934 489.191,79.891 472.676,81.979C456.845,83.981 452.359,100.367 448.412,113.314C447.41,116.601 446.149,112.298 446.417,110.775C446.98,107.574 447.699,104.264 448.649,100.996ZM947.408,0C949.054,12.817 946.622,26.865 942.008,38.006C939.063,45.118 934.557,52.643 927.365,56.1C919.648,59.809 911.277,57.101 904.891,52.039C893.062,42.662 885.461,24.836 888.702,9.789C889.16,7.661 890.362,9.597 890.378,10.773C890.426,14.129 890.596,17.376 891.021,20.532C891.121,17.483 891.503,14.518 891.992,11.952C892.789,7.773 894.156,3.745 896.065,0L901.316,0C899.394,2.517 897.785,5.27 896.563,8.214C892.834,17.201 894.066,25.499 895.384,34.747C895.919,35.76 896.51,36.766 897.162,37.767C901.835,44.927 909.258,51.818 918.218,52.369C937.41,53.547 944.277,26.019 944.735,11.573C944.834,8.438 944.873,4.203 944.336,0L947.408,0ZM168.139,0C158.068,18.262 138.725,30.225 117.296,28.353C98.903,26.746 83.702,15.862 76.319,0L81.033,0C89.501,13.559 105.3,21.274 121.36,21.421C138.023,21.574 153.105,13.243 162.557,0L168.139,0ZM656.267,0C651.401,5.918 645.504,10.962 638.718,14.58C624.372,22.229 605.836,23.152 590.007,20.79C575.842,18.677 564.401,10.783 557.158,0L562.945,0C563.924,1.054 564.958,2.063 566.045,3.023C576.446,12.207 589.603,14.644 603.122,14.703C616.538,14.763 630.11,13.03 641.596,5.606C644.18,3.935 646.606,2.056 648.864,0L656.267,0Z" style="fill-rule:nonzero;"/>
</svg>
