<?xml version="1.0" encoding="UTF-8" standalone="no"?>
<!DOCTYPE svg PUBLIC "-//W3C//DTD SVG 1.1//EN" "http://www.w3.org/Graphics/SVG/1.1/DTD/svg11.dtd">
<svg width="100%" height="100%" viewBox="0 0 1000 1000" version="1.1" xmlns="http://www.w3.org/2000/svg" xmlns:xlink="http://www.w3.org/1999/xlink" xml:space="preserve" xmlns:serif="http://www.serif.com/" style="fill-rule:evenodd;clip-rule:evenodd;stroke-linejoin:round;stroke-miterlimit:2;">
    <g id="Layer-1" serif:id="Layer 1">
    </g>
    <path d="M881.276,1000C882.601,997.734 883.927,995.471 885.253,993.207C885.955,992.009 886.843,993.983 886.362,994.81L883.342,1000L881.276,1000ZM338.344,1000C339.058,998.676 339.779,997.36 340.495,996.052C343.938,989.764 347.459,983.483 350.128,976.815C352.759,970.245 353.921,963.189 356.643,956.662C359.03,950.934 362.885,946.232 367.068,941.724C369.346,939.269 371.707,936.887 373.879,934.336C375.985,931.863 377.628,928.132 380.11,926.109C380.15,926.077 380.173,926.143 380.168,926.173C379.377,931.151 374.659,935.628 371.386,939.232C366.218,944.924 360.704,950.332 357.7,957.557C354.983,964.093 353.84,971.164 351.229,977.748C348.91,983.594 345.939,989.16 342.944,994.68C341.993,996.434 341.014,998.207 340.036,1000L338.344,1000ZM1000,927.578C977.932,921.077 958.135,909.686 947.088,887.621C944.894,883.239 942.916,878.759 939.887,874.863C936.818,870.918 933.09,867.565 929.272,864.367C922.628,858.799 915.954,853.232 909.193,847.807C896.255,837.424 880.495,825.937 862.939,827.977C845.536,829.999 834.318,844.585 828.07,859.77C821.653,875.367 820.035,892.388 814.44,908.253C808.783,924.294 798.728,935.583 784.519,944.726C768.022,955.343 750.999,965.636 733.42,974.362C718.136,981.948 699.063,986.184 686.554,998.329C685.994,998.874 685.456,999.43 684.939,1000L682.656,1000C682.843,999.77 683.033,999.542 683.226,999.316C689.074,992.471 697.135,988.128 705.273,984.587C715.112,980.307 725.088,976.537 734.68,971.687C753.043,962.405 771.326,951.672 788.132,939.786C796.035,934.195 802.93,927.642 807.716,919.14C812.475,910.685 815.175,901.248 817.468,891.877C823.841,865.835 832.534,824.878 867.266,825.764C883.723,826.183 898.111,836.772 910.408,846.677C923.92,857.561 938.899,867.736 946.721,883.646C955.142,900.779 968.489,912.754 985.927,920.449C990.518,922.475 995.221,924.149 1000,925.553L1000,927.578ZM51.077,775.141C55.819,814.795 69.585,851.607 85.05,888.15C88.062,895.268 91.029,902.662 96.057,908.643C100.849,914.342 107.179,917.552 114.262,919.522C123.386,922.058 132.796,923.645 141.995,925.903C151.469,928.227 160.885,930.782 170.234,933.567C191.682,939.956 212.553,947.768 233.256,956.235C234.089,956.575 234.257,954.734 233.539,954.418C199.333,939.387 163.159,928.205 126.673,920.283C118.406,918.487 109.644,917.137 102.516,912.256C95.221,907.259 91.252,898.897 87.856,891.024C80.469,873.901 73.232,856.643 67.152,839.006C59.943,818.095 55.073,796.628 51.958,774.745C51.826,773.813 50.991,774.416 51.077,775.141ZM654.352,849.263C651.421,866.664 634.068,878.004 621.462,888.527C608.16,899.632 594.645,910.497 580.382,920.354C572.596,925.736 564.573,930.786 556.27,935.335C548.553,939.563 540.182,944.297 531.067,943.115C521.518,941.875 512.184,936.043 503.581,932.016C494.783,927.897 486.065,923.246 477.011,919.734C476.114,919.386 476.065,921.226 476.722,921.587C483.839,925.508 491.462,928.655 498.82,932.103C506.325,935.619 513.761,939.445 521.437,942.576C527.522,945.058 533.719,946.367 540.23,944.806C547.469,943.071 554.212,938.975 560.618,935.312C586.418,920.556 609.203,901.289 631.738,882.072C642.04,873.285 653.092,863.739 655.402,849.673C655.543,848.808 654.533,848.19 654.352,849.263ZM0,925.553C15.217,930.025 31.223,931.776 46.937,933.512C48.045,933.634 48.043,936.09 46.998,935.972C31.683,934.241 15.294,932.085 0,927.578L0,925.553ZM142.502,831.838C157.79,823.061 173.873,818.017 191.568,817.407C209.885,816.776 227.999,820.563 245.466,825.778C254.613,828.51 263.647,831.624 272.658,834.774C280.544,837.53 288.64,840.097 295.977,844.16C310.22,852.049 317.381,868.421 333.967,872.387C349.712,876.151 366.236,870.326 380.808,864.753C381.74,864.397 381.417,862.052 380.336,862.467C366.044,867.944 349.777,873.784 334.322,870.114C325.38,867.991 319.008,862.486 313.066,855.743C307.943,849.932 302.489,845.035 295.631,841.348C288.192,837.348 280.09,834.698 272.159,831.87C263.162,828.661 254.136,825.534 244.969,822.842C228.169,817.908 210.75,814.306 193.16,814.692C175.272,815.083 156.713,819.65 141.986,830.136C141.452,830.516 141.772,832.257 142.502,831.838ZM796.865,830.986C786.331,821.657 773.567,814.201 761.273,807.434C748.076,800.17 734.302,793.977 720.125,788.888C706.012,783.822 691.554,780.85 677.136,776.928C662.433,772.929 651.976,761.6 638.762,754.564C624.265,746.845 608.339,742.285 591.993,740.879C591.288,740.818 591.295,742.456 592.034,742.518C611.386,744.17 630.137,750.355 646.55,760.781C653.951,765.482 660.396,771.869 668.486,775.415C677.124,779.2 686.784,780.36 695.872,782.672C713.824,787.239 731.304,793.605 748.001,801.628C756.842,805.876 765.464,810.583 773.813,815.731C781.69,820.589 789.016,826.218 796.78,831.224C796.909,831.307 796.945,831.057 796.865,830.986ZM260.817,695.125C274.946,708.435 289.545,722.356 307.721,729.931C316.23,733.477 325.508,735.64 334.758,735.53C344.644,735.413 352.702,732.019 361.647,728.261C372.719,723.61 382.805,725.858 394.004,728.813C401.769,730.862 409.503,733.189 416.877,736.399C424.454,739.697 431.789,743.955 437.527,749.985C444.605,757.422 446.525,766.324 449.418,775.843C454.978,794.141 472.035,802.875 488.31,810.246C489.349,810.717 489.61,808.324 488.675,807.901C480.737,804.306 472.735,800.574 465.754,795.288C457.179,788.796 452.475,780.898 449.8,770.534C447.835,762.92 445.421,755.931 440.291,749.827C435.703,744.369 429.831,740.181 423.568,736.847C416.492,733.079 408.88,730.391 401.206,728.131C392.97,725.704 384.186,722.864 375.547,722.634C365.942,722.377 358.333,727.82 349.537,730.69C339.336,734.021 328.222,733.663 317.921,730.979C295.455,725.124 277.903,709.061 261.338,693.661C260.686,693.055 260.32,694.657 260.817,695.125ZM770.747,694.873C776.275,709.895 791.866,716.362 805.814,721.413C814.739,724.645 823.666,727.897 831.227,733.804C837.343,738.58 842.812,743.521 850.787,744.669C866.393,746.916 880.957,736.901 890.477,725.496C895.998,718.883 900.588,711.573 905.497,704.513C911.349,696.098 918.177,688.75 925.059,681.193C938.315,666.642 946.795,649.519 948.245,629.715C948.348,628.311 946.655,627.253 946.521,629.041C945.166,647.1 937.849,663.31 925.876,676.804C920.673,682.669 915.064,688.166 910.187,694.317C905.068,700.775 900.685,707.766 895.943,714.495C886.608,727.741 874.381,741.011 857.154,742.355C848.467,743.034 841.692,739.558 835.088,734.25C829.295,729.595 823.398,725.931 816.495,723.112C800.082,716.413 779.161,712.316 771.722,693.961C771.284,692.882 770.474,694.129 770.747,694.873ZM58.878,650.786C71.144,659.937 83.582,668.859 95.962,677.855C106.681,685.644 117.42,695.021 129.707,700.28C138.947,704.235 149.195,704.407 157.777,698.777C165.487,693.72 170.586,685.457 174.426,677.279C176.564,672.725 178.376,668.018 179.964,663.247C182.255,656.365 183.607,648.924 190.385,644.983C195.271,642.144 201.114,641.089 206.433,639.317C213.196,637.065 219.813,634.37 226.225,631.257C247.935,620.717 268.491,605.476 278.985,583.148C285.753,568.746 289.287,552.876 293.555,537.614C298.034,521.596 302.769,505.624 306.807,489.488C307.086,488.376 305.623,486.921 305.141,488.475C296.755,515.507 290.865,543.382 281.818,570.199C277.565,582.808 271.425,594.202 262.043,603.74C253.336,612.592 242.948,619.676 232.068,625.582C220.71,631.748 208.857,635.842 196.628,639.846C192.443,641.217 188.254,642.973 185.275,646.345C181.89,650.178 180.728,655.423 179.207,660.154C173.35,678.375 163.013,704.405 139.311,701.35C124.354,699.422 111.462,687.288 99.677,678.831C86.202,669.162 72.79,659.398 59.193,649.901C58.739,649.584 58.546,650.539 58.878,650.786ZM543.404,672.293C559.552,663.618 576.559,660.546 594.762,660.112C612.798,659.683 630.849,661.202 648.872,660.048C666.863,658.895 682.703,654.105 698.418,645.314C706.143,640.993 713.807,636.374 722.216,633.483C726.975,631.847 731.874,630.894 736.905,630.769C741.915,630.645 746.952,631.253 751.904,630.218C761.225,628.271 768.074,620.851 774.727,614.587C783.777,606.067 793.09,597.77 801.899,589.003C802.486,588.418 802.027,586.431 801.156,587.199C793.043,594.358 785.321,601.989 777.415,609.376C770.642,615.703 763.693,623.832 754.73,627.001C745.675,630.204 735.591,627.368 726.251,629.732C717.672,631.904 709.855,636.216 702.198,640.528C694.241,645.01 686.318,649.547 677.616,652.448C669.072,655.297 660.125,656.734 651.166,657.441C633.421,658.843 615.622,657.426 597.855,657.659C579.203,657.904 559,659.884 543.017,670.419C542.379,670.84 542.556,672.749 543.404,672.293ZM480.149,663.885C475.383,647.611 467.697,632.216 463.981,615.635C461.868,606.207 461.243,596.281 464.013,586.91C466.761,577.616 472.721,573.047 481.298,569.432C508.054,558.156 527.673,531.279 558.742,532.141C566.698,532.362 574.682,533.335 582.536,531.534C590.628,529.679 597.855,525.369 605.396,522.071C618.036,516.54 631.505,513.261 644.583,508.974C656.726,504.991 668.968,500.106 678.732,491.629C690.107,481.753 694.571,468.04 701.01,454.925C713.729,429.018 744.506,413.34 749.432,383.484C749.673,382.02 747.956,380.976 747.659,382.79C743.039,410.995 714.084,426.298 701.378,450.343C693.987,464.329 689.984,479.661 677.481,490.292C666.789,499.384 653.244,504.23 640.047,508.406C626.388,512.73 612.672,516.577 599.679,522.717C591.478,526.593 583.521,530.246 574.286,530.588C565.545,530.912 556.791,529.277 548.076,530.521C534.724,532.429 523.328,540.173 512.629,547.885C506.59,552.239 500.628,556.722 494.248,560.575C487.957,564.374 481.003,566.598 474.616,570.138C460.783,577.807 459.368,596.291 461.426,610.356C464.198,629.296 473.334,646.592 478.858,664.76C479.226,665.97 480.415,664.791 480.149,663.885ZM780.745,492.362C798.12,492.02 815.492,491.029 832.852,490.239C840.933,489.872 849.067,489.426 856.84,492.114C863.58,494.445 869.737,498.619 874.353,504.064C883.947,515.379 883.814,530.697 890.383,543.458C893.465,549.443 898.507,553.966 902.02,559.646C907.363,568.283 908.171,578.727 904.686,588.191C904.437,588.868 905.233,589.918 905.592,588.958C908.15,582.085 908.734,574.696 906.936,567.549C905.077,560.159 900.5,554.872 895.933,548.998C885.766,535.919 886.78,518.124 877.078,504.866C868.377,492.975 854.847,487.72 840.435,487.966C820.571,488.304 800.521,489.569 780.712,491.034C780.124,491.078 780.153,492.374 780.745,492.362ZM1000,562.397L1000,565.694C996.721,567.533 993.521,569.613 989.913,570.682C989.453,570.818 989.414,570.026 989.644,569.795C992.539,566.897 996.146,564.496 1000,562.397ZM0,562.397C5.071,559.636 10.57,557.4 15.443,555.25C24.64,551.194 34.174,547.905 43.882,545.305C60.608,540.827 77.885,538.418 95.203,538.299C104.209,538.237 113.114,538.944 122.049,540.004C131.237,541.095 140.15,541.479 148.035,535.93C159.654,527.753 165.573,513.833 176.663,505.051C182.557,500.383 189.542,497.599 196.834,495.97C204.359,494.289 213.467,492.651 221.129,493.932C221.717,494.031 221.955,495.329 221.307,495.501C217.045,496.634 212.59,496.515 208.218,496.956C202.957,497.488 197.694,498.295 192.621,499.822C184.022,502.411 176.924,507.171 170.946,513.814C162.499,523.199 155.85,535.694 143.684,540.826C135.539,544.261 126.983,542.676 118.485,541.836C109.636,540.961 100.708,540.674 91.821,540.949C73.813,541.504 55.878,544.405 38.634,549.632C30.117,552.214 21.76,555.348 13.632,558.971C9.44,560.84 5.313,562.852 1.26,565.005C0.838,565.229 0.418,565.46 0,565.694L0,562.397ZM215.725,327.009C211.467,345.736 200.801,361.851 188.793,376.521C177.698,390.076 165.98,405.788 149.97,413.658C141.953,417.598 133.957,420.946 126.674,426.22C119.852,431.16 113.749,437.024 107.977,443.137C101.444,450.058 95.258,457.319 89.046,464.527C82.135,472.545 74.931,480.437 68.253,488.628C68.023,488.91 68.228,489.854 68.597,489.463C74.449,483.261 79.938,476.608 85.648,470.261C90.86,464.469 95.975,458.591 101.181,452.794C111.191,441.647 121.863,430.63 134.937,423.066C141.496,419.27 148.758,416.86 155.246,412.941C161.123,409.39 166.141,404.633 170.795,399.627C180.1,389.62 189.163,379.141 197.221,368.096C206.203,355.784 213.475,342.386 216.699,327.39C216.872,326.586 215.947,326.03 215.725,327.009ZM276.757,146.849C299.727,158.861 326.925,175.249 332.904,202.641C339.341,232.131 314.466,256.329 312.079,284.735C310.771,300.293 316.13,315.291 319.815,330.164C324.051,347.264 326.636,364.769 327.507,382.365C327.909,390.473 327.113,398.789 327.892,406.847C328.439,412.504 331.273,416.226 335.935,419.35C349.943,428.737 364.921,436.921 379.363,445.625C387.836,450.731 396.309,455.838 404.782,460.944C412.434,465.555 420.033,470.885 428.369,474.203C443.352,480.165 461.541,475.29 475.052,485.195C475.992,485.883 476.424,483.851 475.718,483.323C465.06,475.345 451.604,476.64 439.114,474.707C430.894,473.435 423.823,469.921 416.749,465.695C409.187,461.178 401.662,456.598 394.119,452.049C378.871,442.853 363.624,433.656 348.363,424.481C340.033,419.474 329.593,415.572 329.214,404.453C328.919,395.81 329.267,387.191 328.7,378.542C327.621,362.044 325.079,345.641 321.073,329.599C316.942,313.052 310.943,296.343 314.226,279.079C319.241,252.703 340.611,229.569 334.046,201.395C327.751,174.385 300.392,156.884 276.893,145.979C276.502,145.798 276.431,146.679 276.757,146.849ZM507.795,406.927C533.465,379.255 561.081,353.571 591.292,330.899C598.67,325.362 606.316,320.021 614.886,316.485C623.994,312.724 633.816,311.866 643.344,309.689C660.402,305.791 675.448,296.605 689.856,287.018C704.585,277.216 720.513,263.822 739.083,263.474C757.703,263.125 773.624,275.49 787.706,286.18C803.631,298.271 819.758,310.142 835.434,322.555C849.402,333.615 862.31,345.619 872.336,360.45C889.121,385.28 901.254,417.926 931.072,429.962C931.66,430.199 931.789,428.89 931.273,428.676C903.185,416.998 890.881,386.611 875.408,362.679C855.238,331.482 822.876,310.781 793.969,288.425C780.4,277.931 766.216,265.509 748.953,261.862C731.243,258.121 715.875,266.855 701.612,276.329C686.547,286.336 671.705,297.264 654.649,303.693C645.194,307.257 635.319,308.438 625.525,310.644C616.941,312.577 609.116,316.094 601.729,320.846C584.677,331.817 568.979,345.523 553.864,358.979C537.482,373.564 521.754,388.882 507.079,405.19C506.538,405.791 507.062,407.718 507.795,406.927ZM808.31,169.479C832.913,184.691 863.039,177.251 889.854,184.353C893.079,185.207 896.474,186.147 899.314,187.948C903.897,190.855 904.56,196.003 905.549,200.889C907.324,209.657 909.181,218.388 911.164,227.11C913.147,235.833 914.03,244.023 913.646,252.961C913.342,260.011 914.123,267.002 916.179,273.765C920.956,289.48 930.804,303.042 940.531,316.032C941.296,317.055 942.002,315.23 941.473,314.517C931.981,301.74 922.143,288.496 917.301,273.141C914.556,264.438 914.559,256.269 914.771,247.263C914.959,239.27 912.9,231.544 911.631,223.707C910.198,214.851 908.376,206.033 906.53,197.254C905.396,191.866 903.764,187.482 898.629,184.816C886.578,178.558 870.868,178.583 857.656,178.019C840.863,177.301 823.57,176.634 808.715,167.862C808.062,167.477 807.768,169.144 808.31,169.479ZM1000,267.914L1000,270.436C996.583,271.364 993.238,272.619 989.991,274.312C989.019,274.819 988.69,272.559 989.534,272.1C992.928,270.257 996.426,268.905 1000,267.914ZM0,267.914C13.291,264.229 27.612,265.559 41.437,265.291C49.855,265.129 58.298,264.38 66.304,261.615C74.364,258.83 81.715,254.389 88.979,250.002C102.701,241.717 116.98,234.59 132.983,232.085C140.696,230.879 148.62,230.835 156.298,232.325C164.313,233.881 170.969,237.81 178.448,240.775C187.799,244.482 197.089,242.185 206.54,240.186C216.086,238.166 225.63,236.138 235.18,234.14C236.328,233.899 236.472,236.656 235.248,236.912C224.432,239.175 213.613,241.427 202.786,243.641C193.335,245.572 184.823,246.368 175.81,242.422C167.921,238.969 160.757,235.465 152.06,234.428C144.072,233.476 135.937,234.115 128.087,235.794C111.103,239.427 96.98,248.331 82.127,256.812C75.237,260.746 68.091,264.194 60.32,265.973C52.797,267.695 45.047,267.971 37.359,267.968C24.891,267.962 12.014,267.173 0,270.436L0,267.914ZM406.534,252.827C412.535,248.629 417.667,243.028 423.366,238.4C429.547,233.38 435.937,228.62 442.558,224.197C454.995,215.887 468.16,208.771 481.891,202.847C489.021,199.77 496.263,196.913 503.001,193.018C509.074,189.507 514.72,185.28 520.957,182.049C528.325,178.232 535.549,177.172 543.756,177.588C550.654,177.937 557.338,178.131 563.89,175.658C576.75,170.804 586.655,159.128 594.457,148.254C594.875,147.672 594.255,145.804 593.577,146.619C585.102,156.807 576.872,168.153 564.131,173.296C556.504,176.375 548.895,175.532 540.89,175.332C533.856,175.158 527.54,176.527 521.257,179.696C515.219,182.741 509.764,186.788 503.994,190.285C497.129,194.444 489.725,197.489 482.382,200.678C468.649,206.641 455.416,213.734 442.915,221.98C436.419,226.266 430.103,230.838 424.042,235.721C417.858,240.703 411.062,245.875 406.192,252.191C406.017,252.418 406.184,253.072 406.534,252.827ZM883.342,0C867.397,27.387 851.359,54.722 835.353,82.074C831.728,88.268 828.176,94.51 824.473,100.658C821.757,105.169 818.824,109.033 814.329,111.869C809.11,115.162 803.281,117.417 797.998,120.631C793.217,123.542 788.666,126.824 784.382,130.425C774.972,138.334 766.888,147.766 760.514,158.275C755.111,167.184 752.302,178.429 745.264,186.252C741.382,190.568 736.326,192.569 730.983,194.514C725.404,196.545 720.709,198.969 716.318,203.061C712.765,206.371 709.245,209.933 704.407,211.213C699.323,212.559 694.083,211.168 689.596,208.668C679.555,203.074 674.331,192.671 666.267,184.935C661.272,180.143 655.629,177.952 649.18,175.89C644.384,174.356 639.841,172.695 636.076,169.233C635.66,168.85 635.942,167.509 636.513,168.007C641.677,172.524 648.196,173.506 654.49,175.604C660.015,177.445 664.552,180.449 668.602,184.636C677.48,193.815 684.779,208.532 699.165,209.474C706.149,209.932 710.794,205.545 715.518,201.12C719.23,197.644 722.914,195.195 727.664,193.344C733.223,191.177 739.069,189.624 743.43,185.293C747.558,181.192 749.856,175.672 752.193,170.453C760.942,150.908 774.449,134.095 792.204,121.991C801.531,115.632 814.514,112.298 821.155,102.828C829.068,91.543 835.359,78.765 842.296,66.857C855.281,44.565 868.247,22.263 881.276,0L883.342,0ZM0,83.957C4.515,84.169 9.041,84.287 13.427,85.462C26.235,88.894 34.48,100.8 48.087,102.533C61.798,104.28 75.204,98.821 88.841,98.511C104.025,98.166 117.998,103.897 133.177,99.871C140.148,98.023 146.845,95.353 153.933,93.922C160.628,92.571 167.451,91.997 174.273,91.846C182.398,91.666 190.518,92.09 198.624,92.604C204.083,92.95 210.285,92.864 215.202,95.646C220.021,98.373 222.387,103.399 224.303,108.351C226.79,114.775 229.013,121.315 231.261,127.826C236.3,142.421 240.824,157.172 245.045,172.024C245.21,172.605 244.454,173.367 244.215,172.586C239.182,156.157 233.772,139.828 228.063,123.621C225.564,116.527 223.649,107.715 219.004,101.692C213.476,94.524 203.074,95.169 194.938,94.631C180.14,93.654 165.048,93.207 150.528,96.753C143.607,98.443 136.987,101.226 130.003,102.677C123.475,104.033 116.994,103.728 110.424,102.811C103.262,101.812 96.16,100.295 88.889,100.449C82.529,100.584 76.261,101.802 70.011,102.871C57.606,104.994 45.547,106.235 34.325,99.484C28.691,96.094 23.726,91.574 17.696,88.849C12.065,86.305 6.035,86.094 0,85.752L0,83.957ZM622.271,109.582C621.01,95.12 611.872,79.831 603.101,68.647C598.274,62.491 592.78,56.85 586.708,51.916C580.286,46.699 573.396,41.832 564.866,41.451C554.901,41.006 545.223,41.562 535.251,40.298C525.453,39.055 515.704,37.287 505.836,36.637C490.203,35.609 473.25,37.522 460.712,47.771C452.99,54.083 447.549,62.673 440.139,69.327C432.124,76.523 422.896,81.52 412.896,85.356C412.457,85.525 412.591,86.612 413.121,86.443C428.793,81.456 440.716,71.174 451.355,59.024C457.07,52.497 463.058,46.642 471.131,43.119C478.555,39.88 486.673,38.533 494.729,38.245C512.794,37.6 530.412,42.584 548.37,43.572C557.535,44.076 567.035,42.037 575.513,46.45C582.846,50.266 589.469,56.244 595.173,62.157C601.582,68.8 607.083,76.322 611.533,84.406C616.031,92.579 618.204,101.301 621.846,109.77C621.987,110.097 622.295,109.858 622.271,109.582ZM1000,85.752C999.1,85.701 998.199,85.647 997.299,85.582C987.129,84.846 978.896,81.274 971.652,74.094C958.136,60.699 950.818,40.591 932.634,32.34C932.122,32.107 932.265,30.795 932.834,31.054C953.287,40.335 959.981,64.297 977.415,77.093C982.277,80.663 987.697,82.738 993.679,83.479C995.773,83.738 997.885,83.858 1000,83.957L1000,85.752ZM340.036,0C334.169,10.757 328.353,22.244 329.014,34.674C329.707,47.687 338.786,60.099 335.141,73.302C334.832,74.423 333.905,73.324 333.999,72.608C335.926,57.833 326.49,44.774 327.637,29.994C328.473,19.242 333.27,9.395 338.344,0L340.036,0ZM684.939,0C672.848,13.312 672.844,32.941 673.034,49.982C673.047,51.16 671.805,51.188 671.777,50.012C671.374,33.073 671.382,13.818 682.656,0L684.939,0Z" style="fill-rule:nonzero;"/>
</svg>
